<?xml version="1.0" encoding="UTF-8" standalone="no"?>
<!DOCTYPE svg PUBLIC "-//W3C//DTD SVG 1.1//EN"
 "http://www.w3.org/Graphics/SVG/1.1/DTD/svg11.dtd">
<!-- Generated by graphviz version 2.38.0 (20140413.2041)
 -->
<!-- Title: inheritance572350b83d Pages: 1 -->
<svg width="576pt" height="49pt"
 viewBox="0.00 0.00 576.00 48.76" xmlns="http://www.w3.org/2000/svg" xmlns:xlink="http://www.w3.org/1999/xlink">
<g id="graph0" class="graph" transform="scale(0.761905 0.761905) rotate(0) translate(4 60)">
<title>inheritance572350b83d</title>
<polygon fill="white" stroke="none" points="-4,4 -4,-60 752,-60 752,4 -4,4"/>
<!-- Base.Executable.Executable -->
<g id="node1" class="node"><title>Base.Executable.Executable</title>
<g id="a_node1"><a xlink:href="../Base.Executable.html#Base.Executable.Executable" xlink:title="Represent an executable." target="_top">
<polygon fill="none" stroke="black" stroke-width="0.5" points="294,-19 151,-19 151,-0 294,-0 294,-19"/>
<text text-anchor="middle" x="222.5" y="-7" font-family="Vera Sans, DejaVu Sans, Liberation Sans, Arial, Helvetica, sans" font-size="10.00">Base.Executable.Executable</text>
</a>
</g>
</g>
<!-- ToolChain.OutputFilteredExecutable -->
<g id="node4" class="node"><title>ToolChain.OutputFilteredExecutable</title>
<polygon fill="none" stroke="black" stroke-width="0.5" points="503,-19 330,-19 330,-0 503,-0 503,-19"/>
<text text-anchor="middle" x="416.5" y="-7" font-family="Vera Sans, DejaVu Sans, Liberation Sans, Arial, Helvetica, sans" font-size="10.00">ToolChain.OutputFilteredExecutable</text>
</g>
<!-- Base.Executable.Executable&#45;&gt;ToolChain.OutputFilteredExecutable -->
<g id="edge4" class="edge"><title>Base.Executable.Executable&#45;&gt;ToolChain.OutputFilteredExecutable</title>
<path fill="none" stroke="black" stroke-width="0.5" d="M294.176,-9.5C304.192,-9.5 314.604,-9.5 324.931,-9.5"/>
<polygon fill="black" stroke="black" stroke-width="0.5" points="324.993,-11.2501 329.993,-9.5 324.992,-7.7501 324.993,-11.2501"/>
</g>
<!-- Base.Logging.ILogable -->
<g id="node2" class="node"><title>Base.Logging.ILogable</title>
<g id="a_node2"><a xlink:href="../Base.Logging.html#Base.Logging.ILogable" xlink:title="A mixin class to provide local logging methods." target="_top">
<polygon fill="none" stroke="black" stroke-width="0.5" points="115,-19 0,-19 0,-0 115,-0 115,-19"/>
<text text-anchor="middle" x="57.5" y="-7" font-family="Vera Sans, DejaVu Sans, Liberation Sans, Arial, Helvetica, sans" font-size="10.00">Base.Logging.ILogable</text>
</a>
</g>
</g>
<!-- Base.Logging.ILogable&#45;&gt;Base.Executable.Executable -->
<g id="edge1" class="edge"><title>Base.Logging.ILogable&#45;&gt;Base.Executable.Executable</title>
<path fill="none" stroke="black" stroke-width="0.5" d="M115.052,-9.5C125.008,-9.5 135.515,-9.5 145.893,-9.5"/>
<polygon fill="black" stroke="black" stroke-width="0.5" points="145.974,-11.2501 150.974,-9.5 145.974,-7.7501 145.974,-11.2501"/>
</g>
<!-- ToolChain.Mentor.ModelSim.VHDLSimulator -->
<g id="node3" class="node"><title>ToolChain.Mentor.ModelSim.VHDLSimulator</title>
<g id="a_node3"><a xlink:href="../PyInfrastructure/ToolChain.Mentor.ModelSim.html#ToolChain.Mentor.ModelSim.VHDLSimulator" xlink:title="ToolChain.Mentor.ModelSim.VHDLSimulator" target="_top">
<polygon fill="none" stroke="black" stroke-width="0.5" points="748,-37 539,-37 539,-18 748,-18 748,-37"/>
<text text-anchor="middle" x="643.5" y="-25" font-family="Vera Sans, DejaVu Sans, Liberation Sans, Arial, Helvetica, sans" font-size="10.00">ToolChain.Mentor.ModelSim.VHDLSimulator</text>
</a>
</g>
</g>
<!-- ToolChain.OutputFilteredExecutable&#45;&gt;ToolChain.Mentor.ModelSim.VHDLSimulator -->
<g id="edge2" class="edge"><title>ToolChain.OutputFilteredExecutable&#45;&gt;ToolChain.Mentor.ModelSim.VHDLSimulator</title>
<path fill="none" stroke="black" stroke-width="0.5" d="M503.205,-16.3564C513.237,-17.1589 523.571,-17.9857 533.862,-18.8089"/>
<polygon fill="black" stroke="black" stroke-width="0.5" points="533.785,-20.5583 538.909,-19.2127 534.064,-17.0694 533.785,-20.5583"/>
</g>
<!-- ToolChain.ToolMixIn -->
<g id="node5" class="node"><title>ToolChain.ToolMixIn</title>
<g id="a_node5"><a xlink:href="../ToolChain.html#ToolChain.ToolMixIn" xlink:title="ToolChain.ToolMixIn" target="_top">
<polygon fill="none" stroke="black" stroke-width="0.5" points="468.5,-56 364.5,-56 364.5,-37 468.5,-37 468.5,-56"/>
<text text-anchor="middle" x="416.5" y="-44" font-family="Vera Sans, DejaVu Sans, Liberation Sans, Arial, Helvetica, sans" font-size="10.00">ToolChain.ToolMixIn</text>
</a>
</g>
</g>
<!-- ToolChain.ToolMixIn&#45;&gt;ToolChain.Mentor.ModelSim.VHDLSimulator -->
<g id="edge3" class="edge"><title>ToolChain.ToolMixIn&#45;&gt;ToolChain.Mentor.ModelSim.VHDLSimulator</title>
<path fill="none" stroke="black" stroke-width="0.5" d="M468.556,-42.1886C487.963,-40.5498 510.889,-38.6138 533.618,-36.6945"/>
<polygon fill="black" stroke="black" stroke-width="0.5" points="533.935,-38.424 538.77,-36.2594 533.64,-34.9364 533.935,-38.424"/>
</g>
</g>
</svg>
