<?xml version="1.0" encoding="UTF-8" standalone="no"?>
<!DOCTYPE svg PUBLIC "-//W3C//DTD SVG 1.1//EN"
 "http://www.w3.org/Graphics/SVG/1.1/DTD/svg11.dtd">
<!-- Generated by graphviz version 2.38.0 (20140413.2041)
 -->
<!-- Title: inheritanceeaa3897e44 Pages: 1 -->
<svg width="507pt" height="27pt"
 viewBox="0.00 0.00 507.00 27.00" xmlns="http://www.w3.org/2000/svg" xmlns:xlink="http://www.w3.org/1999/xlink">
<g id="graph0" class="graph" transform="scale(1 1) rotate(0) translate(4 23)">
<title>inheritanceeaa3897e44</title>
<polygon fill="white" stroke="none" points="-4,4 -4,-23 503,-23 503,4 -4,4"/>
<!-- DataBase.Entity.PathElement -->
<g id="node1" class="node"><title>DataBase.Entity.PathElement</title>
<g id="a_node1"><a xlink:href="../PyInfrastructure/DataBase.Entity.html#DataBase.Entity.PathElement" xlink:title="DataBase.Entity.PathElement" target="_top">
<polygon fill="none" stroke="black" stroke-width="0.5" points="147,-19 0,-19 0,-0 147,-0 147,-19"/>
<text text-anchor="middle" x="73.5" y="-7" font-family="Vera Sans, DejaVu Sans, Liberation Sans, Arial, Helvetica, sans" font-size="10.00">DataBase.Entity.PathElement</text>
</a>
</g>
</g>
<!-- DataBase.Entity.WildCard -->
<g id="node3" class="node"><title>DataBase.Entity.WildCard</title>
<g id="a_node3"><a xlink:href="../PyInfrastructure/DataBase.Entity.html#DataBase.Entity.WildCard" xlink:title="DataBase.Entity.WildCard" target="_top">
<polygon fill="none" stroke="black" stroke-width="0.5" points="314,-19 183,-19 183,-0 314,-0 314,-19"/>
<text text-anchor="middle" x="248.5" y="-7" font-family="Vera Sans, DejaVu Sans, Liberation Sans, Arial, Helvetica, sans" font-size="10.00">DataBase.Entity.WildCard</text>
</a>
</g>
</g>
<!-- DataBase.Entity.PathElement&#45;&gt;DataBase.Entity.WildCard -->
<g id="edge2" class="edge"><title>DataBase.Entity.PathElement&#45;&gt;DataBase.Entity.WildCard</title>
<path fill="none" stroke="black" stroke-width="0.5" d="M147.116,-9.5C157.195,-9.5 167.532,-9.5 177.56,-9.5"/>
<polygon fill="black" stroke="black" stroke-width="0.5" points="177.774,-11.2501 182.774,-9.5 177.774,-7.7501 177.774,-11.2501"/>
</g>
<!-- DataBase.Entity.StarWildCard -->
<g id="node2" class="node"><title>DataBase.Entity.StarWildCard</title>
<g id="a_node2"><a xlink:href="../PyInfrastructure/DataBase.Entity.html#DataBase.Entity.StarWildCard" xlink:title="DataBase.Entity.StarWildCard" target="_top">
<polygon fill="none" stroke="black" stroke-width="0.5" points="499,-19 350,-19 350,-0 499,-0 499,-19"/>
<text text-anchor="middle" x="424.5" y="-7" font-family="Vera Sans, DejaVu Sans, Liberation Sans, Arial, Helvetica, sans" font-size="10.00">DataBase.Entity.StarWildCard</text>
</a>
</g>
</g>
<!-- DataBase.Entity.WildCard&#45;&gt;DataBase.Entity.StarWildCard -->
<g id="edge1" class="edge"><title>DataBase.Entity.WildCard&#45;&gt;DataBase.Entity.StarWildCard</title>
<path fill="none" stroke="black" stroke-width="0.5" d="M314.291,-9.5C324.255,-9.5 334.636,-9.5 344.861,-9.5"/>
<polygon fill="black" stroke="black" stroke-width="0.5" points="344.866,-11.2501 349.866,-9.5 344.866,-7.7501 344.866,-11.2501"/>
</g>
</g>
</svg>
