<?xml version="1.0" encoding="UTF-8" standalone="no"?>
<!DOCTYPE svg PUBLIC "-//W3C//DTD SVG 1.1//EN"
 "http://www.w3.org/Graphics/SVG/1.1/DTD/svg11.dtd">
<!-- Generated by graphviz version 2.38.0 (20140413.2041)
 -->
<!-- Title: inheritanced4ead17d1f Pages: 1 -->
<svg width="486pt" height="27pt"
 viewBox="0.00 0.00 486.00 27.00" xmlns="http://www.w3.org/2000/svg" xmlns:xlink="http://www.w3.org/1999/xlink">
<g id="graph0" class="graph" transform="scale(1 1) rotate(0) translate(4 23)">
<title>inheritanced4ead17d1f</title>
<polygon fill="white" stroke="none" points="-4,4 -4,-23 482,-23 482,4 -4,4"/>
<!-- Compiler.DeleteTask -->
<g id="node1" class="node"><title>Compiler.DeleteTask</title>
<g id="a_node1"><a xlink:href="../PyInfrastructure/Compiler.html#Compiler.DeleteTask" xlink:title="This class represents a &#39;delete task&#39; and inherits the partial class" target="_top">
<polygon fill="none" stroke="black" stroke-width="0.5" points="478,-19 371,-19 371,-0 478,-0 478,-19"/>
<text text-anchor="middle" x="424.5" y="-7" font-family="Vera Sans, DejaVu Sans, Liberation Sans, Arial, Helvetica, sans" font-size="10.00">Compiler.DeleteTask</text>
</a>
</g>
</g>
<!-- Parser.RulesParser.DeleteRuleMixIn -->
<g id="node2" class="node"><title>Parser.RulesParser.DeleteRuleMixIn</title>
<g id="a_node2"><a xlink:href="../Parser.RulesParser.html#Parser.RulesParser.DeleteRuleMixIn" xlink:title="A partial class (MixIn) to represent a &#39;delete rule&#39;." target="_top">
<polygon fill="none" stroke="black" stroke-width="0.5" points="335,-19 160,-19 160,-0 335,-0 335,-19"/>
<text text-anchor="middle" x="247.5" y="-7" font-family="Vera Sans, DejaVu Sans, Liberation Sans, Arial, Helvetica, sans" font-size="10.00">Parser.RulesParser.DeleteRuleMixIn</text>
</a>
</g>
</g>
<!-- Parser.RulesParser.DeleteRuleMixIn&#45;&gt;Compiler.DeleteTask -->
<g id="edge1" class="edge"><title>Parser.RulesParser.DeleteRuleMixIn&#45;&gt;Compiler.DeleteTask</title>
<path fill="none" stroke="black" stroke-width="0.5" d="M335.231,-9.5C345.624,-9.5 356.031,-9.5 365.866,-9.5"/>
<polygon fill="black" stroke="black" stroke-width="0.5" points="365.954,-11.2501 370.954,-9.5 365.954,-7.7501 365.954,-11.2501"/>
</g>
<!-- Parser.RulesParser.Rule -->
<g id="node3" class="node"><title>Parser.RulesParser.Rule</title>
<g id="a_node3"><a xlink:href="../Parser.RulesParser.html#Parser.RulesParser.Rule" xlink:title="Base class for all Rule and RuleMixIn classes." target="_top">
<polygon fill="none" stroke="black" stroke-width="0.5" points="124,-19 0,-19 0,-0 124,-0 124,-19"/>
<text text-anchor="middle" x="62" y="-7" font-family="Vera Sans, DejaVu Sans, Liberation Sans, Arial, Helvetica, sans" font-size="10.00">Parser.RulesParser.Rule</text>
</a>
</g>
</g>
<!-- Parser.RulesParser.Rule&#45;&gt;Parser.RulesParser.DeleteRuleMixIn -->
<g id="edge2" class="edge"><title>Parser.RulesParser.Rule&#45;&gt;Parser.RulesParser.DeleteRuleMixIn</title>
<path fill="none" stroke="black" stroke-width="0.5" d="M124.103,-9.5C133.959,-9.5 144.347,-9.5 154.736,-9.5"/>
<polygon fill="black" stroke="black" stroke-width="0.5" points="154.834,-11.2501 159.834,-9.5 154.834,-7.7501 154.834,-11.2501"/>
</g>
</g>
</svg>
