<?xml version="1.0" encoding="UTF-8" standalone="no"?>
<!DOCTYPE svg PUBLIC "-//W3C//DTD SVG 1.1//EN"
 "http://www.w3.org/Graphics/SVG/1.1/DTD/svg11.dtd">
<!-- Generated by graphviz version 2.38.0 (20140413.2041)
 -->
<!-- Title: inheritance22a884547a Pages: 1 -->
<svg width="576pt" height="21pt"
 viewBox="0.00 0.00 576.00 20.88" xmlns="http://www.w3.org/2000/svg" xmlns:xlink="http://www.w3.org/1999/xlink">
<g id="graph0" class="graph" transform="scale(0.773154 0.773154) rotate(0) translate(4 23)">
<title>inheritance22a884547a</title>
<polygon fill="white" stroke="none" points="-4,4 -4,-23 741,-23 741,4 -4,4"/>
<!-- Base.Exceptions.ExceptionBase -->
<g id="node1" class="node"><title>Base.Exceptions.ExceptionBase</title>
<g id="a_node1"><a xlink:href="../Base.Exceptions.html#Base.Exceptions.ExceptionBase" xlink:title="Base exception derived from :py:exc:`Exception` for all" target="_top">
<polygon fill="none" stroke="black" stroke-width="0.5" points="160,-19 0,-19 0,-0 160,-0 160,-19"/>
<text text-anchor="middle" x="80" y="-7" font-family="Vera Sans, DejaVu Sans, Liberation Sans, Arial, Helvetica, sans" font-size="10.00">Base.Exceptions.ExceptionBase</text>
</a>
</g>
</g>
<!-- ToolChain.ToolChainException -->
<g id="node2" class="node"><title>ToolChain.ToolChainException</title>
<g id="a_node2"><a xlink:href="../ToolChain.html#ToolChain.ToolChainException" xlink:title="Base class for all tool specific exceptions" target="_top">
<polygon fill="none" stroke="black" stroke-width="0.5" points="345,-19 196,-19 196,-0 345,-0 345,-19"/>
<text text-anchor="middle" x="270.5" y="-7" font-family="Vera Sans, DejaVu Sans, Liberation Sans, Arial, Helvetica, sans" font-size="10.00">ToolChain.ToolChainException</text>
</a>
</g>
</g>
<!-- Base.Exceptions.ExceptionBase&#45;&gt;ToolChain.ToolChainException -->
<g id="edge1" class="edge"><title>Base.Exceptions.ExceptionBase&#45;&gt;ToolChain.ToolChainException</title>
<path fill="none" stroke="black" stroke-width="0.5" d="M160.122,-9.5C170.246,-9.5 180.609,-9.5 190.727,-9.5"/>
<polygon fill="black" stroke="black" stroke-width="0.5" points="190.994,-11.2501 195.994,-9.5 190.994,-7.75009 190.994,-11.2501"/>
</g>
<!-- ToolChain.Xilinx.XilinxException -->
<g id="node4" class="node"><title>ToolChain.Xilinx.XilinxException</title>
<g id="a_node4"><a xlink:href="../ToolChain.Xilinx.html#ToolChain.Xilinx.XilinxException" xlink:title="ToolChain.Xilinx.XilinxException" target="_top">
<polygon fill="none" stroke="black" stroke-width="0.5" points="535,-19 381,-19 381,-0 535,-0 535,-19"/>
<text text-anchor="middle" x="458" y="-7" font-family="Vera Sans, DejaVu Sans, Liberation Sans, Arial, Helvetica, sans" font-size="10.00">ToolChain.Xilinx.XilinxException</text>
</a>
</g>
</g>
<!-- ToolChain.ToolChainException&#45;&gt;ToolChain.Xilinx.XilinxException -->
<g id="edge3" class="edge"><title>ToolChain.ToolChainException&#45;&gt;ToolChain.Xilinx.XilinxException</title>
<path fill="none" stroke="black" stroke-width="0.5" d="M345.081,-9.5C355.073,-9.5 365.375,-9.5 375.496,-9.5"/>
<polygon fill="black" stroke="black" stroke-width="0.5" points="375.77,-11.2501 380.77,-9.5 375.77,-7.75009 375.77,-11.2501"/>
</g>
<!-- ToolChain.Xilinx.ISE.ISEException -->
<g id="node3" class="node"><title>ToolChain.Xilinx.ISE.ISEException</title>
<g id="a_node3"><a xlink:href="../PyInfrastructure/ToolChain.Xilinx.ISE.html#ToolChain.Xilinx.ISE.ISEException" xlink:title="ToolChain.Xilinx.ISE.ISEException" target="_top">
<polygon fill="none" stroke="black" stroke-width="0.5" points="737,-19 571,-19 571,-0 737,-0 737,-19"/>
<text text-anchor="middle" x="654" y="-7" font-family="Vera Sans, DejaVu Sans, Liberation Sans, Arial, Helvetica, sans" font-size="10.00">ToolChain.Xilinx.ISE.ISEException</text>
</a>
</g>
</g>
<!-- ToolChain.Xilinx.XilinxException&#45;&gt;ToolChain.Xilinx.ISE.ISEException -->
<g id="edge2" class="edge"><title>ToolChain.Xilinx.XilinxException&#45;&gt;ToolChain.Xilinx.ISE.ISEException</title>
<path fill="none" stroke="black" stroke-width="0.5" d="M535.117,-9.5C545.061,-9.5 555.312,-9.5 565.424,-9.5"/>
<polygon fill="black" stroke="black" stroke-width="0.5" points="565.698,-11.2501 570.698,-9.5 565.698,-7.75009 565.698,-11.2501"/>
</g>
</g>
</svg>
