<?xml version="1.0" encoding="UTF-8" standalone="no"?>
<!DOCTYPE svg PUBLIC "-//W3C//DTD SVG 1.1//EN"
 "http://www.w3.org/Graphics/SVG/1.1/DTD/svg11.dtd">
<!-- Generated by graphviz version 2.38.0 (20140413.2041)
 -->
<!-- Title: inheritanceeaf4de61db Pages: 1 -->
<svg width="576pt" height="18pt"
 viewBox="0.00 0.00 576.00 17.73" xmlns="http://www.w3.org/2000/svg" xmlns:xlink="http://www.w3.org/1999/xlink">
<g id="graph0" class="graph" transform="scale(0.656784 0.656784) rotate(0) translate(4 23)">
<title>inheritanceeaf4de61db</title>
<polygon fill="white" stroke="none" points="-4,4 -4,-23 873,-23 873,4 -4,4"/>
<!-- lib.CodeDOM.BinaryExpression -->
<g id="node1" class="node"><title>lib.CodeDOM.BinaryExpression</title>
<g id="a_node1"><a xlink:href="../PyInfrastructure/lib.CodeDOM.html#lib.CodeDOM.BinaryExpression" xlink:title="lib.CodeDOM.BinaryExpression" target="_top">
<polygon fill="none" stroke="black" stroke-width="0.5" points="503,-19 349,-19 349,-0 503,-0 503,-19"/>
<text text-anchor="middle" x="426" y="-7" font-family="Vera Sans, DejaVu Sans, Liberation Sans, Arial, Helvetica, sans" font-size="10.00">lib.CodeDOM.BinaryExpression</text>
</a>
</g>
</g>
<!-- lib.CodeDOM.LogicalExpression -->
<g id="node4" class="node"><title>lib.CodeDOM.LogicalExpression</title>
<g id="a_node4"><a xlink:href="../PyInfrastructure/lib.CodeDOM.html#lib.CodeDOM.LogicalExpression" xlink:title="lib.CodeDOM.LogicalExpression" target="_top">
<polygon fill="none" stroke="black" stroke-width="0.5" points="696,-19 539,-19 539,-0 696,-0 696,-19"/>
<text text-anchor="middle" x="617.5" y="-7" font-family="Vera Sans, DejaVu Sans, Liberation Sans, Arial, Helvetica, sans" font-size="10.00">lib.CodeDOM.LogicalExpression</text>
</a>
</g>
</g>
<!-- lib.CodeDOM.BinaryExpression&#45;&gt;lib.CodeDOM.LogicalExpression -->
<g id="edge3" class="edge"><title>lib.CodeDOM.BinaryExpression&#45;&gt;lib.CodeDOM.LogicalExpression</title>
<path fill="none" stroke="black" stroke-width="0.5" d="M503.258,-9.5C513.242,-9.5 523.511,-9.5 533.598,-9.5"/>
<polygon fill="black" stroke="black" stroke-width="0.5" points="533.854,-11.2501 538.854,-9.5 533.854,-7.7501 533.854,-11.2501"/>
</g>
<!-- lib.CodeDOM.Expression -->
<g id="node2" class="node"><title>lib.CodeDOM.Expression</title>
<g id="a_node2"><a xlink:href="../PyInfrastructure/lib.CodeDOM.html#lib.CodeDOM.Expression" xlink:title="lib.CodeDOM.Expression" target="_top">
<polygon fill="none" stroke="black" stroke-width="0.5" points="313,-19 187,-19 187,-0 313,-0 313,-19"/>
<text text-anchor="middle" x="250" y="-7" font-family="Vera Sans, DejaVu Sans, Liberation Sans, Arial, Helvetica, sans" font-size="10.00">lib.CodeDOM.Expression</text>
</a>
</g>
</g>
<!-- lib.CodeDOM.Expression&#45;&gt;lib.CodeDOM.BinaryExpression -->
<g id="edge1" class="edge"><title>lib.CodeDOM.Expression&#45;&gt;lib.CodeDOM.BinaryExpression</title>
<path fill="none" stroke="black" stroke-width="0.5" d="M313.327,-9.5C323.215,-9.5 333.567,-9.5 343.812,-9.5"/>
<polygon fill="black" stroke="black" stroke-width="0.5" points="343.829,-11.2501 348.829,-9.5 343.829,-7.7501 343.829,-11.2501"/>
</g>
<!-- lib.CodeDOM.CodeDOMObject -->
<g id="node3" class="node"><title>lib.CodeDOM.CodeDOMObject</title>
<g id="a_node3"><a xlink:href="../PyInfrastructure/lib.CodeDOM.html#lib.CodeDOM.CodeDOMObject" xlink:title="lib.CodeDOM.CodeDOMObject" target="_top">
<polygon fill="none" stroke="black" stroke-width="0.5" points="151,-19 0,-19 0,-0 151,-0 151,-19"/>
<text text-anchor="middle" x="75.5" y="-7" font-family="Vera Sans, DejaVu Sans, Liberation Sans, Arial, Helvetica, sans" font-size="10.00">lib.CodeDOM.CodeDOMObject</text>
</a>
</g>
</g>
<!-- lib.CodeDOM.CodeDOMObject&#45;&gt;lib.CodeDOM.Expression -->
<g id="edge2" class="edge"><title>lib.CodeDOM.CodeDOMObject&#45;&gt;lib.CodeDOM.Expression</title>
<path fill="none" stroke="black" stroke-width="0.5" d="M151.158,-9.5C161.315,-9.5 171.691,-9.5 181.709,-9.5"/>
<polygon fill="black" stroke="black" stroke-width="0.5" points="181.911,-11.2501 186.911,-9.5 181.911,-7.7501 181.911,-11.2501"/>
</g>
<!-- lib.CodeDOM.OrExpression -->
<g id="node5" class="node"><title>lib.CodeDOM.OrExpression</title>
<g id="a_node5"><a xlink:href="../PyInfrastructure/lib.CodeDOM.html#lib.CodeDOM.OrExpression" xlink:title="lib.CodeDOM.OrExpression" target="_top">
<polygon fill="none" stroke="black" stroke-width="0.5" points="869,-19 732,-19 732,-0 869,-0 869,-19"/>
<text text-anchor="middle" x="800.5" y="-7" font-family="Vera Sans, DejaVu Sans, Liberation Sans, Arial, Helvetica, sans" font-size="10.00">lib.CodeDOM.OrExpression</text>
</a>
</g>
</g>
<!-- lib.CodeDOM.LogicalExpression&#45;&gt;lib.CodeDOM.OrExpression -->
<g id="edge4" class="edge"><title>lib.CodeDOM.LogicalExpression&#45;&gt;lib.CodeDOM.OrExpression</title>
<path fill="none" stroke="black" stroke-width="0.5" d="M696.048,-9.5C706.18,-9.5 716.533,-9.5 726.584,-9.5"/>
<polygon fill="black" stroke="black" stroke-width="0.5" points="726.811,-11.2501 731.811,-9.5 726.811,-7.7501 726.811,-11.2501"/>
</g>
</g>
</svg>
