<?xml version="1.0" encoding="UTF-8" standalone="no"?>
<!DOCTYPE svg PUBLIC "-//W3C//DTD SVG 1.1//EN"
 "http://www.w3.org/Graphics/SVG/1.1/DTD/svg11.dtd">
<!-- Generated by graphviz version 2.38.0 (20140413.2041)
 -->
<!-- Title: inheritance6b2e6e2c90 Pages: 1 -->
<svg width="486pt" height="27pt"
 viewBox="0.00 0.00 486.00 27.00" xmlns="http://www.w3.org/2000/svg" xmlns:xlink="http://www.w3.org/1999/xlink">
<g id="graph0" class="graph" transform="scale(1 1) rotate(0) translate(4 23)">
<title>inheritance6b2e6e2c90</title>
<polygon fill="white" stroke="none" points="-4,4 -4,-23 482,-23 482,4 -4,4"/>
<!-- lib.CodeDOM.CodeDOMObject -->
<g id="node1" class="node"><title>lib.CodeDOM.CodeDOMObject</title>
<g id="a_node1"><a xlink:href="../PyInfrastructure/lib.CodeDOM.html#lib.CodeDOM.CodeDOMObject" xlink:title="lib.CodeDOM.CodeDOMObject" target="_top">
<polygon fill="none" stroke="black" stroke-width="0.5" points="151,-19 0,-19 0,-0 151,-0 151,-19"/>
<text text-anchor="middle" x="75.5" y="-7" font-family="Vera Sans, DejaVu Sans, Liberation Sans, Arial, Helvetica, sans" font-size="10.00">lib.CodeDOM.CodeDOMObject</text>
</a>
</g>
</g>
<!-- lib.CodeDOM.Expression -->
<g id="node2" class="node"><title>lib.CodeDOM.Expression</title>
<g id="a_node2"><a xlink:href="../PyInfrastructure/lib.CodeDOM.html#lib.CodeDOM.Expression" xlink:title="lib.CodeDOM.Expression" target="_top">
<polygon fill="none" stroke="black" stroke-width="0.5" points="313,-19 187,-19 187,-0 313,-0 313,-19"/>
<text text-anchor="middle" x="250" y="-7" font-family="Vera Sans, DejaVu Sans, Liberation Sans, Arial, Helvetica, sans" font-size="10.00">lib.CodeDOM.Expression</text>
</a>
</g>
</g>
<!-- lib.CodeDOM.CodeDOMObject&#45;&gt;lib.CodeDOM.Expression -->
<g id="edge1" class="edge"><title>lib.CodeDOM.CodeDOMObject&#45;&gt;lib.CodeDOM.Expression</title>
<path fill="none" stroke="black" stroke-width="0.5" d="M151.158,-9.5C161.315,-9.5 171.691,-9.5 181.709,-9.5"/>
<polygon fill="black" stroke="black" stroke-width="0.5" points="181.911,-11.2501 186.911,-9.5 181.911,-7.7501 181.911,-11.2501"/>
</g>
<!-- lib.CodeDOM.ListElement -->
<g id="node3" class="node"><title>lib.CodeDOM.ListElement</title>
<g id="a_node3"><a xlink:href="../PyInfrastructure/lib.CodeDOM.html#lib.CodeDOM.ListElement" xlink:title="lib.CodeDOM.ListElement" target="_top">
<polygon fill="none" stroke="black" stroke-width="0.5" points="478,-19 349,-19 349,-0 478,-0 478,-19"/>
<text text-anchor="middle" x="413.5" y="-7" font-family="Vera Sans, DejaVu Sans, Liberation Sans, Arial, Helvetica, sans" font-size="10.00">lib.CodeDOM.ListElement</text>
</a>
</g>
</g>
<!-- lib.CodeDOM.Expression&#45;&gt;lib.CodeDOM.ListElement -->
<g id="edge2" class="edge"><title>lib.CodeDOM.Expression&#45;&gt;lib.CodeDOM.ListElement</title>
<path fill="none" stroke="black" stroke-width="0.5" d="M313.44,-9.5C323.342,-9.5 333.631,-9.5 343.67,-9.5"/>
<polygon fill="black" stroke="black" stroke-width="0.5" points="343.893,-11.2501 348.893,-9.5 343.893,-7.7501 343.893,-11.2501"/>
</g>
</g>
</svg>
