<?xml version="1.0" encoding="UTF-8" standalone="no"?>
<!DOCTYPE svg PUBLIC "-//W3C//DTD SVG 1.1//EN"
 "http://www.w3.org/Graphics/SVG/1.1/DTD/svg11.dtd">
<!-- Generated by graphviz version 2.38.0 (20140413.2041)
 -->
<!-- Title: inheritance9c11408ba1 Pages: 1 -->
<svg width="532pt" height="27pt"
 viewBox="0.00 0.00 532.00 27.00" xmlns="http://www.w3.org/2000/svg" xmlns:xlink="http://www.w3.org/1999/xlink">
<g id="graph0" class="graph" transform="scale(1 1) rotate(0) translate(4 23)">
<title>inheritance9c11408ba1</title>
<polygon fill="white" stroke="none" points="-4,4 -4,-23 528,-23 528,4 -4,4"/>
<!-- Compiler.AppendLineTask -->
<g id="node1" class="node"><title>Compiler.AppendLineTask</title>
<g id="a_node1"><a xlink:href="../PyInfrastructure/Compiler.html#Compiler.AppendLineTask" xlink:title="This class represents a &#39;append line task&#39; and inherits the partial class" target="_top">
<polygon fill="none" stroke="black" stroke-width="0.5" points="524,-19 394,-19 394,-0 524,-0 524,-19"/>
<text text-anchor="middle" x="459" y="-7" font-family="Vera Sans, DejaVu Sans, Liberation Sans, Arial, Helvetica, sans" font-size="10.00">Compiler.AppendLineTask</text>
</a>
</g>
</g>
<!-- Parser.RulesParser.AppendLineRuleMixIn -->
<g id="node2" class="node"><title>Parser.RulesParser.AppendLineRuleMixIn</title>
<g id="a_node2"><a xlink:href="../Parser.RulesParser.html#Parser.RulesParser.AppendLineRuleMixIn" xlink:title="A partial class (MixIn) to represent a &#39;append line rule&#39;." target="_top">
<polygon fill="none" stroke="black" stroke-width="0.5" points="358,-19 160,-19 160,-0 358,-0 358,-19"/>
<text text-anchor="middle" x="259" y="-7" font-family="Vera Sans, DejaVu Sans, Liberation Sans, Arial, Helvetica, sans" font-size="10.00">Parser.RulesParser.AppendLineRuleMixIn</text>
</a>
</g>
</g>
<!-- Parser.RulesParser.AppendLineRuleMixIn&#45;&gt;Compiler.AppendLineTask -->
<g id="edge1" class="edge"><title>Parser.RulesParser.AppendLineRuleMixIn&#45;&gt;Compiler.AppendLineTask</title>
<path fill="none" stroke="black" stroke-width="0.5" d="M358.13,-9.5C368.481,-9.5 378.845,-9.5 388.768,-9.5"/>
<polygon fill="black" stroke="black" stroke-width="0.5" points="388.915,-11.2501 393.915,-9.5 388.915,-7.7501 388.915,-11.2501"/>
</g>
<!-- Parser.RulesParser.Rule -->
<g id="node3" class="node"><title>Parser.RulesParser.Rule</title>
<g id="a_node3"><a xlink:href="../Parser.RulesParser.html#Parser.RulesParser.Rule" xlink:title="Base class for all Rule and RuleMixIn classes." target="_top">
<polygon fill="none" stroke="black" stroke-width="0.5" points="124,-19 0,-19 0,-0 124,-0 124,-19"/>
<text text-anchor="middle" x="62" y="-7" font-family="Vera Sans, DejaVu Sans, Liberation Sans, Arial, Helvetica, sans" font-size="10.00">Parser.RulesParser.Rule</text>
</a>
</g>
</g>
<!-- Parser.RulesParser.Rule&#45;&gt;Parser.RulesParser.AppendLineRuleMixIn -->
<g id="edge2" class="edge"><title>Parser.RulesParser.Rule&#45;&gt;Parser.RulesParser.AppendLineRuleMixIn</title>
<path fill="none" stroke="black" stroke-width="0.5" d="M124.164,-9.5C133.955,-9.5 144.316,-9.5 154.765,-9.5"/>
<polygon fill="black" stroke="black" stroke-width="0.5" points="154.9,-11.2501 159.9,-9.5 154.9,-7.7501 154.9,-11.2501"/>
</g>
</g>
</svg>
