<?xml version="1.0" encoding="UTF-8" standalone="no"?>
<!DOCTYPE svg PUBLIC "-//W3C//DTD SVG 1.1//EN"
 "http://www.w3.org/Graphics/SVG/1.1/DTD/svg11.dtd">
<!-- Generated by graphviz version 2.38.0 (20140413.2041)
 -->
<!-- Title: inheritance6303036f5e Pages: 1 -->
<svg width="275pt" height="64pt"
 viewBox="0.00 0.00 275.00 64.00" xmlns="http://www.w3.org/2000/svg" xmlns:xlink="http://www.w3.org/1999/xlink">
<g id="graph0" class="graph" transform="scale(1 1) rotate(0) translate(4 60)">
<title>inheritance6303036f5e</title>
<polygon fill="white" stroke="none" points="-4,4 -4,-60 271,-60 271,4 -4,4"/>
<!-- Base.Logging.ILogable -->
<g id="node1" class="node"><title>Base.Logging.ILogable</title>
<g id="a_node1"><a xlink:href="../Base.Logging.html#Base.Logging.ILogable" xlink:title="A mixin class to provide local logging methods." target="_top">
<polygon fill="none" stroke="black" stroke-width="0.5" points="115,-56 0,-56 0,-37 115,-37 115,-56"/>
<text text-anchor="middle" x="57.5" y="-44" font-family="Vera Sans, DejaVu Sans, Liberation Sans, Arial, Helvetica, sans" font-size="10.00">Base.Logging.ILogable</text>
</a>
</g>
</g>
<!-- ToolChain.ToolSelector -->
<g id="node3" class="node"><title>ToolChain.ToolSelector</title>
<g id="a_node3"><a xlink:href="../PyInfrastructure/ToolChain.html#ToolChain.ToolSelector" xlink:title="Base class for all Selector classes." target="_top">
<polygon fill="none" stroke="black" stroke-width="0.5" points="267,-37 151,-37 151,-18 267,-18 267,-37"/>
<text text-anchor="middle" x="209" y="-25" font-family="Vera Sans, DejaVu Sans, Liberation Sans, Arial, Helvetica, sans" font-size="10.00">ToolChain.ToolSelector</text>
</a>
</g>
</g>
<!-- Base.Logging.ILogable&#45;&gt;ToolChain.ToolSelector -->
<g id="edge1" class="edge"><title>Base.Logging.ILogable&#45;&gt;ToolChain.ToolSelector</title>
<path fill="none" stroke="black" stroke-width="0.5" d="M115.02,-39.3169C125.11,-38.0345 135.672,-36.6921 145.909,-35.3912"/>
<polygon fill="black" stroke="black" stroke-width="0.5" points="146.164,-37.1229 150.904,-34.7564 145.723,-33.6508 146.164,-37.1229"/>
</g>
<!-- ToolChain.AskMixIn -->
<g id="node2" class="node"><title>ToolChain.AskMixIn</title>
<g id="a_node2"><a xlink:href="../PyInfrastructure/ToolChain.html#ToolChain.AskMixIn" xlink:title="ToolChain.AskMixIn" target="_top">
<polygon fill="none" stroke="black" stroke-width="0.5" points="109,-19 6,-19 6,-0 109,-0 109,-19"/>
<text text-anchor="middle" x="57.5" y="-7" font-family="Vera Sans, DejaVu Sans, Liberation Sans, Arial, Helvetica, sans" font-size="10.00">ToolChain.AskMixIn</text>
</a>
</g>
</g>
<!-- ToolChain.AskMixIn&#45;&gt;ToolChain.ToolSelector -->
<g id="edge2" class="edge"><title>ToolChain.AskMixIn&#45;&gt;ToolChain.ToolSelector</title>
<path fill="none" stroke="black" stroke-width="0.5" d="M109.114,-15.594C120.825,-17.004 133.421,-18.5206 145.571,-19.9835"/>
<polygon fill="black" stroke="black" stroke-width="0.5" points="145.574,-21.7464 150.747,-20.6067 145.992,-18.2714 145.574,-21.7464"/>
</g>
</g>
</svg>
