<?xml version="1.0" encoding="UTF-8" standalone="no"?>
<!DOCTYPE svg PUBLIC "-//W3C//DTD SVG 1.1//EN"
 "http://www.w3.org/Graphics/SVG/1.1/DTD/svg11.dtd">
<!-- Generated by graphviz version 2.38.0 (20140413.2041)
 -->
<!-- Title: inheritanced55fa635a6 Pages: 1 -->
<svg width="576pt" height="54pt"
 viewBox="0.00 0.00 576.00 53.87" xmlns="http://www.w3.org/2000/svg" xmlns:xlink="http://www.w3.org/1999/xlink">
<g id="graph0" class="graph" transform="scale(0.533333 0.533333) rotate(0) translate(4 97)">
<title>inheritanced55fa635a6</title>
<polygon fill="white" stroke="none" points="-4,4 -4,-97 1076,-97 1076,4 -4,4"/>
<!-- collections.abc.Collection -->
<g id="node1" class="node"><title>collections.abc.Collection</title>
<polygon fill="none" stroke="black" stroke-width="0.5" points="290,-56 162,-56 162,-37 290,-37 290,-56"/>
<text text-anchor="middle" x="226" y="-44" font-family="Vera Sans, DejaVu Sans, Liberation Sans, Arial, Helvetica, sans" font-size="10.00">collections.abc.Collection</text>
</g>
<!-- collections.abc.Mapping -->
<g id="node5" class="node"><title>collections.abc.Mapping</title>
<polygon fill="none" stroke="black" stroke-width="0.5" points="448,-56 326,-56 326,-37 448,-37 448,-56"/>
<text text-anchor="middle" x="387" y="-44" font-family="Vera Sans, DejaVu Sans, Liberation Sans, Arial, Helvetica, sans" font-size="10.00">collections.abc.Mapping</text>
</g>
<!-- collections.abc.Collection&#45;&gt;collections.abc.Mapping -->
<g id="edge4" class="edge"><title>collections.abc.Collection&#45;&gt;collections.abc.Mapping</title>
<path fill="none" stroke="black" stroke-width="0.5" d="M290.298,-46.5C300.254,-46.5 310.563,-46.5 320.566,-46.5"/>
<polygon fill="black" stroke="black" stroke-width="0.5" points="320.766,-48.2501 325.766,-46.5 320.766,-44.7501 320.766,-48.2501"/>
</g>
<!-- collections.abc.Sized -->
<g id="node2" class="node"><title>collections.abc.Sized</title>
<polygon fill="none" stroke="black" stroke-width="0.5" points="118,-93 8,-93 8,-74 118,-74 118,-93"/>
<text text-anchor="middle" x="63" y="-81" font-family="Vera Sans, DejaVu Sans, Liberation Sans, Arial, Helvetica, sans" font-size="10.00">collections.abc.Sized</text>
</g>
<!-- collections.abc.Sized&#45;&gt;collections.abc.Collection -->
<g id="edge1" class="edge"><title>collections.abc.Sized&#45;&gt;collections.abc.Collection</title>
<path fill="none" stroke="black" stroke-width="0.5" d="M105.462,-73.9716C127.723,-68.8557 155.239,-62.532 178.258,-57.2419"/>
<polygon fill="black" stroke="black" stroke-width="0.5" points="178.918,-58.8859 183.399,-56.0604 178.135,-55.4748 178.918,-58.8859"/>
</g>
<!-- collections.abc.Iterable -->
<g id="node3" class="node"><title>collections.abc.Iterable</title>
<polygon fill="none" stroke="black" stroke-width="0.5" points="121,-56 5,-56 5,-37 121,-37 121,-56"/>
<text text-anchor="middle" x="63" y="-44" font-family="Vera Sans, DejaVu Sans, Liberation Sans, Arial, Helvetica, sans" font-size="10.00">collections.abc.Iterable</text>
</g>
<!-- collections.abc.Iterable&#45;&gt;collections.abc.Collection -->
<g id="edge2" class="edge"><title>collections.abc.Iterable&#45;&gt;collections.abc.Collection</title>
<path fill="none" stroke="black" stroke-width="0.5" d="M121.216,-46.5C132.762,-46.5 145.008,-46.5 156.885,-46.5"/>
<polygon fill="black" stroke="black" stroke-width="0.5" points="156.95,-48.2501 161.95,-46.5 156.95,-44.7501 156.95,-48.2501"/>
</g>
<!-- collections.abc.Container -->
<g id="node4" class="node"><title>collections.abc.Container</title>
<polygon fill="none" stroke="black" stroke-width="0.5" points="126,-19 0,-19 0,-0 126,-0 126,-19"/>
<text text-anchor="middle" x="63" y="-7" font-family="Vera Sans, DejaVu Sans, Liberation Sans, Arial, Helvetica, sans" font-size="10.00">collections.abc.Container</text>
</g>
<!-- collections.abc.Container&#45;&gt;collections.abc.Collection -->
<g id="edge3" class="edge"><title>collections.abc.Container&#45;&gt;collections.abc.Collection</title>
<path fill="none" stroke="black" stroke-width="0.5" d="M105.462,-19.0284C127.723,-24.1443 155.239,-30.468 178.258,-35.7581"/>
<polygon fill="black" stroke="black" stroke-width="0.5" points="178.135,-37.5252 183.399,-36.9396 178.918,-34.1141 178.135,-37.5252"/>
</g>
<!-- collections.abc.MutableMapping -->
<g id="node6" class="node"><title>collections.abc.MutableMapping</title>
<polygon fill="none" stroke="black" stroke-width="0.5" points="640,-56 484,-56 484,-37 640,-37 640,-56"/>
<text text-anchor="middle" x="562" y="-44" font-family="Vera Sans, DejaVu Sans, Liberation Sans, Arial, Helvetica, sans" font-size="10.00">collections.abc.MutableMapping</text>
</g>
<!-- collections.abc.Mapping&#45;&gt;collections.abc.MutableMapping -->
<g id="edge5" class="edge"><title>collections.abc.Mapping&#45;&gt;collections.abc.MutableMapping</title>
<path fill="none" stroke="black" stroke-width="0.5" d="M448.021,-46.5C457.918,-46.5 468.326,-46.5 478.655,-46.5"/>
<polygon fill="black" stroke="black" stroke-width="0.5" points="478.716,-48.2501 483.716,-46.5 478.716,-44.7501 478.716,-48.2501"/>
</g>
<!-- configparser.SectionProxy -->
<g id="node7" class="node"><title>configparser.SectionProxy</title>
<g id="a_node7"><a xlink:title="A proxy for a single section from a parser.">
<polygon fill="none" stroke="black" stroke-width="0.5" points="807,-56 676,-56 676,-37 807,-37 807,-56"/>
<text text-anchor="middle" x="741.5" y="-44" font-family="Vera Sans, DejaVu Sans, Liberation Sans, Arial, Helvetica, sans" font-size="10.00">configparser.SectionProxy</text>
</a>
</g>
</g>
<!-- collections.abc.MutableMapping&#45;&gt;configparser.SectionProxy -->
<g id="edge6" class="edge"><title>collections.abc.MutableMapping&#45;&gt;configparser.SectionProxy</title>
<path fill="none" stroke="black" stroke-width="0.5" d="M640.08,-46.5C650.278,-46.5 660.685,-46.5 670.75,-46.5"/>
<polygon fill="black" stroke="black" stroke-width="0.5" points="670.979,-48.2501 675.979,-46.5 670.979,-44.7501 670.979,-48.2501"/>
</g>
<!-- lib.ExtendedConfigParser.ExtendedSectionProxy -->
<g id="node8" class="node"><title>lib.ExtendedConfigParser.ExtendedSectionProxy</title>
<g id="a_node8"><a xlink:href="../PyInfrastructure/lib.ExtendedConfigParser.html#lib.ExtendedConfigParser.ExtendedSectionProxy" xlink:title="lib.ExtendedConfigParser.ExtendedSectionProxy" target="_top">
<polygon fill="none" stroke="black" stroke-width="0.5" points="1072,-56 843,-56 843,-37 1072,-37 1072,-56"/>
<text text-anchor="middle" x="957.5" y="-44" font-family="Vera Sans, DejaVu Sans, Liberation Sans, Arial, Helvetica, sans" font-size="10.00">lib.ExtendedConfigParser.ExtendedSectionProxy</text>
</a>
</g>
</g>
<!-- configparser.SectionProxy&#45;&gt;lib.ExtendedConfigParser.ExtendedSectionProxy -->
<g id="edge7" class="edge"><title>configparser.SectionProxy&#45;&gt;lib.ExtendedConfigParser.ExtendedSectionProxy</title>
<path fill="none" stroke="black" stroke-width="0.5" d="M807.288,-46.5C817.014,-46.5 827.294,-46.5 837.726,-46.5"/>
<polygon fill="black" stroke="black" stroke-width="0.5" points="837.857,-48.2501 842.857,-46.5 837.857,-44.7501 837.857,-48.2501"/>
</g>
</g>
</svg>
