<?xml version="1.0" encoding="UTF-8" standalone="no"?>
<!DOCTYPE svg PUBLIC "-//W3C//DTD SVG 1.1//EN"
 "http://www.w3.org/Graphics/SVG/1.1/DTD/svg11.dtd">
<!-- Generated by graphviz version 2.38.0 (20140413.2041)
 -->
<!-- Title: inheritancebbbb394dbd Pages: 1 -->
<svg width="463pt" height="27pt"
 viewBox="0.00 0.00 463.00 27.00" xmlns="http://www.w3.org/2000/svg" xmlns:xlink="http://www.w3.org/1999/xlink">
<g id="graph0" class="graph" transform="scale(1 1) rotate(0) translate(4 23)">
<title>inheritancebbbb394dbd</title>
<polygon fill="white" stroke="none" points="-4,4 -4,-23 459,-23 459,4 -4,4"/>
<!-- Base.Project.File -->
<g id="node1" class="node"><title>Base.Project.File</title>
<g id="a_node1"><a xlink:href="../Base.Project.html#Base.Project.File" xlink:title="Base.Project.File" target="_top">
<polygon fill="none" stroke="black" stroke-width="0.5" points="92,-19 0,-19 0,-0 92,-0 92,-19"/>
<text text-anchor="middle" x="46" y="-7" font-family="Vera Sans, DejaVu Sans, Liberation Sans, Arial, Helvetica, sans" font-size="10.00">Base.Project.File</text>
</a>
</g>
</g>
<!-- Base.Project.ProjectFile -->
<g id="node2" class="node"><title>Base.Project.ProjectFile</title>
<g id="a_node2"><a xlink:href="../Base.Project.html#Base.Project.ProjectFile" xlink:title="Base.Project.ProjectFile" target="_top">
<polygon fill="none" stroke="black" stroke-width="0.5" points="250,-19 128,-19 128,-0 250,-0 250,-19"/>
<text text-anchor="middle" x="189" y="-7" font-family="Vera Sans, DejaVu Sans, Liberation Sans, Arial, Helvetica, sans" font-size="10.00">Base.Project.ProjectFile</text>
</a>
</g>
</g>
<!-- Base.Project.File&#45;&gt;Base.Project.ProjectFile -->
<g id="edge1" class="edge"><title>Base.Project.File&#45;&gt;Base.Project.ProjectFile</title>
<path fill="none" stroke="black" stroke-width="0.5" d="M92.001,-9.5C101.836,-9.5 112.436,-9.5 122.878,-9.5"/>
<polygon fill="black" stroke="black" stroke-width="0.5" points="122.988,-11.2501 127.988,-9.5 122.988,-7.7501 122.988,-11.2501"/>
</g>
<!-- ToolChain.Xilinx.ISE.ISEProjectFile -->
<g id="node3" class="node"><title>ToolChain.Xilinx.ISE.ISEProjectFile</title>
<g id="a_node3"><a xlink:href="../PyInfrastructure/ToolChain.Xilinx.ISE.html#ToolChain.Xilinx.ISE.ISEProjectFile" xlink:title="ToolChain.Xilinx.ISE.ISEProjectFile" target="_top">
<polygon fill="none" stroke="black" stroke-width="0.5" points="455,-19 286,-19 286,-0 455,-0 455,-19"/>
<text text-anchor="middle" x="370.5" y="-7" font-family="Vera Sans, DejaVu Sans, Liberation Sans, Arial, Helvetica, sans" font-size="10.00">ToolChain.Xilinx.ISE.ISEProjectFile</text>
</a>
</g>
</g>
<!-- Base.Project.ProjectFile&#45;&gt;ToolChain.Xilinx.ISE.ISEProjectFile -->
<g id="edge2" class="edge"><title>Base.Project.ProjectFile&#45;&gt;ToolChain.Xilinx.ISE.ISEProjectFile</title>
<path fill="none" stroke="black" stroke-width="0.5" d="M250.27,-9.5C260.073,-9.5 270.404,-9.5 280.718,-9.5"/>
<polygon fill="black" stroke="black" stroke-width="0.5" points="280.777,-11.2501 285.777,-9.5 280.777,-7.7501 280.777,-11.2501"/>
</g>
</g>
</svg>
