<?xml version="1.0" encoding="UTF-8" standalone="no"?>
<!DOCTYPE svg PUBLIC "-//W3C//DTD SVG 1.1//EN"
 "http://www.w3.org/Graphics/SVG/1.1/DTD/svg11.dtd">
<!-- Generated by graphviz version 2.38.0 (20140413.2041)
 -->
<!-- Title: inheritance66e2e69fa6 Pages: 1 -->
<svg width="499pt" height="27pt"
 viewBox="0.00 0.00 499.00 27.00" xmlns="http://www.w3.org/2000/svg" xmlns:xlink="http://www.w3.org/1999/xlink">
<g id="graph0" class="graph" transform="scale(1 1) rotate(0) translate(4 23)">
<title>inheritance66e2e69fa6</title>
<polygon fill="white" stroke="none" points="-4,4 -4,-23 495,-23 495,4 -4,4"/>
<!-- Base.Project.File -->
<g id="node1" class="node"><title>Base.Project.File</title>
<g id="a_node1"><a xlink:href="../Base.Project.html#Base.Project.File" xlink:title="Base.Project.File" target="_top">
<polygon fill="none" stroke="black" stroke-width="0.5" points="92,-19 0,-19 0,-0 92,-0 92,-19"/>
<text text-anchor="middle" x="46" y="-7" font-family="Vera Sans, DejaVu Sans, Liberation Sans, Arial, Helvetica, sans" font-size="10.00">Base.Project.File</text>
</a>
</g>
</g>
<!-- Base.Project.SettingsFile -->
<g id="node2" class="node"><title>Base.Project.SettingsFile</title>
<g id="a_node2"><a xlink:href="../Base.Project.html#Base.Project.SettingsFile" xlink:title="Base.Project.SettingsFile" target="_top">
<polygon fill="none" stroke="black" stroke-width="0.5" points="256,-19 128,-19 128,-0 256,-0 256,-19"/>
<text text-anchor="middle" x="192" y="-7" font-family="Vera Sans, DejaVu Sans, Liberation Sans, Arial, Helvetica, sans" font-size="10.00">Base.Project.SettingsFile</text>
</a>
</g>
</g>
<!-- Base.Project.File&#45;&gt;Base.Project.SettingsFile -->
<g id="edge1" class="edge"><title>Base.Project.File&#45;&gt;Base.Project.SettingsFile</title>
<path fill="none" stroke="black" stroke-width="0.5" d="M92.1674,-9.5C101.878,-9.5 112.349,-9.5 122.717,-9.5"/>
<polygon fill="black" stroke="black" stroke-width="0.5" points="122.795,-11.2501 127.794,-9.5 122.794,-7.7501 122.795,-11.2501"/>
</g>
<!-- ToolChain.Altera.Quartus.QuartusSettings -->
<g id="node3" class="node"><title>ToolChain.Altera.Quartus.QuartusSettings</title>
<g id="a_node3"><a xlink:href="../PyInfrastructure/ToolChain.Altera.Quartus.html#ToolChain.Altera.Quartus.QuartusSettings" xlink:title="ToolChain.Altera.Quartus.QuartusSettings" target="_top">
<polygon fill="none" stroke="black" stroke-width="0.5" points="491,-19 292,-19 292,-0 491,-0 491,-19"/>
<text text-anchor="middle" x="391.5" y="-7" font-family="Vera Sans, DejaVu Sans, Liberation Sans, Arial, Helvetica, sans" font-size="10.00">ToolChain.Altera.Quartus.QuartusSettings</text>
</a>
</g>
</g>
<!-- Base.Project.SettingsFile&#45;&gt;ToolChain.Altera.Quartus.QuartusSettings -->
<g id="edge2" class="edge"><title>Base.Project.SettingsFile&#45;&gt;ToolChain.Altera.Quartus.QuartusSettings</title>
<path fill="none" stroke="black" stroke-width="0.5" d="M256.033,-9.5C265.832,-9.5 276.172,-9.5 286.59,-9.5"/>
<polygon fill="black" stroke="black" stroke-width="0.5" points="286.708,-11.2501 291.708,-9.5 286.708,-7.7501 286.708,-11.2501"/>
</g>
</g>
</svg>
