<?xml version="1.0" encoding="UTF-8" standalone="no"?>
<!DOCTYPE svg PUBLIC "-//W3C//DTD SVG 1.1//EN"
 "http://www.w3.org/Graphics/SVG/1.1/DTD/svg11.dtd">
<!-- Generated by graphviz version 2.38.0 (20140413.2041)
 -->
<!-- Title: inheritance82534c90e5 Pages: 1 -->
<svg width="451pt" height="64pt"
 viewBox="0.00 0.00 451.00 64.00" xmlns="http://www.w3.org/2000/svg" xmlns:xlink="http://www.w3.org/1999/xlink">
<g id="graph0" class="graph" transform="scale(1 1) rotate(0) translate(4 60)">
<title>inheritance82534c90e5</title>
<polygon fill="white" stroke="none" points="-4,4 -4,-60 447,-60 447,4 -4,4"/>
<!-- Base.Executable.Executable -->
<g id="node1" class="node"><title>Base.Executable.Executable</title>
<g id="a_node1"><a xlink:href="../Base.Executable.html#Base.Executable.Executable" xlink:title="Represent an executable." target="_top">
<polygon fill="none" stroke="black" stroke-width="0.5" points="294,-19 151,-19 151,-0 294,-0 294,-19"/>
<text text-anchor="middle" x="222.5" y="-7" font-family="Vera Sans, DejaVu Sans, Liberation Sans, Arial, Helvetica, sans" font-size="10.00">Base.Executable.Executable</text>
</a>
</g>
</g>
<!-- ToolChain.Git.GitSCM -->
<g id="node3" class="node"><title>ToolChain.Git.GitSCM</title>
<g id="a_node3"><a xlink:href="../PyInfrastructure/ToolChain.Git.html#ToolChain.Git.GitSCM" xlink:title="ToolChain.Git.GitSCM" target="_top">
<polygon fill="none" stroke="black" stroke-width="0.5" points="443,-37 330,-37 330,-18 443,-18 443,-37"/>
<text text-anchor="middle" x="386.5" y="-25" font-family="Vera Sans, DejaVu Sans, Liberation Sans, Arial, Helvetica, sans" font-size="10.00">ToolChain.Git.GitSCM</text>
</a>
</g>
</g>
<!-- Base.Executable.Executable&#45;&gt;ToolChain.Git.GitSCM -->
<g id="edge2" class="edge"><title>Base.Executable.Executable&#45;&gt;ToolChain.Git.GitSCM</title>
<path fill="none" stroke="black" stroke-width="0.5" d="M294.084,-17.3427C304.249,-18.4722 314.637,-19.6264 324.593,-20.7325"/>
<polygon fill="black" stroke="black" stroke-width="0.5" points="324.593,-22.4933 329.756,-21.3062 324.98,-19.0147 324.593,-22.4933"/>
</g>
<!-- Base.Logging.ILogable -->
<g id="node2" class="node"><title>Base.Logging.ILogable</title>
<g id="a_node2"><a xlink:href="../Base.Logging.html#Base.Logging.ILogable" xlink:title="A mixin class to provide local logging methods." target="_top">
<polygon fill="none" stroke="black" stroke-width="0.5" points="115,-19 0,-19 0,-0 115,-0 115,-19"/>
<text text-anchor="middle" x="57.5" y="-7" font-family="Vera Sans, DejaVu Sans, Liberation Sans, Arial, Helvetica, sans" font-size="10.00">Base.Logging.ILogable</text>
</a>
</g>
</g>
<!-- Base.Logging.ILogable&#45;&gt;Base.Executable.Executable -->
<g id="edge1" class="edge"><title>Base.Logging.ILogable&#45;&gt;Base.Executable.Executable</title>
<path fill="none" stroke="black" stroke-width="0.5" d="M115.052,-9.5C125.008,-9.5 135.515,-9.5 145.893,-9.5"/>
<polygon fill="black" stroke="black" stroke-width="0.5" points="145.974,-11.2501 150.974,-9.5 145.974,-7.7501 145.974,-11.2501"/>
</g>
<!-- ToolChain.ToolMixIn -->
<g id="node4" class="node"><title>ToolChain.ToolMixIn</title>
<g id="a_node4"><a xlink:href="../ToolChain.html#ToolChain.ToolMixIn" xlink:title="ToolChain.ToolMixIn" target="_top">
<polygon fill="none" stroke="black" stroke-width="0.5" points="274.5,-56 170.5,-56 170.5,-37 274.5,-37 274.5,-56"/>
<text text-anchor="middle" x="222.5" y="-44" font-family="Vera Sans, DejaVu Sans, Liberation Sans, Arial, Helvetica, sans" font-size="10.00">ToolChain.ToolMixIn</text>
</a>
</g>
</g>
<!-- ToolChain.ToolMixIn&#45;&gt;ToolChain.Git.GitSCM -->
<g id="edge3" class="edge"><title>ToolChain.ToolMixIn&#45;&gt;ToolChain.Git.GitSCM</title>
<path fill="none" stroke="black" stroke-width="0.5" d="M274.758,-40.4883C290.635,-38.6261 308.283,-36.5563 324.74,-34.6262"/>
<polygon fill="black" stroke="black" stroke-width="0.5" points="325.043,-36.3527 329.805,-34.0321 324.636,-32.8765 325.043,-36.3527"/>
</g>
</g>
</svg>
