<?xml version="1.0" encoding="UTF-8" standalone="no"?>
<!DOCTYPE svg PUBLIC "-//W3C//DTD SVG 1.1//EN"
 "http://www.w3.org/Graphics/SVG/1.1/DTD/svg11.dtd">
<!-- Generated by graphviz version 2.38.0 (20140413.2041)
 -->
<!-- Title: inheritance7ff56ffa0c Pages: 1 -->
<svg width="365pt" height="64pt"
 viewBox="0.00 0.00 365.00 64.00" xmlns="http://www.w3.org/2000/svg" xmlns:xlink="http://www.w3.org/1999/xlink">
<g id="graph0" class="graph" transform="scale(1 1) rotate(0) translate(4 60)">
<title>inheritance7ff56ffa0c</title>
<polygon fill="white" stroke="none" points="-4,4 -4,-60 361,-60 361,4 -4,4"/>
<!-- Base.Project.File -->
<g id="node1" class="node"><title>Base.Project.File</title>
<g id="a_node1"><a xlink:href="../Base.Project.html#Base.Project.File" xlink:title="Base.Project.File" target="_top">
<polygon fill="none" stroke="black" stroke-width="0.5" points="132.5,-56 40.5,-56 40.5,-37 132.5,-37 132.5,-56"/>
<text text-anchor="middle" x="86.5" y="-44" font-family="Vera Sans, DejaVu Sans, Liberation Sans, Arial, Helvetica, sans" font-size="10.00">Base.Project.File</text>
</a>
</g>
</g>
<!-- DataBase.Solution.FileListFile -->
<g id="node2" class="node"><title>DataBase.Solution.FileListFile</title>
<g id="a_node2"><a xlink:href="../PyInfrastructure/DataBase.Solution.html#DataBase.Solution.FileListFile" xlink:title="DataBase.Solution.FileListFile" target="_top">
<polygon fill="none" stroke="black" stroke-width="0.5" points="357,-37 209,-37 209,-18 357,-18 357,-37"/>
<text text-anchor="middle" x="283" y="-25" font-family="Vera Sans, DejaVu Sans, Liberation Sans, Arial, Helvetica, sans" font-size="10.00">DataBase.Solution.FileListFile</text>
</a>
</g>
</g>
<!-- Base.Project.File&#45;&gt;DataBase.Solution.FileListFile -->
<g id="edge1" class="edge"><title>Base.Project.File&#45;&gt;DataBase.Solution.FileListFile</title>
<path fill="none" stroke="black" stroke-width="0.5" d="M132.611,-42.0933C153.774,-40.0259 179.615,-37.5016 203.816,-35.1375"/>
<polygon fill="black" stroke="black" stroke-width="0.5" points="204.147,-36.8636 208.953,-34.6357 203.806,-33.3802 204.147,-36.8636"/>
</g>
<!-- Parser.FilesParser.FilesParserMixIn -->
<g id="node3" class="node"><title>Parser.FilesParser.FilesParserMixIn</title>
<g id="a_node3"><a xlink:href="../Parser.FilesParser.html#Parser.FilesParser.FilesParserMixIn" xlink:title="Parser.FilesParser.FilesParserMixIn" target="_top">
<polygon fill="none" stroke="black" stroke-width="0.5" points="173,-19 0,-19 0,-0 173,-0 173,-19"/>
<text text-anchor="middle" x="86.5" y="-7" font-family="Vera Sans, DejaVu Sans, Liberation Sans, Arial, Helvetica, sans" font-size="10.00">Parser.FilesParser.FilesParserMixIn</text>
</a>
</g>
</g>
<!-- Parser.FilesParser.FilesParserMixIn&#45;&gt;DataBase.Solution.FileListFile -->
<g id="edge2" class="edge"><title>Parser.FilesParser.FilesParserMixIn&#45;&gt;DataBase.Solution.FileListFile</title>
<path fill="none" stroke="black" stroke-width="0.5" d="M173.094,-17.4213C183.248,-18.361 193.574,-19.3166 203.621,-20.2464"/>
<polygon fill="black" stroke="black" stroke-width="0.5" points="203.707,-22.0118 208.847,-20.7301 204.03,-18.5267 203.707,-22.0118"/>
</g>
</g>
</svg>
