<?xml version="1.0" encoding="UTF-8" standalone="no"?>
<!DOCTYPE svg PUBLIC "-//W3C//DTD SVG 1.1//EN"
 "http://www.w3.org/Graphics/SVG/1.1/DTD/svg11.dtd">
<!-- Generated by graphviz version 2.38.0 (20140413.2041)
 -->
<!-- Title: inheritance36ef3e1cb1 Pages: 1 -->
<svg width="483pt" height="27pt"
 viewBox="0.00 0.00 483.00 27.00" xmlns="http://www.w3.org/2000/svg" xmlns:xlink="http://www.w3.org/1999/xlink">
<g id="graph0" class="graph" transform="scale(1 1) rotate(0) translate(4 23)">
<title>inheritance36ef3e1cb1</title>
<polygon fill="white" stroke="none" points="-4,4 -4,-23 479,-23 479,4 -4,4"/>
<!-- ToolChain.Altera.ModelSim.AlteraModelSimEditions -->
<g id="node1" class="node"><title>ToolChain.Altera.ModelSim.AlteraModelSimEditions</title>
<g id="a_node1"><a xlink:href="../PyInfrastructure/ToolChain.Altera.ModelSim.html#ToolChain.Altera.ModelSim.AlteraModelSimEditions" xlink:title="Enumeration of all ModelSim editions provided by Altera." target="_top">
<polygon fill="none" stroke="black" stroke-width="0.5" points="475,-19 233,-19 233,-0 475,-0 475,-19"/>
<text text-anchor="middle" x="354" y="-7" font-family="Vera Sans, DejaVu Sans, Liberation Sans, Arial, Helvetica, sans" font-size="10.00">ToolChain.Altera.ModelSim.AlteraModelSimEditions</text>
</a>
</g>
</g>
<!-- ToolChain.Edition -->
<g id="node2" class="node"><title>ToolChain.Edition</title>
<g id="a_node2"><a xlink:href="../ToolChain.html#ToolChain.Edition" xlink:title="An enumeration." target="_top">
<polygon fill="none" stroke="black" stroke-width="0.5" points="197,-19 105,-19 105,-0 197,-0 197,-19"/>
<text text-anchor="middle" x="151" y="-7" font-family="Vera Sans, DejaVu Sans, Liberation Sans, Arial, Helvetica, sans" font-size="10.00">ToolChain.Edition</text>
</a>
</g>
</g>
<!-- ToolChain.Edition&#45;&gt;ToolChain.Altera.ModelSim.AlteraModelSimEditions -->
<g id="edge1" class="edge"><title>ToolChain.Edition&#45;&gt;ToolChain.Altera.ModelSim.AlteraModelSimEditions</title>
<path fill="none" stroke="black" stroke-width="0.5" d="M197.108,-9.5C206.458,-9.5 216.739,-9.5 227.423,-9.5"/>
<polygon fill="black" stroke="black" stroke-width="0.5" points="227.698,-11.2501 232.698,-9.5 227.698,-7.75009 227.698,-11.2501"/>
</g>
<!-- enum.Enum -->
<g id="node3" class="node"><title>enum.Enum</title>
<g id="a_node3"><a xlink:title="Generic enumeration.">
<polygon fill="none" stroke="black" stroke-width="0.5" points="69,-19 0,-19 0,-0 69,-0 69,-19"/>
<text text-anchor="middle" x="34.5" y="-7" font-family="Vera Sans, DejaVu Sans, Liberation Sans, Arial, Helvetica, sans" font-size="10.00">enum.Enum</text>
</a>
</g>
</g>
<!-- enum.Enum&#45;&gt;ToolChain.Edition -->
<g id="edge2" class="edge"><title>enum.Enum&#45;&gt;ToolChain.Edition</title>
<path fill="none" stroke="black" stroke-width="0.5" d="M69.2345,-9.5C78.7583,-9.5 89.3331,-9.5 99.6088,-9.5"/>
<polygon fill="black" stroke="black" stroke-width="0.5" points="99.6233,-11.2501 104.623,-9.5 99.6232,-7.7501 99.6233,-11.2501"/>
</g>
</g>
</svg>
