<?xml version="1.0" encoding="UTF-8" standalone="no"?>
<!DOCTYPE svg PUBLIC "-//W3C//DTD SVG 1.1//EN"
 "http://www.w3.org/Graphics/SVG/1.1/DTD/svg11.dtd">
<!-- Generated by graphviz version 2.38.0 (20140413.2041)
 -->
<!-- Title: inheritance9ae1828021 Pages: 1 -->
<svg width="393pt" height="27pt"
 viewBox="0.00 0.00 393.00 27.00" xmlns="http://www.w3.org/2000/svg" xmlns:xlink="http://www.w3.org/1999/xlink">
<g id="graph0" class="graph" transform="scale(1 1) rotate(0) translate(4 23)">
<title>inheritance9ae1828021</title>
<polygon fill="white" stroke="none" points="-4,4 -4,-23 389,-23 389,4 -4,4"/>
<!-- Base.Project.FileTypes -->
<g id="node1" class="node"><title>Base.Project.FileTypes</title>
<g id="a_node1"><a xlink:href="../PyInfrastructure/Base.Project.html#Base.Project.FileTypes" xlink:title="Base.Project.FileTypes" target="_top">
<polygon fill="none" stroke="black" stroke-width="0.5" points="385,-19 267,-19 267,-0 385,-0 385,-19"/>
<text text-anchor="middle" x="326" y="-7" font-family="Vera Sans, DejaVu Sans, Liberation Sans, Arial, Helvetica, sans" font-size="10.00">Base.Project.FileTypes</text>
</a>
</g>
</g>
<!-- flags.Flags -->
<g id="node2" class="node"><title>flags.Flags</title>
<polygon fill="none" stroke="black" stroke-width="0.5" points="231,-19 167,-19 167,-0 231,-0 231,-19"/>
<text text-anchor="middle" x="199" y="-7" font-family="Vera Sans, DejaVu Sans, Liberation Sans, Arial, Helvetica, sans" font-size="10.00">flags.Flags</text>
</g>
<!-- flags.Flags&#45;&gt;Base.Project.FileTypes -->
<g id="edge1" class="edge"><title>flags.Flags&#45;&gt;Base.Project.FileTypes</title>
<path fill="none" stroke="black" stroke-width="0.5" d="M231.22,-9.5C240.542,-9.5 251.114,-9.5 261.717,-9.5"/>
<polygon fill="black" stroke="black" stroke-width="0.5" points="261.918,-11.2501 266.918,-9.5 261.918,-7.7501 261.918,-11.2501"/>
</g>
<!-- flags.FlagsArithmeticMixin -->
<g id="node3" class="node"><title>flags.FlagsArithmeticMixin</title>
<polygon fill="none" stroke="black" stroke-width="0.5" points="131,-19 0,-19 0,-0 131,-0 131,-19"/>
<text text-anchor="middle" x="65.5" y="-7" font-family="Vera Sans, DejaVu Sans, Liberation Sans, Arial, Helvetica, sans" font-size="10.00">flags.FlagsArithmeticMixin</text>
</g>
<!-- flags.FlagsArithmeticMixin&#45;&gt;flags.Flags -->
<g id="edge2" class="edge"><title>flags.FlagsArithmeticMixin&#45;&gt;flags.Flags</title>
<path fill="none" stroke="black" stroke-width="0.5" d="M131.094,-9.5C141.617,-9.5 152.178,-9.5 161.701,-9.5"/>
<polygon fill="black" stroke="black" stroke-width="0.5" points="161.878,-11.2501 166.878,-9.5 161.878,-7.7501 161.878,-11.2501"/>
</g>
</g>
</svg>
