<?xml version="1.0" encoding="UTF-8" standalone="no"?>
<!DOCTYPE svg PUBLIC "-//W3C//DTD SVG 1.1//EN"
 "http://www.w3.org/Graphics/SVG/1.1/DTD/svg11.dtd">
<!-- Generated by graphviz version 2.38.0 (20140413.2041)
 -->
<!-- Title: inheritance5893e5d8bc Pages: 1 -->
<svg width="576pt" height="23pt"
 viewBox="0.00 0.00 576.00 22.54" xmlns="http://www.w3.org/2000/svg" xmlns:xlink="http://www.w3.org/1999/xlink">
<g id="graph0" class="graph" transform="scale(0.834783 0.834783) rotate(0) translate(4 23)">
<title>inheritance5893e5d8bc</title>
<polygon fill="white" stroke="none" points="-4,4 -4,-23 686,-23 686,4 -4,4"/>
<!-- Parser.FilesCodeDOM.ExistsFunction -->
<g id="node1" class="node"><title>Parser.FilesCodeDOM.ExistsFunction</title>
<g id="a_node1"><a xlink:href="../PyInfrastructure/Parser.FilesCodeDOM.html#Parser.FilesCodeDOM.ExistsFunction" xlink:title="Parser.FilesCodeDOM.ExistsFunction" target="_top">
<polygon fill="none" stroke="black" stroke-width="0.5" points="682,-19 500,-19 500,-0 682,-0 682,-19"/>
<text text-anchor="middle" x="591" y="-7" font-family="Vera Sans, DejaVu Sans, Liberation Sans, Arial, Helvetica, sans" font-size="10.00">Parser.FilesCodeDOM.ExistsFunction</text>
</a>
</g>
</g>
<!-- lib.CodeDOM.Function -->
<g id="node2" class="node"><title>lib.CodeDOM.Function</title>
<g id="a_node2"><a xlink:href="../lib.CodeDOM.html#lib.CodeDOM.Function" xlink:title="lib.CodeDOM.Function" target="_top">
<polygon fill="none" stroke="black" stroke-width="0.5" points="464,-19 349,-19 349,-0 464,-0 464,-19"/>
<text text-anchor="middle" x="406.5" y="-7" font-family="Vera Sans, DejaVu Sans, Liberation Sans, Arial, Helvetica, sans" font-size="10.00">lib.CodeDOM.Function</text>
</a>
</g>
</g>
<!-- lib.CodeDOM.Function&#45;&gt;Parser.FilesCodeDOM.ExistsFunction -->
<g id="edge1" class="edge"><title>lib.CodeDOM.Function&#45;&gt;Parser.FilesCodeDOM.ExistsFunction</title>
<path fill="none" stroke="black" stroke-width="0.5" d="M464.244,-9.5C473.955,-9.5 484.278,-9.5 494.672,-9.5"/>
<polygon fill="black" stroke="black" stroke-width="0.5" points="494.778,-11.2501 499.778,-9.5 494.778,-7.7501 494.778,-11.2501"/>
</g>
<!-- lib.CodeDOM.CodeDOMObject -->
<g id="node3" class="node"><title>lib.CodeDOM.CodeDOMObject</title>
<g id="a_node3"><a xlink:href="../lib.CodeDOM.html#lib.CodeDOM.CodeDOMObject" xlink:title="lib.CodeDOM.CodeDOMObject" target="_top">
<polygon fill="none" stroke="black" stroke-width="0.5" points="151,-19 0,-19 0,-0 151,-0 151,-19"/>
<text text-anchor="middle" x="75.5" y="-7" font-family="Vera Sans, DejaVu Sans, Liberation Sans, Arial, Helvetica, sans" font-size="10.00">lib.CodeDOM.CodeDOMObject</text>
</a>
</g>
</g>
<!-- lib.CodeDOM.Expression -->
<g id="node4" class="node"><title>lib.CodeDOM.Expression</title>
<g id="a_node4"><a xlink:href="../lib.CodeDOM.html#lib.CodeDOM.Expression" xlink:title="lib.CodeDOM.Expression" target="_top">
<polygon fill="none" stroke="black" stroke-width="0.5" points="313,-19 187,-19 187,-0 313,-0 313,-19"/>
<text text-anchor="middle" x="250" y="-7" font-family="Vera Sans, DejaVu Sans, Liberation Sans, Arial, Helvetica, sans" font-size="10.00">lib.CodeDOM.Expression</text>
</a>
</g>
</g>
<!-- lib.CodeDOM.CodeDOMObject&#45;&gt;lib.CodeDOM.Expression -->
<g id="edge2" class="edge"><title>lib.CodeDOM.CodeDOMObject&#45;&gt;lib.CodeDOM.Expression</title>
<path fill="none" stroke="black" stroke-width="0.5" d="M151.158,-9.5C161.315,-9.5 171.691,-9.5 181.709,-9.5"/>
<polygon fill="black" stroke="black" stroke-width="0.5" points="181.911,-11.2501 186.911,-9.5 181.911,-7.7501 181.911,-11.2501"/>
</g>
<!-- lib.CodeDOM.Expression&#45;&gt;lib.CodeDOM.Function -->
<g id="edge3" class="edge"><title>lib.CodeDOM.Expression&#45;&gt;lib.CodeDOM.Function</title>
<path fill="none" stroke="black" stroke-width="0.5" d="M313.396,-9.5C323.38,-9.5 333.709,-9.5 343.68,-9.5"/>
<polygon fill="black" stroke="black" stroke-width="0.5" points="343.857,-11.2501 348.857,-9.5 343.857,-7.7501 343.857,-11.2501"/>
</g>
</g>
</svg>
