<?xml version="1.0" encoding="UTF-8" standalone="no"?>
<!DOCTYPE svg PUBLIC "-//W3C//DTD SVG 1.1//EN"
 "http://www.w3.org/Graphics/SVG/1.1/DTD/svg11.dtd">
<!-- Generated by graphviz version 2.38.0 (20140413.2041)
 -->
<!-- Title: inheritance2d08bcea00 Pages: 1 -->
<svg width="576pt" height="51pt"
 viewBox="0.00 0.00 576.00 51.06" xmlns="http://www.w3.org/2000/svg" xmlns:xlink="http://www.w3.org/1999/xlink">
<g id="graph0" class="graph" transform="scale(0.797784 0.797784) rotate(0) translate(4 60)">
<title>inheritance2d08bcea00</title>
<polygon fill="white" stroke="none" points="-4,4 -4,-60 718,-60 718,4 -4,4"/>
<!-- Base.Project.CocotbSourceFile -->
<g id="node1" class="node"><title>Base.Project.CocotbSourceFile</title>
<g id="a_node1"><a xlink:href="../PyInfrastructure/Base.Project.html#Base.Project.CocotbSourceFile" xlink:title="Base.Project.CocotbSourceFile" target="_top">
<polygon fill="none" stroke="black" stroke-width="0.5" points="714,-37 561,-37 561,-18 714,-18 714,-37"/>
<text text-anchor="middle" x="637.5" y="-25" font-family="Vera Sans, DejaVu Sans, Liberation Sans, Arial, Helvetica, sans" font-size="10.00">Base.Project.CocotbSourceFile</text>
</a>
</g>
</g>
<!-- Base.Project.PythonSourceFile -->
<g id="node2" class="node"><title>Base.Project.PythonSourceFile</title>
<g id="a_node2"><a xlink:href="../PyInfrastructure/Base.Project.html#Base.Project.PythonSourceFile" xlink:title="Base.Project.PythonSourceFile" target="_top">
<polygon fill="none" stroke="black" stroke-width="0.5" points="501,-56 348,-56 348,-37 501,-37 501,-56"/>
<text text-anchor="middle" x="424.5" y="-44" font-family="Vera Sans, DejaVu Sans, Liberation Sans, Arial, Helvetica, sans" font-size="10.00">Base.Project.PythonSourceFile</text>
</a>
</g>
</g>
<!-- Base.Project.PythonSourceFile&#45;&gt;Base.Project.CocotbSourceFile -->
<g id="edge1" class="edge"><title>Base.Project.PythonSourceFile&#45;&gt;Base.Project.CocotbSourceFile</title>
<path fill="none" stroke="black" stroke-width="0.5" d="M501.08,-39.6942C518.806,-38.098 537.761,-36.3912 555.706,-34.7753"/>
<polygon fill="black" stroke="black" stroke-width="0.5" points="555.916,-36.5136 560.739,-34.3221 555.602,-33.0277 555.916,-36.5136"/>
</g>
<!-- Parser.FilesParser.CocotbSourceFileMixIn -->
<g id="node3" class="node"><title>Parser.FilesParser.CocotbSourceFileMixIn</title>
<g id="a_node3"><a xlink:href="../Parser.FilesParser.html#Parser.FilesParser.CocotbSourceFileMixIn" xlink:title="Parser.FilesParser.CocotbSourceFileMixIn" target="_top">
<polygon fill="none" stroke="black" stroke-width="0.5" points="525,-19 324,-19 324,-0 525,-0 525,-19"/>
<text text-anchor="middle" x="424.5" y="-7" font-family="Vera Sans, DejaVu Sans, Liberation Sans, Arial, Helvetica, sans" font-size="10.00">Parser.FilesParser.CocotbSourceFileMixIn</text>
</a>
</g>
</g>
<!-- Parser.FilesParser.CocotbSourceFileMixIn&#45;&gt;Base.Project.CocotbSourceFile -->
<g id="edge2" class="edge"><title>Parser.FilesParser.CocotbSourceFileMixIn&#45;&gt;Base.Project.CocotbSourceFile</title>
<path fill="none" stroke="black" stroke-width="0.5" d="M525.13,-17.9993C535.398,-18.8752 545.74,-19.7574 555.766,-20.6127"/>
<polygon fill="black" stroke="black" stroke-width="0.5" points="555.847,-22.3759 560.978,-21.0573 556.145,-18.8886 555.847,-22.3759"/>
</g>
<!-- Base.Project.File -->
<g id="node4" class="node"><title>Base.Project.File</title>
<g id="a_node4"><a xlink:href="../PyInfrastructure/Base.Project.html#Base.Project.File" xlink:title="Base.Project.File" target="_top">
<polygon fill="none" stroke="black" stroke-width="0.5" points="92,-56 0,-56 0,-37 92,-37 92,-56"/>
<text text-anchor="middle" x="46" y="-44" font-family="Vera Sans, DejaVu Sans, Liberation Sans, Arial, Helvetica, sans" font-size="10.00">Base.Project.File</text>
</a>
</g>
</g>
<!-- Base.Project.SourceFile -->
<g id="node5" class="node"><title>Base.Project.SourceFile</title>
<g id="a_node5"><a xlink:href="../PyInfrastructure/Base.Project.html#Base.Project.SourceFile" xlink:title="Base.Project.SourceFile" target="_top">
<polygon fill="none" stroke="black" stroke-width="0.5" points="269,-56 147,-56 147,-37 269,-37 269,-56"/>
<text text-anchor="middle" x="208" y="-44" font-family="Vera Sans, DejaVu Sans, Liberation Sans, Arial, Helvetica, sans" font-size="10.00">Base.Project.SourceFile</text>
</a>
</g>
</g>
<!-- Base.Project.File&#45;&gt;Base.Project.SourceFile -->
<g id="edge4" class="edge"><title>Base.Project.File&#45;&gt;Base.Project.SourceFile</title>
<path fill="none" stroke="black" stroke-width="0.5" d="M92.4216,-46.5C107.744,-46.5 125.161,-46.5 141.709,-46.5"/>
<polygon fill="black" stroke="black" stroke-width="0.5" points="141.814,-48.2501 146.814,-46.5 141.814,-44.7501 141.814,-48.2501"/>
</g>
<!-- Base.Project.SourceFile&#45;&gt;Base.Project.PythonSourceFile -->
<g id="edge3" class="edge"><title>Base.Project.SourceFile&#45;&gt;Base.Project.PythonSourceFile</title>
<path fill="none" stroke="black" stroke-width="0.5" d="M269.035,-46.5C291.83,-46.5 318.18,-46.5 342.589,-46.5"/>
<polygon fill="black" stroke="black" stroke-width="0.5" points="342.766,-48.2501 347.766,-46.5 342.766,-44.7501 342.766,-48.2501"/>
</g>
<!-- Parser.FilesParser.FileReference -->
<g id="node6" class="node"><title>Parser.FilesParser.FileReference</title>
<g id="a_node6"><a xlink:href="../Parser.FilesParser.html#Parser.FilesParser.FileReference" xlink:title="Parser.FilesParser.FileReference" target="_top">
<polygon fill="none" stroke="black" stroke-width="0.5" points="288,-19 128,-19 128,-0 288,-0 288,-19"/>
<text text-anchor="middle" x="208" y="-7" font-family="Vera Sans, DejaVu Sans, Liberation Sans, Arial, Helvetica, sans" font-size="10.00">Parser.FilesParser.FileReference</text>
</a>
</g>
</g>
<!-- Parser.FilesParser.FileReference&#45;&gt;Parser.FilesParser.CocotbSourceFileMixIn -->
<g id="edge5" class="edge"><title>Parser.FilesParser.FileReference&#45;&gt;Parser.FilesParser.CocotbSourceFileMixIn</title>
<path fill="none" stroke="black" stroke-width="0.5" d="M288.262,-9.5C298.211,-9.5 308.504,-9.5 318.767,-9.5"/>
<polygon fill="black" stroke="black" stroke-width="0.5" points="318.801,-11.2501 323.801,-9.5 318.801,-7.7501 318.801,-11.2501"/>
</g>
</g>
</svg>
