<?xml version="1.0" encoding="UTF-8" standalone="no"?>
<!DOCTYPE svg PUBLIC "-//W3C//DTD SVG 1.1//EN"
 "http://www.w3.org/Graphics/SVG/1.1/DTD/svg11.dtd">
<!-- Generated by graphviz version 2.38.0 (20140413.2041)
 -->
<!-- Title: inheritance3128bb9b9d Pages: 1 -->
<svg width="576pt" height="18pt"
 viewBox="0.00 0.00 576.00 17.63" xmlns="http://www.w3.org/2000/svg" xmlns:xlink="http://www.w3.org/1999/xlink">
<g id="graph0" class="graph" transform="scale(0.653061 0.653061) rotate(0) translate(4 23)">
<title>inheritance3128bb9b9d</title>
<polygon fill="white" stroke="none" points="-4,4 -4,-23 878,-23 878,4 -4,4"/>
<!-- Base.Executable.CommandLineArgument -->
<g id="node1" class="node"><title>Base.Executable.CommandLineArgument</title>
<g id="a_node1"><a xlink:href="../PyInfrastructure/Base.Executable.html#Base.Executable.CommandLineArgument" xlink:title="Base class (and meta class) for all Arguments classes." target="_top">
<polygon fill="none" stroke="black" stroke-width="0.5" points="198,-19 0,-19 0,-0 198,-0 198,-19"/>
<text text-anchor="middle" x="99" y="-7" font-family="Vera Sans, DejaVu Sans, Liberation Sans, Arial, Helvetica, sans" font-size="10.00">Base.Executable.CommandLineArgument</text>
</a>
</g>
</g>
<!-- Base.Executable.NamedCommandLineArgument -->
<g id="node4" class="node"><title>Base.Executable.NamedCommandLineArgument</title>
<g id="a_node4"><a xlink:href="../PyInfrastructure/Base.Executable.html#Base.Executable.NamedCommandLineArgument" xlink:title="Base class for all command line arguments with a name." target="_top">
<polygon fill="none" stroke="black" stroke-width="0.5" points="463,-19 234,-19 234,-0 463,-0 463,-19"/>
<text text-anchor="middle" x="348.5" y="-7" font-family="Vera Sans, DejaVu Sans, Liberation Sans, Arial, Helvetica, sans" font-size="10.00">Base.Executable.NamedCommandLineArgument</text>
</a>
</g>
</g>
<!-- Base.Executable.CommandLineArgument&#45;&gt;Base.Executable.NamedCommandLineArgument -->
<g id="edge2" class="edge"><title>Base.Executable.CommandLineArgument&#45;&gt;Base.Executable.NamedCommandLineArgument</title>
<path fill="none" stroke="black" stroke-width="0.5" d="M198.174,-9.5C208.265,-9.5 218.592,-9.5 228.873,-9.5"/>
<polygon fill="black" stroke="black" stroke-width="0.5" points="228.915,-11.2501 233.915,-9.5 228.915,-7.7501 228.915,-11.2501"/>
</g>
<!-- Base.Executable.LongTupleArgument -->
<g id="node2" class="node"><title>Base.Executable.LongTupleArgument</title>
<g id="a_node2"><a xlink:href="../PyInfrastructure/Base.Executable.html#Base.Executable.LongTupleArgument" xlink:title="Represents a :py:class:`TupleArgument` with a double dash in front of the switch name." target="_top">
<polygon fill="none" stroke="black" stroke-width="0.5" points="874,-19 694,-19 694,-0 874,-0 874,-19"/>
<text text-anchor="middle" x="784" y="-7" font-family="Vera Sans, DejaVu Sans, Liberation Sans, Arial, Helvetica, sans" font-size="10.00">Base.Executable.LongTupleArgument</text>
</a>
</g>
</g>
<!-- Base.Executable.TupleArgument -->
<g id="node3" class="node"><title>Base.Executable.TupleArgument</title>
<g id="a_node3"><a xlink:href="../PyInfrastructure/Base.Executable.html#Base.Executable.TupleArgument" xlink:title="Class and base class for all TupleArgument classes, which represents a switch with separate data." target="_top">
<polygon fill="none" stroke="black" stroke-width="0.5" points="658,-19 499,-19 499,-0 658,-0 658,-19"/>
<text text-anchor="middle" x="578.5" y="-7" font-family="Vera Sans, DejaVu Sans, Liberation Sans, Arial, Helvetica, sans" font-size="10.00">Base.Executable.TupleArgument</text>
</a>
</g>
</g>
<!-- Base.Executable.TupleArgument&#45;&gt;Base.Executable.LongTupleArgument -->
<g id="edge1" class="edge"><title>Base.Executable.TupleArgument&#45;&gt;Base.Executable.LongTupleArgument</title>
<path fill="none" stroke="black" stroke-width="0.5" d="M658.178,-9.5C668.175,-9.5 678.484,-9.5 688.694,-9.5"/>
<polygon fill="black" stroke="black" stroke-width="0.5" points="688.696,-11.2501 693.696,-9.5 688.696,-7.7501 688.696,-11.2501"/>
</g>
<!-- Base.Executable.NamedCommandLineArgument&#45;&gt;Base.Executable.TupleArgument -->
<g id="edge3" class="edge"><title>Base.Executable.NamedCommandLineArgument&#45;&gt;Base.Executable.TupleArgument</title>
<path fill="none" stroke="black" stroke-width="0.5" d="M463.166,-9.5C473.425,-9.5 483.687,-9.5 493.621,-9.5"/>
<polygon fill="black" stroke="black" stroke-width="0.5" points="493.783,-11.2501 498.783,-9.5 493.783,-7.7501 493.783,-11.2501"/>
</g>
</g>
</svg>
