<?xml version="1.0" encoding="UTF-8" standalone="no"?>
<!DOCTYPE svg PUBLIC "-//W3C//DTD SVG 1.1//EN"
 "http://www.w3.org/Graphics/SVG/1.1/DTD/svg11.dtd">
<!-- Generated by graphviz version 2.38.0 (20140413.2041)
 -->
<!-- Title: inheritanceec0550a951 Pages: 1 -->
<svg width="576pt" height="57pt"
 viewBox="0.00 0.00 576.00 56.71" xmlns="http://www.w3.org/2000/svg" xmlns:xlink="http://www.w3.org/1999/xlink">
<g id="graph0" class="graph" transform="scale(0.886154 0.886154) rotate(0) translate(4 60)">
<title>inheritanceec0550a951</title>
<polygon fill="white" stroke="none" points="-4,4 -4,-60 646,-60 646,4 -4,4"/>
<!-- Base.Logging.ILogable -->
<g id="node1" class="node"><title>Base.Logging.ILogable</title>
<g id="a_node1"><a xlink:href="../Base.Logging.html#Base.Logging.ILogable" xlink:title="A mixin class to provide local logging methods." target="_top">
<polygon fill="none" stroke="black" stroke-width="0.5" points="115,-56 0,-56 0,-37 115,-37 115,-56"/>
<text text-anchor="middle" x="57.5" y="-44" font-family="Vera Sans, DejaVu Sans, Liberation Sans, Arial, Helvetica, sans" font-size="10.00">Base.Logging.ILogable</text>
</a>
</g>
</g>
<!-- ToolChain.Configuration -->
<g id="node3" class="node"><title>ToolChain.Configuration</title>
<g id="a_node3"><a xlink:href="../ToolChain.html#ToolChain.Configuration" xlink:title="Base class for all Configuration classes." target="_top">
<polygon fill="none" stroke="black" stroke-width="0.5" points="270,-37 151,-37 151,-18 270,-18 270,-37"/>
<text text-anchor="middle" x="210.5" y="-25" font-family="Vera Sans, DejaVu Sans, Liberation Sans, Arial, Helvetica, sans" font-size="10.00">ToolChain.Configuration</text>
</a>
</g>
</g>
<!-- Base.Logging.ILogable&#45;&gt;ToolChain.Configuration -->
<g id="edge1" class="edge"><title>Base.Logging.ILogable&#45;&gt;ToolChain.Configuration</title>
<path fill="none" stroke="black" stroke-width="0.5" d="M115.156,-39.371C125.153,-38.1132 135.62,-36.7961 145.795,-35.5159"/>
<polygon fill="black" stroke="black" stroke-width="0.5" points="146.02,-37.2515 150.762,-34.8908 145.583,-33.7788 146.02,-37.2515"/>
</g>
<!-- ToolChain.AskMixIn -->
<g id="node2" class="node"><title>ToolChain.AskMixIn</title>
<g id="a_node2"><a xlink:href="../ToolChain.html#ToolChain.AskMixIn" xlink:title="ToolChain.AskMixIn" target="_top">
<polygon fill="none" stroke="black" stroke-width="0.5" points="109,-19 6,-19 6,-0 109,-0 109,-19"/>
<text text-anchor="middle" x="57.5" y="-7" font-family="Vera Sans, DejaVu Sans, Liberation Sans, Arial, Helvetica, sans" font-size="10.00">ToolChain.AskMixIn</text>
</a>
</g>
</g>
<!-- ToolChain.AskMixIn&#45;&gt;ToolChain.Configuration -->
<g id="edge2" class="edge"><title>ToolChain.AskMixIn&#45;&gt;ToolChain.Configuration</title>
<path fill="none" stroke="black" stroke-width="0.5" d="M109.201,-15.5438C120.896,-16.9379 133.484,-18.4385 145.658,-19.8897"/>
<polygon fill="black" stroke="black" stroke-width="0.5" points="145.674,-21.6539 150.846,-20.5081 146.088,-18.1785 145.674,-21.6539"/>
</g>
<!-- ToolChain.VendorConfiguration -->
<g id="node5" class="node"><title>ToolChain.VendorConfiguration</title>
<g id="a_node5"><a xlink:href="../ToolChain.html#ToolChain.VendorConfiguration" xlink:title="Base class for all vendor Configuration classes." target="_top">
<polygon fill="none" stroke="black" stroke-width="0.5" points="455,-37 306,-37 306,-18 455,-18 455,-37"/>
<text text-anchor="middle" x="380.5" y="-25" font-family="Vera Sans, DejaVu Sans, Liberation Sans, Arial, Helvetica, sans" font-size="10.00">ToolChain.VendorConfiguration</text>
</a>
</g>
</g>
<!-- ToolChain.Configuration&#45;&gt;ToolChain.VendorConfiguration -->
<g id="edge4" class="edge"><title>ToolChain.Configuration&#45;&gt;ToolChain.VendorConfiguration</title>
<path fill="none" stroke="black" stroke-width="0.5" d="M270.258,-27.5C280.097,-27.5 290.446,-27.5 300.691,-27.5"/>
<polygon fill="black" stroke="black" stroke-width="0.5" points="300.71,-29.2501 305.71,-27.5 300.71,-25.7501 300.71,-29.2501"/>
</g>
<!-- ToolChain.Lattice.Configuration -->
<g id="node4" class="node"><title>ToolChain.Lattice.Configuration</title>
<g id="a_node4"><a xlink:href="../PyInfrastructure/ToolChain.Lattice.html#ToolChain.Lattice.Configuration" xlink:title="Configuration routines for Lattice as a vendor." target="_top">
<polygon fill="none" stroke="black" stroke-width="0.5" points="642,-37 491,-37 491,-18 642,-18 642,-37"/>
<text text-anchor="middle" x="566.5" y="-25" font-family="Vera Sans, DejaVu Sans, Liberation Sans, Arial, Helvetica, sans" font-size="10.00">ToolChain.Lattice.Configuration</text>
</a>
</g>
</g>
<!-- ToolChain.VendorConfiguration&#45;&gt;ToolChain.Lattice.Configuration -->
<g id="edge3" class="edge"><title>ToolChain.VendorConfiguration&#45;&gt;ToolChain.Lattice.Configuration</title>
<path fill="none" stroke="black" stroke-width="0.5" d="M455.015,-27.5C465.166,-27.5 475.63,-27.5 485.884,-27.5"/>
<polygon fill="black" stroke="black" stroke-width="0.5" points="485.9,-29.2501 490.9,-27.5 485.899,-25.7501 485.9,-29.2501"/>
</g>
</g>
</svg>
