<?xml version="1.0" encoding="UTF-8" standalone="no"?>
<!DOCTYPE svg PUBLIC "-//W3C//DTD SVG 1.1//EN"
 "http://www.w3.org/Graphics/SVG/1.1/DTD/svg11.dtd">
<!-- Generated by graphviz version 2.38.0 (20140413.2041)
 -->
<!-- Title: inheritance9353401d84 Pages: 1 -->
<svg width="576pt" height="25pt"
 viewBox="0.00 0.00 576.00 25.45" xmlns="http://www.w3.org/2000/svg" xmlns:xlink="http://www.w3.org/1999/xlink">
<g id="graph0" class="graph" transform="scale(0.942717 0.942717) rotate(0) translate(4 23)">
<title>inheritance9353401d84</title>
<polygon fill="white" stroke="none" points="-4,4 -4,-23 607,-23 607,4 -4,4"/>
<!-- DataBase.Config.BaseEnum -->
<g id="node1" class="node"><title>DataBase.Config.BaseEnum</title>
<g id="a_node1"><a xlink:href="../PyInfrastructure/DataBase.Config.html#DataBase.Config.BaseEnum" xlink:title="An enumeration." target="_top">
<polygon fill="none" stroke="black" stroke-width="0.5" points="245,-19 105,-19 105,-0 245,-0 245,-19"/>
<text text-anchor="middle" x="175" y="-7" font-family="Vera Sans, DejaVu Sans, Liberation Sans, Arial, Helvetica, sans" font-size="10.00">DataBase.Config.BaseEnum</text>
</a>
</g>
</g>
<!-- DataBase.Config.Devices -->
<g id="node3" class="node"><title>DataBase.Config.Devices</title>
<g id="a_node3"><a xlink:href="../PyInfrastructure/DataBase.Config.html#DataBase.Config.Devices" xlink:title="Base enum for all Device enums." target="_top">
<polygon fill="none" stroke="black" stroke-width="0.5" points="407,-19 281,-19 281,-0 407,-0 407,-19"/>
<text text-anchor="middle" x="344" y="-7" font-family="Vera Sans, DejaVu Sans, Liberation Sans, Arial, Helvetica, sans" font-size="10.00">DataBase.Config.Devices</text>
</a>
</g>
</g>
<!-- DataBase.Config.BaseEnum&#45;&gt;DataBase.Config.Devices -->
<g id="edge2" class="edge"><title>DataBase.Config.BaseEnum&#45;&gt;DataBase.Config.Devices</title>
<path fill="none" stroke="black" stroke-width="0.5" d="M245.372,-9.5C255.369,-9.5 265.644,-9.5 275.602,-9.5"/>
<polygon fill="black" stroke="black" stroke-width="0.5" points="275.777,-11.2501 280.777,-9.5 275.777,-7.7501 275.777,-11.2501"/>
</g>
<!-- enum.Enum -->
<g id="node2" class="node"><title>enum.Enum</title>
<g id="a_node2"><a xlink:title="Generic enumeration.">
<polygon fill="none" stroke="black" stroke-width="0.5" points="69,-19 0,-19 0,-0 69,-0 69,-19"/>
<text text-anchor="middle" x="34.5" y="-7" font-family="Vera Sans, DejaVu Sans, Liberation Sans, Arial, Helvetica, sans" font-size="10.00">enum.Enum</text>
</a>
</g>
</g>
<!-- enum.Enum&#45;&gt;DataBase.Config.BaseEnum -->
<g id="edge1" class="edge"><title>enum.Enum&#45;&gt;DataBase.Config.BaseEnum</title>
<path fill="none" stroke="black" stroke-width="0.5" d="M69.027,-9.5C78.3837,-9.5 88.9386,-9.5 99.6571,-9.5"/>
<polygon fill="black" stroke="black" stroke-width="0.5" points="99.9276,-11.2501 104.928,-9.5 99.9275,-7.75009 99.9276,-11.2501"/>
</g>
<!-- DataBase.Config.GenericDevices -->
<g id="node4" class="node"><title>DataBase.Config.GenericDevices</title>
<g id="a_node4"><a xlink:href="../PyInfrastructure/DataBase.Config.html#DataBase.Config.GenericDevices" xlink:title="Enumeration of all generic devices." target="_top">
<polygon fill="none" stroke="black" stroke-width="0.5" points="603,-19 443,-19 443,-0 603,-0 603,-19"/>
<text text-anchor="middle" x="523" y="-7" font-family="Vera Sans, DejaVu Sans, Liberation Sans, Arial, Helvetica, sans" font-size="10.00">DataBase.Config.GenericDevices</text>
</a>
</g>
</g>
<!-- DataBase.Config.Devices&#45;&gt;DataBase.Config.GenericDevices -->
<g id="edge3" class="edge"><title>DataBase.Config.Devices&#45;&gt;DataBase.Config.GenericDevices</title>
<path fill="none" stroke="black" stroke-width="0.5" d="M407.404,-9.5C417.24,-9.5 427.549,-9.5 437.781,-9.5"/>
<polygon fill="black" stroke="black" stroke-width="0.5" points="437.795,-11.2501 442.795,-9.5 437.795,-7.7501 437.795,-11.2501"/>
</g>
</g>
</svg>
