<?xml version="1.0" encoding="UTF-8" standalone="no"?>
<!DOCTYPE svg PUBLIC "-//W3C//DTD SVG 1.1//EN"
 "http://www.w3.org/Graphics/SVG/1.1/DTD/svg11.dtd">
<!-- Generated by graphviz version 2.38.0 (20140413.2041)
 -->
<!-- Title: inheritance7b2f8a26e4 Pages: 1 -->
<svg width="576pt" height="47pt"
 viewBox="0.00 0.00 576.00 46.96" xmlns="http://www.w3.org/2000/svg" xmlns:xlink="http://www.w3.org/1999/xlink">
<g id="graph0" class="graph" transform="scale(0.733758 0.733758) rotate(0) translate(4 60)">
<title>inheritance7b2f8a26e4</title>
<polygon fill="white" stroke="none" points="-4,4 -4,-60 781,-60 781,4 -4,4"/>
<!-- DataBase.TestCase.ElementBase -->
<g id="node1" class="node"><title>DataBase.TestCase.ElementBase</title>
<g id="a_node1"><a xlink:href="../PyInfrastructure/DataBase.TestCase.html#DataBase.TestCase.ElementBase" xlink:title="DataBase.TestCase.ElementBase" target="_top">
<polygon fill="none" stroke="black" stroke-width="0.5" points="165,-56 0,-56 0,-37 165,-37 165,-56"/>
<text text-anchor="middle" x="82.5" y="-44" font-family="Vera Sans, DejaVu Sans, Liberation Sans, Arial, Helvetica, sans" font-size="10.00">DataBase.TestCase.ElementBase</text>
</a>
</g>
</g>
<!-- DataBase.TestCase.GroupBase -->
<g id="node2" class="node"><title>DataBase.TestCase.GroupBase</title>
<g id="a_node2"><a xlink:href="../PyInfrastructure/DataBase.TestCase.html#DataBase.TestCase.GroupBase" xlink:title="DataBase.TestCase.GroupBase" target="_top">
<polygon fill="none" stroke="black" stroke-width="0.5" points="356,-56 201,-56 201,-37 356,-37 356,-56"/>
<text text-anchor="middle" x="278.5" y="-44" font-family="Vera Sans, DejaVu Sans, Liberation Sans, Arial, Helvetica, sans" font-size="10.00">DataBase.TestCase.GroupBase</text>
</a>
</g>
</g>
<!-- DataBase.TestCase.ElementBase&#45;&gt;DataBase.TestCase.GroupBase -->
<g id="edge1" class="edge"><title>DataBase.TestCase.ElementBase&#45;&gt;DataBase.TestCase.GroupBase</title>
<path fill="none" stroke="black" stroke-width="0.5" d="M165.211,-46.5C175.264,-46.5 185.541,-46.5 195.597,-46.5"/>
<polygon fill="black" stroke="black" stroke-width="0.5" points="195.833,-48.2501 200.833,-46.5 195.833,-44.7501 195.833,-48.2501"/>
</g>
<!-- DataBase.TestCase.SynthesisGroup -->
<g id="node4" class="node"><title>DataBase.TestCase.SynthesisGroup</title>
<g id="a_node4"><a xlink:href="../PyInfrastructure/DataBase.TestCase.html#DataBase.TestCase.SynthesisGroup" xlink:title="DataBase.TestCase.SynthesisGroup" target="_top">
<polygon fill="none" stroke="black" stroke-width="0.5" points="568,-56 392,-56 392,-37 568,-37 568,-56"/>
<text text-anchor="middle" x="480" y="-44" font-family="Vera Sans, DejaVu Sans, Liberation Sans, Arial, Helvetica, sans" font-size="10.00">DataBase.TestCase.SynthesisGroup</text>
</a>
</g>
</g>
<!-- DataBase.TestCase.GroupBase&#45;&gt;DataBase.TestCase.SynthesisGroup -->
<g id="edge2" class="edge"><title>DataBase.TestCase.GroupBase&#45;&gt;DataBase.TestCase.SynthesisGroup</title>
<path fill="none" stroke="black" stroke-width="0.5" d="M356.061,-46.5C366.165,-46.5 376.606,-46.5 386.935,-46.5"/>
<polygon fill="black" stroke="black" stroke-width="0.5" points="386.995,-48.2501 391.995,-46.5 386.995,-44.7501 386.995,-48.2501"/>
</g>
<!-- DataBase.TestCase.SuiteMixIn -->
<g id="node3" class="node"><title>DataBase.TestCase.SuiteMixIn</title>
<g id="a_node3"><a xlink:href="../PyInfrastructure/DataBase.TestCase.html#DataBase.TestCase.SuiteMixIn" xlink:title="DataBase.TestCase.SuiteMixIn" target="_top">
<polygon fill="none" stroke="black" stroke-width="0.5" points="556,-19 404,-19 404,-0 556,-0 556,-19"/>
<text text-anchor="middle" x="480" y="-7" font-family="Vera Sans, DejaVu Sans, Liberation Sans, Arial, Helvetica, sans" font-size="10.00">DataBase.TestCase.SuiteMixIn</text>
</a>
</g>
</g>
<!-- DataBase.TestCase.SynthesisSuite -->
<g id="node5" class="node"><title>DataBase.TestCase.SynthesisSuite</title>
<g id="a_node5"><a xlink:href="../PyInfrastructure/DataBase.TestCase.html#DataBase.TestCase.SynthesisSuite" xlink:title="DataBase.TestCase.SynthesisSuite" target="_top">
<polygon fill="none" stroke="black" stroke-width="0.5" points="777,-37 604,-37 604,-18 777,-18 777,-37"/>
<text text-anchor="middle" x="690.5" y="-25" font-family="Vera Sans, DejaVu Sans, Liberation Sans, Arial, Helvetica, sans" font-size="10.00">DataBase.TestCase.SynthesisSuite</text>
</a>
</g>
</g>
<!-- DataBase.TestCase.SuiteMixIn&#45;&gt;DataBase.TestCase.SynthesisSuite -->
<g id="edge4" class="edge"><title>DataBase.TestCase.SuiteMixIn&#45;&gt;DataBase.TestCase.SynthesisSuite</title>
<path fill="none" stroke="black" stroke-width="0.5" d="M556.273,-15.9984C569.986,-17.1823 584.426,-18.4289 598.536,-19.647"/>
<polygon fill="black" stroke="black" stroke-width="0.5" points="598.585,-21.4077 603.717,-20.0943 598.886,-17.9206 598.585,-21.4077"/>
</g>
<!-- DataBase.TestCase.SynthesisGroup&#45;&gt;DataBase.TestCase.SynthesisSuite -->
<g id="edge3" class="edge"><title>DataBase.TestCase.SynthesisGroup&#45;&gt;DataBase.TestCase.SynthesisSuite</title>
<path fill="none" stroke="black" stroke-width="0.5" d="M568.215,-38.5524C578.38,-37.6261 588.767,-36.6795 598.976,-35.7492"/>
<polygon fill="black" stroke="black" stroke-width="0.5" points="599.151,-37.4906 603.971,-35.294 598.833,-34.0051 599.151,-37.4906"/>
</g>
</g>
</svg>
