<?xml version="1.0" encoding="UTF-8" standalone="no"?>
<!DOCTYPE svg PUBLIC "-//W3C//DTD SVG 1.1//EN"
 "http://www.w3.org/Graphics/SVG/1.1/DTD/svg11.dtd">
<!-- Generated by graphviz version 2.38.0 (20140413.2041)
 -->
<!-- Title: inheritance2ff5948173 Pages: 1 -->
<svg width="576pt" height="62pt"
 viewBox="0.00 0.00 576.00 62.27" xmlns="http://www.w3.org/2000/svg" xmlns:xlink="http://www.w3.org/1999/xlink">
<g id="graph0" class="graph" transform="scale(0.972973 0.972973) rotate(0) translate(4 60)">
<title>inheritance2ff5948173</title>
<polygon fill="white" stroke="none" points="-4,4 -4,-60 588,-60 588,4 -4,4"/>
<!-- Base.Project.File -->
<g id="node1" class="node"><title>Base.Project.File</title>
<g id="a_node1"><a xlink:href="../PyInfrastructure/Base.Project.html#Base.Project.File" xlink:title="Base.Project.File" target="_top">
<polygon fill="none" stroke="black" stroke-width="0.5" points="126,-56 34,-56 34,-37 126,-37 126,-56"/>
<text text-anchor="middle" x="80" y="-44" font-family="Vera Sans, DejaVu Sans, Liberation Sans, Arial, Helvetica, sans" font-size="10.00">Base.Project.File</text>
</a>
</g>
</g>
<!-- Base.Project.SourceFile -->
<g id="node2" class="node"><title>Base.Project.SourceFile</title>
<g id="a_node2"><a xlink:href="../PyInfrastructure/Base.Project.html#Base.Project.SourceFile" xlink:title="Base.Project.SourceFile" target="_top">
<polygon fill="none" stroke="black" stroke-width="0.5" points="357,-56 235,-56 235,-37 357,-37 357,-56"/>
<text text-anchor="middle" x="296" y="-44" font-family="Vera Sans, DejaVu Sans, Liberation Sans, Arial, Helvetica, sans" font-size="10.00">Base.Project.SourceFile</text>
</a>
</g>
</g>
<!-- Base.Project.File&#45;&gt;Base.Project.SourceFile -->
<g id="edge1" class="edge"><title>Base.Project.File&#45;&gt;Base.Project.SourceFile</title>
<path fill="none" stroke="black" stroke-width="0.5" d="M126.122,-46.5C156.154,-46.5 196.093,-46.5 229.591,-46.5"/>
<polygon fill="black" stroke="black" stroke-width="0.5" points="229.91,-48.2501 234.91,-46.5 229.91,-44.7501 229.91,-48.2501"/>
</g>
<!-- Base.Project.VerilogSourceFile -->
<g id="node3" class="node"><title>Base.Project.VerilogSourceFile</title>
<g id="a_node3"><a xlink:href="../PyInfrastructure/Base.Project.html#Base.Project.VerilogSourceFile" xlink:title="Base.Project.VerilogSourceFile" target="_top">
<polygon fill="none" stroke="black" stroke-width="0.5" points="584,-37 432,-37 432,-18 584,-18 584,-37"/>
<text text-anchor="middle" x="508" y="-25" font-family="Vera Sans, DejaVu Sans, Liberation Sans, Arial, Helvetica, sans" font-size="10.00">Base.Project.VerilogSourceFile</text>
</a>
</g>
</g>
<!-- Base.Project.SourceFile&#45;&gt;Base.Project.VerilogSourceFile -->
<g id="edge2" class="edge"><title>Base.Project.SourceFile&#45;&gt;Base.Project.VerilogSourceFile</title>
<path fill="none" stroke="black" stroke-width="0.5" d="M357.178,-41.0554C378.812,-39.098 403.571,-36.8578 426.648,-34.77"/>
<polygon fill="black" stroke="black" stroke-width="0.5" points="427.03,-36.4926 431.852,-34.2991 426.715,-33.0068 427.03,-36.4926"/>
</g>
<!-- Parser.FilesParser.VerilogSourceFileMixIn -->
<g id="node4" class="node"><title>Parser.FilesParser.VerilogSourceFileMixIn</title>
<g id="a_node4"><a xlink:href="../Parser.FilesParser.html#Parser.FilesParser.VerilogSourceFileMixIn" xlink:title="Parser.FilesParser.VerilogSourceFileMixIn" target="_top">
<polygon fill="none" stroke="black" stroke-width="0.5" points="396,-19 196,-19 196,-0 396,-0 396,-19"/>
<text text-anchor="middle" x="296" y="-7" font-family="Vera Sans, DejaVu Sans, Liberation Sans, Arial, Helvetica, sans" font-size="10.00">Parser.FilesParser.VerilogSourceFileMixIn</text>
</a>
</g>
</g>
<!-- Parser.FilesParser.VerilogSourceFileMixIn&#45;&gt;Base.Project.VerilogSourceFile -->
<g id="edge3" class="edge"><title>Parser.FilesParser.VerilogSourceFileMixIn&#45;&gt;Base.Project.VerilogSourceFile</title>
<path fill="none" stroke="black" stroke-width="0.5" d="M396.158,-17.9993C406.377,-18.8752 416.67,-19.7574 426.648,-20.6127"/>
<polygon fill="black" stroke="black" stroke-width="0.5" points="426.704,-22.3739 431.836,-21.0573 427.003,-18.8866 426.704,-22.3739"/>
</g>
<!-- Parser.FilesParser.FileReference -->
<g id="node5" class="node"><title>Parser.FilesParser.FileReference</title>
<g id="a_node5"><a xlink:href="../Parser.FilesParser.html#Parser.FilesParser.FileReference" xlink:title="Parser.FilesParser.FileReference" target="_top">
<polygon fill="none" stroke="black" stroke-width="0.5" points="160,-19 0,-19 0,-0 160,-0 160,-19"/>
<text text-anchor="middle" x="80" y="-7" font-family="Vera Sans, DejaVu Sans, Liberation Sans, Arial, Helvetica, sans" font-size="10.00">Parser.FilesParser.FileReference</text>
</a>
</g>
</g>
<!-- Parser.FilesParser.FileReference&#45;&gt;Parser.FilesParser.VerilogSourceFileMixIn -->
<g id="edge4" class="edge"><title>Parser.FilesParser.FileReference&#45;&gt;Parser.FilesParser.VerilogSourceFileMixIn</title>
<path fill="none" stroke="black" stroke-width="0.5" d="M160.078,-9.5C170.105,-9.5 180.484,-9.5 190.828,-9.5"/>
<polygon fill="black" stroke="black" stroke-width="0.5" points="190.902,-11.2501 195.902,-9.5 190.902,-7.7501 190.902,-11.2501"/>
</g>
</g>
</svg>
