<?xml version="1.0" encoding="UTF-8" standalone="no"?>
<!DOCTYPE svg PUBLIC "-//W3C//DTD SVG 1.1//EN"
 "http://www.w3.org/Graphics/SVG/1.1/DTD/svg11.dtd">
<!-- Generated by graphviz version 2.38.0 (20140413.2041)
 -->
<!-- Title: inheritanced55021be17 Pages: 1 -->
<svg width="366pt" height="64pt"
 viewBox="0.00 0.00 366.00 64.00" xmlns="http://www.w3.org/2000/svg" xmlns:xlink="http://www.w3.org/1999/xlink">
<g id="graph0" class="graph" transform="scale(1 1) rotate(0) translate(4 60)">
<title>inheritanced55021be17</title>
<polygon fill="white" stroke="none" points="-4,4 -4,-60 362,-60 362,4 -4,4"/>
<!-- Base.Project.File -->
<g id="node1" class="node"><title>Base.Project.File</title>
<g id="a_node1"><a xlink:href="../Base.Project.html#Base.Project.File" xlink:title="Base.Project.File" target="_top">
<polygon fill="none" stroke="black" stroke-width="0.5" points="136.5,-56 44.5,-56 44.5,-37 136.5,-37 136.5,-56"/>
<text text-anchor="middle" x="90.5" y="-44" font-family="Vera Sans, DejaVu Sans, Liberation Sans, Arial, Helvetica, sans" font-size="10.00">Base.Project.File</text>
</a>
</g>
</g>
<!-- DataBase.Solution.RulesFile -->
<g id="node2" class="node"><title>DataBase.Solution.RulesFile</title>
<g id="a_node2"><a xlink:href="../PyInfrastructure/DataBase.Solution.html#DataBase.Solution.RulesFile" xlink:title="DataBase.Solution.RulesFile" target="_top">
<polygon fill="none" stroke="black" stroke-width="0.5" points="358,-37 217,-37 217,-18 358,-18 358,-37"/>
<text text-anchor="middle" x="287.5" y="-25" font-family="Vera Sans, DejaVu Sans, Liberation Sans, Arial, Helvetica, sans" font-size="10.00">DataBase.Solution.RulesFile</text>
</a>
</g>
</g>
<!-- Base.Project.File&#45;&gt;DataBase.Solution.RulesFile -->
<g id="edge1" class="edge"><title>Base.Project.File&#45;&gt;DataBase.Solution.RulesFile</title>
<path fill="none" stroke="black" stroke-width="0.5" d="M136.727,-42.0933C158.983,-39.9247 186.398,-37.2535 211.663,-34.7918"/>
<polygon fill="black" stroke="black" stroke-width="0.5" points="211.879,-36.5291 216.686,-34.3024 211.54,-33.0456 211.879,-36.5291"/>
</g>
<!-- Parser.RulesParser.RulesParserMixIn -->
<g id="node3" class="node"><title>Parser.RulesParser.RulesParserMixIn</title>
<g id="a_node3"><a xlink:href="../Parser.RulesParser.html#Parser.RulesParser.RulesParserMixIn" xlink:title="Parser.RulesParser.RulesParserMixIn" target="_top">
<polygon fill="none" stroke="black" stroke-width="0.5" points="181,-19 0,-19 0,-0 181,-0 181,-19"/>
<text text-anchor="middle" x="90.5" y="-7" font-family="Vera Sans, DejaVu Sans, Liberation Sans, Arial, Helvetica, sans" font-size="10.00">Parser.RulesParser.RulesParserMixIn</text>
</a>
</g>
</g>
<!-- Parser.RulesParser.RulesParserMixIn&#45;&gt;DataBase.Solution.RulesFile -->
<g id="edge2" class="edge"><title>Parser.RulesParser.RulesParserMixIn&#45;&gt;DataBase.Solution.RulesFile</title>
<path fill="none" stroke="black" stroke-width="0.5" d="M181.01,-17.7625C191.241,-18.7069 201.59,-19.6622 211.603,-20.5864"/>
<polygon fill="black" stroke="black" stroke-width="0.5" points="211.666,-22.3496 216.806,-21.0667 211.988,-18.8645 211.666,-22.3496"/>
</g>
</g>
</svg>
