<?xml version="1.0" encoding="UTF-8" standalone="no"?>
<!DOCTYPE svg PUBLIC "-//W3C//DTD SVG 1.1//EN"
 "http://www.w3.org/Graphics/SVG/1.1/DTD/svg11.dtd">
<!-- Generated by graphviz version 2.38.0 (20140413.2041)
 -->
<!-- Title: inheritance4bfd0376cb Pages: 1 -->
<svg width="576pt" height="27pt"
 viewBox="0.00 0.00 576.00 27.00" xmlns="http://www.w3.org/2000/svg" xmlns:xlink="http://www.w3.org/1999/xlink">
<g id="graph0" class="graph" transform="scale(1 1) rotate(0) translate(4 23)">
<title>inheritance4bfd0376cb</title>
<polygon fill="white" stroke="none" points="-4,4 -4,-23 572,-23 572,4 -4,4"/>
<!-- DataBase.TestCase.ElementBase -->
<g id="node1" class="node"><title>DataBase.TestCase.ElementBase</title>
<g id="a_node1"><a xlink:href="../PyInfrastructure/DataBase.TestCase.html#DataBase.TestCase.ElementBase" xlink:title="DataBase.TestCase.ElementBase" target="_top">
<polygon fill="none" stroke="black" stroke-width="0.5" points="165,-19 0,-19 0,-0 165,-0 165,-19"/>
<text text-anchor="middle" x="82.5" y="-7" font-family="Vera Sans, DejaVu Sans, Liberation Sans, Arial, Helvetica, sans" font-size="10.00">DataBase.TestCase.ElementBase</text>
</a>
</g>
</g>
<!-- DataBase.TestCase.GroupBase -->
<g id="node2" class="node"><title>DataBase.TestCase.GroupBase</title>
<g id="a_node2"><a xlink:href="../PyInfrastructure/DataBase.TestCase.html#DataBase.TestCase.GroupBase" xlink:title="DataBase.TestCase.GroupBase" target="_top">
<polygon fill="none" stroke="black" stroke-width="0.5" points="356,-19 201,-19 201,-0 356,-0 356,-19"/>
<text text-anchor="middle" x="278.5" y="-7" font-family="Vera Sans, DejaVu Sans, Liberation Sans, Arial, Helvetica, sans" font-size="10.00">DataBase.TestCase.GroupBase</text>
</a>
</g>
</g>
<!-- DataBase.TestCase.ElementBase&#45;&gt;DataBase.TestCase.GroupBase -->
<g id="edge1" class="edge"><title>DataBase.TestCase.ElementBase&#45;&gt;DataBase.TestCase.GroupBase</title>
<path fill="none" stroke="black" stroke-width="0.5" d="M165.211,-9.5C175.264,-9.5 185.541,-9.5 195.597,-9.5"/>
<polygon fill="black" stroke="black" stroke-width="0.5" points="195.833,-11.2501 200.833,-9.5 195.833,-7.7501 195.833,-11.2501"/>
</g>
<!-- DataBase.TestCase.SynthesisGroup -->
<g id="node3" class="node"><title>DataBase.TestCase.SynthesisGroup</title>
<g id="a_node3"><a xlink:href="../PyInfrastructure/DataBase.TestCase.html#DataBase.TestCase.SynthesisGroup" xlink:title="DataBase.TestCase.SynthesisGroup" target="_top">
<polygon fill="none" stroke="black" stroke-width="0.5" points="568,-19 392,-19 392,-0 568,-0 568,-19"/>
<text text-anchor="middle" x="480" y="-7" font-family="Vera Sans, DejaVu Sans, Liberation Sans, Arial, Helvetica, sans" font-size="10.00">DataBase.TestCase.SynthesisGroup</text>
</a>
</g>
</g>
<!-- DataBase.TestCase.GroupBase&#45;&gt;DataBase.TestCase.SynthesisGroup -->
<g id="edge2" class="edge"><title>DataBase.TestCase.GroupBase&#45;&gt;DataBase.TestCase.SynthesisGroup</title>
<path fill="none" stroke="black" stroke-width="0.5" d="M356.061,-9.5C366.165,-9.5 376.606,-9.5 386.935,-9.5"/>
<polygon fill="black" stroke="black" stroke-width="0.5" points="386.995,-11.2501 391.995,-9.5 386.995,-7.7501 386.995,-11.2501"/>
</g>
</g>
</svg>
