<?xml version="1.0" encoding="UTF-8" standalone="no"?>
<!DOCTYPE svg PUBLIC "-//W3C//DTD SVG 1.1//EN"
 "http://www.w3.org/Graphics/SVG/1.1/DTD/svg11.dtd">
<!-- Generated by graphviz version 2.38.0 (20140413.2041)
 -->
<!-- Title: inheritancec3450aed21 Pages: 1 -->
<svg width="463pt" height="27pt"
 viewBox="0.00 0.00 463.00 27.00" xmlns="http://www.w3.org/2000/svg" xmlns:xlink="http://www.w3.org/1999/xlink">
<g id="graph0" class="graph" transform="scale(1 1) rotate(0) translate(4 23)">
<title>inheritancec3450aed21</title>
<polygon fill="white" stroke="none" points="-4,4 -4,-23 459,-23 459,4 -4,4"/>
<!-- Base.Executable.Executable -->
<g id="node1" class="node"><title>Base.Executable.Executable</title>
<g id="a_node1"><a xlink:href="../Base.Executable.html#Base.Executable.Executable" xlink:title="Represent an executable." target="_top">
<polygon fill="none" stroke="black" stroke-width="0.5" points="294,-19 151,-19 151,-0 294,-0 294,-19"/>
<text text-anchor="middle" x="222.5" y="-7" font-family="Vera Sans, DejaVu Sans, Liberation Sans, Arial, Helvetica, sans" font-size="10.00">Base.Executable.Executable</text>
</a>
</g>
</g>
<!-- ToolChain.Windows.Cmd -->
<g id="node3" class="node"><title>ToolChain.Windows.Cmd</title>
<g id="a_node3"><a xlink:href="../PyInfrastructure/ToolChain.Windows.html#ToolChain.Windows.Cmd" xlink:title="ToolChain.Windows.Cmd" target="_top">
<polygon fill="none" stroke="black" stroke-width="0.5" points="455,-19 330,-19 330,-0 455,-0 455,-19"/>
<text text-anchor="middle" x="392.5" y="-7" font-family="Vera Sans, DejaVu Sans, Liberation Sans, Arial, Helvetica, sans" font-size="10.00">ToolChain.Windows.Cmd</text>
</a>
</g>
</g>
<!-- Base.Executable.Executable&#45;&gt;ToolChain.Windows.Cmd -->
<g id="edge2" class="edge"><title>Base.Executable.Executable&#45;&gt;ToolChain.Windows.Cmd</title>
<path fill="none" stroke="black" stroke-width="0.5" d="M294.26,-9.5C304.34,-9.5 314.681,-9.5 324.682,-9.5"/>
<polygon fill="black" stroke="black" stroke-width="0.5" points="324.878,-11.2501 329.878,-9.5 324.878,-7.7501 324.878,-11.2501"/>
</g>
<!-- Base.Logging.ILogable -->
<g id="node2" class="node"><title>Base.Logging.ILogable</title>
<g id="a_node2"><a xlink:href="../Base.Logging.html#Base.Logging.ILogable" xlink:title="A mixin class to provide local logging methods." target="_top">
<polygon fill="none" stroke="black" stroke-width="0.5" points="115,-19 0,-19 0,-0 115,-0 115,-19"/>
<text text-anchor="middle" x="57.5" y="-7" font-family="Vera Sans, DejaVu Sans, Liberation Sans, Arial, Helvetica, sans" font-size="10.00">Base.Logging.ILogable</text>
</a>
</g>
</g>
<!-- Base.Logging.ILogable&#45;&gt;Base.Executable.Executable -->
<g id="edge1" class="edge"><title>Base.Logging.ILogable&#45;&gt;Base.Executable.Executable</title>
<path fill="none" stroke="black" stroke-width="0.5" d="M115.052,-9.5C125.008,-9.5 135.515,-9.5 145.893,-9.5"/>
<polygon fill="black" stroke="black" stroke-width="0.5" points="145.974,-11.2501 150.974,-9.5 145.974,-7.7501 145.974,-11.2501"/>
</g>
</g>
</svg>
