<?xml version="1.0" encoding="UTF-8" standalone="no"?>
<!DOCTYPE svg PUBLIC "-//W3C//DTD SVG 1.1//EN"
 "http://www.w3.org/Graphics/SVG/1.1/DTD/svg11.dtd">
<!-- Generated by graphviz version 2.38.0 (20140413.2041)
 -->
<!-- Title: inheritancecce0677404 Pages: 1 -->
<svg width="409pt" height="27pt"
 viewBox="0.00 0.00 409.00 27.00" xmlns="http://www.w3.org/2000/svg" xmlns:xlink="http://www.w3.org/1999/xlink">
<g id="graph0" class="graph" transform="scale(1 1) rotate(0) translate(4 23)">
<title>inheritancecce0677404</title>
<polygon fill="white" stroke="none" points="-4,4 -4,-23 405,-23 405,4 -4,4"/>
<!-- lib.Parser.DelimiterToken -->
<g id="node1" class="node"><title>lib.Parser.DelimiterToken</title>
<g id="a_node1"><a xlink:href="../PyInfrastructure/lib.Parser.html#lib.Parser.DelimiterToken" xlink:title="lib.Parser.DelimiterToken" target="_top">
<polygon fill="none" stroke="black" stroke-width="0.5" points="401,-19 276,-19 276,-0 401,-0 401,-19"/>
<text text-anchor="middle" x="338.5" y="-7" font-family="Vera Sans, DejaVu Sans, Liberation Sans, Arial, Helvetica, sans" font-size="10.00">lib.Parser.DelimiterToken</text>
</a>
</g>
</g>
<!-- lib.Parser.ValuedToken -->
<g id="node2" class="node"><title>lib.Parser.ValuedToken</title>
<g id="a_node2"><a xlink:href="../PyInfrastructure/lib.Parser.html#lib.Parser.ValuedToken" xlink:title="lib.Parser.ValuedToken" target="_top">
<polygon fill="none" stroke="black" stroke-width="0.5" points="240,-19 123,-19 123,-0 240,-0 240,-19"/>
<text text-anchor="middle" x="181.5" y="-7" font-family="Vera Sans, DejaVu Sans, Liberation Sans, Arial, Helvetica, sans" font-size="10.00">lib.Parser.ValuedToken</text>
</a>
</g>
</g>
<!-- lib.Parser.ValuedToken&#45;&gt;lib.Parser.DelimiterToken -->
<g id="edge1" class="edge"><title>lib.Parser.ValuedToken&#45;&gt;lib.Parser.DelimiterToken</title>
<path fill="none" stroke="black" stroke-width="0.5" d="M240.216,-9.5C250.111,-9.5 260.467,-9.5 270.578,-9.5"/>
<polygon fill="black" stroke="black" stroke-width="0.5" points="270.84,-11.2501 275.84,-9.5 270.84,-7.7501 270.84,-11.2501"/>
</g>
<!-- lib.Parser.Token -->
<g id="node3" class="node"><title>lib.Parser.Token</title>
<g id="a_node3"><a xlink:href="../PyInfrastructure/lib.Parser.html#lib.Parser.Token" xlink:title="lib.Parser.Token" target="_top">
<polygon fill="none" stroke="black" stroke-width="0.5" points="87,-19 0,-19 0,-0 87,-0 87,-19"/>
<text text-anchor="middle" x="43.5" y="-7" font-family="Vera Sans, DejaVu Sans, Liberation Sans, Arial, Helvetica, sans" font-size="10.00">lib.Parser.Token</text>
</a>
</g>
</g>
<!-- lib.Parser.Token&#45;&gt;lib.Parser.ValuedToken -->
<g id="edge2" class="edge"><title>lib.Parser.Token&#45;&gt;lib.Parser.ValuedToken</title>
<path fill="none" stroke="black" stroke-width="0.5" d="M87.1581,-9.5C96.7981,-9.5 107.231,-9.5 117.51,-9.5"/>
<polygon fill="black" stroke="black" stroke-width="0.5" points="117.54,-11.2501 122.54,-9.5 117.54,-7.7501 117.54,-11.2501"/>
</g>
</g>
</svg>
