<?xml version="1.0" encoding="UTF-8" standalone="no"?>
<!DOCTYPE svg PUBLIC "-//W3C//DTD SVG 1.1//EN"
 "http://www.w3.org/Graphics/SVG/1.1/DTD/svg11.dtd">
<!-- Generated by graphviz version 2.38.0 (20140413.2041)
 -->
<!-- Title: inheritance03b7c746c4 Pages: 1 -->
<svg width="576pt" height="59pt"
 viewBox="0.00 0.00 576.00 58.51" xmlns="http://www.w3.org/2000/svg" xmlns:xlink="http://www.w3.org/1999/xlink">
<g id="graph0" class="graph" transform="scale(0.914286 0.914286) rotate(0) translate(4 60)">
<title>inheritance03b7c746c4</title>
<polygon fill="white" stroke="none" points="-4,4 -4,-60 626,-60 626,4 -4,4"/>
<!-- Base.Exceptions.CommonException -->
<g id="node1" class="node"><title>Base.Exceptions.CommonException</title>
<g id="a_node1"><a xlink:href="../PyInfrastructure/Base.Exceptions.html#Base.Exceptions.CommonException" xlink:title="Base.Exceptions.CommonException" target="_top">
<polygon fill="none" stroke="black" stroke-width="0.5" points="372,-56 196,-56 196,-37 372,-37 372,-56"/>
<text text-anchor="middle" x="284" y="-44" font-family="Vera Sans, DejaVu Sans, Liberation Sans, Arial, Helvetica, sans" font-size="10.00">Base.Exceptions.CommonException</text>
</a>
</g>
</g>
<!-- Base.Exceptions.SkipableCommonException -->
<g id="node3" class="node"><title>Base.Exceptions.SkipableCommonException</title>
<g id="a_node3"><a xlink:href="../PyInfrastructure/Base.Exceptions.html#Base.Exceptions.SkipableCommonException" xlink:title="``SkipableCommonException`` is a :py:exc:`CommonException`, which can be" target="_top">
<polygon fill="none" stroke="black" stroke-width="0.5" points="622,-37 408,-37 408,-18 622,-18 622,-37"/>
<text text-anchor="middle" x="515" y="-25" font-family="Vera Sans, DejaVu Sans, Liberation Sans, Arial, Helvetica, sans" font-size="10.00">Base.Exceptions.SkipableCommonException</text>
</a>
</g>
</g>
<!-- Base.Exceptions.CommonException&#45;&gt;Base.Exceptions.SkipableCommonException -->
<g id="edge2" class="edge"><title>Base.Exceptions.CommonException&#45;&gt;Base.Exceptions.SkipableCommonException</title>
<path fill="none" stroke="black" stroke-width="0.5" d="M372.228,-39.2627C382.222,-38.4336 392.509,-37.58 402.762,-36.7294"/>
<polygon fill="black" stroke="black" stroke-width="0.5" points="402.953,-38.4697 407.791,-36.3121 402.663,-34.9816 402.953,-38.4697"/>
</g>
<!-- Base.Exceptions.ExceptionBase -->
<g id="node2" class="node"><title>Base.Exceptions.ExceptionBase</title>
<g id="a_node2"><a xlink:href="../PyInfrastructure/Base.Exceptions.html#Base.Exceptions.ExceptionBase" xlink:title="Base exception derived from :py:exc:`Exception` for all" target="_top">
<polygon fill="none" stroke="black" stroke-width="0.5" points="160,-37 0,-37 0,-18 160,-18 160,-37"/>
<text text-anchor="middle" x="80" y="-25" font-family="Vera Sans, DejaVu Sans, Liberation Sans, Arial, Helvetica, sans" font-size="10.00">Base.Exceptions.ExceptionBase</text>
</a>
</g>
</g>
<!-- Base.Exceptions.ExceptionBase&#45;&gt;Base.Exceptions.CommonException -->
<g id="edge1" class="edge"><title>Base.Exceptions.ExceptionBase&#45;&gt;Base.Exceptions.CommonException</title>
<path fill="none" stroke="black" stroke-width="0.5" d="M160.256,-34.9548C170.325,-35.9018 180.696,-36.8773 190.943,-37.8412"/>
<polygon fill="black" stroke="black" stroke-width="0.5" points="190.82,-39.5873 195.962,-38.3133 191.148,-36.1026 190.82,-39.5873"/>
</g>
<!-- Base.Exceptions.SkipableException -->
<g id="node4" class="node"><title>Base.Exceptions.SkipableException</title>
<g id="a_node4"><a xlink:href="../PyInfrastructure/Base.Exceptions.html#Base.Exceptions.SkipableException" xlink:title="Base class for all skipable exceptions." target="_top">
<polygon fill="none" stroke="black" stroke-width="0.5" points="371.5,-19 196.5,-19 196.5,-0 371.5,-0 371.5,-19"/>
<text text-anchor="middle" x="284" y="-7" font-family="Vera Sans, DejaVu Sans, Liberation Sans, Arial, Helvetica, sans" font-size="10.00">Base.Exceptions.SkipableException</text>
</a>
</g>
</g>
<!-- Base.Exceptions.ExceptionBase&#45;&gt;Base.Exceptions.SkipableException -->
<g id="edge4" class="edge"><title>Base.Exceptions.ExceptionBase&#45;&gt;Base.Exceptions.SkipableException</title>
<path fill="none" stroke="black" stroke-width="0.5" d="M160.256,-20.4376C170.42,-19.5319 180.892,-18.5988 191.233,-17.6772"/>
<polygon fill="black" stroke="black" stroke-width="0.5" points="191.473,-19.4129 196.298,-17.2259 191.162,-15.9267 191.473,-19.4129"/>
</g>
<!-- Base.Exceptions.SkipableException&#45;&gt;Base.Exceptions.SkipableCommonException -->
<g id="edge3" class="edge"><title>Base.Exceptions.SkipableException&#45;&gt;Base.Exceptions.SkipableCommonException</title>
<path fill="none" stroke="black" stroke-width="0.5" d="M371.575,-16.305C381.698,-17.1007 392.131,-17.9208 402.53,-18.7382"/>
<polygon fill="black" stroke="black" stroke-width="0.5" points="402.509,-20.4919 407.631,-19.1391 402.784,-17.0026 402.509,-20.4919"/>
</g>
</g>
</svg>
