<?xml version="1.0" encoding="UTF-8" standalone="no"?>
<!DOCTYPE svg PUBLIC "-//W3C//DTD SVG 1.1//EN"
 "http://www.w3.org/Graphics/SVG/1.1/DTD/svg11.dtd">
<!-- Generated by graphviz version 2.38.0 (20140413.2041)
 -->
<!-- Title: inheritancec23bd379a8 Pages: 1 -->
<svg width="576pt" height="42pt"
 viewBox="0.00 0.00 576.00 42.37" xmlns="http://www.w3.org/2000/svg" xmlns:xlink="http://www.w3.org/1999/xlink">
<g id="graph0" class="graph" transform="scale(0.662069 0.662069) rotate(0) translate(4 60)">
<title>inheritancec23bd379a8</title>
<polygon fill="white" stroke="none" points="-4,4 -4,-60 866,-60 866,4 -4,4"/>
<!-- Base.Executable.Executable -->
<g id="node1" class="node"><title>Base.Executable.Executable</title>
<g id="a_node1"><a xlink:href="../Base.Executable.html#Base.Executable.Executable" xlink:title="Represent an executable." target="_top">
<polygon fill="none" stroke="black" stroke-width="0.5" points="294,-19 151,-19 151,-0 294,-0 294,-19"/>
<text text-anchor="middle" x="222.5" y="-7" font-family="Vera Sans, DejaVu Sans, Liberation Sans, Arial, Helvetica, sans" font-size="10.00">Base.Executable.Executable</text>
</a>
</g>
</g>
<!-- ToolChain.OutputFilteredExecutable -->
<g id="node4" class="node"><title>ToolChain.OutputFilteredExecutable</title>
<polygon fill="none" stroke="black" stroke-width="0.5" points="503,-19 330,-19 330,-0 503,-0 503,-19"/>
<text text-anchor="middle" x="416.5" y="-7" font-family="Vera Sans, DejaVu Sans, Liberation Sans, Arial, Helvetica, sans" font-size="10.00">ToolChain.OutputFilteredExecutable</text>
</g>
<!-- Base.Executable.Executable&#45;&gt;ToolChain.OutputFilteredExecutable -->
<g id="edge5" class="edge"><title>Base.Executable.Executable&#45;&gt;ToolChain.OutputFilteredExecutable</title>
<path fill="none" stroke="black" stroke-width="0.5" d="M294.176,-9.5C304.192,-9.5 314.604,-9.5 324.931,-9.5"/>
<polygon fill="black" stroke="black" stroke-width="0.5" points="324.993,-11.2501 329.993,-9.5 324.992,-7.7501 324.993,-11.2501"/>
</g>
<!-- Base.Logging.ILogable -->
<g id="node2" class="node"><title>Base.Logging.ILogable</title>
<g id="a_node2"><a xlink:href="../Base.Logging.html#Base.Logging.ILogable" xlink:title="A mixin class to provide local logging methods." target="_top">
<polygon fill="none" stroke="black" stroke-width="0.5" points="115,-19 0,-19 0,-0 115,-0 115,-19"/>
<text text-anchor="middle" x="57.5" y="-7" font-family="Vera Sans, DejaVu Sans, Liberation Sans, Arial, Helvetica, sans" font-size="10.00">Base.Logging.ILogable</text>
</a>
</g>
</g>
<!-- Base.Logging.ILogable&#45;&gt;Base.Executable.Executable -->
<g id="edge1" class="edge"><title>Base.Logging.ILogable&#45;&gt;Base.Executable.Executable</title>
<path fill="none" stroke="black" stroke-width="0.5" d="M115.052,-9.5C125.008,-9.5 135.515,-9.5 145.893,-9.5"/>
<polygon fill="black" stroke="black" stroke-width="0.5" points="145.974,-11.2501 150.974,-9.5 145.974,-7.7501 145.974,-11.2501"/>
</g>
<!-- ToolChain.Altera.Quartus.Map -->
<g id="node3" class="node"><title>ToolChain.Altera.Quartus.Map</title>
<g id="a_node3"><a xlink:href="../ToolChain.Altera.Quartus.html#ToolChain.Altera.Quartus.Map" xlink:title="ToolChain.Altera.Quartus.Map" target="_top">
<polygon fill="none" stroke="black" stroke-width="0.5" points="686,-37 539,-37 539,-18 686,-18 686,-37"/>
<text text-anchor="middle" x="612.5" y="-25" font-family="Vera Sans, DejaVu Sans, Liberation Sans, Arial, Helvetica, sans" font-size="10.00">ToolChain.Altera.Quartus.Map</text>
</a>
</g>
</g>
<!-- ToolChain.Intel.Quartus.Map -->
<g id="node6" class="node"><title>ToolChain.Intel.Quartus.Map</title>
<g id="a_node6"><a xlink:href="../PyInfrastructure/ToolChain.Intel.Quartus.html#ToolChain.Intel.Quartus.Map" xlink:title="ToolChain.Intel.Quartus.Map" target="_top">
<polygon fill="none" stroke="black" stroke-width="0.5" points="862,-37 722,-37 722,-18 862,-18 862,-37"/>
<text text-anchor="middle" x="792" y="-25" font-family="Vera Sans, DejaVu Sans, Liberation Sans, Arial, Helvetica, sans" font-size="10.00">ToolChain.Intel.Quartus.Map</text>
</a>
</g>
</g>
<!-- ToolChain.Altera.Quartus.Map&#45;&gt;ToolChain.Intel.Quartus.Map -->
<g id="edge4" class="edge"><title>ToolChain.Altera.Quartus.Map&#45;&gt;ToolChain.Intel.Quartus.Map</title>
<path fill="none" stroke="black" stroke-width="0.5" d="M686.208,-27.5C696.236,-27.5 706.547,-27.5 716.605,-27.5"/>
<polygon fill="black" stroke="black" stroke-width="0.5" points="716.839,-29.2501 721.839,-27.5 716.839,-25.7501 716.839,-29.2501"/>
</g>
<!-- ToolChain.OutputFilteredExecutable&#45;&gt;ToolChain.Altera.Quartus.Map -->
<g id="edge2" class="edge"><title>ToolChain.OutputFilteredExecutable&#45;&gt;ToolChain.Altera.Quartus.Map</title>
<path fill="none" stroke="black" stroke-width="0.5" d="M503.156,-17.4475C513.269,-18.3858 523.549,-19.3396 533.548,-20.2673"/>
<polygon fill="black" stroke="black" stroke-width="0.5" points="533.608,-22.0304 538.748,-20.7499 533.932,-18.5453 533.608,-22.0304"/>
</g>
<!-- ToolChain.ToolMixIn -->
<g id="node5" class="node"><title>ToolChain.ToolMixIn</title>
<g id="a_node5"><a xlink:href="../ToolChain.html#ToolChain.ToolMixIn" xlink:title="ToolChain.ToolMixIn" target="_top">
<polygon fill="none" stroke="black" stroke-width="0.5" points="468.5,-56 364.5,-56 364.5,-37 468.5,-37 468.5,-56"/>
<text text-anchor="middle" x="416.5" y="-44" font-family="Vera Sans, DejaVu Sans, Liberation Sans, Arial, Helvetica, sans" font-size="10.00">ToolChain.ToolMixIn</text>
</a>
</g>
</g>
<!-- ToolChain.ToolMixIn&#45;&gt;ToolChain.Altera.Quartus.Map -->
<g id="edge3" class="edge"><title>ToolChain.ToolMixIn&#45;&gt;ToolChain.Altera.Quartus.Map</title>
<path fill="none" stroke="black" stroke-width="0.5" d="M468.725,-41.4831C488.575,-39.539 511.744,-37.27 533.571,-35.1322"/>
<polygon fill="black" stroke="black" stroke-width="0.5" points="533.987,-36.85 538.792,-34.6209 533.645,-33.3667 533.987,-36.85"/>
</g>
</g>
</svg>
