<?xml version="1.0" encoding="UTF-8" standalone="no"?>
<!DOCTYPE svg PUBLIC "-//W3C//DTD SVG 1.1//EN"
 "http://www.w3.org/Graphics/SVG/1.1/DTD/svg11.dtd">
<!-- Generated by graphviz version 2.38.0 (20140413.2041)
 -->
<!-- Title: inheritance20c1a8bc65 Pages: 1 -->
<svg width="576pt" height="16pt"
 viewBox="0.00 0.00 576.00 16.49" xmlns="http://www.w3.org/2000/svg" xmlns:xlink="http://www.w3.org/1999/xlink">
<g id="graph0" class="graph" transform="scale(0.610817 0.610817) rotate(0) translate(4 23)">
<title>inheritance20c1a8bc65</title>
<polygon fill="white" stroke="none" points="-4,4 -4,-23 939,-23 939,4 -4,4"/>
<!-- Base.Executable.CommandArgument -->
<g id="node1" class="node"><title>Base.Executable.CommandArgument</title>
<g id="a_node1"><a xlink:href="../PyInfrastructure/Base.Executable.html#Base.Executable.CommandArgument" xlink:title="Represents a command name." target="_top">
<polygon fill="none" stroke="black" stroke-width="0.5" points="679,-19 499,-19 499,-0 679,-0 679,-19"/>
<text text-anchor="middle" x="589" y="-7" font-family="Vera Sans, DejaVu Sans, Liberation Sans, Arial, Helvetica, sans" font-size="10.00">Base.Executable.CommandArgument</text>
</a>
</g>
</g>
<!-- Base.Executable.WindowsCommandArgument -->
<g id="node4" class="node"><title>Base.Executable.WindowsCommandArgument</title>
<g id="a_node4"><a xlink:href="../PyInfrastructure/Base.Executable.html#Base.Executable.WindowsCommandArgument" xlink:title="Represents a command name with a single slash." target="_top">
<polygon fill="none" stroke="black" stroke-width="0.5" points="935,-19 715,-19 715,-0 935,-0 935,-19"/>
<text text-anchor="middle" x="825" y="-7" font-family="Vera Sans, DejaVu Sans, Liberation Sans, Arial, Helvetica, sans" font-size="10.00">Base.Executable.WindowsCommandArgument</text>
</a>
</g>
</g>
<!-- Base.Executable.CommandArgument&#45;&gt;Base.Executable.WindowsCommandArgument -->
<g id="edge3" class="edge"><title>Base.Executable.CommandArgument&#45;&gt;Base.Executable.WindowsCommandArgument</title>
<path fill="none" stroke="black" stroke-width="0.5" d="M679.133,-9.5C689.122,-9.5 699.4,-9.5 709.65,-9.5"/>
<polygon fill="black" stroke="black" stroke-width="0.5" points="709.678,-11.2501 714.678,-9.5 709.678,-7.7501 709.678,-11.2501"/>
</g>
<!-- Base.Executable.NamedCommandLineArgument -->
<g id="node2" class="node"><title>Base.Executable.NamedCommandLineArgument</title>
<g id="a_node2"><a xlink:href="../PyInfrastructure/Base.Executable.html#Base.Executable.NamedCommandLineArgument" xlink:title="Base class for all command line arguments with a name." target="_top">
<polygon fill="none" stroke="black" stroke-width="0.5" points="463,-19 234,-19 234,-0 463,-0 463,-19"/>
<text text-anchor="middle" x="348.5" y="-7" font-family="Vera Sans, DejaVu Sans, Liberation Sans, Arial, Helvetica, sans" font-size="10.00">Base.Executable.NamedCommandLineArgument</text>
</a>
</g>
</g>
<!-- Base.Executable.NamedCommandLineArgument&#45;&gt;Base.Executable.CommandArgument -->
<g id="edge1" class="edge"><title>Base.Executable.NamedCommandLineArgument&#45;&gt;Base.Executable.CommandArgument</title>
<path fill="none" stroke="black" stroke-width="0.5" d="M463.162,-9.5C473.379,-9.5 483.65,-9.5 493.676,-9.5"/>
<polygon fill="black" stroke="black" stroke-width="0.5" points="493.895,-11.2501 498.895,-9.5 493.895,-7.7501 493.895,-11.2501"/>
</g>
<!-- Base.Executable.CommandLineArgument -->
<g id="node3" class="node"><title>Base.Executable.CommandLineArgument</title>
<g id="a_node3"><a xlink:href="../PyInfrastructure/Base.Executable.html#Base.Executable.CommandLineArgument" xlink:title="Base class (and meta class) for all Arguments classes." target="_top">
<polygon fill="none" stroke="black" stroke-width="0.5" points="198,-19 0,-19 0,-0 198,-0 198,-19"/>
<text text-anchor="middle" x="99" y="-7" font-family="Vera Sans, DejaVu Sans, Liberation Sans, Arial, Helvetica, sans" font-size="10.00">Base.Executable.CommandLineArgument</text>
</a>
</g>
</g>
<!-- Base.Executable.CommandLineArgument&#45;&gt;Base.Executable.NamedCommandLineArgument -->
<g id="edge2" class="edge"><title>Base.Executable.CommandLineArgument&#45;&gt;Base.Executable.NamedCommandLineArgument</title>
<path fill="none" stroke="black" stroke-width="0.5" d="M198.174,-9.5C208.265,-9.5 218.592,-9.5 228.873,-9.5"/>
<polygon fill="black" stroke="black" stroke-width="0.5" points="228.915,-11.2501 233.915,-9.5 228.915,-7.7501 228.915,-11.2501"/>
</g>
</g>
</svg>
