<?xml version="1.0" encoding="UTF-8" standalone="no"?>
<!DOCTYPE svg PUBLIC "-//W3C//DTD SVG 1.1//EN"
 "http://www.w3.org/Graphics/SVG/1.1/DTD/svg11.dtd">
<!-- Generated by graphviz version 2.38.0 (20140413.2041)
 -->
<!-- Title: inheritance44d16fa3e5 Pages: 1 -->
<svg width="576pt" height="20pt"
 viewBox="0.00 0.00 576.00 20.04" xmlns="http://www.w3.org/2000/svg" xmlns:xlink="http://www.w3.org/1999/xlink">
<g id="graph0" class="graph" transform="scale(0.742268 0.742268) rotate(0) translate(4 23)">
<title>inheritance44d16fa3e5</title>
<polygon fill="white" stroke="none" points="-4,4 -4,-23 772,-23 772,4 -4,4"/>
<!-- Parser.FilesCodeDOM.ConstraintStatement -->
<g id="node1" class="node"><title>Parser.FilesCodeDOM.ConstraintStatement</title>
<g id="a_node1"><a xlink:href="../PyInfrastructure/Parser.FilesCodeDOM.html#Parser.FilesCodeDOM.ConstraintStatement" xlink:title="Parser.FilesCodeDOM.ConstraintStatement" target="_top">
<polygon fill="none" stroke="black" stroke-width="0.5" points="551,-19 345,-19 345,-0 551,-0 551,-19"/>
<text text-anchor="middle" x="448" y="-7" font-family="Vera Sans, DejaVu Sans, Liberation Sans, Arial, Helvetica, sans" font-size="10.00">Parser.FilesCodeDOM.ConstraintStatement</text>
</a>
</g>
</g>
<!-- Parser.FilesCodeDOM.XDCStatement -->
<g id="node3" class="node"><title>Parser.FilesCodeDOM.XDCStatement</title>
<g id="a_node3"><a xlink:href="../PyInfrastructure/Parser.FilesCodeDOM.html#Parser.FilesCodeDOM.XDCStatement" xlink:title="Parser.FilesCodeDOM.XDCStatement" target="_top">
<polygon fill="none" stroke="black" stroke-width="0.5" points="768,-19 587,-19 587,-0 768,-0 768,-19"/>
<text text-anchor="middle" x="677.5" y="-7" font-family="Vera Sans, DejaVu Sans, Liberation Sans, Arial, Helvetica, sans" font-size="10.00">Parser.FilesCodeDOM.XDCStatement</text>
</a>
</g>
</g>
<!-- Parser.FilesCodeDOM.ConstraintStatement&#45;&gt;Parser.FilesCodeDOM.XDCStatement -->
<g id="edge2" class="edge"><title>Parser.FilesCodeDOM.ConstraintStatement&#45;&gt;Parser.FilesCodeDOM.XDCStatement</title>
<path fill="none" stroke="black" stroke-width="0.5" d="M551.104,-9.5C561.264,-9.5 571.549,-9.5 581.63,-9.5"/>
<polygon fill="black" stroke="black" stroke-width="0.5" points="581.881,-11.2501 586.881,-9.5 581.881,-7.7501 581.881,-11.2501"/>
</g>
<!-- lib.CodeDOM.Statement -->
<g id="node2" class="node"><title>lib.CodeDOM.Statement</title>
<g id="a_node2"><a xlink:href="../lib.CodeDOM.html#lib.CodeDOM.Statement" xlink:title="lib.CodeDOM.Statement" target="_top">
<polygon fill="none" stroke="black" stroke-width="0.5" points="309,-19 187,-19 187,-0 309,-0 309,-19"/>
<text text-anchor="middle" x="248" y="-7" font-family="Vera Sans, DejaVu Sans, Liberation Sans, Arial, Helvetica, sans" font-size="10.00">lib.CodeDOM.Statement</text>
</a>
</g>
</g>
<!-- lib.CodeDOM.Statement&#45;&gt;Parser.FilesCodeDOM.ConstraintStatement -->
<g id="edge1" class="edge"><title>lib.CodeDOM.Statement&#45;&gt;Parser.FilesCodeDOM.ConstraintStatement</title>
<path fill="none" stroke="black" stroke-width="0.5" d="M309.213,-9.5C318.893,-9.5 329.16,-9.5 339.553,-9.5"/>
<polygon fill="black" stroke="black" stroke-width="0.5" points="339.662,-11.2501 344.662,-9.5 339.662,-7.7501 339.662,-11.2501"/>
</g>
<!-- lib.CodeDOM.CodeDOMObject -->
<g id="node4" class="node"><title>lib.CodeDOM.CodeDOMObject</title>
<g id="a_node4"><a xlink:href="../lib.CodeDOM.html#lib.CodeDOM.CodeDOMObject" xlink:title="lib.CodeDOM.CodeDOMObject" target="_top">
<polygon fill="none" stroke="black" stroke-width="0.5" points="151,-19 0,-19 0,-0 151,-0 151,-19"/>
<text text-anchor="middle" x="75.5" y="-7" font-family="Vera Sans, DejaVu Sans, Liberation Sans, Arial, Helvetica, sans" font-size="10.00">lib.CodeDOM.CodeDOMObject</text>
</a>
</g>
</g>
<!-- lib.CodeDOM.CodeDOMObject&#45;&gt;lib.CodeDOM.Statement -->
<g id="edge3" class="edge"><title>lib.CodeDOM.CodeDOMObject&#45;&gt;lib.CodeDOM.Statement</title>
<path fill="none" stroke="black" stroke-width="0.5" d="M151.284,-9.5C161.418,-9.5 171.752,-9.5 181.701,-9.5"/>
<polygon fill="black" stroke="black" stroke-width="0.5" points="181.867,-11.2501 186.867,-9.5 181.866,-7.7501 181.867,-11.2501"/>
</g>
</g>
</svg>
