<?xml version="1.0" encoding="UTF-8" standalone="no"?>
<!DOCTYPE svg PUBLIC "-//W3C//DTD SVG 1.1//EN"
 "http://www.w3.org/Graphics/SVG/1.1/DTD/svg11.dtd">
<!-- Generated by graphviz version 2.38.0 (20140413.2041)
 -->
<!-- Title: inheritance77585cf1e0 Pages: 1 -->
<svg width="576pt" height="27pt"
 viewBox="0.00 0.00 576.00 26.54" xmlns="http://www.w3.org/2000/svg" xmlns:xlink="http://www.w3.org/1999/xlink">
<g id="graph0" class="graph" transform="scale(0.982935 0.982935) rotate(0) translate(4 23)">
<title>inheritance77585cf1e0</title>
<polygon fill="white" stroke="none" points="-4,4 -4,-23 582,-23 582,4 -4,4"/>
<!-- DataBase.Entity.BaseFlags -->
<g id="node1" class="node"><title>DataBase.Entity.BaseFlags</title>
<g id="a_node1"><a xlink:href="../PyInfrastructure/DataBase.Entity.html#DataBase.Entity.BaseFlags" xlink:title="DataBase.Entity.BaseFlags" target="_top">
<polygon fill="none" stroke="black" stroke-width="0.5" points="404,-19 267,-19 267,-0 404,-0 404,-19"/>
<text text-anchor="middle" x="335.5" y="-7" font-family="Vera Sans, DejaVu Sans, Liberation Sans, Arial, Helvetica, sans" font-size="10.00">DataBase.Entity.BaseFlags</text>
</a>
</g>
</g>
<!-- DataBase.Entity.NetlistKind -->
<g id="node3" class="node"><title>DataBase.Entity.NetlistKind</title>
<g id="a_node3"><a xlink:href="../PyInfrastructure/DataBase.Entity.html#DataBase.Entity.NetlistKind" xlink:title="DataBase.Entity.NetlistKind" target="_top">
<polygon fill="none" stroke="black" stroke-width="0.5" points="578,-19 440,-19 440,-0 578,-0 578,-19"/>
<text text-anchor="middle" x="509" y="-7" font-family="Vera Sans, DejaVu Sans, Liberation Sans, Arial, Helvetica, sans" font-size="10.00">DataBase.Entity.NetlistKind</text>
</a>
</g>
</g>
<!-- DataBase.Entity.BaseFlags&#45;&gt;DataBase.Entity.NetlistKind -->
<g id="edge2" class="edge"><title>DataBase.Entity.BaseFlags&#45;&gt;DataBase.Entity.NetlistKind</title>
<path fill="none" stroke="black" stroke-width="0.5" d="M404.281,-9.5C414.248,-9.5 424.553,-9.5 434.625,-9.5"/>
<polygon fill="black" stroke="black" stroke-width="0.5" points="434.868,-11.2501 439.868,-9.5 434.868,-7.7501 434.868,-11.2501"/>
</g>
<!-- flags.Flags -->
<g id="node2" class="node"><title>flags.Flags</title>
<polygon fill="none" stroke="black" stroke-width="0.5" points="231,-19 167,-19 167,-0 231,-0 231,-19"/>
<text text-anchor="middle" x="199" y="-7" font-family="Vera Sans, DejaVu Sans, Liberation Sans, Arial, Helvetica, sans" font-size="10.00">flags.Flags</text>
</g>
<!-- flags.Flags&#45;&gt;DataBase.Entity.BaseFlags -->
<g id="edge1" class="edge"><title>flags.Flags&#45;&gt;DataBase.Entity.BaseFlags</title>
<path fill="none" stroke="black" stroke-width="0.5" d="M231.195,-9.5C240.398,-9.5 250.881,-9.5 261.556,-9.5"/>
<polygon fill="black" stroke="black" stroke-width="0.5" points="261.807,-11.2501 266.807,-9.5 261.807,-7.7501 261.807,-11.2501"/>
</g>
<!-- flags.FlagsArithmeticMixin -->
<g id="node4" class="node"><title>flags.FlagsArithmeticMixin</title>
<polygon fill="none" stroke="black" stroke-width="0.5" points="131,-19 0,-19 0,-0 131,-0 131,-19"/>
<text text-anchor="middle" x="65.5" y="-7" font-family="Vera Sans, DejaVu Sans, Liberation Sans, Arial, Helvetica, sans" font-size="10.00">flags.FlagsArithmeticMixin</text>
</g>
<!-- flags.FlagsArithmeticMixin&#45;&gt;flags.Flags -->
<g id="edge3" class="edge"><title>flags.FlagsArithmeticMixin&#45;&gt;flags.Flags</title>
<path fill="none" stroke="black" stroke-width="0.5" d="M131.094,-9.5C141.617,-9.5 152.178,-9.5 161.701,-9.5"/>
<polygon fill="black" stroke="black" stroke-width="0.5" points="161.878,-11.2501 166.878,-9.5 161.878,-7.7501 161.878,-11.2501"/>
</g>
</g>
</svg>
