<?xml version="1.0" encoding="UTF-8" standalone="no"?>
<!DOCTYPE svg PUBLIC "-//W3C//DTD SVG 1.1//EN"
 "http://www.w3.org/Graphics/SVG/1.1/DTD/svg11.dtd">
<!-- Generated by graphviz version 2.38.0 (20140413.2041)
 -->
<!-- Title: inheritance603f005e44 Pages: 1 -->
<svg width="576pt" height="22pt"
 viewBox="0.00 0.00 576.00 22.31" xmlns="http://www.w3.org/2000/svg" xmlns:xlink="http://www.w3.org/1999/xlink">
<g id="graph0" class="graph" transform="scale(0.826399 0.826399) rotate(0) translate(4 23)">
<title>inheritance603f005e44</title>
<polygon fill="white" stroke="none" points="-4,4 -4,-23 693,-23 693,4 -4,4"/>
<!-- Parser.FilesCodeDOM.Document -->
<g id="node1" class="node"><title>Parser.FilesCodeDOM.Document</title>
<g id="a_node1"><a xlink:href="../PyInfrastructure/Parser.FilesCodeDOM.html#Parser.FilesCodeDOM.Document" xlink:title="Parser.FilesCodeDOM.Document" target="_top">
<polygon fill="none" stroke="black" stroke-width="0.5" points="689,-19 528,-19 528,-0 689,-0 689,-19"/>
<text text-anchor="middle" x="608.5" y="-7" font-family="Vera Sans, DejaVu Sans, Liberation Sans, Arial, Helvetica, sans" font-size="10.00">Parser.FilesCodeDOM.Document</text>
</a>
</g>
</g>
<!-- lib.CodeDOM.BlockStatement -->
<g id="node2" class="node"><title>lib.CodeDOM.BlockStatement</title>
<g id="a_node2"><a xlink:href="../lib.CodeDOM.html#lib.CodeDOM.BlockStatement" xlink:title="lib.CodeDOM.BlockStatement" target="_top">
<polygon fill="none" stroke="black" stroke-width="0.5" points="492,-19 345,-19 345,-0 492,-0 492,-19"/>
<text text-anchor="middle" x="418.5" y="-7" font-family="Vera Sans, DejaVu Sans, Liberation Sans, Arial, Helvetica, sans" font-size="10.00">lib.CodeDOM.BlockStatement</text>
</a>
</g>
</g>
<!-- lib.CodeDOM.BlockStatement&#45;&gt;Parser.FilesCodeDOM.Document -->
<g id="edge1" class="edge"><title>lib.CodeDOM.BlockStatement&#45;&gt;Parser.FilesCodeDOM.Document</title>
<path fill="none" stroke="black" stroke-width="0.5" d="M492.186,-9.5C502.22,-9.5 512.596,-9.5 522.823,-9.5"/>
<polygon fill="black" stroke="black" stroke-width="0.5" points="522.83,-11.2501 527.83,-9.5 522.83,-7.7501 522.83,-11.2501"/>
</g>
<!-- lib.CodeDOM.Statement -->
<g id="node3" class="node"><title>lib.CodeDOM.Statement</title>
<g id="a_node3"><a xlink:href="../lib.CodeDOM.html#lib.CodeDOM.Statement" xlink:title="lib.CodeDOM.Statement" target="_top">
<polygon fill="none" stroke="black" stroke-width="0.5" points="309,-19 187,-19 187,-0 309,-0 309,-19"/>
<text text-anchor="middle" x="248" y="-7" font-family="Vera Sans, DejaVu Sans, Liberation Sans, Arial, Helvetica, sans" font-size="10.00">lib.CodeDOM.Statement</text>
</a>
</g>
</g>
<!-- lib.CodeDOM.Statement&#45;&gt;lib.CodeDOM.BlockStatement -->
<g id="edge2" class="edge"><title>lib.CodeDOM.Statement&#45;&gt;lib.CodeDOM.BlockStatement</title>
<path fill="none" stroke="black" stroke-width="0.5" d="M309.356,-9.5C319.257,-9.5 329.638,-9.5 339.886,-9.5"/>
<polygon fill="black" stroke="black" stroke-width="0.5" points="339.904,-11.2501 344.904,-9.5 339.904,-7.7501 339.904,-11.2501"/>
</g>
<!-- lib.CodeDOM.CodeDOMObject -->
<g id="node4" class="node"><title>lib.CodeDOM.CodeDOMObject</title>
<g id="a_node4"><a xlink:href="../lib.CodeDOM.html#lib.CodeDOM.CodeDOMObject" xlink:title="lib.CodeDOM.CodeDOMObject" target="_top">
<polygon fill="none" stroke="black" stroke-width="0.5" points="151,-19 0,-19 0,-0 151,-0 151,-19"/>
<text text-anchor="middle" x="75.5" y="-7" font-family="Vera Sans, DejaVu Sans, Liberation Sans, Arial, Helvetica, sans" font-size="10.00">lib.CodeDOM.CodeDOMObject</text>
</a>
</g>
</g>
<!-- lib.CodeDOM.CodeDOMObject&#45;&gt;lib.CodeDOM.Statement -->
<g id="edge3" class="edge"><title>lib.CodeDOM.CodeDOMObject&#45;&gt;lib.CodeDOM.Statement</title>
<path fill="none" stroke="black" stroke-width="0.5" d="M151.284,-9.5C161.418,-9.5 171.752,-9.5 181.701,-9.5"/>
<polygon fill="black" stroke="black" stroke-width="0.5" points="181.867,-11.2501 186.867,-9.5 181.866,-7.7501 181.867,-11.2501"/>
</g>
</g>
</svg>
