<?xml version="1.0" encoding="UTF-8" standalone="no"?>
<!DOCTYPE svg PUBLIC "-//W3C//DTD SVG 1.1//EN"
 "http://www.w3.org/Graphics/SVG/1.1/DTD/svg11.dtd">
<!-- Generated by graphviz version 2.38.0 (20140413.2041)
 -->
<!-- Title: inheritance1e2dbad43f Pages: 1 -->
<svg width="576pt" height="17pt"
 viewBox="0.00 0.00 576.00 16.65" xmlns="http://www.w3.org/2000/svg" xmlns:xlink="http://www.w3.org/1999/xlink">
<g id="graph0" class="graph" transform="scale(0.616702 0.616702) rotate(0) translate(4 23)">
<title>inheritance1e2dbad43f</title>
<polygon fill="white" stroke="none" points="-4,4 -4,-23 930,-23 930,4 -4,4"/>
<!-- Parser.FilesCodeDOM.IfStatement -->
<g id="node1" class="node"><title>Parser.FilesCodeDOM.IfStatement</title>
<g id="a_node1"><a xlink:href="../PyInfrastructure/Parser.FilesCodeDOM.html#Parser.FilesCodeDOM.IfStatement" xlink:title="Parser.FilesCodeDOM.IfStatement" target="_top">
<polygon fill="none" stroke="black" stroke-width="0.5" points="926,-19 759,-19 759,-0 926,-0 926,-19"/>
<text text-anchor="middle" x="842.5" y="-7" font-family="Vera Sans, DejaVu Sans, Liberation Sans, Arial, Helvetica, sans" font-size="10.00">Parser.FilesCodeDOM.IfStatement</text>
</a>
</g>
</g>
<!-- lib.CodeDOM.ConditionalBlockStatement -->
<g id="node2" class="node"><title>lib.CodeDOM.ConditionalBlockStatement</title>
<g id="a_node2"><a xlink:href="../lib.CodeDOM.html#lib.CodeDOM.ConditionalBlockStatement" xlink:title="lib.CodeDOM.ConditionalBlockStatement" target="_top">
<polygon fill="none" stroke="black" stroke-width="0.5" points="723,-19 528,-19 528,-0 723,-0 723,-19"/>
<text text-anchor="middle" x="625.5" y="-7" font-family="Vera Sans, DejaVu Sans, Liberation Sans, Arial, Helvetica, sans" font-size="10.00">lib.CodeDOM.ConditionalBlockStatement</text>
</a>
</g>
</g>
<!-- lib.CodeDOM.ConditionalBlockStatement&#45;&gt;Parser.FilesCodeDOM.IfStatement -->
<g id="edge1" class="edge"><title>lib.CodeDOM.ConditionalBlockStatement&#45;&gt;Parser.FilesCodeDOM.IfStatement</title>
<path fill="none" stroke="black" stroke-width="0.5" d="M723.308,-9.5C733.369,-9.5 743.556,-9.5 753.512,-9.5"/>
<polygon fill="black" stroke="black" stroke-width="0.5" points="753.695,-11.2501 758.695,-9.5 753.695,-7.7501 753.695,-11.2501"/>
</g>
<!-- lib.CodeDOM.BlockStatement -->
<g id="node3" class="node"><title>lib.CodeDOM.BlockStatement</title>
<g id="a_node3"><a xlink:href="../lib.CodeDOM.html#lib.CodeDOM.BlockStatement" xlink:title="lib.CodeDOM.BlockStatement" target="_top">
<polygon fill="none" stroke="black" stroke-width="0.5" points="492,-19 345,-19 345,-0 492,-0 492,-19"/>
<text text-anchor="middle" x="418.5" y="-7" font-family="Vera Sans, DejaVu Sans, Liberation Sans, Arial, Helvetica, sans" font-size="10.00">lib.CodeDOM.BlockStatement</text>
</a>
</g>
</g>
<!-- lib.CodeDOM.BlockStatement&#45;&gt;lib.CodeDOM.ConditionalBlockStatement -->
<g id="edge3" class="edge"><title>lib.CodeDOM.BlockStatement&#45;&gt;lib.CodeDOM.ConditionalBlockStatement</title>
<path fill="none" stroke="black" stroke-width="0.5" d="M492.064,-9.5C502.061,-9.5 512.475,-9.5 522.877,-9.5"/>
<polygon fill="black" stroke="black" stroke-width="0.5" points="522.98,-11.2501 527.98,-9.5 522.98,-7.7501 522.98,-11.2501"/>
</g>
<!-- lib.CodeDOM.Statement -->
<g id="node4" class="node"><title>lib.CodeDOM.Statement</title>
<g id="a_node4"><a xlink:href="../lib.CodeDOM.html#lib.CodeDOM.Statement" xlink:title="lib.CodeDOM.Statement" target="_top">
<polygon fill="none" stroke="black" stroke-width="0.5" points="309,-19 187,-19 187,-0 309,-0 309,-19"/>
<text text-anchor="middle" x="248" y="-7" font-family="Vera Sans, DejaVu Sans, Liberation Sans, Arial, Helvetica, sans" font-size="10.00">lib.CodeDOM.Statement</text>
</a>
</g>
</g>
<!-- lib.CodeDOM.Statement&#45;&gt;lib.CodeDOM.BlockStatement -->
<g id="edge2" class="edge"><title>lib.CodeDOM.Statement&#45;&gt;lib.CodeDOM.BlockStatement</title>
<path fill="none" stroke="black" stroke-width="0.5" d="M309.356,-9.5C319.257,-9.5 329.638,-9.5 339.886,-9.5"/>
<polygon fill="black" stroke="black" stroke-width="0.5" points="339.904,-11.2501 344.904,-9.5 339.904,-7.7501 339.904,-11.2501"/>
</g>
<!-- lib.CodeDOM.CodeDOMObject -->
<g id="node5" class="node"><title>lib.CodeDOM.CodeDOMObject</title>
<g id="a_node5"><a xlink:href="../lib.CodeDOM.html#lib.CodeDOM.CodeDOMObject" xlink:title="lib.CodeDOM.CodeDOMObject" target="_top">
<polygon fill="none" stroke="black" stroke-width="0.5" points="151,-19 0,-19 0,-0 151,-0 151,-19"/>
<text text-anchor="middle" x="75.5" y="-7" font-family="Vera Sans, DejaVu Sans, Liberation Sans, Arial, Helvetica, sans" font-size="10.00">lib.CodeDOM.CodeDOMObject</text>
</a>
</g>
</g>
<!-- lib.CodeDOM.CodeDOMObject&#45;&gt;lib.CodeDOM.Statement -->
<g id="edge4" class="edge"><title>lib.CodeDOM.CodeDOMObject&#45;&gt;lib.CodeDOM.Statement</title>
<path fill="none" stroke="black" stroke-width="0.5" d="M151.284,-9.5C161.418,-9.5 171.752,-9.5 181.701,-9.5"/>
<polygon fill="black" stroke="black" stroke-width="0.5" points="181.867,-11.2501 186.867,-9.5 181.866,-7.7501 181.867,-11.2501"/>
</g>
</g>
</svg>
