<?xml version="1.0" encoding="UTF-8" standalone="no"?>
<!DOCTYPE svg PUBLIC "-//W3C//DTD SVG 1.1//EN"
 "http://www.w3.org/Graphics/SVG/1.1/DTD/svg11.dtd">
<!-- Generated by graphviz version 2.38.0 (20140413.2041)
 -->
<!-- Title: inheritance0e6c753b40 Pages: 1 -->
<svg width="576pt" height="20pt"
 viewBox="0.00 0.00 576.00 19.66" xmlns="http://www.w3.org/2000/svg" xmlns:xlink="http://www.w3.org/1999/xlink">
<g id="graph0" class="graph" transform="scale(0.728192 0.728192) rotate(0) translate(4 23)">
<title>inheritance0e6c753b40</title>
<polygon fill="white" stroke="none" points="-4,4 -4,-23 787,-23 787,4 -4,4"/>
<!-- Base.Exceptions.ExceptionBase -->
<g id="node1" class="node"><title>Base.Exceptions.ExceptionBase</title>
<g id="a_node1"><a xlink:href="../Base.Exceptions.html#Base.Exceptions.ExceptionBase" xlink:title="Base exception derived from :py:exc:`Exception` for all" target="_top">
<polygon fill="none" stroke="black" stroke-width="0.5" points="160,-19 0,-19 0,-0 160,-0 160,-19"/>
<text text-anchor="middle" x="80" y="-7" font-family="Vera Sans, DejaVu Sans, Liberation Sans, Arial, Helvetica, sans" font-size="10.00">Base.Exceptions.ExceptionBase</text>
</a>
</g>
</g>
<!-- ToolChain.ToolChainException -->
<g id="node3" class="node"><title>ToolChain.ToolChainException</title>
<g id="a_node3"><a xlink:href="../ToolChain.html#ToolChain.ToolChainException" xlink:title="Base class for all tool specific exceptions" target="_top">
<polygon fill="none" stroke="black" stroke-width="0.5" points="345,-19 196,-19 196,-0 345,-0 345,-19"/>
<text text-anchor="middle" x="270.5" y="-7" font-family="Vera Sans, DejaVu Sans, Liberation Sans, Arial, Helvetica, sans" font-size="10.00">ToolChain.ToolChainException</text>
</a>
</g>
</g>
<!-- Base.Exceptions.ExceptionBase&#45;&gt;ToolChain.ToolChainException -->
<g id="edge3" class="edge"><title>Base.Exceptions.ExceptionBase&#45;&gt;ToolChain.ToolChainException</title>
<path fill="none" stroke="black" stroke-width="0.5" d="M160.122,-9.5C170.246,-9.5 180.609,-9.5 190.727,-9.5"/>
<polygon fill="black" stroke="black" stroke-width="0.5" points="190.994,-11.2501 195.994,-9.5 190.994,-7.75009 190.994,-11.2501"/>
</g>
<!-- ToolChain.Altera.AlteraException -->
<g id="node2" class="node"><title>ToolChain.Altera.AlteraException</title>
<g id="a_node2"><a xlink:href="../ToolChain.Altera.html#ToolChain.Altera.AlteraException" xlink:title="ToolChain.Altera.AlteraException" target="_top">
<polygon fill="none" stroke="black" stroke-width="0.5" points="541,-19 381,-19 381,-0 541,-0 541,-19"/>
<text text-anchor="middle" x="461" y="-7" font-family="Vera Sans, DejaVu Sans, Liberation Sans, Arial, Helvetica, sans" font-size="10.00">ToolChain.Altera.AlteraException</text>
</a>
</g>
</g>
<!-- ToolChain.Altera.Quartus.QuartusException -->
<g id="node4" class="node"><title>ToolChain.Altera.Quartus.QuartusException</title>
<g id="a_node4"><a xlink:href="../PyInfrastructure/ToolChain.Altera.Quartus.html#ToolChain.Altera.Quartus.QuartusException" xlink:title="ToolChain.Altera.Quartus.QuartusException" target="_top">
<polygon fill="none" stroke="black" stroke-width="0.5" points="783,-19 577,-19 577,-0 783,-0 783,-19"/>
<text text-anchor="middle" x="680" y="-7" font-family="Vera Sans, DejaVu Sans, Liberation Sans, Arial, Helvetica, sans" font-size="10.00">ToolChain.Altera.Quartus.QuartusException</text>
</a>
</g>
</g>
<!-- ToolChain.Altera.AlteraException&#45;&gt;ToolChain.Altera.Quartus.QuartusException -->
<g id="edge2" class="edge"><title>ToolChain.Altera.AlteraException&#45;&gt;ToolChain.Altera.Quartus.QuartusException</title>
<path fill="none" stroke="black" stroke-width="0.5" d="M541.263,-9.5C551.252,-9.5 561.597,-9.5 571.926,-9.5"/>
<polygon fill="black" stroke="black" stroke-width="0.5" points="571.993,-11.2501 576.993,-9.5 571.993,-7.7501 571.993,-11.2501"/>
</g>
<!-- ToolChain.ToolChainException&#45;&gt;ToolChain.Altera.AlteraException -->
<g id="edge1" class="edge"><title>ToolChain.ToolChainException&#45;&gt;ToolChain.Altera.AlteraException</title>
<path fill="none" stroke="black" stroke-width="0.5" d="M345.189,-9.5C355.125,-9.5 365.382,-9.5 375.488,-9.5"/>
<polygon fill="black" stroke="black" stroke-width="0.5" points="375.756,-11.2501 380.756,-9.5 375.756,-7.75009 375.756,-11.2501"/>
</g>
</g>
</svg>
