<?xml version="1.0" encoding="UTF-8" standalone="no"?>
<!DOCTYPE svg PUBLIC "-//W3C//DTD SVG 1.1//EN"
 "http://www.w3.org/Graphics/SVG/1.1/DTD/svg11.dtd">
<!-- Generated by graphviz version 2.38.0 (20140413.2041)
 -->
<!-- Title: inheritancee401fb66f8 Pages: 1 -->
<svg width="359pt" height="64pt"
 viewBox="0.00 0.00 359.00 64.00" xmlns="http://www.w3.org/2000/svg" xmlns:xlink="http://www.w3.org/1999/xlink">
<g id="graph0" class="graph" transform="scale(1 1) rotate(0) translate(4 60)">
<title>inheritancee401fb66f8</title>
<polygon fill="white" stroke="none" points="-4,4 -4,-60 355,-60 355,4 -4,4"/>
<!-- DataBase.Entity.LazyPathElement -->
<g id="node1" class="node"><title>DataBase.Entity.LazyPathElement</title>
<g id="a_node1"><a xlink:href="../PyInfrastructure/DataBase.Entity.html#DataBase.Entity.LazyPathElement" xlink:title="DataBase.Entity.LazyPathElement" target="_top">
<polygon fill="none" stroke="black" stroke-width="0.5" points="351,-37 183,-37 183,-18 351,-18 351,-37"/>
<text text-anchor="middle" x="267" y="-25" font-family="Vera Sans, DejaVu Sans, Liberation Sans, Arial, Helvetica, sans" font-size="10.00">DataBase.Entity.LazyPathElement</text>
</a>
</g>
</g>
<!-- DataBase.Entity.PathElement -->
<g id="node2" class="node"><title>DataBase.Entity.PathElement</title>
<g id="a_node2"><a xlink:href="../PyInfrastructure/DataBase.Entity.html#DataBase.Entity.PathElement" xlink:title="DataBase.Entity.PathElement" target="_top">
<polygon fill="none" stroke="black" stroke-width="0.5" points="147,-56 0,-56 0,-37 147,-37 147,-56"/>
<text text-anchor="middle" x="73.5" y="-44" font-family="Vera Sans, DejaVu Sans, Liberation Sans, Arial, Helvetica, sans" font-size="10.00">DataBase.Entity.PathElement</text>
</a>
</g>
</g>
<!-- DataBase.Entity.PathElement&#45;&gt;DataBase.Entity.LazyPathElement -->
<g id="edge1" class="edge"><title>DataBase.Entity.PathElement&#45;&gt;DataBase.Entity.LazyPathElement</title>
<path fill="none" stroke="black" stroke-width="0.5" d="M147.171,-39.2898C157.173,-38.2974 167.533,-37.2696 177.777,-36.2532"/>
<polygon fill="black" stroke="black" stroke-width="0.5" points="177.991,-37.9906 182.794,-35.7554 177.646,-34.5077 177.991,-37.9906"/>
</g>
<!-- lib.Decorators.ILazyLoadable -->
<g id="node3" class="node"><title>lib.Decorators.ILazyLoadable</title>
<g id="a_node3"><a xlink:href="../lib.Decorators.html#lib.Decorators.ILazyLoadable" xlink:title="lib.Decorators.ILazyLoadable" target="_top">
<polygon fill="none" stroke="black" stroke-width="0.5" points="144.5,-19 2.5,-19 2.5,-0 144.5,-0 144.5,-19"/>
<text text-anchor="middle" x="73.5" y="-7" font-family="Vera Sans, DejaVu Sans, Liberation Sans, Arial, Helvetica, sans" font-size="10.00">lib.Decorators.ILazyLoadable</text>
</a>
</g>
</g>
<!-- lib.Decorators.ILazyLoadable&#45;&gt;DataBase.Entity.LazyPathElement -->
<g id="edge2" class="edge"><title>lib.Decorators.ILazyLoadable&#45;&gt;DataBase.Entity.LazyPathElement</title>
<path fill="none" stroke="black" stroke-width="0.5" d="M144.72,-16.1003C155.458,-17.1096 166.658,-18.1624 177.724,-19.2026"/>
<polygon fill="black" stroke="black" stroke-width="0.5" points="177.655,-20.9537 182.797,-19.6794 177.983,-17.4691 177.655,-20.9537"/>
</g>
</g>
</svg>
