<?xml version="1.0" encoding="UTF-8" standalone="no"?>
<!DOCTYPE svg PUBLIC "-//W3C//DTD SVG 1.1//EN"
 "http://www.w3.org/Graphics/SVG/1.1/DTD/svg11.dtd">
<!-- Generated by graphviz version 2.38.0 (20140413.2041)
 -->
<!-- Title: inheritance9e0c54a10c Pages: 1 -->
<svg width="576pt" height="19pt"
 viewBox="0.00 0.00 576.00 18.90" xmlns="http://www.w3.org/2000/svg" xmlns:xlink="http://www.w3.org/1999/xlink">
<g id="graph0" class="graph" transform="scale(0.699878 0.699878) rotate(0) translate(4 23)">
<title>inheritance9e0c54a10c</title>
<polygon fill="white" stroke="none" points="-4,4 -4,-23 819,-23 819,4 -4,4"/>
<!-- Base.Exceptions.ExceptionBase -->
<g id="node1" class="node"><title>Base.Exceptions.ExceptionBase</title>
<g id="a_node1"><a xlink:href="../Base.Exceptions.html#Base.Exceptions.ExceptionBase" xlink:title="Base exception derived from :py:exc:`Exception` for all" target="_top">
<polygon fill="none" stroke="black" stroke-width="0.5" points="160,-19 0,-19 0,-0 160,-0 160,-19"/>
<text text-anchor="middle" x="80" y="-7" font-family="Vera Sans, DejaVu Sans, Liberation Sans, Arial, Helvetica, sans" font-size="10.00">Base.Exceptions.ExceptionBase</text>
</a>
</g>
</g>
<!-- ToolChain.ToolChainException -->
<g id="node3" class="node"><title>ToolChain.ToolChainException</title>
<g id="a_node3"><a xlink:href="../ToolChain.html#ToolChain.ToolChainException" xlink:title="Base class for all tool specific exceptions" target="_top">
<polygon fill="none" stroke="black" stroke-width="0.5" points="345,-19 196,-19 196,-0 345,-0 345,-19"/>
<text text-anchor="middle" x="270.5" y="-7" font-family="Vera Sans, DejaVu Sans, Liberation Sans, Arial, Helvetica, sans" font-size="10.00">ToolChain.ToolChainException</text>
</a>
</g>
</g>
<!-- Base.Exceptions.ExceptionBase&#45;&gt;ToolChain.ToolChainException -->
<g id="edge3" class="edge"><title>Base.Exceptions.ExceptionBase&#45;&gt;ToolChain.ToolChainException</title>
<path fill="none" stroke="black" stroke-width="0.5" d="M160.122,-9.5C170.246,-9.5 180.609,-9.5 190.727,-9.5"/>
<polygon fill="black" stroke="black" stroke-width="0.5" points="190.994,-11.2501 195.994,-9.5 190.994,-7.75009 190.994,-11.2501"/>
</g>
<!-- ToolChain.Mentor.MentorException -->
<g id="node2" class="node"><title>ToolChain.Mentor.MentorException</title>
<g id="a_node2"><a xlink:href="../ToolChain.Mentor.html#ToolChain.Mentor.MentorException" xlink:title="ToolChain.Mentor.MentorException" target="_top">
<polygon fill="none" stroke="black" stroke-width="0.5" points="550,-19 381,-19 381,-0 550,-0 550,-19"/>
<text text-anchor="middle" x="465.5" y="-7" font-family="Vera Sans, DejaVu Sans, Liberation Sans, Arial, Helvetica, sans" font-size="10.00">ToolChain.Mentor.MentorException</text>
</a>
</g>
</g>
<!-- ToolChain.Mentor.ModelSim.ModelSimException -->
<g id="node4" class="node"><title>ToolChain.Mentor.ModelSim.ModelSimException</title>
<g id="a_node4"><a xlink:href="../PyInfrastructure/ToolChain.Mentor.ModelSim.html#ToolChain.Mentor.ModelSim.ModelSimException" xlink:title="ToolChain.Mentor.ModelSim.ModelSimException" target="_top">
<polygon fill="none" stroke="black" stroke-width="0.5" points="815,-19 586,-19 586,-0 815,-0 815,-19"/>
<text text-anchor="middle" x="700.5" y="-7" font-family="Vera Sans, DejaVu Sans, Liberation Sans, Arial, Helvetica, sans" font-size="10.00">ToolChain.Mentor.ModelSim.ModelSimException</text>
</a>
</g>
</g>
<!-- ToolChain.Mentor.MentorException&#45;&gt;ToolChain.Mentor.ModelSim.ModelSimException -->
<g id="edge2" class="edge"><title>ToolChain.Mentor.MentorException&#45;&gt;ToolChain.Mentor.ModelSim.ModelSimException</title>
<path fill="none" stroke="black" stroke-width="0.5" d="M550.289,-9.5C560.156,-9.5 570.363,-9.5 580.595,-9.5"/>
<polygon fill="black" stroke="black" stroke-width="0.5" points="580.618,-11.2501 585.618,-9.5 580.618,-7.7501 580.618,-11.2501"/>
</g>
<!-- ToolChain.ToolChainException&#45;&gt;ToolChain.Mentor.MentorException -->
<g id="edge1" class="edge"><title>ToolChain.ToolChainException&#45;&gt;ToolChain.Mentor.MentorException</title>
<path fill="none" stroke="black" stroke-width="0.5" d="M345.016,-9.5C355.086,-9.5 365.51,-9.5 375.815,-9.5"/>
<polygon fill="black" stroke="black" stroke-width="0.5" points="375.863,-11.2501 380.863,-9.5 375.862,-7.7501 375.863,-11.2501"/>
</g>
</g>
</svg>
