<?xml version="1.0" encoding="UTF-8" standalone="no"?>
<!DOCTYPE svg PUBLIC "-//W3C//DTD SVG 1.1//EN"
 "http://www.w3.org/Graphics/SVG/1.1/DTD/svg11.dtd">
<!-- Generated by graphviz version 2.38.0 (20140413.2041)
 -->
<!-- Title: inheritancec96a42e709 Pages: 1 -->
<svg width="576pt" height="63pt"
 viewBox="0.00 0.00 576.00 63.12" xmlns="http://www.w3.org/2000/svg" xmlns:xlink="http://www.w3.org/1999/xlink">
<g id="graph0" class="graph" transform="scale(0.986301 0.986301) rotate(0) translate(4 60)">
<title>inheritancec96a42e709</title>
<polygon fill="white" stroke="none" points="-4,4 -4,-60 580,-60 580,4 -4,4"/>
<!-- Base.Project.File -->
<g id="node1" class="node"><title>Base.Project.File</title>
<g id="a_node1"><a xlink:href="../PyInfrastructure/Base.Project.html#Base.Project.File" xlink:title="Base.Project.File" target="_top">
<polygon fill="none" stroke="black" stroke-width="0.5" points="126,-56 34,-56 34,-37 126,-37 126,-56"/>
<text text-anchor="middle" x="80" y="-44" font-family="Vera Sans, DejaVu Sans, Liberation Sans, Arial, Helvetica, sans" font-size="10.00">Base.Project.File</text>
</a>
</g>
</g>
<!-- Base.Project.SourceFile -->
<g id="node2" class="node"><title>Base.Project.SourceFile</title>
<g id="a_node2"><a xlink:href="../PyInfrastructure/Base.Project.html#Base.Project.SourceFile" xlink:title="Base.Project.SourceFile" target="_top">
<polygon fill="none" stroke="black" stroke-width="0.5" points="355,-56 233,-56 233,-37 355,-37 355,-56"/>
<text text-anchor="middle" x="294" y="-44" font-family="Vera Sans, DejaVu Sans, Liberation Sans, Arial, Helvetica, sans" font-size="10.00">Base.Project.SourceFile</text>
</a>
</g>
</g>
<!-- Base.Project.File&#45;&gt;Base.Project.SourceFile -->
<g id="edge1" class="edge"><title>Base.Project.File&#45;&gt;Base.Project.SourceFile</title>
<path fill="none" stroke="black" stroke-width="0.5" d="M126.219,-46.5C155.769,-46.5 194.838,-46.5 227.734,-46.5"/>
<polygon fill="black" stroke="black" stroke-width="0.5" points="227.958,-48.2501 232.958,-46.5 227.958,-44.7501 227.958,-48.2501"/>
</g>
<!-- Base.Project.VHDLSourceFile -->
<g id="node3" class="node"><title>Base.Project.VHDLSourceFile</title>
<g id="a_node3"><a xlink:href="../PyInfrastructure/Base.Project.html#Base.Project.VHDLSourceFile" xlink:title="Base.Project.VHDLSourceFile" target="_top">
<polygon fill="none" stroke="black" stroke-width="0.5" points="576,-37 428,-37 428,-18 576,-18 576,-37"/>
<text text-anchor="middle" x="502" y="-25" font-family="Vera Sans, DejaVu Sans, Liberation Sans, Arial, Helvetica, sans" font-size="10.00">Base.Project.VHDLSourceFile</text>
</a>
</g>
</g>
<!-- Base.Project.SourceFile&#45;&gt;Base.Project.VHDLSourceFile -->
<g id="edge2" class="edge"><title>Base.Project.SourceFile&#45;&gt;Base.Project.VHDLSourceFile</title>
<path fill="none" stroke="black" stroke-width="0.5" d="M355.138,-40.9533C376.225,-39.0083 400.23,-36.7943 422.593,-34.7317"/>
<polygon fill="black" stroke="black" stroke-width="0.5" points="422.819,-36.4684 427.637,-34.2665 422.497,-32.9832 422.819,-36.4684"/>
</g>
<!-- Parser.FilesParser.VHDLSourceFileMixIn -->
<g id="node4" class="node"><title>Parser.FilesParser.VHDLSourceFileMixIn</title>
<g id="a_node4"><a xlink:href="../Parser.FilesParser.html#Parser.FilesParser.VHDLSourceFileMixIn" xlink:title="Parser.FilesParser.VHDLSourceFileMixIn" target="_top">
<polygon fill="none" stroke="black" stroke-width="0.5" points="392,-19 196,-19 196,-0 392,-0 392,-19"/>
<text text-anchor="middle" x="294" y="-7" font-family="Vera Sans, DejaVu Sans, Liberation Sans, Arial, Helvetica, sans" font-size="10.00">Parser.FilesParser.VHDLSourceFileMixIn</text>
</a>
</g>
</g>
<!-- Parser.FilesParser.VHDLSourceFileMixIn&#45;&gt;Base.Project.VHDLSourceFile -->
<g id="edge3" class="edge"><title>Parser.FilesParser.VHDLSourceFileMixIn&#45;&gt;Base.Project.VHDLSourceFile</title>
<path fill="none" stroke="black" stroke-width="0.5" d="M392.269,-17.9993C402.471,-18.8907 412.748,-19.7887 422.698,-20.6581"/>
<polygon fill="black" stroke="black" stroke-width="0.5" points="422.736,-22.418 427.87,-21.11 423.041,-18.9313 422.736,-22.418"/>
</g>
<!-- Parser.FilesParser.FileReference -->
<g id="node5" class="node"><title>Parser.FilesParser.FileReference</title>
<g id="a_node5"><a xlink:href="../Parser.FilesParser.html#Parser.FilesParser.FileReference" xlink:title="Parser.FilesParser.FileReference" target="_top">
<polygon fill="none" stroke="black" stroke-width="0.5" points="160,-19 0,-19 0,-0 160,-0 160,-19"/>
<text text-anchor="middle" x="80" y="-7" font-family="Vera Sans, DejaVu Sans, Liberation Sans, Arial, Helvetica, sans" font-size="10.00">Parser.FilesParser.FileReference</text>
</a>
</g>
</g>
<!-- Parser.FilesParser.FileReference&#45;&gt;Parser.FilesParser.VHDLSourceFileMixIn -->
<g id="edge4" class="edge"><title>Parser.FilesParser.FileReference&#45;&gt;Parser.FilesParser.VHDLSourceFileMixIn</title>
<path fill="none" stroke="black" stroke-width="0.5" d="M160.242,-9.5C170.248,-9.5 180.595,-9.5 190.892,-9.5"/>
<polygon fill="black" stroke="black" stroke-width="0.5" points="190.941,-11.2501 195.941,-9.5 190.941,-7.7501 190.941,-11.2501"/>
</g>
</g>
</svg>
