<?xml version="1.0" encoding="UTF-8" standalone="no"?>
<!DOCTYPE svg PUBLIC "-//W3C//DTD SVG 1.1//EN"
 "http://www.w3.org/Graphics/SVG/1.1/DTD/svg11.dtd">
<!-- Generated by graphviz version 2.38.0 (20140413.2041)
 -->
<!-- Title: inheritance0a94a14a33 Pages: 1 -->
<svg width="547pt" height="27pt"
 viewBox="0.00 0.00 547.00 27.00" xmlns="http://www.w3.org/2000/svg" xmlns:xlink="http://www.w3.org/1999/xlink">
<g id="graph0" class="graph" transform="scale(1 1) rotate(0) translate(4 23)">
<title>inheritance0a94a14a33</title>
<polygon fill="white" stroke="none" points="-4,4 -4,-23 543,-23 543,4 -4,4"/>
<!-- Parser.RulesCodeDOM.DeleteStatement -->
<g id="node1" class="node"><title>Parser.RulesCodeDOM.DeleteStatement</title>
<g id="a_node1"><a xlink:href="../PyInfrastructure/Parser.RulesCodeDOM.html#Parser.RulesCodeDOM.DeleteStatement" xlink:title="Parser.RulesCodeDOM.DeleteStatement" target="_top">
<polygon fill="none" stroke="black" stroke-width="0.5" points="539,-19 345,-19 345,-0 539,-0 539,-19"/>
<text text-anchor="middle" x="442" y="-7" font-family="Vera Sans, DejaVu Sans, Liberation Sans, Arial, Helvetica, sans" font-size="10.00">Parser.RulesCodeDOM.DeleteStatement</text>
</a>
</g>
</g>
<!-- lib.CodeDOM.Statement -->
<g id="node2" class="node"><title>lib.CodeDOM.Statement</title>
<g id="a_node2"><a xlink:href="../lib.CodeDOM.html#lib.CodeDOM.Statement" xlink:title="lib.CodeDOM.Statement" target="_top">
<polygon fill="none" stroke="black" stroke-width="0.5" points="309,-19 187,-19 187,-0 309,-0 309,-19"/>
<text text-anchor="middle" x="248" y="-7" font-family="Vera Sans, DejaVu Sans, Liberation Sans, Arial, Helvetica, sans" font-size="10.00">lib.CodeDOM.Statement</text>
</a>
</g>
</g>
<!-- lib.CodeDOM.Statement&#45;&gt;Parser.RulesCodeDOM.DeleteStatement -->
<g id="edge1" class="edge"><title>lib.CodeDOM.Statement&#45;&gt;Parser.RulesCodeDOM.DeleteStatement</title>
<path fill="none" stroke="black" stroke-width="0.5" d="M309.223,-9.5C318.958,-9.5 329.265,-9.5 339.656,-9.5"/>
<polygon fill="black" stroke="black" stroke-width="0.5" points="339.762,-11.2501 344.762,-9.5 339.762,-7.7501 339.762,-11.2501"/>
</g>
<!-- lib.CodeDOM.CodeDOMObject -->
<g id="node3" class="node"><title>lib.CodeDOM.CodeDOMObject</title>
<g id="a_node3"><a xlink:href="../lib.CodeDOM.html#lib.CodeDOM.CodeDOMObject" xlink:title="lib.CodeDOM.CodeDOMObject" target="_top">
<polygon fill="none" stroke="black" stroke-width="0.5" points="151,-19 0,-19 0,-0 151,-0 151,-19"/>
<text text-anchor="middle" x="75.5" y="-7" font-family="Vera Sans, DejaVu Sans, Liberation Sans, Arial, Helvetica, sans" font-size="10.00">lib.CodeDOM.CodeDOMObject</text>
</a>
</g>
</g>
<!-- lib.CodeDOM.CodeDOMObject&#45;&gt;lib.CodeDOM.Statement -->
<g id="edge2" class="edge"><title>lib.CodeDOM.CodeDOMObject&#45;&gt;lib.CodeDOM.Statement</title>
<path fill="none" stroke="black" stroke-width="0.5" d="M151.284,-9.5C161.418,-9.5 171.752,-9.5 181.701,-9.5"/>
<polygon fill="black" stroke="black" stroke-width="0.5" points="181.867,-11.2501 186.867,-9.5 181.866,-7.7501 181.867,-11.2501"/>
</g>
</g>
</svg>
