<?xml version="1.0" encoding="UTF-8" standalone="no"?>
<!DOCTYPE svg PUBLIC "-//W3C//DTD SVG 1.1//EN"
 "http://www.w3.org/Graphics/SVG/1.1/DTD/svg11.dtd">
<!-- Generated by graphviz version 2.38.0 (20140413.2041)
 -->
<!-- Title: inheritance5bc12c73fc Pages: 1 -->
<svg width="576pt" height="54pt"
 viewBox="0.00 0.00 576.00 53.74" xmlns="http://www.w3.org/2000/svg" xmlns:xlink="http://www.w3.org/1999/xlink">
<g id="graph0" class="graph" transform="scale(0.83965 0.83965) rotate(0) translate(4 60)">
<title>inheritance5bc12c73fc</title>
<polygon fill="white" stroke="none" points="-4,4 -4,-60 682,-60 682,4 -4,4"/>
<!-- Base.Logging.ILogable -->
<g id="node1" class="node"><title>Base.Logging.ILogable</title>
<g id="a_node1"><a xlink:href="../Base.Logging.html#Base.Logging.ILogable" xlink:title="A mixin class to provide local logging methods." target="_top">
<polygon fill="none" stroke="black" stroke-width="0.5" points="115,-56 0,-56 0,-37 115,-37 115,-56"/>
<text text-anchor="middle" x="57.5" y="-44" font-family="Vera Sans, DejaVu Sans, Liberation Sans, Arial, Helvetica, sans" font-size="10.00">Base.Logging.ILogable</text>
</a>
</g>
</g>
<!-- Base.Shared.Shared -->
<g id="node2" class="node"><title>Base.Shared.Shared</title>
<g id="a_node2"><a xlink:href="../Base.Shared.html#Base.Shared.Shared" xlink:title="Base class for Simulator and Compiler." target="_top">
<polygon fill="none" stroke="black" stroke-width="0.5" points="258,-56 151,-56 151,-37 258,-37 258,-56"/>
<text text-anchor="middle" x="204.5" y="-44" font-family="Vera Sans, DejaVu Sans, Liberation Sans, Arial, Helvetica, sans" font-size="10.00">Base.Shared.Shared</text>
</a>
</g>
</g>
<!-- Base.Logging.ILogable&#45;&gt;Base.Shared.Shared -->
<g id="edge1" class="edge"><title>Base.Logging.ILogable&#45;&gt;Base.Shared.Shared</title>
<path fill="none" stroke="black" stroke-width="0.5" d="M115.392,-46.5C125.256,-46.5 135.525,-46.5 145.42,-46.5"/>
<polygon fill="black" stroke="black" stroke-width="0.5" points="145.557,-48.2501 150.557,-46.5 145.557,-44.7501 145.557,-48.2501"/>
</g>
<!-- Compiler.Compiler -->
<g id="node3" class="node"><title>Compiler.Compiler</title>
<g id="a_node3"><a xlink:href="../Compiler.html#Compiler.Compiler" xlink:title="Base class for all Compiler classes." target="_top">
<polygon fill="none" stroke="black" stroke-width="0.5" points="438.5,-56 342.5,-56 342.5,-37 438.5,-37 438.5,-56"/>
<text text-anchor="middle" x="390.5" y="-44" font-family="Vera Sans, DejaVu Sans, Liberation Sans, Arial, Helvetica, sans" font-size="10.00">Compiler.Compiler</text>
</a>
</g>
</g>
<!-- Base.Shared.Shared&#45;&gt;Compiler.Compiler -->
<g id="edge2" class="edge"><title>Base.Shared.Shared&#45;&gt;Compiler.Compiler</title>
<path fill="none" stroke="black" stroke-width="0.5" d="M258.227,-46.5C283.013,-46.5 312.48,-46.5 337.21,-46.5"/>
<polygon fill="black" stroke="black" stroke-width="0.5" points="337.412,-48.2501 342.412,-46.5 337.412,-44.7501 337.412,-48.2501"/>
</g>
<!-- Compiler.XSTCompiler.Compiler -->
<g id="node4" class="node"><title>Compiler.XSTCompiler.Compiler</title>
<g id="a_node4"><a xlink:href="../PyInfrastructure/Compiler.XSTCompiler.html#Compiler.XSTCompiler.Compiler" xlink:title="Compiler.XSTCompiler.Compiler" target="_top">
<polygon fill="none" stroke="black" stroke-width="0.5" points="678,-37 523,-37 523,-18 678,-18 678,-37"/>
<text text-anchor="middle" x="600.5" y="-25" font-family="Vera Sans, DejaVu Sans, Liberation Sans, Arial, Helvetica, sans" font-size="10.00">Compiler.XSTCompiler.Compiler</text>
</a>
</g>
</g>
<!-- Compiler.Compiler&#45;&gt;Compiler.XSTCompiler.Compiler -->
<g id="edge3" class="edge"><title>Compiler.Compiler&#45;&gt;Compiler.XSTCompiler.Compiler</title>
<path fill="none" stroke="black" stroke-width="0.5" d="M438.698,-42.1886C461.959,-40.0639 490.688,-37.4396 517.398,-34.9997"/>
<polygon fill="black" stroke="black" stroke-width="0.5" points="517.891,-36.7121 522.711,-34.5144 517.572,-33.2266 517.891,-36.7121"/>
</g>
<!-- ToolChain.Xilinx.XilinxProjectExportMixIn -->
<g id="node5" class="node"><title>ToolChain.Xilinx.XilinxProjectExportMixIn</title>
<g id="a_node5"><a xlink:href="../ToolChain.Xilinx.html#ToolChain.Xilinx.XilinxProjectExportMixIn" xlink:title="ToolChain.Xilinx.XilinxProjectExportMixIn" target="_top">
<polygon fill="none" stroke="black" stroke-width="0.5" points="487,-19 294,-19 294,-0 487,-0 487,-19"/>
<text text-anchor="middle" x="390.5" y="-7" font-family="Vera Sans, DejaVu Sans, Liberation Sans, Arial, Helvetica, sans" font-size="10.00">ToolChain.Xilinx.XilinxProjectExportMixIn</text>
</a>
</g>
</g>
<!-- ToolChain.Xilinx.XilinxProjectExportMixIn&#45;&gt;Compiler.XSTCompiler.Compiler -->
<g id="edge4" class="edge"><title>ToolChain.Xilinx.XilinxProjectExportMixIn&#45;&gt;Compiler.XSTCompiler.Compiler</title>
<path fill="none" stroke="black" stroke-width="0.5" d="M487.281,-17.7887C497.45,-18.6688 507.724,-19.5579 517.712,-20.4222"/>
<polygon fill="black" stroke="black" stroke-width="0.5" points="517.775,-22.1841 522.907,-20.8718 518.076,-18.6971 517.775,-22.1841"/>
</g>
</g>
</svg>
