<?xml version="1.0" encoding="UTF-8" standalone="no"?>
<!DOCTYPE svg PUBLIC "-//W3C//DTD SVG 1.1//EN"
 "http://www.w3.org/Graphics/SVG/1.1/DTD/svg11.dtd">
<!-- Generated by graphviz version 2.38.0 (20140413.2041)
 -->
<!-- Title: inheritancea7753fd02d Pages: 1 -->
<svg width="576pt" height="25pt"
 viewBox="0.00 0.00 576.00 25.50" xmlns="http://www.w3.org/2000/svg" xmlns:xlink="http://www.w3.org/1999/xlink">
<g id="graph0" class="graph" transform="scale(0.944262 0.944262) rotate(0) translate(4 23)">
<title>inheritancea7753fd02d</title>
<polygon fill="white" stroke="none" points="-4,4 -4,-23 606,-23 606,4 -4,4"/>
<!-- Parser.FilesCodeDOM.ListElementExpressions -->
<g id="node1" class="node"><title>Parser.FilesCodeDOM.ListElementExpressions</title>
<g id="a_node1"><a xlink:href="../PyInfrastructure/Parser.FilesCodeDOM.html#Parser.FilesCodeDOM.ListElementExpressions" xlink:title="Parser.FilesCodeDOM.ListElementExpressions" target="_top">
<polygon fill="none" stroke="black" stroke-width="0.5" points="602,-19 379,-19 379,-0 602,-0 602,-19"/>
<text text-anchor="middle" x="490.5" y="-7" font-family="Vera Sans, DejaVu Sans, Liberation Sans, Arial, Helvetica, sans" font-size="10.00">Parser.FilesCodeDOM.ListElementExpressions</text>
</a>
</g>
</g>
<!-- lib.CodeDOM.ExpressionChoice -->
<g id="node2" class="node"><title>lib.CodeDOM.ExpressionChoice</title>
<g id="a_node2"><a xlink:href="../lib.CodeDOM.html#lib.CodeDOM.ExpressionChoice" xlink:title="lib.CodeDOM.ExpressionChoice" target="_top">
<polygon fill="none" stroke="black" stroke-width="0.5" points="343,-19 187,-19 187,-0 343,-0 343,-19"/>
<text text-anchor="middle" x="265" y="-7" font-family="Vera Sans, DejaVu Sans, Liberation Sans, Arial, Helvetica, sans" font-size="10.00">lib.CodeDOM.ExpressionChoice</text>
</a>
</g>
</g>
<!-- lib.CodeDOM.ExpressionChoice&#45;&gt;Parser.FilesCodeDOM.ListElementExpressions -->
<g id="edge1" class="edge"><title>lib.CodeDOM.ExpressionChoice&#45;&gt;Parser.FilesCodeDOM.ListElementExpressions</title>
<path fill="none" stroke="black" stroke-width="0.5" d="M343.229,-9.5C353.096,-9.5 363.362,-9.5 373.674,-9.5"/>
<polygon fill="black" stroke="black" stroke-width="0.5" points="373.738,-11.2501 378.738,-9.5 373.738,-7.7501 373.738,-11.2501"/>
</g>
<!-- lib.CodeDOM.CodeDOMObject -->
<g id="node3" class="node"><title>lib.CodeDOM.CodeDOMObject</title>
<g id="a_node3"><a xlink:href="../lib.CodeDOM.html#lib.CodeDOM.CodeDOMObject" xlink:title="lib.CodeDOM.CodeDOMObject" target="_top">
<polygon fill="none" stroke="black" stroke-width="0.5" points="151,-19 0,-19 0,-0 151,-0 151,-19"/>
<text text-anchor="middle" x="75.5" y="-7" font-family="Vera Sans, DejaVu Sans, Liberation Sans, Arial, Helvetica, sans" font-size="10.00">lib.CodeDOM.CodeDOMObject</text>
</a>
</g>
</g>
<!-- lib.CodeDOM.CodeDOMObject&#45;&gt;lib.CodeDOM.ExpressionChoice -->
<g id="edge2" class="edge"><title>lib.CodeDOM.CodeDOMObject&#45;&gt;lib.CodeDOM.ExpressionChoice</title>
<path fill="none" stroke="black" stroke-width="0.5" d="M151.144,-9.5C161.145,-9.5 171.449,-9.5 181.574,-9.5"/>
<polygon fill="black" stroke="black" stroke-width="0.5" points="181.85,-11.2501 186.85,-9.5 181.85,-7.75009 181.85,-11.2501"/>
</g>
</g>
</svg>
