<?xml version="1.0" encoding="UTF-8" standalone="no"?>
<!DOCTYPE svg PUBLIC "-//W3C//DTD SVG 1.1//EN"
 "http://www.w3.org/Graphics/SVG/1.1/DTD/svg11.dtd">
<!-- Generated by graphviz version 2.38.0 (20140413.2041)
 -->
<!-- Title: inheritance6773b2c753 Pages: 1 -->
<svg width="576pt" height="15pt"
 viewBox="0.00 0.00 576.00 14.53" xmlns="http://www.w3.org/2000/svg" xmlns:xlink="http://www.w3.org/1999/xlink">
<g id="graph0" class="graph" transform="scale(0.538318 0.538318) rotate(0) translate(4 23)">
<title>inheritance6773b2c753</title>
<polygon fill="white" stroke="none" points="-4,4 -4,-23 1066,-23 1066,4 -4,4"/>
<!-- Parser.RulesCodeDOM.PostProcessRulesStatement -->
<g id="node1" class="node"><title>Parser.RulesCodeDOM.PostProcessRulesStatement</title>
<g id="a_node1"><a xlink:href="../PyInfrastructure/Parser.RulesCodeDOM.html#Parser.RulesCodeDOM.PostProcessRulesStatement" xlink:title="Parser.RulesCodeDOM.PostProcessRulesStatement" target="_top">
<polygon fill="none" stroke="black" stroke-width="0.5" points="1062,-19 815,-19 815,-0 1062,-0 1062,-19"/>
<text text-anchor="middle" x="938.5" y="-7" font-family="Vera Sans, DejaVu Sans, Liberation Sans, Arial, Helvetica, sans" font-size="10.00">Parser.RulesCodeDOM.PostProcessRulesStatement</text>
</a>
</g>
</g>
<!-- Parser.RulesCodeDOM.ProcessRulesBlockStatement -->
<g id="node2" class="node"><title>Parser.RulesCodeDOM.ProcessRulesBlockStatement</title>
<g id="a_node2"><a xlink:href="../PyInfrastructure/Parser.RulesCodeDOM.html#Parser.RulesCodeDOM.ProcessRulesBlockStatement" xlink:title="Parser.RulesCodeDOM.ProcessRulesBlockStatement" target="_top">
<polygon fill="none" stroke="black" stroke-width="0.5" points="779,-19 528,-19 528,-0 779,-0 779,-19"/>
<text text-anchor="middle" x="653.5" y="-7" font-family="Vera Sans, DejaVu Sans, Liberation Sans, Arial, Helvetica, sans" font-size="10.00">Parser.RulesCodeDOM.ProcessRulesBlockStatement</text>
</a>
</g>
</g>
<!-- Parser.RulesCodeDOM.ProcessRulesBlockStatement&#45;&gt;Parser.RulesCodeDOM.PostProcessRulesStatement -->
<g id="edge1" class="edge"><title>Parser.RulesCodeDOM.ProcessRulesBlockStatement&#45;&gt;Parser.RulesCodeDOM.PostProcessRulesStatement</title>
<path fill="none" stroke="black" stroke-width="0.5" d="M779.04,-9.5C789.235,-9.5 799.549,-9.5 809.767,-9.5"/>
<polygon fill="black" stroke="black" stroke-width="0.5" points="809.774,-11.2501 814.774,-9.5 809.774,-7.7501 809.774,-11.2501"/>
</g>
<!-- lib.CodeDOM.BlockStatement -->
<g id="node3" class="node"><title>lib.CodeDOM.BlockStatement</title>
<g id="a_node3"><a xlink:href="../lib.CodeDOM.html#lib.CodeDOM.BlockStatement" xlink:title="lib.CodeDOM.BlockStatement" target="_top">
<polygon fill="none" stroke="black" stroke-width="0.5" points="492,-19 345,-19 345,-0 492,-0 492,-19"/>
<text text-anchor="middle" x="418.5" y="-7" font-family="Vera Sans, DejaVu Sans, Liberation Sans, Arial, Helvetica, sans" font-size="10.00">lib.CodeDOM.BlockStatement</text>
</a>
</g>
</g>
<!-- lib.CodeDOM.BlockStatement&#45;&gt;Parser.RulesCodeDOM.ProcessRulesBlockStatement -->
<g id="edge2" class="edge"><title>lib.CodeDOM.BlockStatement&#45;&gt;Parser.RulesCodeDOM.ProcessRulesBlockStatement</title>
<path fill="none" stroke="black" stroke-width="0.5" d="M492.264,-9.5C502.018,-9.5 512.25,-9.5 522.625,-9.5"/>
<polygon fill="black" stroke="black" stroke-width="0.5" points="522.729,-11.2501 527.729,-9.5 522.729,-7.7501 522.729,-11.2501"/>
</g>
<!-- lib.CodeDOM.Statement -->
<g id="node4" class="node"><title>lib.CodeDOM.Statement</title>
<g id="a_node4"><a xlink:href="../lib.CodeDOM.html#lib.CodeDOM.Statement" xlink:title="lib.CodeDOM.Statement" target="_top">
<polygon fill="none" stroke="black" stroke-width="0.5" points="309,-19 187,-19 187,-0 309,-0 309,-19"/>
<text text-anchor="middle" x="248" y="-7" font-family="Vera Sans, DejaVu Sans, Liberation Sans, Arial, Helvetica, sans" font-size="10.00">lib.CodeDOM.Statement</text>
</a>
</g>
</g>
<!-- lib.CodeDOM.Statement&#45;&gt;lib.CodeDOM.BlockStatement -->
<g id="edge3" class="edge"><title>lib.CodeDOM.Statement&#45;&gt;lib.CodeDOM.BlockStatement</title>
<path fill="none" stroke="black" stroke-width="0.5" d="M309.356,-9.5C319.257,-9.5 329.638,-9.5 339.886,-9.5"/>
<polygon fill="black" stroke="black" stroke-width="0.5" points="339.904,-11.2501 344.904,-9.5 339.904,-7.7501 339.904,-11.2501"/>
</g>
<!-- lib.CodeDOM.CodeDOMObject -->
<g id="node5" class="node"><title>lib.CodeDOM.CodeDOMObject</title>
<g id="a_node5"><a xlink:href="../lib.CodeDOM.html#lib.CodeDOM.CodeDOMObject" xlink:title="lib.CodeDOM.CodeDOMObject" target="_top">
<polygon fill="none" stroke="black" stroke-width="0.5" points="151,-19 0,-19 0,-0 151,-0 151,-19"/>
<text text-anchor="middle" x="75.5" y="-7" font-family="Vera Sans, DejaVu Sans, Liberation Sans, Arial, Helvetica, sans" font-size="10.00">lib.CodeDOM.CodeDOMObject</text>
</a>
</g>
</g>
<!-- lib.CodeDOM.CodeDOMObject&#45;&gt;lib.CodeDOM.Statement -->
<g id="edge4" class="edge"><title>lib.CodeDOM.CodeDOMObject&#45;&gt;lib.CodeDOM.Statement</title>
<path fill="none" stroke="black" stroke-width="0.5" d="M151.284,-9.5C161.418,-9.5 171.752,-9.5 181.701,-9.5"/>
<polygon fill="black" stroke="black" stroke-width="0.5" points="181.867,-11.2501 186.867,-9.5 181.866,-7.7501 181.867,-11.2501"/>
</g>
</g>
</svg>
