<?xml version="1.0" encoding="UTF-8" standalone="no"?>
<!DOCTYPE svg PUBLIC "-//W3C//DTD SVG 1.1//EN"
 "http://www.w3.org/Graphics/SVG/1.1/DTD/svg11.dtd">
<!-- Generated by graphviz version 2.38.0 (20140413.2041)
 -->
<!-- Title: inheritance967bbb0ea4 Pages: 1 -->
<svg width="500pt" height="27pt"
 viewBox="0.00 0.00 500.00 27.00" xmlns="http://www.w3.org/2000/svg" xmlns:xlink="http://www.w3.org/1999/xlink">
<g id="graph0" class="graph" transform="scale(1 1) rotate(0) translate(4 23)">
<title>inheritance967bbb0ea4</title>
<polygon fill="white" stroke="none" points="-4,4 -4,-23 496,-23 496,4 -4,4"/>
<!-- Compiler.ReplaceTask -->
<g id="node1" class="node"><title>Compiler.ReplaceTask</title>
<g id="a_node1"><a xlink:href="../PyInfrastructure/Compiler.html#Compiler.ReplaceTask" xlink:title="This class represents a &#39;replace task&#39; and inherits the partial class" target="_top">
<polygon fill="none" stroke="black" stroke-width="0.5" points="492,-19 378,-19 378,-0 492,-0 492,-19"/>
<text text-anchor="middle" x="435" y="-7" font-family="Vera Sans, DejaVu Sans, Liberation Sans, Arial, Helvetica, sans" font-size="10.00">Compiler.ReplaceTask</text>
</a>
</g>
</g>
<!-- Parser.RulesParser.ReplaceRuleMixIn -->
<g id="node2" class="node"><title>Parser.RulesParser.ReplaceRuleMixIn</title>
<g id="a_node2"><a xlink:href="../Parser.RulesParser.html#Parser.RulesParser.ReplaceRuleMixIn" xlink:title="A partial class (MixIn) to represent a &#39;replace rule&#39;." target="_top">
<polygon fill="none" stroke="black" stroke-width="0.5" points="342,-19 160,-19 160,-0 342,-0 342,-19"/>
<text text-anchor="middle" x="251" y="-7" font-family="Vera Sans, DejaVu Sans, Liberation Sans, Arial, Helvetica, sans" font-size="10.00">Parser.RulesParser.ReplaceRuleMixIn</text>
</a>
</g>
</g>
<!-- Parser.RulesParser.ReplaceRuleMixIn&#45;&gt;Compiler.ReplaceTask -->
<g id="edge1" class="edge"><title>Parser.RulesParser.ReplaceRuleMixIn&#45;&gt;Compiler.ReplaceTask</title>
<path fill="none" stroke="black" stroke-width="0.5" d="M342.2,-9.5C352.552,-9.5 362.918,-9.5 372.761,-9.5"/>
<polygon fill="black" stroke="black" stroke-width="0.5" points="372.859,-11.2501 377.858,-9.5 372.858,-7.7501 372.859,-11.2501"/>
</g>
<!-- Parser.RulesParser.Rule -->
<g id="node3" class="node"><title>Parser.RulesParser.Rule</title>
<g id="a_node3"><a xlink:href="../Parser.RulesParser.html#Parser.RulesParser.Rule" xlink:title="Base class for all Rule and RuleMixIn classes." target="_top">
<polygon fill="none" stroke="black" stroke-width="0.5" points="124,-19 0,-19 0,-0 124,-0 124,-19"/>
<text text-anchor="middle" x="62" y="-7" font-family="Vera Sans, DejaVu Sans, Liberation Sans, Arial, Helvetica, sans" font-size="10.00">Parser.RulesParser.Rule</text>
</a>
</g>
</g>
<!-- Parser.RulesParser.Rule&#45;&gt;Parser.RulesParser.ReplaceRuleMixIn -->
<g id="edge2" class="edge"><title>Parser.RulesParser.Rule&#45;&gt;Parser.RulesParser.ReplaceRuleMixIn</title>
<path fill="none" stroke="black" stroke-width="0.5" d="M124.231,-9.5C134.025,-9.5 144.359,-9.5 154.721,-9.5"/>
<polygon fill="black" stroke="black" stroke-width="0.5" points="154.808,-11.2501 159.808,-9.5 154.808,-7.7501 154.808,-11.2501"/>
</g>
</g>
</svg>
