<?xml version="1.0" encoding="UTF-8" standalone="no"?>
<!DOCTYPE svg PUBLIC "-//W3C//DTD SVG 1.1//EN"
 "http://www.w3.org/Graphics/SVG/1.1/DTD/svg11.dtd">
<!-- Generated by graphviz version 2.38.0 (20140413.2041)
 -->
<!-- Title: inheritance78149a0359 Pages: 1 -->
<svg width="576pt" height="50pt"
 viewBox="0.00 0.00 576.00 50.09" xmlns="http://www.w3.org/2000/svg" xmlns:xlink="http://www.w3.org/1999/xlink">
<g id="graph0" class="graph" transform="scale(0.782609 0.782609) rotate(0) translate(4 60)">
<title>inheritance78149a0359</title>
<polygon fill="white" stroke="none" points="-4,4 -4,-60 732,-60 732,4 -4,4"/>
<!-- DataBase.TestCase.ElementBase -->
<g id="node1" class="node"><title>DataBase.TestCase.ElementBase</title>
<g id="a_node1"><a xlink:href="../PyInfrastructure/DataBase.TestCase.html#DataBase.TestCase.ElementBase" xlink:title="DataBase.TestCase.ElementBase" target="_top">
<polygon fill="none" stroke="black" stroke-width="0.5" points="165,-56 0,-56 0,-37 165,-37 165,-56"/>
<text text-anchor="middle" x="82.5" y="-44" font-family="Vera Sans, DejaVu Sans, Liberation Sans, Arial, Helvetica, sans" font-size="10.00">DataBase.TestCase.ElementBase</text>
</a>
</g>
</g>
<!-- DataBase.TestCase.GroupBase -->
<g id="node2" class="node"><title>DataBase.TestCase.GroupBase</title>
<g id="a_node2"><a xlink:href="../PyInfrastructure/DataBase.TestCase.html#DataBase.TestCase.GroupBase" xlink:title="DataBase.TestCase.GroupBase" target="_top">
<polygon fill="none" stroke="black" stroke-width="0.5" points="356,-56 201,-56 201,-37 356,-37 356,-56"/>
<text text-anchor="middle" x="278.5" y="-44" font-family="Vera Sans, DejaVu Sans, Liberation Sans, Arial, Helvetica, sans" font-size="10.00">DataBase.TestCase.GroupBase</text>
</a>
</g>
</g>
<!-- DataBase.TestCase.ElementBase&#45;&gt;DataBase.TestCase.GroupBase -->
<g id="edge1" class="edge"><title>DataBase.TestCase.ElementBase&#45;&gt;DataBase.TestCase.GroupBase</title>
<path fill="none" stroke="black" stroke-width="0.5" d="M165.211,-46.5C175.264,-46.5 185.541,-46.5 195.597,-46.5"/>
<polygon fill="black" stroke="black" stroke-width="0.5" points="195.833,-48.2501 200.833,-46.5 195.833,-44.7501 195.833,-48.2501"/>
</g>
<!-- DataBase.TestCase.TestGroup -->
<g id="node4" class="node"><title>DataBase.TestCase.TestGroup</title>
<g id="a_node4"><a xlink:href="../PyInfrastructure/DataBase.TestCase.html#DataBase.TestCase.TestGroup" xlink:title="DataBase.TestCase.TestGroup" target="_top">
<polygon fill="none" stroke="black" stroke-width="0.5" points="544,-56 392,-56 392,-37 544,-37 544,-56"/>
<text text-anchor="middle" x="468" y="-44" font-family="Vera Sans, DejaVu Sans, Liberation Sans, Arial, Helvetica, sans" font-size="10.00">DataBase.TestCase.TestGroup</text>
</a>
</g>
</g>
<!-- DataBase.TestCase.GroupBase&#45;&gt;DataBase.TestCase.TestGroup -->
<g id="edge2" class="edge"><title>DataBase.TestCase.GroupBase&#45;&gt;DataBase.TestCase.TestGroup</title>
<path fill="none" stroke="black" stroke-width="0.5" d="M356.034,-46.5C366.215,-46.5 376.677,-46.5 386.917,-46.5"/>
<polygon fill="black" stroke="black" stroke-width="0.5" points="386.924,-48.2501 391.924,-46.5 386.924,-44.7501 386.924,-48.2501"/>
</g>
<!-- DataBase.TestCase.SuiteMixIn -->
<g id="node3" class="node"><title>DataBase.TestCase.SuiteMixIn</title>
<g id="a_node3"><a xlink:href="../PyInfrastructure/DataBase.TestCase.html#DataBase.TestCase.SuiteMixIn" xlink:title="DataBase.TestCase.SuiteMixIn" target="_top">
<polygon fill="none" stroke="black" stroke-width="0.5" points="544,-19 392,-19 392,-0 544,-0 544,-19"/>
<text text-anchor="middle" x="468" y="-7" font-family="Vera Sans, DejaVu Sans, Liberation Sans, Arial, Helvetica, sans" font-size="10.00">DataBase.TestCase.SuiteMixIn</text>
</a>
</g>
</g>
<!-- DataBase.TestCase.TestSuite -->
<g id="node5" class="node"><title>DataBase.TestCase.TestSuite</title>
<g id="a_node5"><a xlink:href="../PyInfrastructure/DataBase.TestCase.html#DataBase.TestCase.TestSuite" xlink:title="DataBase.TestCase.TestSuite" target="_top">
<polygon fill="none" stroke="black" stroke-width="0.5" points="728,-37 580,-37 580,-18 728,-18 728,-37"/>
<text text-anchor="middle" x="654" y="-25" font-family="Vera Sans, DejaVu Sans, Liberation Sans, Arial, Helvetica, sans" font-size="10.00">DataBase.TestCase.TestSuite</text>
</a>
</g>
</g>
<!-- DataBase.TestCase.SuiteMixIn&#45;&gt;DataBase.TestCase.TestSuite -->
<g id="edge4" class="edge"><title>DataBase.TestCase.SuiteMixIn&#45;&gt;DataBase.TestCase.TestSuite</title>
<path fill="none" stroke="black" stroke-width="0.5" d="M544.105,-16.8473C554.267,-17.8414 564.715,-18.8634 574.927,-19.8624"/>
<polygon fill="black" stroke="black" stroke-width="0.5" points="574.773,-21.6056 579.92,-20.3508 575.114,-18.1222 574.773,-21.6056"/>
</g>
<!-- DataBase.TestCase.TestGroup&#45;&gt;DataBase.TestCase.TestSuite -->
<g id="edge3" class="edge"><title>DataBase.TestCase.TestGroup&#45;&gt;DataBase.TestCase.TestSuite</title>
<path fill="none" stroke="black" stroke-width="0.5" d="M544.105,-38.7446C554.267,-37.6952 564.715,-36.6164 574.927,-35.5619"/>
<polygon fill="black" stroke="black" stroke-width="0.5" points="575.126,-37.3008 579.92,-35.0463 574.766,-33.8193 575.126,-37.3008"/>
</g>
</g>
</svg>
