<?xml version="1.0" encoding="UTF-8" standalone="no"?>
<!DOCTYPE svg PUBLIC "-//W3C//DTD SVG 1.1//EN"
 "http://www.w3.org/Graphics/SVG/1.1/DTD/svg11.dtd">
<!-- Generated by graphviz version 2.38.0 (20140413.2041)
 -->
<!-- Title: inheritance7970773f79 Pages: 1 -->
<svg width="576pt" height="22pt"
 viewBox="0.00 0.00 576.00 21.66" xmlns="http://www.w3.org/2000/svg" xmlns:xlink="http://www.w3.org/1999/xlink">
<g id="graph0" class="graph" transform="scale(0.802228 0.802228) rotate(0) translate(4 23)">
<title>inheritance7970773f79</title>
<polygon fill="white" stroke="none" points="-4,4 -4,-23 714,-23 714,4 -4,4"/>
<!-- Parser.RulesCodeDOM.FileStatement -->
<g id="node1" class="node"><title>Parser.RulesCodeDOM.FileStatement</title>
<g id="a_node1"><a xlink:href="../PyInfrastructure/Parser.RulesCodeDOM.html#Parser.RulesCodeDOM.FileStatement" xlink:title="Parser.RulesCodeDOM.FileStatement" target="_top">
<polygon fill="none" stroke="black" stroke-width="0.5" points="710,-19 528,-19 528,-0 710,-0 710,-19"/>
<text text-anchor="middle" x="619" y="-7" font-family="Vera Sans, DejaVu Sans, Liberation Sans, Arial, Helvetica, sans" font-size="10.00">Parser.RulesCodeDOM.FileStatement</text>
</a>
</g>
</g>
<!-- lib.CodeDOM.BlockStatement -->
<g id="node2" class="node"><title>lib.CodeDOM.BlockStatement</title>
<g id="a_node2"><a xlink:href="../lib.CodeDOM.html#lib.CodeDOM.BlockStatement" xlink:title="lib.CodeDOM.BlockStatement" target="_top">
<polygon fill="none" stroke="black" stroke-width="0.5" points="492,-19 345,-19 345,-0 492,-0 492,-19"/>
<text text-anchor="middle" x="418.5" y="-7" font-family="Vera Sans, DejaVu Sans, Liberation Sans, Arial, Helvetica, sans" font-size="10.00">lib.CodeDOM.BlockStatement</text>
</a>
</g>
</g>
<!-- lib.CodeDOM.BlockStatement&#45;&gt;Parser.RulesCodeDOM.FileStatement -->
<g id="edge1" class="edge"><title>lib.CodeDOM.BlockStatement&#45;&gt;Parser.RulesCodeDOM.FileStatement</title>
<path fill="none" stroke="black" stroke-width="0.5" d="M492.006,-9.5C501.999,-9.5 512.384,-9.5 522.711,-9.5"/>
<polygon fill="black" stroke="black" stroke-width="0.5" points="522.774,-11.2501 527.774,-9.5 522.774,-7.7501 522.774,-11.2501"/>
</g>
<!-- lib.CodeDOM.Statement -->
<g id="node3" class="node"><title>lib.CodeDOM.Statement</title>
<g id="a_node3"><a xlink:href="../lib.CodeDOM.html#lib.CodeDOM.Statement" xlink:title="lib.CodeDOM.Statement" target="_top">
<polygon fill="none" stroke="black" stroke-width="0.5" points="309,-19 187,-19 187,-0 309,-0 309,-19"/>
<text text-anchor="middle" x="248" y="-7" font-family="Vera Sans, DejaVu Sans, Liberation Sans, Arial, Helvetica, sans" font-size="10.00">lib.CodeDOM.Statement</text>
</a>
</g>
</g>
<!-- lib.CodeDOM.Statement&#45;&gt;lib.CodeDOM.BlockStatement -->
<g id="edge2" class="edge"><title>lib.CodeDOM.Statement&#45;&gt;lib.CodeDOM.BlockStatement</title>
<path fill="none" stroke="black" stroke-width="0.5" d="M309.356,-9.5C319.257,-9.5 329.638,-9.5 339.886,-9.5"/>
<polygon fill="black" stroke="black" stroke-width="0.5" points="339.904,-11.2501 344.904,-9.5 339.904,-7.7501 339.904,-11.2501"/>
</g>
<!-- lib.CodeDOM.CodeDOMObject -->
<g id="node4" class="node"><title>lib.CodeDOM.CodeDOMObject</title>
<g id="a_node4"><a xlink:href="../lib.CodeDOM.html#lib.CodeDOM.CodeDOMObject" xlink:title="lib.CodeDOM.CodeDOMObject" target="_top">
<polygon fill="none" stroke="black" stroke-width="0.5" points="151,-19 0,-19 0,-0 151,-0 151,-19"/>
<text text-anchor="middle" x="75.5" y="-7" font-family="Vera Sans, DejaVu Sans, Liberation Sans, Arial, Helvetica, sans" font-size="10.00">lib.CodeDOM.CodeDOMObject</text>
</a>
</g>
</g>
<!-- lib.CodeDOM.CodeDOMObject&#45;&gt;lib.CodeDOM.Statement -->
<g id="edge3" class="edge"><title>lib.CodeDOM.CodeDOMObject&#45;&gt;lib.CodeDOM.Statement</title>
<path fill="none" stroke="black" stroke-width="0.5" d="M151.284,-9.5C161.418,-9.5 171.752,-9.5 181.701,-9.5"/>
<polygon fill="black" stroke="black" stroke-width="0.5" points="181.867,-11.2501 186.867,-9.5 181.866,-7.7501 181.867,-11.2501"/>
</g>
</g>
</svg>
