<?xml version="1.0" encoding="UTF-8" standalone="no"?>
<!DOCTYPE svg PUBLIC "-//W3C//DTD SVG 1.1//EN"
 "http://www.w3.org/Graphics/SVG/1.1/DTD/svg11.dtd">
<!-- Generated by graphviz version 2.38.0 (20140413.2041)
 -->
<!-- Title: inheritance6a7072e758 Pages: 1 -->
<svg width="576pt" height="52pt"
 viewBox="0.00 0.00 576.00 52.22" xmlns="http://www.w3.org/2000/svg" xmlns:xlink="http://www.w3.org/1999/xlink">
<g id="graph0" class="graph" transform="scale(0.815864 0.815864) rotate(0) translate(4 60)">
<title>inheritance6a7072e758</title>
<polygon fill="white" stroke="none" points="-4,4 -4,-60 702,-60 702,4 -4,4"/>
<!-- Base.Logging.ILogable -->
<g id="node1" class="node"><title>Base.Logging.ILogable</title>
<g id="a_node1"><a xlink:href="../Base.Logging.html#Base.Logging.ILogable" xlink:title="A mixin class to provide local logging methods." target="_top">
<polygon fill="none" stroke="black" stroke-width="0.5" points="115,-56 0,-56 0,-37 115,-37 115,-56"/>
<text text-anchor="middle" x="57.5" y="-44" font-family="Vera Sans, DejaVu Sans, Liberation Sans, Arial, Helvetica, sans" font-size="10.00">Base.Logging.ILogable</text>
</a>
</g>
</g>
<!-- Base.Shared.Shared -->
<g id="node2" class="node"><title>Base.Shared.Shared</title>
<g id="a_node2"><a xlink:href="../Base.Shared.html#Base.Shared.Shared" xlink:title="Base class for Simulator and Compiler." target="_top">
<polygon fill="none" stroke="black" stroke-width="0.5" points="258,-56 151,-56 151,-37 258,-37 258,-56"/>
<text text-anchor="middle" x="204.5" y="-44" font-family="Vera Sans, DejaVu Sans, Liberation Sans, Arial, Helvetica, sans" font-size="10.00">Base.Shared.Shared</text>
</a>
</g>
</g>
<!-- Base.Logging.ILogable&#45;&gt;Base.Shared.Shared -->
<g id="edge1" class="edge"><title>Base.Logging.ILogable&#45;&gt;Base.Shared.Shared</title>
<path fill="none" stroke="black" stroke-width="0.5" d="M115.392,-46.5C125.256,-46.5 135.525,-46.5 145.42,-46.5"/>
<polygon fill="black" stroke="black" stroke-width="0.5" points="145.557,-48.2501 150.557,-46.5 145.557,-44.7501 145.557,-48.2501"/>
</g>
<!-- Simulator.Simulator -->
<g id="node3" class="node"><title>Simulator.Simulator</title>
<g id="a_node3"><a xlink:href="../Simulator.html#Simulator.Simulator" xlink:title="Base class for all Simulator classes." target="_top">
<polygon fill="none" stroke="black" stroke-width="0.5" points="441.5,-56 339.5,-56 339.5,-37 441.5,-37 441.5,-56"/>
<text text-anchor="middle" x="390.5" y="-44" font-family="Vera Sans, DejaVu Sans, Liberation Sans, Arial, Helvetica, sans" font-size="10.00">Simulator.Simulator</text>
</a>
</g>
</g>
<!-- Base.Shared.Shared&#45;&gt;Simulator.Simulator -->
<g id="edge2" class="edge"><title>Base.Shared.Shared&#45;&gt;Simulator.Simulator</title>
<path fill="none" stroke="black" stroke-width="0.5" d="M258.227,-46.5C282.021,-46.5 310.13,-46.5 334.221,-46.5"/>
<polygon fill="black" stroke="black" stroke-width="0.5" points="334.297,-48.2501 339.297,-46.5 334.297,-44.7501 334.297,-48.2501"/>
</g>
<!-- Simulator.VivadoSimulator.Simulator -->
<g id="node4" class="node"><title>Simulator.VivadoSimulator.Simulator</title>
<g id="a_node4"><a xlink:href="../PyInfrastructure/Simulator.VivadoSimulator.html#Simulator.VivadoSimulator.Simulator" xlink:title="Simulator.VivadoSimulator.Simulator" target="_top">
<polygon fill="none" stroke="black" stroke-width="0.5" points="698,-37 523,-37 523,-18 698,-18 698,-37"/>
<text text-anchor="middle" x="610.5" y="-25" font-family="Vera Sans, DejaVu Sans, Liberation Sans, Arial, Helvetica, sans" font-size="10.00">Simulator.VivadoSimulator.Simulator</text>
</a>
</g>
</g>
<!-- Simulator.Simulator&#45;&gt;Simulator.VivadoSimulator.Simulator -->
<g id="edge3" class="edge"><title>Simulator.Simulator&#45;&gt;Simulator.VivadoSimulator.Simulator</title>
<path fill="none" stroke="black" stroke-width="0.5" d="M441.514,-42.141C464.141,-40.1689 491.62,-37.7739 517.744,-35.4971"/>
<polygon fill="black" stroke="black" stroke-width="0.5" points="518.12,-37.221 522.949,-35.0434 517.816,-33.7342 518.12,-37.221"/>
</g>
<!-- ToolChain.Xilinx.XilinxProjectExportMixIn -->
<g id="node5" class="node"><title>ToolChain.Xilinx.XilinxProjectExportMixIn</title>
<g id="a_node5"><a xlink:href="../ToolChain.Xilinx.html#ToolChain.Xilinx.XilinxProjectExportMixIn" xlink:title="ToolChain.Xilinx.XilinxProjectExportMixIn" target="_top">
<polygon fill="none" stroke="black" stroke-width="0.5" points="487,-19 294,-19 294,-0 487,-0 487,-19"/>
<text text-anchor="middle" x="390.5" y="-7" font-family="Vera Sans, DejaVu Sans, Liberation Sans, Arial, Helvetica, sans" font-size="10.00">ToolChain.Xilinx.XilinxProjectExportMixIn</text>
</a>
</g>
</g>
<!-- ToolChain.Xilinx.XilinxProjectExportMixIn&#45;&gt;Simulator.VivadoSimulator.Simulator -->
<g id="edge4" class="edge"><title>ToolChain.Xilinx.XilinxProjectExportMixIn&#45;&gt;Simulator.VivadoSimulator.Simulator</title>
<path fill="none" stroke="black" stroke-width="0.5" d="M487.118,-17.3951C497.25,-18.2316 507.538,-19.0811 517.626,-19.914"/>
<polygon fill="black" stroke="black" stroke-width="0.5" points="517.754,-21.6805 522.881,-20.3479 518.042,-18.1924 517.754,-21.6805"/>
</g>
</g>
</svg>
