<?xml version="1.0" encoding="UTF-8" standalone="no"?>
<!DOCTYPE svg PUBLIC "-//W3C//DTD SVG 1.1//EN"
 "http://www.w3.org/Graphics/SVG/1.1/DTD/svg11.dtd">
<!-- Generated by graphviz version 2.38.0 (20140413.2041)
 -->
<!-- Title: inheritanceec0550a951 Pages: 1 -->
<svg width="576pt" height="42pt"
 viewBox="0.00 0.00 576.00 41.65" xmlns="http://www.w3.org/2000/svg" xmlns:xlink="http://www.w3.org/1999/xlink">
<g id="graph0" class="graph" transform="scale(0.650847 0.650847) rotate(0) translate(4 60)">
<title>inheritanceec0550a951</title>
<polygon fill="white" stroke="none" points="-4,4 -4,-60 881,-60 881,4 -4,4"/>
<!-- Base.Logging.ILogable -->
<g id="node1" class="node"><title>Base.Logging.ILogable</title>
<g id="a_node1"><a xlink:href="../Base.Logging.html#Base.Logging.ILogable" xlink:title="A mixin class to provide local logging methods." target="_top">
<polygon fill="none" stroke="black" stroke-width="0.5" points="115,-56 0,-56 0,-37 115,-37 115,-56"/>
<text text-anchor="middle" x="57.5" y="-44" font-family="Vera Sans, DejaVu Sans, Liberation Sans, Arial, Helvetica, sans" font-size="10.00">Base.Logging.ILogable</text>
</a>
</g>
</g>
<!-- ToolChain.Configuration -->
<g id="node5" class="node"><title>ToolChain.Configuration</title>
<g id="a_node5"><a xlink:href="../ToolChain.html#ToolChain.Configuration" xlink:title="Base class for all Configuration classes." target="_top">
<polygon fill="none" stroke="black" stroke-width="0.5" points="270,-37 151,-37 151,-18 270,-18 270,-37"/>
<text text-anchor="middle" x="210.5" y="-25" font-family="Vera Sans, DejaVu Sans, Liberation Sans, Arial, Helvetica, sans" font-size="10.00">ToolChain.Configuration</text>
</a>
</g>
</g>
<!-- Base.Logging.ILogable&#45;&gt;ToolChain.Configuration -->
<g id="edge2" class="edge"><title>Base.Logging.ILogable&#45;&gt;ToolChain.Configuration</title>
<path fill="none" stroke="black" stroke-width="0.5" d="M115.156,-39.371C125.153,-38.1132 135.62,-36.7961 145.795,-35.5159"/>
<polygon fill="black" stroke="black" stroke-width="0.5" points="146.02,-37.2515 150.762,-34.8908 145.583,-33.7788 146.02,-37.2515"/>
</g>
<!-- ToolChain.Altera.Quartus.Configuration -->
<g id="node2" class="node"><title>ToolChain.Altera.Quartus.Configuration</title>
<g id="a_node2"><a xlink:href="../ToolChain.Altera.Quartus.html#ToolChain.Altera.Quartus.Configuration" xlink:title="ToolChain.Altera.Quartus.Configuration" target="_top">
<polygon fill="none" stroke="black" stroke-width="0.5" points="664,-37 479,-37 479,-18 664,-18 664,-37"/>
<text text-anchor="middle" x="571.5" y="-25" font-family="Vera Sans, DejaVu Sans, Liberation Sans, Arial, Helvetica, sans" font-size="10.00">ToolChain.Altera.Quartus.Configuration</text>
</a>
</g>
</g>
<!-- ToolChain.Intel.Quartus.Configuration -->
<g id="node6" class="node"><title>ToolChain.Intel.Quartus.Configuration</title>
<g id="a_node6"><a xlink:href="../PyInfrastructure/ToolChain.Intel.Quartus.html#ToolChain.Intel.Quartus.Configuration" xlink:title="ToolChain.Intel.Quartus.Configuration" target="_top">
<polygon fill="none" stroke="black" stroke-width="0.5" points="877,-37 700,-37 700,-18 877,-18 877,-37"/>
<text text-anchor="middle" x="788.5" y="-25" font-family="Vera Sans, DejaVu Sans, Liberation Sans, Arial, Helvetica, sans" font-size="10.00">ToolChain.Intel.Quartus.Configuration</text>
</a>
</g>
</g>
<!-- ToolChain.Altera.Quartus.Configuration&#45;&gt;ToolChain.Intel.Quartus.Configuration -->
<g id="edge4" class="edge"><title>ToolChain.Altera.Quartus.Configuration&#45;&gt;ToolChain.Intel.Quartus.Configuration</title>
<path fill="none" stroke="black" stroke-width="0.5" d="M664.303,-27.5C674.314,-27.5 684.51,-27.5 694.535,-27.5"/>
<polygon fill="black" stroke="black" stroke-width="0.5" points="694.759,-29.2501 699.759,-27.5 694.759,-25.7501 694.759,-29.2501"/>
</g>
<!-- ToolChain.ToolConfiguration -->
<g id="node3" class="node"><title>ToolChain.ToolConfiguration</title>
<g id="a_node3"><a xlink:href="../ToolChain.html#ToolChain.ToolConfiguration" xlink:title="Base class for all tool Configuration classes." target="_top">
<polygon fill="none" stroke="black" stroke-width="0.5" points="443,-37 306,-37 306,-18 443,-18 443,-37"/>
<text text-anchor="middle" x="374.5" y="-25" font-family="Vera Sans, DejaVu Sans, Liberation Sans, Arial, Helvetica, sans" font-size="10.00">ToolChain.ToolConfiguration</text>
</a>
</g>
</g>
<!-- ToolChain.ToolConfiguration&#45;&gt;ToolChain.Altera.Quartus.Configuration -->
<g id="edge1" class="edge"><title>ToolChain.ToolConfiguration&#45;&gt;ToolChain.Altera.Quartus.Configuration</title>
<path fill="none" stroke="black" stroke-width="0.5" d="M443.154,-27.5C453.08,-27.5 463.463,-27.5 473.833,-27.5"/>
<polygon fill="black" stroke="black" stroke-width="0.5" points="473.921,-29.2501 478.921,-27.5 473.921,-25.7501 473.921,-29.2501"/>
</g>
<!-- ToolChain.AskMixIn -->
<g id="node4" class="node"><title>ToolChain.AskMixIn</title>
<g id="a_node4"><a xlink:href="../ToolChain.html#ToolChain.AskMixIn" xlink:title="ToolChain.AskMixIn" target="_top">
<polygon fill="none" stroke="black" stroke-width="0.5" points="109,-19 6,-19 6,-0 109,-0 109,-19"/>
<text text-anchor="middle" x="57.5" y="-7" font-family="Vera Sans, DejaVu Sans, Liberation Sans, Arial, Helvetica, sans" font-size="10.00">ToolChain.AskMixIn</text>
</a>
</g>
</g>
<!-- ToolChain.AskMixIn&#45;&gt;ToolChain.Configuration -->
<g id="edge3" class="edge"><title>ToolChain.AskMixIn&#45;&gt;ToolChain.Configuration</title>
<path fill="none" stroke="black" stroke-width="0.5" d="M109.201,-15.5438C120.896,-16.9379 133.484,-18.4385 145.658,-19.8897"/>
<polygon fill="black" stroke="black" stroke-width="0.5" points="145.674,-21.6539 150.846,-20.5081 146.088,-18.1785 145.674,-21.6539"/>
</g>
<!-- ToolChain.Configuration&#45;&gt;ToolChain.ToolConfiguration -->
<g id="edge5" class="edge"><title>ToolChain.Configuration&#45;&gt;ToolChain.ToolConfiguration</title>
<path fill="none" stroke="black" stroke-width="0.5" d="M270.444,-27.5C280.228,-27.5 290.477,-27.5 300.557,-27.5"/>
<polygon fill="black" stroke="black" stroke-width="0.5" points="300.81,-29.2501 305.81,-27.5 300.81,-25.7501 300.81,-29.2501"/>
</g>
</g>
</svg>
