<?xml version="1.0" encoding="UTF-8" standalone="no"?>
<!DOCTYPE svg PUBLIC "-//W3C//DTD SVG 1.1//EN"
 "http://www.w3.org/Graphics/SVG/1.1/DTD/svg11.dtd">
<!-- Generated by graphviz version 2.38.0 (20140413.2041)
 -->
<!-- Title: inheritancee3953d95b4 Pages: 1 -->
<svg width="576pt" height="53pt"
 viewBox="0.00 0.00 576.00 53.35" xmlns="http://www.w3.org/2000/svg" xmlns:xlink="http://www.w3.org/1999/xlink">
<g id="graph0" class="graph" transform="scale(0.833575 0.833575) rotate(0) translate(4 60)">
<title>inheritancee3953d95b4</title>
<polygon fill="white" stroke="none" points="-4,4 -4,-60 687,-60 687,4 -4,4"/>
<!-- Base.Executable.Executable -->
<g id="node1" class="node"><title>Base.Executable.Executable</title>
<g id="a_node1"><a xlink:href="../Base.Executable.html#Base.Executable.Executable" xlink:title="Represent an executable." target="_top">
<polygon fill="none" stroke="black" stroke-width="0.5" points="294,-19 151,-19 151,-0 294,-0 294,-19"/>
<text text-anchor="middle" x="222.5" y="-7" font-family="Vera Sans, DejaVu Sans, Liberation Sans, Arial, Helvetica, sans" font-size="10.00">Base.Executable.Executable</text>
</a>
</g>
</g>
<!-- ToolChain.OutputFilteredExecutable -->
<g id="node3" class="node"><title>ToolChain.OutputFilteredExecutable</title>
<polygon fill="none" stroke="black" stroke-width="0.5" points="503,-19 330,-19 330,-0 503,-0 503,-19"/>
<text text-anchor="middle" x="416.5" y="-7" font-family="Vera Sans, DejaVu Sans, Liberation Sans, Arial, Helvetica, sans" font-size="10.00">ToolChain.OutputFilteredExecutable</text>
</g>
<!-- Base.Executable.Executable&#45;&gt;ToolChain.OutputFilteredExecutable -->
<g id="edge2" class="edge"><title>Base.Executable.Executable&#45;&gt;ToolChain.OutputFilteredExecutable</title>
<path fill="none" stroke="black" stroke-width="0.5" d="M294.176,-9.5C304.192,-9.5 314.604,-9.5 324.931,-9.5"/>
<polygon fill="black" stroke="black" stroke-width="0.5" points="324.993,-11.2501 329.993,-9.5 324.992,-7.7501 324.993,-11.2501"/>
</g>
<!-- Base.Logging.ILogable -->
<g id="node2" class="node"><title>Base.Logging.ILogable</title>
<g id="a_node2"><a xlink:href="../Base.Logging.html#Base.Logging.ILogable" xlink:title="A mixin class to provide local logging methods." target="_top">
<polygon fill="none" stroke="black" stroke-width="0.5" points="115,-19 0,-19 0,-0 115,-0 115,-19"/>
<text text-anchor="middle" x="57.5" y="-7" font-family="Vera Sans, DejaVu Sans, Liberation Sans, Arial, Helvetica, sans" font-size="10.00">Base.Logging.ILogable</text>
</a>
</g>
</g>
<!-- Base.Logging.ILogable&#45;&gt;Base.Executable.Executable -->
<g id="edge1" class="edge"><title>Base.Logging.ILogable&#45;&gt;Base.Executable.Executable</title>
<path fill="none" stroke="black" stroke-width="0.5" d="M115.052,-9.5C125.008,-9.5 135.515,-9.5 145.893,-9.5"/>
<polygon fill="black" stroke="black" stroke-width="0.5" points="145.974,-11.2501 150.974,-9.5 145.974,-7.7501 145.974,-11.2501"/>
</g>
<!-- ToolChain.Xilinx.Vivado.XElab -->
<g id="node5" class="node"><title>ToolChain.Xilinx.Vivado.XElab</title>
<g id="a_node5"><a xlink:href="../PyInfrastructure/ToolChain.Xilinx.Vivado.html#ToolChain.Xilinx.Vivado.XElab" xlink:title="ToolChain.Xilinx.Vivado.XElab" target="_top">
<polygon fill="none" stroke="black" stroke-width="0.5" points="683,-37 539,-37 539,-18 683,-18 683,-37"/>
<text text-anchor="middle" x="611" y="-25" font-family="Vera Sans, DejaVu Sans, Liberation Sans, Arial, Helvetica, sans" font-size="10.00">ToolChain.Xilinx.Vivado.XElab</text>
</a>
</g>
</g>
<!-- ToolChain.OutputFilteredExecutable&#45;&gt;ToolChain.Xilinx.Vivado.XElab -->
<g id="edge3" class="edge"><title>ToolChain.OutputFilteredExecutable&#45;&gt;ToolChain.Xilinx.Vivado.XElab</title>
<path fill="none" stroke="black" stroke-width="0.5" d="M503.054,-17.4999C513.23,-18.4514 523.567,-19.4179 533.603,-20.3564"/>
<polygon fill="black" stroke="black" stroke-width="0.5" points="533.68,-22.1211 538.821,-20.8443 534.006,-18.6363 533.68,-22.1211"/>
</g>
<!-- ToolChain.ToolMixIn -->
<g id="node4" class="node"><title>ToolChain.ToolMixIn</title>
<g id="a_node4"><a xlink:href="../ToolChain.html#ToolChain.ToolMixIn" xlink:title="ToolChain.ToolMixIn" target="_top">
<polygon fill="none" stroke="black" stroke-width="0.5" points="468.5,-56 364.5,-56 364.5,-37 468.5,-37 468.5,-56"/>
<text text-anchor="middle" x="416.5" y="-44" font-family="Vera Sans, DejaVu Sans, Liberation Sans, Arial, Helvetica, sans" font-size="10.00">ToolChain.ToolMixIn</text>
</a>
</g>
</g>
<!-- ToolChain.ToolMixIn&#45;&gt;ToolChain.Xilinx.Vivado.XElab -->
<g id="edge4" class="edge"><title>ToolChain.ToolMixIn&#45;&gt;ToolChain.Xilinx.Vivado.XElab</title>
<path fill="none" stroke="black" stroke-width="0.5" d="M468.581,-41.4582C488.483,-39.4939 511.717,-37.2007 533.533,-35.0474"/>
<polygon fill="black" stroke="black" stroke-width="0.5" points="533.947,-36.7651 538.751,-34.5324 533.603,-33.2821 533.947,-36.7651"/>
</g>
</g>
</svg>
