<?xml version="1.0" encoding="UTF-8" standalone="no"?>
<!DOCTYPE svg PUBLIC "-//W3C//DTD SVG 1.1//EN"
 "http://www.w3.org/Graphics/SVG/1.1/DTD/svg11.dtd">
<!-- Generated by graphviz version 2.38.0 (20140413.2041)
 -->
<!-- Title: inheritanceefcf36bb89 Pages: 1 -->
<svg width="501pt" height="64pt"
 viewBox="0.00 0.00 501.00 64.00" xmlns="http://www.w3.org/2000/svg" xmlns:xlink="http://www.w3.org/1999/xlink">
<g id="graph0" class="graph" transform="scale(1 1) rotate(0) translate(4 60)">
<title>inheritanceefcf36bb89</title>
<polygon fill="white" stroke="none" points="-4,4 -4,-60 497,-60 497,4 -4,4"/>
<!-- Base.Executable.Executable -->
<g id="node1" class="node"><title>Base.Executable.Executable</title>
<g id="a_node1"><a xlink:href="../Base.Executable.html#Base.Executable.Executable" xlink:title="Represent an executable." target="_top">
<polygon fill="none" stroke="black" stroke-width="0.5" points="294,-19 151,-19 151,-0 294,-0 294,-19"/>
<text text-anchor="middle" x="222.5" y="-7" font-family="Vera Sans, DejaVu Sans, Liberation Sans, Arial, Helvetica, sans" font-size="10.00">Base.Executable.Executable</text>
</a>
</g>
</g>
<!-- ToolChain.Altera.Quartus.TclShell -->
<g id="node3" class="node"><title>ToolChain.Altera.Quartus.TclShell</title>
<g id="a_node3"><a xlink:href="../PyInfrastructure/ToolChain.Altera.Quartus.html#ToolChain.Altera.Quartus.TclShell" xlink:title="ToolChain.Altera.Quartus.TclShell" target="_top">
<polygon fill="none" stroke="black" stroke-width="0.5" points="493,-37 330,-37 330,-18 493,-18 493,-37"/>
<text text-anchor="middle" x="411.5" y="-25" font-family="Vera Sans, DejaVu Sans, Liberation Sans, Arial, Helvetica, sans" font-size="10.00">ToolChain.Altera.Quartus.TclShell</text>
</a>
</g>
</g>
<!-- Base.Executable.Executable&#45;&gt;ToolChain.Altera.Quartus.TclShell -->
<g id="edge2" class="edge"><title>Base.Executable.Executable&#45;&gt;ToolChain.Altera.Quartus.TclShell</title>
<path fill="none" stroke="black" stroke-width="0.5" d="M294.197,-16.305C304.241,-17.2718 314.658,-18.2746 324.947,-19.2649"/>
<polygon fill="black" stroke="black" stroke-width="0.5" points="324.84,-21.0127 329.985,-19.7499 325.175,-17.5288 324.84,-21.0127"/>
</g>
<!-- Base.Logging.ILogable -->
<g id="node2" class="node"><title>Base.Logging.ILogable</title>
<g id="a_node2"><a xlink:href="../Base.Logging.html#Base.Logging.ILogable" xlink:title="A mixin class to provide local logging methods." target="_top">
<polygon fill="none" stroke="black" stroke-width="0.5" points="115,-19 0,-19 0,-0 115,-0 115,-19"/>
<text text-anchor="middle" x="57.5" y="-7" font-family="Vera Sans, DejaVu Sans, Liberation Sans, Arial, Helvetica, sans" font-size="10.00">Base.Logging.ILogable</text>
</a>
</g>
</g>
<!-- Base.Logging.ILogable&#45;&gt;Base.Executable.Executable -->
<g id="edge1" class="edge"><title>Base.Logging.ILogable&#45;&gt;Base.Executable.Executable</title>
<path fill="none" stroke="black" stroke-width="0.5" d="M115.052,-9.5C125.008,-9.5 135.515,-9.5 145.893,-9.5"/>
<polygon fill="black" stroke="black" stroke-width="0.5" points="145.974,-11.2501 150.974,-9.5 145.974,-7.7501 145.974,-11.2501"/>
</g>
<!-- ToolChain.ToolMixIn -->
<g id="node4" class="node"><title>ToolChain.ToolMixIn</title>
<g id="a_node4"><a xlink:href="../ToolChain.html#ToolChain.ToolMixIn" xlink:title="ToolChain.ToolMixIn" target="_top">
<polygon fill="none" stroke="black" stroke-width="0.5" points="274.5,-56 170.5,-56 170.5,-37 274.5,-37 274.5,-56"/>
<text text-anchor="middle" x="222.5" y="-44" font-family="Vera Sans, DejaVu Sans, Liberation Sans, Arial, Helvetica, sans" font-size="10.00">ToolChain.ToolMixIn</text>
</a>
</g>
</g>
<!-- ToolChain.ToolMixIn&#45;&gt;ToolChain.Altera.Quartus.TclShell -->
<g id="edge3" class="edge"><title>ToolChain.ToolMixIn&#45;&gt;ToolChain.Altera.Quartus.TclShell</title>
<path fill="none" stroke="black" stroke-width="0.5" d="M274.599,-41.3082C290.083,-39.7349 307.535,-37.9617 324.644,-36.2233"/>
<polygon fill="black" stroke="black" stroke-width="0.5" points="325.143,-37.9318 329.94,-35.6852 324.789,-34.4497 325.143,-37.9318"/>
</g>
</g>
</svg>
