<?xml version="1.0" encoding="UTF-8" standalone="no"?>
<!DOCTYPE svg PUBLIC "-//W3C//DTD SVG 1.1//EN"
 "http://www.w3.org/Graphics/SVG/1.1/DTD/svg11.dtd">
<!-- Generated by graphviz version 2.38.0 (20140413.2041)
 -->
<!-- Title: inheritance25a6066227 Pages: 1 -->
<svg width="576pt" height="18pt"
 viewBox="0.00 0.00 576.00 17.79" xmlns="http://www.w3.org/2000/svg" xmlns:xlink="http://www.w3.org/1999/xlink">
<g id="graph0" class="graph" transform="scale(0.659039 0.659039) rotate(0) translate(4 23)">
<title>inheritance25a6066227</title>
<polygon fill="white" stroke="none" points="-4,4 -4,-23 870,-23 870,4 -4,4"/>
<!-- Base.Executable.CommandLineArgument -->
<g id="node1" class="node"><title>Base.Executable.CommandLineArgument</title>
<g id="a_node1"><a xlink:href="../PyInfrastructure/Base.Executable.html#Base.Executable.CommandLineArgument" xlink:title="Base class (and meta class) for all Arguments classes." target="_top">
<polygon fill="none" stroke="black" stroke-width="0.5" points="198,-19 0,-19 0,-0 198,-0 198,-19"/>
<text text-anchor="middle" x="99" y="-7" font-family="Vera Sans, DejaVu Sans, Liberation Sans, Arial, Helvetica, sans" font-size="10.00">Base.Executable.CommandLineArgument</text>
</a>
</g>
</g>
<!-- Base.Executable.NamedCommandLineArgument -->
<g id="node3" class="node"><title>Base.Executable.NamedCommandLineArgument</title>
<g id="a_node3"><a xlink:href="../PyInfrastructure/Base.Executable.html#Base.Executable.NamedCommandLineArgument" xlink:title="Base class for all command line arguments with a name." target="_top">
<polygon fill="none" stroke="black" stroke-width="0.5" points="463,-19 234,-19 234,-0 463,-0 463,-19"/>
<text text-anchor="middle" x="348.5" y="-7" font-family="Vera Sans, DejaVu Sans, Liberation Sans, Arial, Helvetica, sans" font-size="10.00">Base.Executable.NamedCommandLineArgument</text>
</a>
</g>
</g>
<!-- Base.Executable.CommandLineArgument&#45;&gt;Base.Executable.NamedCommandLineArgument -->
<g id="edge3" class="edge"><title>Base.Executable.CommandLineArgument&#45;&gt;Base.Executable.NamedCommandLineArgument</title>
<path fill="none" stroke="black" stroke-width="0.5" d="M198.174,-9.5C208.265,-9.5 218.592,-9.5 228.873,-9.5"/>
<polygon fill="black" stroke="black" stroke-width="0.5" points="228.915,-11.2501 233.915,-9.5 228.915,-7.7501 228.915,-11.2501"/>
</g>
<!-- Base.Executable.FlagArgument -->
<g id="node2" class="node"><title>Base.Executable.FlagArgument</title>
<g id="a_node2"><a xlink:href="../PyInfrastructure/Base.Executable.html#Base.Executable.FlagArgument" xlink:title="Base class for all FlagArgument classes, which represents a simple flag argument." target="_top">
<polygon fill="none" stroke="black" stroke-width="0.5" points="654,-19 499,-19 499,-0 654,-0 654,-19"/>
<text text-anchor="middle" x="576.5" y="-7" font-family="Vera Sans, DejaVu Sans, Liberation Sans, Arial, Helvetica, sans" font-size="10.00">Base.Executable.FlagArgument</text>
</a>
</g>
</g>
<!-- Base.Executable.LongFlagArgument -->
<g id="node4" class="node"><title>Base.Executable.LongFlagArgument</title>
<g id="a_node4"><a xlink:href="../PyInfrastructure/Base.Executable.html#Base.Executable.LongFlagArgument" xlink:title="Represents a flag argument with a double dash." target="_top">
<polygon fill="none" stroke="black" stroke-width="0.5" points="866,-19 690,-19 690,-0 866,-0 866,-19"/>
<text text-anchor="middle" x="778" y="-7" font-family="Vera Sans, DejaVu Sans, Liberation Sans, Arial, Helvetica, sans" font-size="10.00">Base.Executable.LongFlagArgument</text>
</a>
</g>
</g>
<!-- Base.Executable.FlagArgument&#45;&gt;Base.Executable.LongFlagArgument -->
<g id="edge2" class="edge"><title>Base.Executable.FlagArgument&#45;&gt;Base.Executable.LongFlagArgument</title>
<path fill="none" stroke="black" stroke-width="0.5" d="M654.061,-9.5C664.165,-9.5 674.606,-9.5 684.935,-9.5"/>
<polygon fill="black" stroke="black" stroke-width="0.5" points="684.995,-11.2501 689.995,-9.5 684.995,-7.7501 684.995,-11.2501"/>
</g>
<!-- Base.Executable.NamedCommandLineArgument&#45;&gt;Base.Executable.FlagArgument -->
<g id="edge1" class="edge"><title>Base.Executable.NamedCommandLineArgument&#45;&gt;Base.Executable.FlagArgument</title>
<path fill="none" stroke="black" stroke-width="0.5" d="M463.162,-9.5C473.458,-9.5 483.747,-9.5 493.687,-9.5"/>
<polygon fill="black" stroke="black" stroke-width="0.5" points="493.851,-11.2501 498.851,-9.5 493.851,-7.7501 493.851,-11.2501"/>
</g>
</g>
</svg>
