<?xml version="1.0" encoding="UTF-8" standalone="no"?>
<!DOCTYPE svg PUBLIC "-//W3C//DTD SVG 1.1//EN"
 "http://www.w3.org/Graphics/SVG/1.1/DTD/svg11.dtd">
<!-- Generated by graphviz version 2.38.0 (20140413.2041)
 -->
<!-- Title: inheritance80b22de082 Pages: 1 -->
<svg width="576pt" height="48pt"
 viewBox="0.00 0.00 576.00 48.38" xmlns="http://www.w3.org/2000/svg" xmlns:xlink="http://www.w3.org/1999/xlink">
<g id="graph0" class="graph" transform="scale(0.755906 0.755906) rotate(0) translate(4 60)">
<title>inheritance80b22de082</title>
<polygon fill="white" stroke="none" points="-4,4 -4,-60 758,-60 758,4 -4,4"/>
<!-- Base.Executable.Executable -->
<g id="node1" class="node"><title>Base.Executable.Executable</title>
<g id="a_node1"><a xlink:href="../Base.Executable.html#Base.Executable.Executable" xlink:title="Represent an executable." target="_top">
<polygon fill="none" stroke="black" stroke-width="0.5" points="294,-19 151,-19 151,-0 294,-0 294,-19"/>
<text text-anchor="middle" x="222.5" y="-7" font-family="Vera Sans, DejaVu Sans, Liberation Sans, Arial, Helvetica, sans" font-size="10.00">Base.Executable.Executable</text>
</a>
</g>
</g>
<!-- ToolChain.OutputFilteredExecutable -->
<g id="node4" class="node"><title>ToolChain.OutputFilteredExecutable</title>
<polygon fill="none" stroke="black" stroke-width="0.5" points="503,-19 330,-19 330,-0 503,-0 503,-19"/>
<text text-anchor="middle" x="416.5" y="-7" font-family="Vera Sans, DejaVu Sans, Liberation Sans, Arial, Helvetica, sans" font-size="10.00">ToolChain.OutputFilteredExecutable</text>
</g>
<!-- Base.Executable.Executable&#45;&gt;ToolChain.OutputFilteredExecutable -->
<g id="edge4" class="edge"><title>Base.Executable.Executable&#45;&gt;ToolChain.OutputFilteredExecutable</title>
<path fill="none" stroke="black" stroke-width="0.5" d="M294.176,-9.5C304.192,-9.5 314.604,-9.5 324.931,-9.5"/>
<polygon fill="black" stroke="black" stroke-width="0.5" points="324.993,-11.2501 329.993,-9.5 324.992,-7.7501 324.993,-11.2501"/>
</g>
<!-- Base.Logging.ILogable -->
<g id="node2" class="node"><title>Base.Logging.ILogable</title>
<g id="a_node2"><a xlink:href="../Base.Logging.html#Base.Logging.ILogable" xlink:title="A mixin class to provide local logging methods." target="_top">
<polygon fill="none" stroke="black" stroke-width="0.5" points="115,-19 0,-19 0,-0 115,-0 115,-19"/>
<text text-anchor="middle" x="57.5" y="-7" font-family="Vera Sans, DejaVu Sans, Liberation Sans, Arial, Helvetica, sans" font-size="10.00">Base.Logging.ILogable</text>
</a>
</g>
</g>
<!-- Base.Logging.ILogable&#45;&gt;Base.Executable.Executable -->
<g id="edge1" class="edge"><title>Base.Logging.ILogable&#45;&gt;Base.Executable.Executable</title>
<path fill="none" stroke="black" stroke-width="0.5" d="M115.052,-9.5C125.008,-9.5 135.515,-9.5 145.893,-9.5"/>
<polygon fill="black" stroke="black" stroke-width="0.5" points="145.974,-11.2501 150.974,-9.5 145.974,-7.7501 145.974,-11.2501"/>
</g>
<!-- ToolChain.Mentor.ModelSim.VHDLLibraryTool -->
<g id="node3" class="node"><title>ToolChain.Mentor.ModelSim.VHDLLibraryTool</title>
<g id="a_node3"><a xlink:href="../PyInfrastructure/ToolChain.Mentor.ModelSim.html#ToolChain.Mentor.ModelSim.VHDLLibraryTool" xlink:title="ToolChain.Mentor.ModelSim.VHDLLibraryTool" target="_top">
<polygon fill="none" stroke="black" stroke-width="0.5" points="754,-37 539,-37 539,-18 754,-18 754,-37"/>
<text text-anchor="middle" x="646.5" y="-25" font-family="Vera Sans, DejaVu Sans, Liberation Sans, Arial, Helvetica, sans" font-size="10.00">ToolChain.Mentor.ModelSim.VHDLLibraryTool</text>
</a>
</g>
</g>
<!-- ToolChain.OutputFilteredExecutable&#45;&gt;ToolChain.Mentor.ModelSim.VHDLLibraryTool -->
<g id="edge2" class="edge"><title>ToolChain.OutputFilteredExecutable&#45;&gt;ToolChain.Mentor.ModelSim.VHDLLibraryTool</title>
<path fill="none" stroke="black" stroke-width="0.5" d="M503.047,-16.2537C513.038,-17.0425 523.339,-17.8557 533.618,-18.6672"/>
<polygon fill="black" stroke="black" stroke-width="0.5" points="533.539,-20.4163 538.661,-19.0653 533.814,-16.9272 533.539,-20.4163"/>
</g>
<!-- ToolChain.ToolMixIn -->
<g id="node5" class="node"><title>ToolChain.ToolMixIn</title>
<g id="a_node5"><a xlink:href="../ToolChain.html#ToolChain.ToolMixIn" xlink:title="ToolChain.ToolMixIn" target="_top">
<polygon fill="none" stroke="black" stroke-width="0.5" points="468.5,-56 364.5,-56 364.5,-37 468.5,-37 468.5,-56"/>
<text text-anchor="middle" x="416.5" y="-44" font-family="Vera Sans, DejaVu Sans, Liberation Sans, Arial, Helvetica, sans" font-size="10.00">ToolChain.ToolMixIn</text>
</a>
</g>
</g>
<!-- ToolChain.ToolMixIn&#45;&gt;ToolChain.Mentor.ModelSim.VHDLLibraryTool -->
<g id="edge3" class="edge"><title>ToolChain.ToolMixIn&#45;&gt;ToolChain.Mentor.ModelSim.VHDLLibraryTool</title>
<path fill="none" stroke="black" stroke-width="0.5" d="M468.668,-42.236C487.953,-40.6289 510.728,-38.731 533.402,-36.8415"/>
<polygon fill="black" stroke="black" stroke-width="0.5" points="533.706,-38.5723 538.544,-36.413 533.416,-35.0844 533.706,-38.5723"/>
</g>
</g>
</svg>
