<?xml version="1.0" encoding="UTF-8" standalone="no"?>
<!DOCTYPE svg PUBLIC "-//W3C//DTD SVG 1.1//EN"
 "http://www.w3.org/Graphics/SVG/1.1/DTD/svg11.dtd">
<!-- Generated by graphviz version 2.38.0 (20140413.2041)
 -->
<!-- Title: inheritance663730d793 Pages: 1 -->
<svg width="576pt" height="23pt"
 viewBox="0.00 0.00 576.00 23.11" xmlns="http://www.w3.org/2000/svg" xmlns:xlink="http://www.w3.org/1999/xlink">
<g id="graph0" class="graph" transform="scale(0.855869 0.855869) rotate(0) translate(4 23)">
<title>inheritance663730d793</title>
<polygon fill="white" stroke="none" points="-4,4 -4,-23 669,-23 669,4 -4,4"/>
<!-- DataBase.Solution.Base -->
<g id="node1" class="node"><title>DataBase.Solution.Base</title>
<g id="a_node1"><a xlink:href="../PyInfrastructure/DataBase.Solution.html#DataBase.Solution.Base" xlink:title="Base class for Repository, Solution and Project." target="_top">
<polygon fill="none" stroke="black" stroke-width="0.5" points="301,-19 178,-19 178,-0 301,-0 301,-19"/>
<text text-anchor="middle" x="239.5" y="-7" font-family="Vera Sans, DejaVu Sans, Liberation Sans, Arial, Helvetica, sans" font-size="10.00">DataBase.Solution.Base</text>
</a>
</g>
</g>
<!-- DataBase.Solution.Project -->
<g id="node4" class="node"><title>DataBase.Solution.Project</title>
<g id="a_node4"><a xlink:href="../PyInfrastructure/DataBase.Solution.html#DataBase.Solution.Project" xlink:title="DataBase.Solution.Project" target="_top">
<polygon fill="none" stroke="black" stroke-width="0.5" points="468,-19 337,-19 337,-0 468,-0 468,-19"/>
<text text-anchor="middle" x="402.5" y="-7" font-family="Vera Sans, DejaVu Sans, Liberation Sans, Arial, Helvetica, sans" font-size="10.00">DataBase.Solution.Project</text>
</a>
</g>
</g>
<!-- DataBase.Solution.Base&#45;&gt;DataBase.Solution.Project -->
<g id="edge3" class="edge"><title>DataBase.Solution.Base&#45;&gt;DataBase.Solution.Project</title>
<path fill="none" stroke="black" stroke-width="0.5" d="M301.367,-9.5C311.225,-9.5 321.501,-9.5 331.554,-9.5"/>
<polygon fill="black" stroke="black" stroke-width="0.5" points="331.787,-11.2501 336.787,-9.5 331.787,-7.7501 331.787,-11.2501"/>
</g>
<!-- lib.Decorators.ILazyLoadable -->
<g id="node2" class="node"><title>lib.Decorators.ILazyLoadable</title>
<g id="a_node2"><a xlink:href="../lib.Decorators.html#lib.Decorators.ILazyLoadable" xlink:title="lib.Decorators.ILazyLoadable" target="_top">
<polygon fill="none" stroke="black" stroke-width="0.5" points="142,-19 0,-19 0,-0 142,-0 142,-19"/>
<text text-anchor="middle" x="71" y="-7" font-family="Vera Sans, DejaVu Sans, Liberation Sans, Arial, Helvetica, sans" font-size="10.00">lib.Decorators.ILazyLoadable</text>
</a>
</g>
</g>
<!-- lib.Decorators.ILazyLoadable&#45;&gt;DataBase.Solution.Base -->
<g id="edge1" class="edge"><title>lib.Decorators.ILazyLoadable&#45;&gt;DataBase.Solution.Base</title>
<path fill="none" stroke="black" stroke-width="0.5" d="M142.128,-9.5C152.27,-9.5 162.678,-9.5 172.729,-9.5"/>
<polygon fill="black" stroke="black" stroke-width="0.5" points="172.95,-11.2501 177.95,-9.5 172.95,-7.7501 172.95,-11.2501"/>
</g>
<!-- DataBase.Solution.LatticeProject -->
<g id="node3" class="node"><title>DataBase.Solution.LatticeProject</title>
<g id="a_node3"><a xlink:href="../PyInfrastructure/DataBase.Solution.html#DataBase.Solution.LatticeProject" xlink:title="DataBase.Solution.LatticeProject" target="_top">
<polygon fill="none" stroke="black" stroke-width="0.5" points="665,-19 504,-19 504,-0 665,-0 665,-19"/>
<text text-anchor="middle" x="584.5" y="-7" font-family="Vera Sans, DejaVu Sans, Liberation Sans, Arial, Helvetica, sans" font-size="10.00">DataBase.Solution.LatticeProject</text>
</a>
</g>
</g>
<!-- DataBase.Solution.Project&#45;&gt;DataBase.Solution.LatticeProject -->
<g id="edge2" class="edge"><title>DataBase.Solution.Project&#45;&gt;DataBase.Solution.LatticeProject</title>
<path fill="none" stroke="black" stroke-width="0.5" d="M468.23,-9.5C478.191,-9.5 488.601,-9.5 498.916,-9.5"/>
<polygon fill="black" stroke="black" stroke-width="0.5" points="498.97,-11.2501 503.97,-9.5 498.97,-7.7501 498.97,-11.2501"/>
</g>
</g>
</svg>
