<?xml version="1.0" encoding="UTF-8" standalone="no"?>
<!DOCTYPE svg PUBLIC "-//W3C//DTD SVG 1.1//EN"
 "http://www.w3.org/Graphics/SVG/1.1/DTD/svg11.dtd">
<!-- Generated by graphviz version 2.38.0 (20140413.2041)
 -->
<!-- Title: inheritance69e8252430 Pages: 1 -->
<svg width="481pt" height="27pt"
 viewBox="0.00 0.00 481.00 27.00" xmlns="http://www.w3.org/2000/svg" xmlns:xlink="http://www.w3.org/1999/xlink">
<g id="graph0" class="graph" transform="scale(1 1) rotate(0) translate(4 23)">
<title>inheritance69e8252430</title>
<polygon fill="white" stroke="none" points="-4,4 -4,-23 477,-23 477,4 -4,4"/>
<!-- DataBase.Solution.Base -->
<g id="node1" class="node"><title>DataBase.Solution.Base</title>
<g id="a_node1"><a xlink:href="../PyInfrastructure/DataBase.Solution.html#DataBase.Solution.Base" xlink:title="Base class for Repository, Solution and Project." target="_top">
<polygon fill="none" stroke="black" stroke-width="0.5" points="301,-19 178,-19 178,-0 301,-0 301,-19"/>
<text text-anchor="middle" x="239.5" y="-7" font-family="Vera Sans, DejaVu Sans, Liberation Sans, Arial, Helvetica, sans" font-size="10.00">DataBase.Solution.Base</text>
</a>
</g>
</g>
<!-- DataBase.Solution.Solution -->
<g id="node3" class="node"><title>DataBase.Solution.Solution</title>
<g id="a_node3"><a xlink:href="../PyInfrastructure/DataBase.Solution.html#DataBase.Solution.Solution" xlink:title="DataBase.Solution.Solution" target="_top">
<polygon fill="none" stroke="black" stroke-width="0.5" points="473,-19 337,-19 337,-0 473,-0 473,-19"/>
<text text-anchor="middle" x="405" y="-7" font-family="Vera Sans, DejaVu Sans, Liberation Sans, Arial, Helvetica, sans" font-size="10.00">DataBase.Solution.Solution</text>
</a>
</g>
</g>
<!-- DataBase.Solution.Base&#45;&gt;DataBase.Solution.Solution -->
<g id="edge2" class="edge"><title>DataBase.Solution.Base&#45;&gt;DataBase.Solution.Solution</title>
<path fill="none" stroke="black" stroke-width="0.5" d="M301.381,-9.5C311.2,-9.5 321.45,-9.5 331.51,-9.5"/>
<polygon fill="black" stroke="black" stroke-width="0.5" points="331.75,-11.2501 336.75,-9.5 331.75,-7.7501 331.75,-11.2501"/>
</g>
<!-- lib.Decorators.ILazyLoadable -->
<g id="node2" class="node"><title>lib.Decorators.ILazyLoadable</title>
<g id="a_node2"><a xlink:href="../lib.Decorators.html#lib.Decorators.ILazyLoadable" xlink:title="lib.Decorators.ILazyLoadable" target="_top">
<polygon fill="none" stroke="black" stroke-width="0.5" points="142,-19 0,-19 0,-0 142,-0 142,-19"/>
<text text-anchor="middle" x="71" y="-7" font-family="Vera Sans, DejaVu Sans, Liberation Sans, Arial, Helvetica, sans" font-size="10.00">lib.Decorators.ILazyLoadable</text>
</a>
</g>
</g>
<!-- lib.Decorators.ILazyLoadable&#45;&gt;DataBase.Solution.Base -->
<g id="edge1" class="edge"><title>lib.Decorators.ILazyLoadable&#45;&gt;DataBase.Solution.Base</title>
<path fill="none" stroke="black" stroke-width="0.5" d="M142.128,-9.5C152.27,-9.5 162.678,-9.5 172.729,-9.5"/>
<polygon fill="black" stroke="black" stroke-width="0.5" points="172.95,-11.2501 177.95,-9.5 172.95,-7.7501 172.95,-11.2501"/>
</g>
</g>
</svg>
