<?xml version="1.0" encoding="UTF-8" standalone="no"?>
<!DOCTYPE svg PUBLIC "-//W3C//DTD SVG 1.1//EN"
 "http://www.w3.org/Graphics/SVG/1.1/DTD/svg11.dtd">
<!-- Generated by graphviz version 2.38.0 (20140413.2041)
 -->
<!-- Title: inheritance0103914788 Pages: 1 -->
<svg width="475pt" height="27pt"
 viewBox="0.00 0.00 475.00 27.00" xmlns="http://www.w3.org/2000/svg" xmlns:xlink="http://www.w3.org/1999/xlink">
<g id="graph0" class="graph" transform="scale(1 1) rotate(0) translate(4 23)">
<title>inheritance0103914788</title>
<polygon fill="white" stroke="none" points="-4,4 -4,-23 471,-23 471,4 -4,4"/>
<!-- Compiler.CopyTask -->
<g id="node1" class="node"><title>Compiler.CopyTask</title>
<g id="a_node1"><a xlink:href="../PyInfrastructure/Compiler.html#Compiler.CopyTask" xlink:title="This class represents a &#39;copy task&#39; and inherits the partial class" target="_top">
<polygon fill="none" stroke="black" stroke-width="0.5" points="467,-19 366,-19 366,-0 467,-0 467,-19"/>
<text text-anchor="middle" x="416.5" y="-7" font-family="Vera Sans, DejaVu Sans, Liberation Sans, Arial, Helvetica, sans" font-size="10.00">Compiler.CopyTask</text>
</a>
</g>
</g>
<!-- Parser.RulesParser.CopyRuleMixIn -->
<g id="node2" class="node"><title>Parser.RulesParser.CopyRuleMixIn</title>
<g id="a_node2"><a xlink:href="../Parser.RulesParser.html#Parser.RulesParser.CopyRuleMixIn" xlink:title="A partial class (MixIn) to represent a &#39;copy rule&#39;." target="_top">
<polygon fill="none" stroke="black" stroke-width="0.5" points="330,-19 160,-19 160,-0 330,-0 330,-19"/>
<text text-anchor="middle" x="245" y="-7" font-family="Vera Sans, DejaVu Sans, Liberation Sans, Arial, Helvetica, sans" font-size="10.00">Parser.RulesParser.CopyRuleMixIn</text>
</a>
</g>
</g>
<!-- Parser.RulesParser.CopyRuleMixIn&#45;&gt;Compiler.CopyTask -->
<g id="edge1" class="edge"><title>Parser.RulesParser.CopyRuleMixIn&#45;&gt;Compiler.CopyTask</title>
<path fill="none" stroke="black" stroke-width="0.5" d="M330.253,-9.5C340.583,-9.5 350.923,-9.5 360.659,-9.5"/>
<polygon fill="black" stroke="black" stroke-width="0.5" points="360.692,-11.2501 365.692,-9.5 360.691,-7.7501 360.692,-11.2501"/>
</g>
<!-- Parser.RulesParser.Rule -->
<g id="node3" class="node"><title>Parser.RulesParser.Rule</title>
<g id="a_node3"><a xlink:href="../Parser.RulesParser.html#Parser.RulesParser.Rule" xlink:title="Base class for all Rule and RuleMixIn classes." target="_top">
<polygon fill="none" stroke="black" stroke-width="0.5" points="124,-19 0,-19 0,-0 124,-0 124,-19"/>
<text text-anchor="middle" x="62" y="-7" font-family="Vera Sans, DejaVu Sans, Liberation Sans, Arial, Helvetica, sans" font-size="10.00">Parser.RulesParser.Rule</text>
</a>
</g>
</g>
<!-- Parser.RulesParser.Rule&#45;&gt;Parser.RulesParser.CopyRuleMixIn -->
<g id="edge2" class="edge"><title>Parser.RulesParser.Rule&#45;&gt;Parser.RulesParser.CopyRuleMixIn</title>
<path fill="none" stroke="black" stroke-width="0.5" d="M124.026,-9.5C133.904,-9.5 144.308,-9.5 154.691,-9.5"/>
<polygon fill="black" stroke="black" stroke-width="0.5" points="154.784,-11.2501 159.784,-9.5 154.784,-7.7501 154.784,-11.2501"/>
</g>
</g>
</svg>
