<?xml version="1.0" encoding="UTF-8" standalone="no"?>
<!DOCTYPE svg PUBLIC "-//W3C//DTD SVG 1.1//EN"
 "http://www.w3.org/Graphics/SVG/1.1/DTD/svg11.dtd">
<!-- Generated by graphviz version 2.38.0 (20140413.2041)
 -->
<!-- Title: inheritance098d0f4b4c Pages: 1 -->
<svg width="490pt" height="27pt"
 viewBox="0.00 0.00 490.00 27.00" xmlns="http://www.w3.org/2000/svg" xmlns:xlink="http://www.w3.org/1999/xlink">
<g id="graph0" class="graph" transform="scale(1 1) rotate(0) translate(4 23)">
<title>inheritance098d0f4b4c</title>
<polygon fill="white" stroke="none" points="-4,4 -4,-23 486,-23 486,4 -4,4"/>
<!-- DataBase.Entity.Library -->
<g id="node1" class="node"><title>DataBase.Entity.Library</title>
<g id="a_node1"><a xlink:href="../PyInfrastructure/DataBase.Entity.html#DataBase.Entity.Library" xlink:title="DataBase.Entity.Library" target="_top">
<polygon fill="none" stroke="black" stroke-width="0.5" points="482,-19 362,-19 362,-0 482,-0 482,-19"/>
<text text-anchor="middle" x="422" y="-7" font-family="Vera Sans, DejaVu Sans, Liberation Sans, Arial, Helvetica, sans" font-size="10.00">DataBase.Entity.Library</text>
</a>
</g>
</g>
<!-- DataBase.Entity.Namespace -->
<g id="node2" class="node"><title>DataBase.Entity.Namespace</title>
<g id="a_node2"><a xlink:href="../PyInfrastructure/DataBase.Entity.html#DataBase.Entity.Namespace" xlink:title="DataBase.Entity.Namespace" target="_top">
<polygon fill="none" stroke="black" stroke-width="0.5" points="326,-19 183,-19 183,-0 326,-0 326,-19"/>
<text text-anchor="middle" x="254.5" y="-7" font-family="Vera Sans, DejaVu Sans, Liberation Sans, Arial, Helvetica, sans" font-size="10.00">DataBase.Entity.Namespace</text>
</a>
</g>
</g>
<!-- DataBase.Entity.Namespace&#45;&gt;DataBase.Entity.Library -->
<g id="edge1" class="edge"><title>DataBase.Entity.Namespace&#45;&gt;DataBase.Entity.Library</title>
<path fill="none" stroke="black" stroke-width="0.5" d="M326.167,-9.5C336.267,-9.5 346.612,-9.5 356.584,-9.5"/>
<polygon fill="black" stroke="black" stroke-width="0.5" points="356.761,-11.2501 361.761,-9.5 356.761,-7.7501 356.761,-11.2501"/>
</g>
<!-- DataBase.Entity.PathElement -->
<g id="node3" class="node"><title>DataBase.Entity.PathElement</title>
<g id="a_node3"><a xlink:href="../PyInfrastructure/DataBase.Entity.html#DataBase.Entity.PathElement" xlink:title="DataBase.Entity.PathElement" target="_top">
<polygon fill="none" stroke="black" stroke-width="0.5" points="147,-19 0,-19 0,-0 147,-0 147,-19"/>
<text text-anchor="middle" x="73.5" y="-7" font-family="Vera Sans, DejaVu Sans, Liberation Sans, Arial, Helvetica, sans" font-size="10.00">DataBase.Entity.PathElement</text>
</a>
</g>
</g>
<!-- DataBase.Entity.PathElement&#45;&gt;DataBase.Entity.Namespace -->
<g id="edge2" class="edge"><title>DataBase.Entity.PathElement&#45;&gt;DataBase.Entity.Namespace</title>
<path fill="none" stroke="black" stroke-width="0.5" d="M147.048,-9.5C157.116,-9.5 167.481,-9.5 177.609,-9.5"/>
<polygon fill="black" stroke="black" stroke-width="0.5" points="177.88,-11.2501 182.88,-9.5 177.88,-7.75009 177.88,-11.2501"/>
</g>
</g>
</svg>
