<?xml version="1.0" encoding="UTF-8" standalone="no"?>
<!DOCTYPE svg PUBLIC "-//W3C//DTD SVG 1.1//EN"
 "http://www.w3.org/Graphics/SVG/1.1/DTD/svg11.dtd">
<!-- Generated by graphviz version 2.38.0 (20140413.2041)
 -->
<!-- Title: inheritance5bc12c73fc Pages: 1 -->
<svg width="576pt" height="26pt"
 viewBox="0.00 0.00 576.00 26.36" xmlns="http://www.w3.org/2000/svg" xmlns:xlink="http://www.w3.org/1999/xlink">
<g id="graph0" class="graph" transform="scale(0.976271 0.976271) rotate(0) translate(4 23)">
<title>inheritance5bc12c73fc</title>
<polygon fill="white" stroke="none" points="-4,4 -4,-23 586,-23 586,4 -4,4"/>
<!-- Base.Logging.ILogable -->
<g id="node1" class="node"><title>Base.Logging.ILogable</title>
<g id="a_node1"><a xlink:href="../Base.Logging.html#Base.Logging.ILogable" xlink:title="A mixin class to provide local logging methods." target="_top">
<polygon fill="none" stroke="black" stroke-width="0.5" points="115,-19 0,-19 0,-0 115,-0 115,-19"/>
<text text-anchor="middle" x="57.5" y="-7" font-family="Vera Sans, DejaVu Sans, Liberation Sans, Arial, Helvetica, sans" font-size="10.00">Base.Logging.ILogable</text>
</a>
</g>
</g>
<!-- Base.Shared.Shared -->
<g id="node2" class="node"><title>Base.Shared.Shared</title>
<g id="a_node2"><a xlink:href="../Base.Shared.html#Base.Shared.Shared" xlink:title="Base class for Simulator and Compiler." target="_top">
<polygon fill="none" stroke="black" stroke-width="0.5" points="258,-19 151,-19 151,-0 258,-0 258,-19"/>
<text text-anchor="middle" x="204.5" y="-7" font-family="Vera Sans, DejaVu Sans, Liberation Sans, Arial, Helvetica, sans" font-size="10.00">Base.Shared.Shared</text>
</a>
</g>
</g>
<!-- Base.Logging.ILogable&#45;&gt;Base.Shared.Shared -->
<g id="edge1" class="edge"><title>Base.Logging.ILogable&#45;&gt;Base.Shared.Shared</title>
<path fill="none" stroke="black" stroke-width="0.5" d="M115.392,-9.5C125.256,-9.5 135.525,-9.5 145.42,-9.5"/>
<polygon fill="black" stroke="black" stroke-width="0.5" points="145.557,-11.2501 150.557,-9.5 145.557,-7.7501 145.557,-11.2501"/>
</g>
<!-- Compiler.Compiler -->
<g id="node3" class="node"><title>Compiler.Compiler</title>
<g id="a_node3"><a xlink:href="../Compiler.html#Compiler.Compiler" xlink:title="Base class for all Compiler classes." target="_top">
<polygon fill="none" stroke="black" stroke-width="0.5" points="390,-19 294,-19 294,-0 390,-0 390,-19"/>
<text text-anchor="middle" x="342" y="-7" font-family="Vera Sans, DejaVu Sans, Liberation Sans, Arial, Helvetica, sans" font-size="10.00">Compiler.Compiler</text>
</a>
</g>
</g>
<!-- Base.Shared.Shared&#45;&gt;Compiler.Compiler -->
<g id="edge2" class="edge"><title>Base.Shared.Shared&#45;&gt;Compiler.Compiler</title>
<path fill="none" stroke="black" stroke-width="0.5" d="M258.276,-9.5C268.274,-9.5 278.73,-9.5 288.713,-9.5"/>
<polygon fill="black" stroke="black" stroke-width="0.5" points="288.885,-11.2501 293.885,-9.5 288.885,-7.7501 288.885,-11.2501"/>
</g>
<!-- Compiler.LSECompiler.Compiler -->
<g id="node4" class="node"><title>Compiler.LSECompiler.Compiler</title>
<g id="a_node4"><a xlink:href="../PyInfrastructure/Compiler.LSECompiler.html#Compiler.LSECompiler.Compiler" xlink:title="Compiler.LSECompiler.Compiler" target="_top">
<polygon fill="none" stroke="black" stroke-width="0.5" points="582,-19 426,-19 426,-0 582,-0 582,-19"/>
<text text-anchor="middle" x="504" y="-7" font-family="Vera Sans, DejaVu Sans, Liberation Sans, Arial, Helvetica, sans" font-size="10.00">Compiler.LSECompiler.Compiler</text>
</a>
</g>
</g>
<!-- Compiler.Compiler&#45;&gt;Compiler.LSECompiler.Compiler -->
<g id="edge3" class="edge"><title>Compiler.Compiler&#45;&gt;Compiler.LSECompiler.Compiler</title>
<path fill="none" stroke="black" stroke-width="0.5" d="M390.14,-9.5C399.804,-9.5 410.243,-9.5 420.734,-9.5"/>
<polygon fill="black" stroke="black" stroke-width="0.5" points="420.885,-11.2501 425.885,-9.5 420.885,-7.7501 420.885,-11.2501"/>
</g>
</g>
</svg>
