<?xml version="1.0" encoding="UTF-8" standalone="no"?>
<!DOCTYPE svg PUBLIC "-//W3C//DTD SVG 1.1//EN"
 "http://www.w3.org/Graphics/SVG/1.1/DTD/svg11.dtd">
<!-- Generated by graphviz version 2.38.0 (20140413.2041)
 -->
<!-- Title: inheritance41e98d0baf Pages: 1 -->
<svg width="576pt" height="26pt"
 viewBox="0.00 0.00 576.00 25.54" xmlns="http://www.w3.org/2000/svg" xmlns:xlink="http://www.w3.org/1999/xlink">
<g id="graph0" class="graph" transform="scale(0.945813 0.945813) rotate(0) translate(4 23)">
<title>inheritance41e98d0baf</title>
<polygon fill="white" stroke="none" points="-4,4 -4,-23 605,-23 605,4 -4,4"/>
<!-- DataBase.Config.AlteraFamilies -->
<g id="node1" class="node"><title>DataBase.Config.AlteraFamilies</title>
<g id="a_node1"><a xlink:href="../PyInfrastructure/DataBase.Config.html#DataBase.Config.AlteraFamilies" xlink:title="Enumeration of all Altera families." target="_top">
<polygon fill="none" stroke="black" stroke-width="0.5" points="601,-19 446,-19 446,-0 601,-0 601,-19"/>
<text text-anchor="middle" x="523.5" y="-7" font-family="Vera Sans, DejaVu Sans, Liberation Sans, Arial, Helvetica, sans" font-size="10.00">DataBase.Config.AlteraFamilies</text>
</a>
</g>
</g>
<!-- DataBase.Config.Families -->
<g id="node2" class="node"><title>DataBase.Config.Families</title>
<g id="a_node2"><a xlink:href="../PyInfrastructure/DataBase.Config.html#DataBase.Config.Families" xlink:title="Base enum for all Family enums." target="_top">
<polygon fill="none" stroke="black" stroke-width="0.5" points="410,-19 281,-19 281,-0 410,-0 410,-19"/>
<text text-anchor="middle" x="345.5" y="-7" font-family="Vera Sans, DejaVu Sans, Liberation Sans, Arial, Helvetica, sans" font-size="10.00">DataBase.Config.Families</text>
</a>
</g>
</g>
<!-- DataBase.Config.Families&#45;&gt;DataBase.Config.AlteraFamilies -->
<g id="edge1" class="edge"><title>DataBase.Config.Families&#45;&gt;DataBase.Config.AlteraFamilies</title>
<path fill="none" stroke="black" stroke-width="0.5" d="M410.04,-9.5C420.025,-9.5 430.466,-9.5 440.791,-9.5"/>
<polygon fill="black" stroke="black" stroke-width="0.5" points="440.848,-11.2501 445.848,-9.5 440.848,-7.7501 440.848,-11.2501"/>
</g>
<!-- DataBase.Config.BaseEnum -->
<g id="node3" class="node"><title>DataBase.Config.BaseEnum</title>
<g id="a_node3"><a xlink:href="../PyInfrastructure/DataBase.Config.html#DataBase.Config.BaseEnum" xlink:title="An enumeration." target="_top">
<polygon fill="none" stroke="black" stroke-width="0.5" points="245,-19 105,-19 105,-0 245,-0 245,-19"/>
<text text-anchor="middle" x="175" y="-7" font-family="Vera Sans, DejaVu Sans, Liberation Sans, Arial, Helvetica, sans" font-size="10.00">DataBase.Config.BaseEnum</text>
</a>
</g>
</g>
<!-- DataBase.Config.BaseEnum&#45;&gt;DataBase.Config.Families -->
<g id="edge3" class="edge"><title>DataBase.Config.BaseEnum&#45;&gt;DataBase.Config.Families</title>
<path fill="none" stroke="black" stroke-width="0.5" d="M245.022,-9.5C255.083,-9.5 265.444,-9.5 275.505,-9.5"/>
<polygon fill="black" stroke="black" stroke-width="0.5" points="275.735,-11.2501 280.735,-9.5 275.735,-7.7501 275.735,-11.2501"/>
</g>
<!-- enum.Enum -->
<g id="node4" class="node"><title>enum.Enum</title>
<g id="a_node4"><a xlink:title="Generic enumeration.">
<polygon fill="none" stroke="black" stroke-width="0.5" points="69,-19 0,-19 0,-0 69,-0 69,-19"/>
<text text-anchor="middle" x="34.5" y="-7" font-family="Vera Sans, DejaVu Sans, Liberation Sans, Arial, Helvetica, sans" font-size="10.00">enum.Enum</text>
</a>
</g>
</g>
<!-- enum.Enum&#45;&gt;DataBase.Config.BaseEnum -->
<g id="edge2" class="edge"><title>enum.Enum&#45;&gt;DataBase.Config.BaseEnum</title>
<path fill="none" stroke="black" stroke-width="0.5" d="M69.027,-9.5C78.3837,-9.5 88.9386,-9.5 99.6571,-9.5"/>
<polygon fill="black" stroke="black" stroke-width="0.5" points="99.9276,-11.2501 104.928,-9.5 99.9275,-7.75009 99.9276,-11.2501"/>
</g>
</g>
</svg>
