<?xml version="1.0" encoding="UTF-8" standalone="no"?>
<!DOCTYPE svg PUBLIC "-//W3C//DTD SVG 1.1//EN"
 "http://www.w3.org/Graphics/SVG/1.1/DTD/svg11.dtd">
<!-- Generated by graphviz version 2.38.0 (20140413.2041)
 -->
<!-- Title: inheritancecea418bd1e Pages: 1 -->
<svg width="576pt" height="51pt"
 viewBox="0.00 0.00 576.00 50.85" xmlns="http://www.w3.org/2000/svg" xmlns:xlink="http://www.w3.org/1999/xlink">
<g id="graph0" class="graph" transform="scale(0.794483 0.794483) rotate(0) translate(4 60)">
<title>inheritancecea418bd1e</title>
<polygon fill="white" stroke="none" points="-4,4 -4,-60 721,-60 721,4 -4,4"/>
<!-- DataBase.Entity.CocoTestbench -->
<g id="node1" class="node"><title>DataBase.Entity.CocoTestbench</title>
<g id="a_node1"><a xlink:href="../PyInfrastructure/DataBase.Entity.html#DataBase.Entity.CocoTestbench" xlink:title="DataBase.Entity.CocoTestbench" target="_top">
<polygon fill="none" stroke="black" stroke-width="0.5" points="717,-37 559,-37 559,-18 717,-18 717,-37"/>
<text text-anchor="middle" x="638" y="-25" font-family="Vera Sans, DejaVu Sans, Liberation Sans, Arial, Helvetica, sans" font-size="10.00">DataBase.Entity.CocoTestbench</text>
</a>
</g>
</g>
<!-- DataBase.Entity.Testbench -->
<g id="node2" class="node"><title>DataBase.Entity.Testbench</title>
<g id="a_node2"><a xlink:href="../PyInfrastructure/DataBase.Entity.html#DataBase.Entity.Testbench" xlink:title="DataBase.Entity.Testbench" target="_top">
<polygon fill="none" stroke="black" stroke-width="0.5" points="523,-37 387,-37 387,-18 523,-18 523,-37"/>
<text text-anchor="middle" x="455" y="-25" font-family="Vera Sans, DejaVu Sans, Liberation Sans, Arial, Helvetica, sans" font-size="10.00">DataBase.Entity.Testbench</text>
</a>
</g>
</g>
<!-- DataBase.Entity.Testbench&#45;&gt;DataBase.Entity.CocoTestbench -->
<g id="edge1" class="edge"><title>DataBase.Entity.Testbench&#45;&gt;DataBase.Entity.CocoTestbench</title>
<path fill="none" stroke="black" stroke-width="0.5" d="M523.141,-27.5C533.17,-27.5 543.61,-27.5 553.921,-27.5"/>
<polygon fill="black" stroke="black" stroke-width="0.5" points="553.97,-29.2501 558.97,-27.5 553.97,-25.7501 553.97,-29.2501"/>
</g>
<!-- DataBase.Entity.LazyPathElement -->
<g id="node3" class="node"><title>DataBase.Entity.LazyPathElement</title>
<g id="a_node3"><a xlink:href="../PyInfrastructure/DataBase.Entity.html#DataBase.Entity.LazyPathElement" xlink:title="DataBase.Entity.LazyPathElement" target="_top">
<polygon fill="none" stroke="black" stroke-width="0.5" points="351,-37 183,-37 183,-18 351,-18 351,-37"/>
<text text-anchor="middle" x="267" y="-25" font-family="Vera Sans, DejaVu Sans, Liberation Sans, Arial, Helvetica, sans" font-size="10.00">DataBase.Entity.LazyPathElement</text>
</a>
</g>
</g>
<!-- DataBase.Entity.LazyPathElement&#45;&gt;DataBase.Entity.Testbench -->
<g id="edge4" class="edge"><title>DataBase.Entity.LazyPathElement&#45;&gt;DataBase.Entity.Testbench</title>
<path fill="none" stroke="black" stroke-width="0.5" d="M351.208,-27.5C361.339,-27.5 371.627,-27.5 381.583,-27.5"/>
<polygon fill="black" stroke="black" stroke-width="0.5" points="381.757,-29.2501 386.757,-27.5 381.757,-25.7501 381.757,-29.2501"/>
</g>
<!-- DataBase.Entity.PathElement -->
<g id="node4" class="node"><title>DataBase.Entity.PathElement</title>
<g id="a_node4"><a xlink:href="../PyInfrastructure/DataBase.Entity.html#DataBase.Entity.PathElement" xlink:title="DataBase.Entity.PathElement" target="_top">
<polygon fill="none" stroke="black" stroke-width="0.5" points="147,-56 0,-56 0,-37 147,-37 147,-56"/>
<text text-anchor="middle" x="73.5" y="-44" font-family="Vera Sans, DejaVu Sans, Liberation Sans, Arial, Helvetica, sans" font-size="10.00">DataBase.Entity.PathElement</text>
</a>
</g>
</g>
<!-- DataBase.Entity.PathElement&#45;&gt;DataBase.Entity.LazyPathElement -->
<g id="edge2" class="edge"><title>DataBase.Entity.PathElement&#45;&gt;DataBase.Entity.LazyPathElement</title>
<path fill="none" stroke="black" stroke-width="0.5" d="M147.171,-39.2898C157.173,-38.2974 167.533,-37.2696 177.777,-36.2532"/>
<polygon fill="black" stroke="black" stroke-width="0.5" points="177.991,-37.9906 182.794,-35.7554 177.646,-34.5077 177.991,-37.9906"/>
</g>
<!-- lib.Decorators.ILazyLoadable -->
<g id="node5" class="node"><title>lib.Decorators.ILazyLoadable</title>
<g id="a_node5"><a xlink:href="../lib.Decorators.html#lib.Decorators.ILazyLoadable" xlink:title="lib.Decorators.ILazyLoadable" target="_top">
<polygon fill="none" stroke="black" stroke-width="0.5" points="144.5,-19 2.5,-19 2.5,-0 144.5,-0 144.5,-19"/>
<text text-anchor="middle" x="73.5" y="-7" font-family="Vera Sans, DejaVu Sans, Liberation Sans, Arial, Helvetica, sans" font-size="10.00">lib.Decorators.ILazyLoadable</text>
</a>
</g>
</g>
<!-- lib.Decorators.ILazyLoadable&#45;&gt;DataBase.Entity.LazyPathElement -->
<g id="edge3" class="edge"><title>lib.Decorators.ILazyLoadable&#45;&gt;DataBase.Entity.LazyPathElement</title>
<path fill="none" stroke="black" stroke-width="0.5" d="M144.72,-16.1003C155.458,-17.1096 166.658,-18.1624 177.724,-19.2026"/>
<polygon fill="black" stroke="black" stroke-width="0.5" points="177.655,-20.9537 182.797,-19.6794 177.983,-17.4691 177.655,-20.9537"/>
</g>
</g>
</svg>
