<?xml version="1.0" encoding="UTF-8" standalone="no"?>
<!DOCTYPE svg PUBLIC "-//W3C//DTD SVG 1.1//EN"
 "http://www.w3.org/Graphics/SVG/1.1/DTD/svg11.dtd">
<!-- Generated by graphviz version 2.38.0 (20140413.2041)
 -->
<!-- Title: inheritance9e0c54a10c Pages: 1 -->
<svg width="576pt" height="34pt"
 viewBox="0.00 0.00 576.00 34.26" xmlns="http://www.w3.org/2000/svg" xmlns:xlink="http://www.w3.org/1999/xlink">
<g id="graph0" class="graph" transform="scale(0.535316 0.535316) rotate(0) translate(4 60)">
<title>inheritance9e0c54a10c</title>
<polygon fill="white" stroke="none" points="-4,4 -4,-60 1072,-60 1072,4 -4,4"/>
<!-- Base.Exceptions.ExceptionBase -->
<g id="node1" class="node"><title>Base.Exceptions.ExceptionBase</title>
<g id="a_node1"><a xlink:href="../Base.Exceptions.html#Base.Exceptions.ExceptionBase" xlink:title="Base exception derived from :py:exc:`Exception` for all" target="_top">
<polygon fill="none" stroke="black" stroke-width="0.5" points="160,-38 0,-38 0,-19 160,-19 160,-38"/>
<text text-anchor="middle" x="80" y="-26" font-family="Vera Sans, DejaVu Sans, Liberation Sans, Arial, Helvetica, sans" font-size="10.00">Base.Exceptions.ExceptionBase</text>
</a>
</g>
</g>
<!-- ToolChain.ToolChainException -->
<g id="node3" class="node"><title>ToolChain.ToolChainException</title>
<g id="a_node3"><a xlink:href="../ToolChain.html#ToolChain.ToolChainException" xlink:title="Base class for all tool specific exceptions" target="_top">
<polygon fill="none" stroke="black" stroke-width="0.5" points="345,-38 196,-38 196,-19 345,-19 345,-38"/>
<text text-anchor="middle" x="270.5" y="-26" font-family="Vera Sans, DejaVu Sans, Liberation Sans, Arial, Helvetica, sans" font-size="10.00">ToolChain.ToolChainException</text>
</a>
</g>
</g>
<!-- Base.Exceptions.ExceptionBase&#45;&gt;ToolChain.ToolChainException -->
<g id="edge6" class="edge"><title>Base.Exceptions.ExceptionBase&#45;&gt;ToolChain.ToolChainException</title>
<path fill="none" stroke="black" stroke-width="0.5" d="M160.122,-28.5C170.246,-28.5 180.609,-28.5 190.727,-28.5"/>
<polygon fill="black" stroke="black" stroke-width="0.5" points="190.994,-30.2501 195.994,-28.5 190.994,-26.7501 190.994,-30.2501"/>
</g>
<!-- ToolChain.Intel.IntelException -->
<g id="node2" class="node"><title>ToolChain.Intel.IntelException</title>
<g id="a_node2"><a xlink:href="../ToolChain.Intel.html#ToolChain.Intel.IntelException" xlink:title="ToolChain.Intel.IntelException" target="_top">
<polygon fill="none" stroke="black" stroke-width="0.5" points="773,-56 628,-56 628,-37 773,-37 773,-56"/>
<text text-anchor="middle" x="700.5" y="-44" font-family="Vera Sans, DejaVu Sans, Liberation Sans, Arial, Helvetica, sans" font-size="10.00">ToolChain.Intel.IntelException</text>
</a>
</g>
</g>
<!-- ToolChain.Intel.ModelSim.ModelSimException -->
<g id="node4" class="node"><title>ToolChain.Intel.ModelSim.ModelSimException</title>
<g id="a_node4"><a xlink:href="../PyInfrastructure/ToolChain.Intel.ModelSim.html#ToolChain.Intel.ModelSim.ModelSimException" xlink:title="ToolChain.Intel.ModelSim.ModelSimException" target="_top">
<polygon fill="none" stroke="black" stroke-width="0.5" points="1068,-37 851,-37 851,-18 1068,-18 1068,-37"/>
<text text-anchor="middle" x="959.5" y="-25" font-family="Vera Sans, DejaVu Sans, Liberation Sans, Arial, Helvetica, sans" font-size="10.00">ToolChain.Intel.ModelSim.ModelSimException</text>
</a>
</g>
</g>
<!-- ToolChain.Intel.IntelException&#45;&gt;ToolChain.Intel.ModelSim.ModelSimException -->
<g id="edge2" class="edge"><title>ToolChain.Intel.IntelException&#45;&gt;ToolChain.Intel.ModelSim.ModelSimException</title>
<path fill="none" stroke="black" stroke-width="0.5" d="M773.089,-41.2074C795.552,-39.5467 820.923,-37.6711 845.523,-35.8524"/>
<polygon fill="black" stroke="black" stroke-width="0.5" points="845.902,-37.5792 850.76,-35.4652 845.644,-34.0887 845.902,-37.5792"/>
</g>
<!-- ToolChain.ToolChainException&#45;&gt;ToolChain.Intel.IntelException -->
<g id="edge1" class="edge"><title>ToolChain.ToolChainException&#45;&gt;ToolChain.Intel.IntelException</title>
<path fill="none" stroke="black" stroke-width="0.5" d="M345.076,-31.5943C422.604,-34.8549 544.157,-39.9669 622.833,-43.2757"/>
<polygon fill="black" stroke="black" stroke-width="0.5" points="622.883,-45.0292 627.952,-43.491 623.03,-41.5323 622.883,-45.0292"/>
</g>
<!-- ToolChain.Mentor.MentorException -->
<g id="node6" class="node"><title>ToolChain.Mentor.MentorException</title>
<g id="a_node6"><a xlink:href="../ToolChain.Mentor.html#ToolChain.Mentor.MentorException" xlink:title="ToolChain.Mentor.MentorException" target="_top">
<polygon fill="none" stroke="black" stroke-width="0.5" points="550,-19 381,-19 381,-0 550,-0 550,-19"/>
<text text-anchor="middle" x="465.5" y="-7" font-family="Vera Sans, DejaVu Sans, Liberation Sans, Arial, Helvetica, sans" font-size="10.00">ToolChain.Mentor.MentorException</text>
</a>
</g>
</g>
<!-- ToolChain.ToolChainException&#45;&gt;ToolChain.Mentor.MentorException -->
<g id="edge4" class="edge"><title>ToolChain.ToolChainException&#45;&gt;ToolChain.Mentor.MentorException</title>
<path fill="none" stroke="black" stroke-width="0.5" d="M345.016,-21.2627C355.086,-20.2714 365.51,-19.2451 375.815,-18.2306"/>
<polygon fill="black" stroke="black" stroke-width="0.5" points="376.058,-19.9653 380.863,-17.7337 375.715,-16.4821 376.058,-19.9653"/>
</g>
<!-- ToolChain.Mentor.ModelSim.ModelSimException -->
<g id="node5" class="node"><title>ToolChain.Mentor.ModelSim.ModelSimException</title>
<g id="a_node5"><a xlink:href="../ToolChain.Mentor.ModelSim.html#ToolChain.Mentor.ModelSim.ModelSimException" xlink:title="ToolChain.Mentor.ModelSim.ModelSimException" target="_top">
<polygon fill="none" stroke="black" stroke-width="0.5" points="815,-19 586,-19 586,-0 815,-0 815,-19"/>
<text text-anchor="middle" x="700.5" y="-7" font-family="Vera Sans, DejaVu Sans, Liberation Sans, Arial, Helvetica, sans" font-size="10.00">ToolChain.Mentor.ModelSim.ModelSimException</text>
</a>
</g>
</g>
<!-- ToolChain.Mentor.ModelSim.ModelSimException&#45;&gt;ToolChain.Intel.ModelSim.ModelSimException -->
<g id="edge3" class="edge"><title>ToolChain.Mentor.ModelSim.ModelSimException&#45;&gt;ToolChain.Intel.ModelSim.ModelSimException</title>
<path fill="none" stroke="black" stroke-width="0.5" d="M815.346,-17.4737C825.408,-18.1784 835.59,-18.8915 845.644,-19.5957"/>
<polygon fill="black" stroke="black" stroke-width="0.5" points="845.777,-21.3592 850.888,-19.9629 846.022,-17.8678 845.777,-21.3592"/>
</g>
<!-- ToolChain.Mentor.MentorException&#45;&gt;ToolChain.Mentor.ModelSim.ModelSimException -->
<g id="edge5" class="edge"><title>ToolChain.Mentor.MentorException&#45;&gt;ToolChain.Mentor.ModelSim.ModelSimException</title>
<path fill="none" stroke="black" stroke-width="0.5" d="M550.289,-9.5C560.156,-9.5 570.363,-9.5 580.595,-9.5"/>
<polygon fill="black" stroke="black" stroke-width="0.5" points="580.618,-11.2501 585.618,-9.5 580.618,-7.7501 580.618,-11.2501"/>
</g>
</g>
</svg>
