<?xml version="1.0" encoding="UTF-8" standalone="no"?>
<!DOCTYPE svg PUBLIC "-//W3C//DTD SVG 1.1//EN"
 "http://www.w3.org/Graphics/SVG/1.1/DTD/svg11.dtd">
<!-- Generated by graphviz version 2.38.0 (20140413.2041)
 -->
<!-- Title: inheritancefc30cedc0c Pages: 1 -->
<svg width="576pt" height="19pt"
 viewBox="0.00 0.00 576.00 19.20" xmlns="http://www.w3.org/2000/svg" xmlns:xlink="http://www.w3.org/1999/xlink">
<g id="graph0" class="graph" transform="scale(0.711111 0.711111) rotate(0) translate(4 23)">
<title>inheritancefc30cedc0c</title>
<polygon fill="white" stroke="none" points="-4,4 -4,-23 806,-23 806,4 -4,4"/>
<!-- Base.Exceptions.ExceptionBase -->
<g id="node1" class="node"><title>Base.Exceptions.ExceptionBase</title>
<g id="a_node1"><a xlink:href="../Base.Exceptions.html#Base.Exceptions.ExceptionBase" xlink:title="Base exception derived from :py:exc:`Exception` for all" target="_top">
<polygon fill="none" stroke="black" stroke-width="0.5" points="160,-19 0,-19 0,-0 160,-0 160,-19"/>
<text text-anchor="middle" x="80" y="-7" font-family="Vera Sans, DejaVu Sans, Liberation Sans, Arial, Helvetica, sans" font-size="10.00">Base.Exceptions.ExceptionBase</text>
</a>
</g>
</g>
<!-- ToolChain.ToolChainException -->
<g id="node4" class="node"><title>ToolChain.ToolChainException</title>
<g id="a_node4"><a xlink:href="../ToolChain.html#ToolChain.ToolChainException" xlink:title="Base class for all tool specific exceptions" target="_top">
<polygon fill="none" stroke="black" stroke-width="0.5" points="345,-19 196,-19 196,-0 345,-0 345,-19"/>
<text text-anchor="middle" x="270.5" y="-7" font-family="Vera Sans, DejaVu Sans, Liberation Sans, Arial, Helvetica, sans" font-size="10.00">ToolChain.ToolChainException</text>
</a>
</g>
</g>
<!-- Base.Exceptions.ExceptionBase&#45;&gt;ToolChain.ToolChainException -->
<g id="edge3" class="edge"><title>Base.Exceptions.ExceptionBase&#45;&gt;ToolChain.ToolChainException</title>
<path fill="none" stroke="black" stroke-width="0.5" d="M160.122,-9.5C170.246,-9.5 180.609,-9.5 190.727,-9.5"/>
<polygon fill="black" stroke="black" stroke-width="0.5" points="190.994,-11.2501 195.994,-9.5 190.994,-7.75009 190.994,-11.2501"/>
</g>
<!-- ToolChain.Aldec.ActiveHDL.ActiveHDLException -->
<g id="node2" class="node"><title>ToolChain.Aldec.ActiveHDL.ActiveHDLException</title>
<g id="a_node2"><a xlink:href="../PyInfrastructure/ToolChain.Aldec.ActiveHDL.html#ToolChain.Aldec.ActiveHDL.ActiveHDLException" xlink:title="An ActiveHDLException is raised if Active&#45;HDL catches a system exception." target="_top">
<polygon fill="none" stroke="black" stroke-width="0.5" points="802,-19 575,-19 575,-0 802,-0 802,-19"/>
<text text-anchor="middle" x="688.5" y="-7" font-family="Vera Sans, DejaVu Sans, Liberation Sans, Arial, Helvetica, sans" font-size="10.00">ToolChain.Aldec.ActiveHDL.ActiveHDLException</text>
</a>
</g>
</g>
<!-- ToolChain.Aldec.AldecException -->
<g id="node3" class="node"><title>ToolChain.Aldec.AldecException</title>
<g id="a_node3"><a xlink:href="../ToolChain.Aldec.html#ToolChain.Aldec.AldecException" xlink:title="Base class for all Aldec tool&#39;s exceptions." target="_top">
<polygon fill="none" stroke="black" stroke-width="0.5" points="539,-19 381,-19 381,-0 539,-0 539,-19"/>
<text text-anchor="middle" x="460" y="-7" font-family="Vera Sans, DejaVu Sans, Liberation Sans, Arial, Helvetica, sans" font-size="10.00">ToolChain.Aldec.AldecException</text>
</a>
</g>
</g>
<!-- ToolChain.Aldec.AldecException&#45;&gt;ToolChain.Aldec.ActiveHDL.ActiveHDLException -->
<g id="edge1" class="edge"><title>ToolChain.Aldec.AldecException&#45;&gt;ToolChain.Aldec.ActiveHDL.ActiveHDLException</title>
<path fill="none" stroke="black" stroke-width="0.5" d="M539.266,-9.5C549.155,-9.5 559.44,-9.5 569.774,-9.5"/>
<polygon fill="black" stroke="black" stroke-width="0.5" points="569.85,-11.2501 574.85,-9.5 569.85,-7.7501 569.85,-11.2501"/>
</g>
<!-- ToolChain.ToolChainException&#45;&gt;ToolChain.Aldec.AldecException -->
<g id="edge2" class="edge"><title>ToolChain.ToolChainException&#45;&gt;ToolChain.Aldec.AldecException</title>
<path fill="none" stroke="black" stroke-width="0.5" d="M345.067,-9.5C355.027,-9.5 365.306,-9.5 375.424,-9.5"/>
<polygon fill="black" stroke="black" stroke-width="0.5" points="375.699,-11.2501 380.699,-9.5 375.699,-7.75009 375.699,-11.2501"/>
</g>
</g>
</svg>
