<?xml version="1.0" encoding="UTF-8" standalone="no"?>
<!DOCTYPE svg PUBLIC "-//W3C//DTD SVG 1.1//EN"
 "http://www.w3.org/Graphics/SVG/1.1/DTD/svg11.dtd">
<!-- Generated by graphviz version 2.38.0 (20140413.2041)
 -->
<!-- Title: inheritance6a7072e758 Pages: 1 -->
<svg width="576pt" height="25pt"
 viewBox="0.00 0.00 576.00 25.21" xmlns="http://www.w3.org/2000/svg" xmlns:xlink="http://www.w3.org/1999/xlink">
<g id="graph0" class="graph" transform="scale(0.933549 0.933549) rotate(0) translate(4 23)">
<title>inheritance6a7072e758</title>
<polygon fill="white" stroke="none" points="-4,4 -4,-23 613,-23 613,4 -4,4"/>
<!-- Base.Logging.ILogable -->
<g id="node1" class="node"><title>Base.Logging.ILogable</title>
<g id="a_node1"><a xlink:href="../Base.Logging.html#Base.Logging.ILogable" xlink:title="A mixin class to provide local logging methods." target="_top">
<polygon fill="none" stroke="black" stroke-width="0.5" points="115,-19 0,-19 0,-0 115,-0 115,-19"/>
<text text-anchor="middle" x="57.5" y="-7" font-family="Vera Sans, DejaVu Sans, Liberation Sans, Arial, Helvetica, sans" font-size="10.00">Base.Logging.ILogable</text>
</a>
</g>
</g>
<!-- Base.Shared.Shared -->
<g id="node2" class="node"><title>Base.Shared.Shared</title>
<g id="a_node2"><a xlink:href="../Base.Shared.html#Base.Shared.Shared" xlink:title="Base class for Simulator and Compiler." target="_top">
<polygon fill="none" stroke="black" stroke-width="0.5" points="258,-19 151,-19 151,-0 258,-0 258,-19"/>
<text text-anchor="middle" x="204.5" y="-7" font-family="Vera Sans, DejaVu Sans, Liberation Sans, Arial, Helvetica, sans" font-size="10.00">Base.Shared.Shared</text>
</a>
</g>
</g>
<!-- Base.Logging.ILogable&#45;&gt;Base.Shared.Shared -->
<g id="edge1" class="edge"><title>Base.Logging.ILogable&#45;&gt;Base.Shared.Shared</title>
<path fill="none" stroke="black" stroke-width="0.5" d="M115.392,-9.5C125.256,-9.5 135.525,-9.5 145.42,-9.5"/>
<polygon fill="black" stroke="black" stroke-width="0.5" points="145.557,-11.2501 150.557,-9.5 145.557,-7.7501 145.557,-11.2501"/>
</g>
<!-- Simulator.Simulator -->
<g id="node4" class="node"><title>Simulator.Simulator</title>
<g id="a_node4"><a xlink:href="../Simulator.html#Simulator.Simulator" xlink:title="Base class for all Simulator classes." target="_top">
<polygon fill="none" stroke="black" stroke-width="0.5" points="396,-19 294,-19 294,-0 396,-0 396,-19"/>
<text text-anchor="middle" x="345" y="-7" font-family="Vera Sans, DejaVu Sans, Liberation Sans, Arial, Helvetica, sans" font-size="10.00">Simulator.Simulator</text>
</a>
</g>
</g>
<!-- Base.Shared.Shared&#45;&gt;Simulator.Simulator -->
<g id="edge3" class="edge"><title>Base.Shared.Shared&#45;&gt;Simulator.Simulator</title>
<path fill="none" stroke="black" stroke-width="0.5" d="M258.256,-9.5C268.151,-9.5 278.523,-9.5 288.498,-9.5"/>
<polygon fill="black" stroke="black" stroke-width="0.5" points="288.674,-11.2501 293.674,-9.5 288.674,-7.7501 288.674,-11.2501"/>
</g>
<!-- Simulator.CocotbSimulator.Simulator -->
<g id="node3" class="node"><title>Simulator.CocotbSimulator.Simulator</title>
<g id="a_node3"><a xlink:href="../PyInfrastructure/Simulator.CocotbSimulator.html#Simulator.CocotbSimulator.Simulator" xlink:title="Simulator.CocotbSimulator.Simulator" target="_top">
<polygon fill="none" stroke="black" stroke-width="0.5" points="609,-19 432,-19 432,-0 609,-0 609,-19"/>
<text text-anchor="middle" x="520.5" y="-7" font-family="Vera Sans, DejaVu Sans, Liberation Sans, Arial, Helvetica, sans" font-size="10.00">Simulator.CocotbSimulator.Simulator</text>
</a>
</g>
</g>
<!-- Simulator.Simulator&#45;&gt;Simulator.CocotbSimulator.Simulator -->
<g id="edge2" class="edge"><title>Simulator.Simulator&#45;&gt;Simulator.CocotbSimulator.Simulator</title>
<path fill="none" stroke="black" stroke-width="0.5" d="M396.183,-9.5C405.816,-9.5 416.185,-9.5 426.673,-9.5"/>
<polygon fill="black" stroke="black" stroke-width="0.5" points="426.829,-11.2501 431.829,-9.5 426.829,-7.7501 426.829,-11.2501"/>
</g>
</g>
</svg>
