<?xml version="1.0" encoding="UTF-8" standalone="no"?>
<!DOCTYPE svg PUBLIC "-//W3C//DTD SVG 1.1//EN"
 "http://www.w3.org/Graphics/SVG/1.1/DTD/svg11.dtd">
<!-- Generated by graphviz version 2.38.0 (20140413.2041)
 -->
<!-- Title: inheritance9e0c54a10c Pages: 1 -->
<svg width="576pt" height="34pt"
 viewBox="0.00 0.00 576.00 34.04" xmlns="http://www.w3.org/2000/svg" xmlns:xlink="http://www.w3.org/1999/xlink">
<g id="graph0" class="graph" transform="scale(0.531856 0.531856) rotate(0) translate(4 60)">
<title>inheritance9e0c54a10c</title>
<polygon fill="white" stroke="none" points="-4,4 -4,-60 1079,-60 1079,4 -4,4"/>
<!-- Base.Exceptions.ExceptionBase -->
<g id="node1" class="node"><title>Base.Exceptions.ExceptionBase</title>
<g id="a_node1"><a xlink:href="../Base.Exceptions.html#Base.Exceptions.ExceptionBase" xlink:title="Base exception derived from :py:exc:`Exception` for all" target="_top">
<polygon fill="none" stroke="black" stroke-width="0.5" points="160,-38 0,-38 0,-19 160,-19 160,-38"/>
<text text-anchor="middle" x="80" y="-26" font-family="Vera Sans, DejaVu Sans, Liberation Sans, Arial, Helvetica, sans" font-size="10.00">Base.Exceptions.ExceptionBase</text>
</a>
</g>
</g>
<!-- ToolChain.ToolChainException -->
<g id="node3" class="node"><title>ToolChain.ToolChainException</title>
<g id="a_node3"><a xlink:href="../ToolChain.html#ToolChain.ToolChainException" xlink:title="Base class for all tool specific exceptions" target="_top">
<polygon fill="none" stroke="black" stroke-width="0.5" points="345,-38 196,-38 196,-19 345,-19 345,-38"/>
<text text-anchor="middle" x="270.5" y="-26" font-family="Vera Sans, DejaVu Sans, Liberation Sans, Arial, Helvetica, sans" font-size="10.00">ToolChain.ToolChainException</text>
</a>
</g>
</g>
<!-- Base.Exceptions.ExceptionBase&#45;&gt;ToolChain.ToolChainException -->
<g id="edge6" class="edge"><title>Base.Exceptions.ExceptionBase&#45;&gt;ToolChain.ToolChainException</title>
<path fill="none" stroke="black" stroke-width="0.5" d="M160.122,-28.5C170.246,-28.5 180.609,-28.5 190.727,-28.5"/>
<polygon fill="black" stroke="black" stroke-width="0.5" points="190.994,-30.2501 195.994,-28.5 190.994,-26.7501 190.994,-30.2501"/>
</g>
<!-- ToolChain.Altera.AlteraException -->
<g id="node2" class="node"><title>ToolChain.Altera.AlteraException</title>
<g id="a_node2"><a xlink:href="../ToolChain.Altera.html#ToolChain.Altera.AlteraException" xlink:title="ToolChain.Altera.AlteraException" target="_top">
<polygon fill="none" stroke="black" stroke-width="0.5" points="780.5,-56 620.5,-56 620.5,-37 780.5,-37 780.5,-56"/>
<text text-anchor="middle" x="700.5" y="-44" font-family="Vera Sans, DejaVu Sans, Liberation Sans, Arial, Helvetica, sans" font-size="10.00">ToolChain.Altera.AlteraException</text>
</a>
</g>
</g>
<!-- ToolChain.Altera.ModelSim.ModelSimException -->
<g id="node4" class="node"><title>ToolChain.Altera.ModelSim.ModelSimException</title>
<g id="a_node4"><a xlink:href="../PyInfrastructure/ToolChain.Altera.ModelSim.html#ToolChain.Altera.ModelSim.ModelSimException" xlink:title="ToolChain.Altera.ModelSim.ModelSimException" target="_top">
<polygon fill="none" stroke="black" stroke-width="0.5" points="1075,-37 851,-37 851,-18 1075,-18 1075,-37"/>
<text text-anchor="middle" x="963" y="-25" font-family="Vera Sans, DejaVu Sans, Liberation Sans, Arial, Helvetica, sans" font-size="10.00">ToolChain.Altera.ModelSim.ModelSimException</text>
</a>
</g>
</g>
<!-- ToolChain.Altera.AlteraException&#45;&gt;ToolChain.Altera.ModelSim.ModelSimException -->
<g id="edge2" class="edge"><title>ToolChain.Altera.AlteraException&#45;&gt;ToolChain.Altera.ModelSim.ModelSimException</title>
<path fill="none" stroke="black" stroke-width="0.5" d="M780.72,-40.722C801.316,-39.2198 823.934,-37.5701 846,-35.9606"/>
<polygon fill="black" stroke="black" stroke-width="0.5" points="846.137,-37.7054 850.996,-35.5962 845.882,-34.2147 846.137,-37.7054"/>
</g>
<!-- ToolChain.ToolChainException&#45;&gt;ToolChain.Altera.AlteraException -->
<g id="edge1" class="edge"><title>ToolChain.ToolChainException&#45;&gt;ToolChain.Altera.AlteraException</title>
<path fill="none" stroke="black" stroke-width="0.5" d="M345.076,-31.5943C420.149,-34.7516 536.501,-39.6449 615.23,-42.956"/>
<polygon fill="black" stroke="black" stroke-width="0.5" points="615.292,-44.71 620.361,-43.1717 615.439,-41.2131 615.292,-44.71"/>
</g>
<!-- ToolChain.Mentor.MentorException -->
<g id="node6" class="node"><title>ToolChain.Mentor.MentorException</title>
<g id="a_node6"><a xlink:href="../ToolChain.Mentor.html#ToolChain.Mentor.MentorException" xlink:title="ToolChain.Mentor.MentorException" target="_top">
<polygon fill="none" stroke="black" stroke-width="0.5" points="550,-19 381,-19 381,-0 550,-0 550,-19"/>
<text text-anchor="middle" x="465.5" y="-7" font-family="Vera Sans, DejaVu Sans, Liberation Sans, Arial, Helvetica, sans" font-size="10.00">ToolChain.Mentor.MentorException</text>
</a>
</g>
</g>
<!-- ToolChain.ToolChainException&#45;&gt;ToolChain.Mentor.MentorException -->
<g id="edge4" class="edge"><title>ToolChain.ToolChainException&#45;&gt;ToolChain.Mentor.MentorException</title>
<path fill="none" stroke="black" stroke-width="0.5" d="M345.016,-21.2627C355.086,-20.2714 365.51,-19.2451 375.815,-18.2306"/>
<polygon fill="black" stroke="black" stroke-width="0.5" points="376.058,-19.9653 380.863,-17.7337 375.715,-16.4821 376.058,-19.9653"/>
</g>
<!-- ToolChain.Mentor.ModelSim.ModelSimException -->
<g id="node5" class="node"><title>ToolChain.Mentor.ModelSim.ModelSimException</title>
<g id="a_node5"><a xlink:href="../ToolChain.Mentor.ModelSim.html#ToolChain.Mentor.ModelSim.ModelSimException" xlink:title="ToolChain.Mentor.ModelSim.ModelSimException" target="_top">
<polygon fill="none" stroke="black" stroke-width="0.5" points="815,-19 586,-19 586,-0 815,-0 815,-19"/>
<text text-anchor="middle" x="700.5" y="-7" font-family="Vera Sans, DejaVu Sans, Liberation Sans, Arial, Helvetica, sans" font-size="10.00">ToolChain.Mentor.ModelSim.ModelSimException</text>
</a>
</g>
</g>
<!-- ToolChain.Mentor.ModelSim.ModelSimException&#45;&gt;ToolChain.Altera.ModelSim.ModelSimException -->
<g id="edge3" class="edge"><title>ToolChain.Mentor.ModelSim.ModelSimException&#45;&gt;ToolChain.Altera.ModelSim.ModelSimException</title>
<path fill="none" stroke="black" stroke-width="0.5" d="M815.001,-17.3427C825.252,-18.051 835.644,-18.7691 845.917,-19.4789"/>
<polygon fill="black" stroke="black" stroke-width="0.5" points="845.84,-21.2277 850.949,-19.8266 846.082,-17.736 845.84,-21.2277"/>
</g>
<!-- ToolChain.Mentor.MentorException&#45;&gt;ToolChain.Mentor.ModelSim.ModelSimException -->
<g id="edge5" class="edge"><title>ToolChain.Mentor.MentorException&#45;&gt;ToolChain.Mentor.ModelSim.ModelSimException</title>
<path fill="none" stroke="black" stroke-width="0.5" d="M550.289,-9.5C560.156,-9.5 570.363,-9.5 580.595,-9.5"/>
<polygon fill="black" stroke="black" stroke-width="0.5" points="580.618,-11.2501 585.618,-9.5 580.618,-7.7501 580.618,-11.2501"/>
</g>
</g>
</svg>
