<?xml version="1.0" encoding="UTF-8" standalone="no"?>
<!DOCTYPE svg PUBLIC "-//W3C//DTD SVG 1.1//EN"
 "http://www.w3.org/Graphics/SVG/1.1/DTD/svg11.dtd">
<!-- Generated by graphviz version 2.38.0 (20140413.2041)
 -->
<!-- Title: inheritanced55fa635a6 Pages: 1 -->
<svg width="576pt" height="64pt"
 viewBox="0.00 0.00 576.00 63.51" xmlns="http://www.w3.org/2000/svg" xmlns:xlink="http://www.w3.org/1999/xlink">
<g id="graph0" class="graph" transform="scale(0.628821 0.628821) rotate(0) translate(4 97)">
<title>inheritanced55fa635a6</title>
<polygon fill="white" stroke="none" points="-4,4 -4,-97 912,-97 912,4 -4,4"/>
<!-- collections.abc.Container -->
<g id="node1" class="node"><title>collections.abc.Container</title>
<polygon fill="none" stroke="black" stroke-width="0.5" points="126,-93 0,-93 0,-74 126,-74 126,-93"/>
<text text-anchor="middle" x="63" y="-81" font-family="Vera Sans, DejaVu Sans, Liberation Sans, Arial, Helvetica, sans" font-size="10.00">collections.abc.Container</text>
</g>
<!-- collections.abc.Mapping -->
<g id="node3" class="node"><title>collections.abc.Mapping</title>
<polygon fill="none" stroke="black" stroke-width="0.5" points="284,-56 162,-56 162,-37 284,-37 284,-56"/>
<text text-anchor="middle" x="223" y="-44" font-family="Vera Sans, DejaVu Sans, Liberation Sans, Arial, Helvetica, sans" font-size="10.00">collections.abc.Mapping</text>
</g>
<!-- collections.abc.Container&#45;&gt;collections.abc.Mapping -->
<g id="edge3" class="edge"><title>collections.abc.Container&#45;&gt;collections.abc.Mapping</title>
<path fill="none" stroke="black" stroke-width="0.5" d="M104.689,-73.9716C126.535,-68.8557 153.539,-62.532 176.129,-57.2419"/>
<polygon fill="black" stroke="black" stroke-width="0.5" points="176.705,-58.9044 181.175,-56.0604 175.907,-55.4966 176.705,-58.9044"/>
</g>
<!-- collections.abc.Iterable -->
<g id="node2" class="node"><title>collections.abc.Iterable</title>
<polygon fill="none" stroke="black" stroke-width="0.5" points="121,-56 5,-56 5,-37 121,-37 121,-56"/>
<text text-anchor="middle" x="63" y="-44" font-family="Vera Sans, DejaVu Sans, Liberation Sans, Arial, Helvetica, sans" font-size="10.00">collections.abc.Iterable</text>
</g>
<!-- collections.abc.Iterable&#45;&gt;collections.abc.Mapping -->
<g id="edge2" class="edge"><title>collections.abc.Iterable&#45;&gt;collections.abc.Mapping</title>
<path fill="none" stroke="black" stroke-width="0.5" d="M121.042,-46.5C132.643,-46.5 144.931,-46.5 156.791,-46.5"/>
<polygon fill="black" stroke="black" stroke-width="0.5" points="156.844,-48.2501 161.844,-46.5 156.844,-44.7501 156.844,-48.2501"/>
</g>
<!-- collections.abc.MutableMapping -->
<g id="node5" class="node"><title>collections.abc.MutableMapping</title>
<polygon fill="none" stroke="black" stroke-width="0.5" points="476,-56 320,-56 320,-37 476,-37 476,-56"/>
<text text-anchor="middle" x="398" y="-44" font-family="Vera Sans, DejaVu Sans, Liberation Sans, Arial, Helvetica, sans" font-size="10.00">collections.abc.MutableMapping</text>
</g>
<!-- collections.abc.Mapping&#45;&gt;collections.abc.MutableMapping -->
<g id="edge4" class="edge"><title>collections.abc.Mapping&#45;&gt;collections.abc.MutableMapping</title>
<path fill="none" stroke="black" stroke-width="0.5" d="M284.021,-46.5C293.918,-46.5 304.326,-46.5 314.655,-46.5"/>
<polygon fill="black" stroke="black" stroke-width="0.5" points="314.716,-48.2501 319.716,-46.5 314.716,-44.7501 314.716,-48.2501"/>
</g>
<!-- collections.abc.Sized -->
<g id="node4" class="node"><title>collections.abc.Sized</title>
<polygon fill="none" stroke="black" stroke-width="0.5" points="118,-19 8,-19 8,-0 118,-0 118,-19"/>
<text text-anchor="middle" x="63" y="-7" font-family="Vera Sans, DejaVu Sans, Liberation Sans, Arial, Helvetica, sans" font-size="10.00">collections.abc.Sized</text>
</g>
<!-- collections.abc.Sized&#45;&gt;collections.abc.Mapping -->
<g id="edge1" class="edge"><title>collections.abc.Sized&#45;&gt;collections.abc.Mapping</title>
<path fill="none" stroke="black" stroke-width="0.5" d="M104.689,-19.0284C126.535,-24.1443 153.539,-30.468 176.129,-35.7581"/>
<polygon fill="black" stroke="black" stroke-width="0.5" points="175.907,-37.5034 181.175,-36.9396 176.705,-34.0956 175.907,-37.5034"/>
</g>
<!-- configparser.SectionProxy -->
<g id="node6" class="node"><title>configparser.SectionProxy</title>
<g id="a_node6"><a xlink:title="A proxy for a single section from a parser.">
<polygon fill="none" stroke="black" stroke-width="0.5" points="643,-56 512,-56 512,-37 643,-37 643,-56"/>
<text text-anchor="middle" x="577.5" y="-44" font-family="Vera Sans, DejaVu Sans, Liberation Sans, Arial, Helvetica, sans" font-size="10.00">configparser.SectionProxy</text>
</a>
</g>
</g>
<!-- collections.abc.MutableMapping&#45;&gt;configparser.SectionProxy -->
<g id="edge5" class="edge"><title>collections.abc.MutableMapping&#45;&gt;configparser.SectionProxy</title>
<path fill="none" stroke="black" stroke-width="0.5" d="M476.08,-46.5C486.278,-46.5 496.685,-46.5 506.75,-46.5"/>
<polygon fill="black" stroke="black" stroke-width="0.5" points="506.979,-48.2501 511.979,-46.5 506.979,-44.7501 506.979,-48.2501"/>
</g>
<!-- lib.ExtendedConfigParser.ExtendedSectionProxy -->
<g id="node7" class="node"><title>lib.ExtendedConfigParser.ExtendedSectionProxy</title>
<g id="a_node7"><a xlink:href="../PyInfrastructure/lib.ExtendedConfigParser.html#lib.ExtendedConfigParser.ExtendedSectionProxy" xlink:title="lib.ExtendedConfigParser.ExtendedSectionProxy" target="_top">
<polygon fill="none" stroke="black" stroke-width="0.5" points="908,-56 679,-56 679,-37 908,-37 908,-56"/>
<text text-anchor="middle" x="793.5" y="-44" font-family="Vera Sans, DejaVu Sans, Liberation Sans, Arial, Helvetica, sans" font-size="10.00">lib.ExtendedConfigParser.ExtendedSectionProxy</text>
</a>
</g>
</g>
<!-- configparser.SectionProxy&#45;&gt;lib.ExtendedConfigParser.ExtendedSectionProxy -->
<g id="edge6" class="edge"><title>configparser.SectionProxy&#45;&gt;lib.ExtendedConfigParser.ExtendedSectionProxy</title>
<path fill="none" stroke="black" stroke-width="0.5" d="M643.288,-46.5C653.014,-46.5 663.294,-46.5 673.726,-46.5"/>
<polygon fill="black" stroke="black" stroke-width="0.5" points="673.857,-48.2501 678.857,-46.5 673.857,-44.7501 673.857,-48.2501"/>
</g>
</g>
</svg>
