<?xml version="1.0" encoding="UTF-8" standalone="no"?>
<!DOCTYPE svg PUBLIC "-//W3C//DTD SVG 1.1//EN"
 "http://www.w3.org/Graphics/SVG/1.1/DTD/svg11.dtd">
<!-- Generated by graphviz version 2.38.0 (20140413.2041)
 -->
<!-- Title: inheritancef3068a0beb Pages: 1 -->
<svg width="576pt" height="27pt"
 viewBox="0.00 0.00 576.00 26.68" xmlns="http://www.w3.org/2000/svg" xmlns:xlink="http://www.w3.org/1999/xlink">
<g id="graph0" class="graph" transform="scale(0.987993 0.987993) rotate(0) translate(4 23)">
<title>inheritancef3068a0beb</title>
<polygon fill="white" stroke="none" points="-4,4 -4,-23 579,-23 579,4 -4,4"/>
<!-- Parser.RulesCodeDOM.InFileStatements -->
<g id="node1" class="node"><title>Parser.RulesCodeDOM.InFileStatements</title>
<g id="a_node1"><a xlink:href="../PyInfrastructure/Parser.RulesCodeDOM.html#Parser.RulesCodeDOM.InFileStatements" xlink:title="Parser.RulesCodeDOM.InFileStatements" target="_top">
<polygon fill="none" stroke="black" stroke-width="0.5" points="575,-19 381,-19 381,-0 575,-0 575,-19"/>
<text text-anchor="middle" x="478" y="-7" font-family="Vera Sans, DejaVu Sans, Liberation Sans, Arial, Helvetica, sans" font-size="10.00">Parser.RulesCodeDOM.InFileStatements</text>
</a>
</g>
</g>
<!-- lib.CodeDOM.BlockedStatement -->
<g id="node2" class="node"><title>lib.CodeDOM.BlockedStatement</title>
<g id="a_node2"><a xlink:href="../lib.CodeDOM.html#lib.CodeDOM.BlockedStatement" xlink:title="lib.CodeDOM.BlockedStatement" target="_top">
<polygon fill="none" stroke="black" stroke-width="0.5" points="345,-19 187,-19 187,-0 345,-0 345,-19"/>
<text text-anchor="middle" x="266" y="-7" font-family="Vera Sans, DejaVu Sans, Liberation Sans, Arial, Helvetica, sans" font-size="10.00">lib.CodeDOM.BlockedStatement</text>
</a>
</g>
</g>
<!-- lib.CodeDOM.BlockedStatement&#45;&gt;Parser.RulesCodeDOM.InFileStatements -->
<g id="edge1" class="edge"><title>lib.CodeDOM.BlockedStatement&#45;&gt;Parser.RulesCodeDOM.InFileStatements</title>
<path fill="none" stroke="black" stroke-width="0.5" d="M345.196,-9.5C355.218,-9.5 365.588,-9.5 375.908,-9.5"/>
<polygon fill="black" stroke="black" stroke-width="0.5" points="375.969,-11.2501 380.969,-9.5 375.969,-7.7501 375.969,-11.2501"/>
</g>
<!-- lib.CodeDOM.CodeDOMObject -->
<g id="node3" class="node"><title>lib.CodeDOM.CodeDOMObject</title>
<g id="a_node3"><a xlink:href="../lib.CodeDOM.html#lib.CodeDOM.CodeDOMObject" xlink:title="lib.CodeDOM.CodeDOMObject" target="_top">
<polygon fill="none" stroke="black" stroke-width="0.5" points="151,-19 0,-19 0,-0 151,-0 151,-19"/>
<text text-anchor="middle" x="75.5" y="-7" font-family="Vera Sans, DejaVu Sans, Liberation Sans, Arial, Helvetica, sans" font-size="10.00">lib.CodeDOM.CodeDOMObject</text>
</a>
</g>
</g>
<!-- lib.CodeDOM.CodeDOMObject&#45;&gt;lib.CodeDOM.BlockedStatement -->
<g id="edge2" class="edge"><title>lib.CodeDOM.CodeDOMObject&#45;&gt;lib.CodeDOM.BlockedStatement</title>
<path fill="none" stroke="black" stroke-width="0.5" d="M151,-9.5C161.082,-9.5 171.479,-9.5 181.703,-9.5"/>
<polygon fill="black" stroke="black" stroke-width="0.5" points="181.705,-11.2501 186.705,-9.5 181.705,-7.7501 181.705,-11.2501"/>
</g>
</g>
</svg>
