<?xml version="1.0" encoding="UTF-8" standalone="no"?>
<!DOCTYPE svg PUBLIC "-//W3C//DTD SVG 1.1//EN"
 "http://www.w3.org/Graphics/SVG/1.1/DTD/svg11.dtd">
<!-- Generated by graphviz version 2.38.0 (20140413.2041)
 -->
<!-- Title: inheritanceb17c5712c5 Pages: 1 -->
<svg width="505pt" height="27pt"
 viewBox="0.00 0.00 505.00 27.00" xmlns="http://www.w3.org/2000/svg" xmlns:xlink="http://www.w3.org/1999/xlink">
<g id="graph0" class="graph" transform="scale(1 1) rotate(0) translate(4 23)">
<title>inheritanceb17c5712c5</title>
<polygon fill="white" stroke="none" points="-4,4 -4,-23 501,-23 501,4 -4,4"/>
<!-- ToolChain.Edition -->
<g id="node1" class="node"><title>ToolChain.Edition</title>
<g id="a_node1"><a xlink:href="../ToolChain.html#ToolChain.Edition" xlink:title="An enumeration." target="_top">
<polygon fill="none" stroke="black" stroke-width="0.5" points="197,-19 105,-19 105,-0 197,-0 197,-19"/>
<text text-anchor="middle" x="151" y="-7" font-family="Vera Sans, DejaVu Sans, Liberation Sans, Arial, Helvetica, sans" font-size="10.00">ToolChain.Edition</text>
</a>
</g>
</g>
<!-- ToolChain.Mentor.ModelSim.MentorModelSimPEEditions -->
<g id="node3" class="node"><title>ToolChain.Mentor.ModelSim.MentorModelSimPEEditions</title>
<g id="a_node3"><a xlink:href="../PyInfrastructure/ToolChain.Mentor.ModelSim.html#ToolChain.Mentor.ModelSim.MentorModelSimPEEditions" xlink:title="Enumeration of all ModelSim editions provided by Mentor Graphics itself." target="_top">
<polygon fill="none" stroke="black" stroke-width="0.5" points="497,-19 233,-19 233,-0 497,-0 497,-19"/>
<text text-anchor="middle" x="365" y="-7" font-family="Vera Sans, DejaVu Sans, Liberation Sans, Arial, Helvetica, sans" font-size="10.00">ToolChain.Mentor.ModelSim.MentorModelSimPEEditions</text>
</a>
</g>
</g>
<!-- ToolChain.Edition&#45;&gt;ToolChain.Mentor.ModelSim.MentorModelSimPEEditions -->
<g id="edge2" class="edge"><title>ToolChain.Edition&#45;&gt;ToolChain.Mentor.ModelSim.MentorModelSimPEEditions</title>
<path fill="none" stroke="black" stroke-width="0.5" d="M197.219,-9.5C206.52,-9.5 216.764,-9.5 227.462,-9.5"/>
<polygon fill="black" stroke="black" stroke-width="0.5" points="227.748,-11.2501 232.748,-9.5 227.748,-7.75009 227.748,-11.2501"/>
</g>
<!-- enum.Enum -->
<g id="node2" class="node"><title>enum.Enum</title>
<g id="a_node2"><a xlink:title="Generic enumeration.">
<polygon fill="none" stroke="black" stroke-width="0.5" points="69,-19 0,-19 0,-0 69,-0 69,-19"/>
<text text-anchor="middle" x="34.5" y="-7" font-family="Vera Sans, DejaVu Sans, Liberation Sans, Arial, Helvetica, sans" font-size="10.00">enum.Enum</text>
</a>
</g>
</g>
<!-- enum.Enum&#45;&gt;ToolChain.Edition -->
<g id="edge1" class="edge"><title>enum.Enum&#45;&gt;ToolChain.Edition</title>
<path fill="none" stroke="black" stroke-width="0.5" d="M69.2345,-9.5C78.7583,-9.5 89.3331,-9.5 99.6088,-9.5"/>
<polygon fill="black" stroke="black" stroke-width="0.5" points="99.6233,-11.2501 104.623,-9.5 99.6232,-7.7501 99.6233,-11.2501"/>
</g>
</g>
</svg>
