<?xml version="1.0" encoding="UTF-8" standalone="no"?>
<!DOCTYPE svg PUBLIC "-//W3C//DTD SVG 1.1//EN"
 "http://www.w3.org/Graphics/SVG/1.1/DTD/svg11.dtd">
<!-- Generated by graphviz version 2.38.0 (20140413.2041)
 -->
<!-- Title: inheritance24dd748d65 Pages: 1 -->
<svg width="540pt" height="27pt"
 viewBox="0.00 0.00 540.00 27.00" xmlns="http://www.w3.org/2000/svg" xmlns:xlink="http://www.w3.org/1999/xlink">
<g id="graph0" class="graph" transform="scale(1 1) rotate(0) translate(4 23)">
<title>inheritance24dd748d65</title>
<polygon fill="white" stroke="none" points="-4,4 -4,-23 536,-23 536,4 -4,4"/>
<!-- Base.Project.ConstraintFile -->
<g id="node1" class="node"><title>Base.Project.ConstraintFile</title>
<g id="a_node1"><a xlink:href="../Base.Project.html#Base.Project.ConstraintFile" xlink:title="Base.Project.ConstraintFile" target="_top">
<polygon fill="none" stroke="black" stroke-width="0.5" points="264,-19 128,-19 128,-0 264,-0 264,-19"/>
<text text-anchor="middle" x="196" y="-7" font-family="Vera Sans, DejaVu Sans, Liberation Sans, Arial, Helvetica, sans" font-size="10.00">Base.Project.ConstraintFile</text>
</a>
</g>
</g>
<!-- ToolChain.Xilinx.Vivado.XilinxDesignConstraintFile -->
<g id="node3" class="node"><title>ToolChain.Xilinx.Vivado.XilinxDesignConstraintFile</title>
<g id="a_node3"><a xlink:href="../PyInfrastructure/ToolChain.Xilinx.Vivado.html#ToolChain.Xilinx.Vivado.XilinxDesignConstraintFile" xlink:title="ToolChain.Xilinx.Vivado.XilinxDesignConstraintFile" target="_top">
<polygon fill="none" stroke="black" stroke-width="0.5" points="532,-19 300,-19 300,-0 532,-0 532,-19"/>
<text text-anchor="middle" x="416" y="-7" font-family="Vera Sans, DejaVu Sans, Liberation Sans, Arial, Helvetica, sans" font-size="10.00">ToolChain.Xilinx.Vivado.XilinxDesignConstraintFile</text>
</a>
</g>
</g>
<!-- Base.Project.ConstraintFile&#45;&gt;ToolChain.Xilinx.Vivado.XilinxDesignConstraintFile -->
<g id="edge2" class="edge"><title>Base.Project.ConstraintFile&#45;&gt;ToolChain.Xilinx.Vivado.XilinxDesignConstraintFile</title>
<path fill="none" stroke="black" stroke-width="0.5" d="M264.186,-9.5C273.97,-9.5 284.283,-9.5 294.736,-9.5"/>
<polygon fill="black" stroke="black" stroke-width="0.5" points="294.877,-11.2501 299.877,-9.5 294.877,-7.7501 294.877,-11.2501"/>
</g>
<!-- Base.Project.File -->
<g id="node2" class="node"><title>Base.Project.File</title>
<g id="a_node2"><a xlink:href="../Base.Project.html#Base.Project.File" xlink:title="Base.Project.File" target="_top">
<polygon fill="none" stroke="black" stroke-width="0.5" points="92,-19 0,-19 0,-0 92,-0 92,-19"/>
<text text-anchor="middle" x="46" y="-7" font-family="Vera Sans, DejaVu Sans, Liberation Sans, Arial, Helvetica, sans" font-size="10.00">Base.Project.File</text>
</a>
</g>
</g>
<!-- Base.Project.File&#45;&gt;Base.Project.ConstraintFile -->
<g id="edge1" class="edge"><title>Base.Project.File&#45;&gt;Base.Project.ConstraintFile</title>
<path fill="none" stroke="black" stroke-width="0.5" d="M92.2091,-9.5C101.925,-9.5 112.426,-9.5 122.877,-9.5"/>
<polygon fill="black" stroke="black" stroke-width="0.5" points="122.999,-11.2501 127.999,-9.5 122.999,-7.7501 122.999,-11.2501"/>
</g>
</g>
</svg>
