<?xml version="1.0" encoding="UTF-8" standalone="no"?>
<!DOCTYPE svg PUBLIC "-//W3C//DTD SVG 1.1//EN"
 "http://www.w3.org/Graphics/SVG/1.1/DTD/svg11.dtd">
<!-- Generated by graphviz version 2.38.0 (20140413.2041)
 -->
<!-- Title: inheritance8da9248540 Pages: 1 -->
<svg width="273pt" height="64pt"
 viewBox="0.00 0.00 273.00 64.00" xmlns="http://www.w3.org/2000/svg" xmlns:xlink="http://www.w3.org/1999/xlink">
<g id="graph0" class="graph" transform="scale(1 1) rotate(0) translate(4 60)">
<title>inheritance8da9248540</title>
<polygon fill="white" stroke="none" points="-4,4 -4,-60 269,-60 269,4 -4,4"/>
<!-- Base.Logging.ILogable -->
<g id="node1" class="node"><title>Base.Logging.ILogable</title>
<g id="a_node1"><a xlink:href="../Base.Logging.html#Base.Logging.ILogable" xlink:title="A mixin class to provide local logging methods." target="_top">
<polygon fill="none" stroke="black" stroke-width="0.5" points="115,-56 0,-56 0,-37 115,-37 115,-56"/>
<text text-anchor="middle" x="57.5" y="-44" font-family="Vera Sans, DejaVu Sans, Liberation Sans, Arial, Helvetica, sans" font-size="10.00">Base.Logging.ILogable</text>
</a>
</g>
</g>
<!-- ToolChain.Configurator -->
<g id="node3" class="node"><title>ToolChain.Configurator</title>
<g id="a_node3"><a xlink:href="../PyInfrastructure/ToolChain.html#ToolChain.Configurator" xlink:title="A instance of this class controls the interactive configuration process." target="_top">
<polygon fill="none" stroke="black" stroke-width="0.5" points="265,-37 151,-37 151,-18 265,-18 265,-37"/>
<text text-anchor="middle" x="208" y="-25" font-family="Vera Sans, DejaVu Sans, Liberation Sans, Arial, Helvetica, sans" font-size="10.00">ToolChain.Configurator</text>
</a>
</g>
</g>
<!-- Base.Logging.ILogable&#45;&gt;ToolChain.Configurator -->
<g id="edge1" class="edge"><title>Base.Logging.ILogable&#45;&gt;ToolChain.Configurator</title>
<path fill="none" stroke="black" stroke-width="0.5" d="M115.065,-39.2627C124.976,-37.9946 135.334,-36.6694 145.375,-35.3847"/>
<polygon fill="black" stroke="black" stroke-width="0.5" points="145.855,-37.0877 150.592,-34.7172 145.41,-33.616 145.855,-37.0877"/>
</g>
<!-- ToolChain.AskMixIn -->
<g id="node2" class="node"><title>ToolChain.AskMixIn</title>
<g id="a_node2"><a xlink:href="../PyInfrastructure/ToolChain.html#ToolChain.AskMixIn" xlink:title="ToolChain.AskMixIn" target="_top">
<polygon fill="none" stroke="black" stroke-width="0.5" points="109,-19 6,-19 6,-0 109,-0 109,-19"/>
<text text-anchor="middle" x="57.5" y="-7" font-family="Vera Sans, DejaVu Sans, Liberation Sans, Arial, Helvetica, sans" font-size="10.00">ToolChain.AskMixIn</text>
</a>
</g>
</g>
<!-- ToolChain.AskMixIn&#45;&gt;ToolChain.Configurator -->
<g id="edge2" class="edge"><title>ToolChain.AskMixIn&#45;&gt;ToolChain.Configurator</title>
<path fill="none" stroke="black" stroke-width="0.5" d="M109.19,-15.6442C120.953,-17.0701 133.596,-18.6026 145.759,-20.0768"/>
<polygon fill="black" stroke="black" stroke-width="0.5" points="145.764,-21.8401 150.938,-20.7046 146.185,-18.3656 145.764,-21.8401"/>
</g>
</g>
</svg>
