<?xml version="1.0" encoding="UTF-8" standalone="no"?>
<!DOCTYPE svg PUBLIC "-//W3C//DTD SVG 1.1//EN"
 "http://www.w3.org/Graphics/SVG/1.1/DTD/svg11.dtd">
<!-- Generated by graphviz version 2.38.0 (20140413.2041)
 -->
<!-- Title: inheritancece92615490 Pages: 1 -->
<svg width="543pt" height="27pt"
 viewBox="0.00 0.00 543.00 27.00" xmlns="http://www.w3.org/2000/svg" xmlns:xlink="http://www.w3.org/1999/xlink">
<g id="graph0" class="graph" transform="scale(1 1) rotate(0) translate(4 23)">
<title>inheritancece92615490</title>
<polygon fill="white" stroke="none" points="-4,4 -4,-23 539,-23 539,4 -4,4"/>
<!-- DataBase.TestCase.ElementBase -->
<g id="node1" class="node"><title>DataBase.TestCase.ElementBase</title>
<g id="a_node1"><a xlink:href="../PyInfrastructure/DataBase.TestCase.html#DataBase.TestCase.ElementBase" xlink:title="DataBase.TestCase.ElementBase" target="_top">
<polygon fill="none" stroke="black" stroke-width="0.5" points="165,-19 0,-19 0,-0 165,-0 165,-19"/>
<text text-anchor="middle" x="82.5" y="-7" font-family="Vera Sans, DejaVu Sans, Liberation Sans, Arial, Helvetica, sans" font-size="10.00">DataBase.TestCase.ElementBase</text>
</a>
</g>
</g>
<!-- DataBase.TestCase.TestBase -->
<g id="node3" class="node"><title>DataBase.TestCase.TestBase</title>
<g id="a_node3"><a xlink:href="../PyInfrastructure/DataBase.TestCase.html#DataBase.TestCase.TestBase" xlink:title="DataBase.TestCase.TestBase" target="_top">
<polygon fill="none" stroke="black" stroke-width="0.5" points="349,-19 201,-19 201,-0 349,-0 349,-19"/>
<text text-anchor="middle" x="275" y="-7" font-family="Vera Sans, DejaVu Sans, Liberation Sans, Arial, Helvetica, sans" font-size="10.00">DataBase.TestCase.TestBase</text>
</a>
</g>
</g>
<!-- DataBase.TestCase.ElementBase&#45;&gt;DataBase.TestCase.TestBase -->
<g id="edge2" class="edge"><title>DataBase.TestCase.ElementBase&#45;&gt;DataBase.TestCase.TestBase</title>
<path fill="none" stroke="black" stroke-width="0.5" d="M165.118,-9.5C175.266,-9.5 185.624,-9.5 195.719,-9.5"/>
<polygon fill="black" stroke="black" stroke-width="0.5" points="195.972,-11.2501 200.972,-9.5 195.972,-7.7501 195.972,-11.2501"/>
</g>
<!-- DataBase.TestCase.Synthesis -->
<g id="node2" class="node"><title>DataBase.TestCase.Synthesis</title>
<g id="a_node2"><a xlink:href="../PyInfrastructure/DataBase.TestCase.html#DataBase.TestCase.Synthesis" xlink:title="DataBase.TestCase.Synthesis" target="_top">
<polygon fill="none" stroke="black" stroke-width="0.5" points="535,-19 385,-19 385,-0 535,-0 535,-19"/>
<text text-anchor="middle" x="460" y="-7" font-family="Vera Sans, DejaVu Sans, Liberation Sans, Arial, Helvetica, sans" font-size="10.00">DataBase.TestCase.Synthesis</text>
</a>
</g>
</g>
<!-- DataBase.TestCase.TestBase&#45;&gt;DataBase.TestCase.Synthesis -->
<g id="edge1" class="edge"><title>DataBase.TestCase.TestBase&#45;&gt;DataBase.TestCase.Synthesis</title>
<path fill="none" stroke="black" stroke-width="0.5" d="M349.115,-9.5C359.119,-9.5 369.429,-9.5 379.539,-9.5"/>
<polygon fill="black" stroke="black" stroke-width="0.5" points="379.805,-11.2501 384.805,-9.5 379.805,-7.75009 379.805,-11.2501"/>
</g>
</g>
</svg>
