<?xml version="1.0" encoding="UTF-8" standalone="no"?>
<!DOCTYPE svg PUBLIC "-//W3C//DTD SVG 1.1//EN"
 "http://www.w3.org/Graphics/SVG/1.1/DTD/svg11.dtd">
<!-- Generated by graphviz version 2.38.0 (20140413.2041)
 -->
<!-- Title: inheritancecd4029a21b Pages: 1 -->
<svg width="576pt" height="55pt"
 viewBox="0.00 0.00 576.00 55.27" xmlns="http://www.w3.org/2000/svg" xmlns:xlink="http://www.w3.org/1999/xlink">
<g id="graph0" class="graph" transform="scale(0.863568 0.863568) rotate(0) translate(4 60)">
<title>inheritancecd4029a21b</title>
<polygon fill="white" stroke="none" points="-4,4 -4,-60 663,-60 663,4 -4,4"/>
<!-- Base.Executable.Executable -->
<g id="node1" class="node"><title>Base.Executable.Executable</title>
<g id="a_node1"><a xlink:href="../Base.Executable.html#Base.Executable.Executable" xlink:title="Represent an executable." target="_top">
<polygon fill="none" stroke="black" stroke-width="0.5" points="294,-19 151,-19 151,-0 294,-0 294,-19"/>
<text text-anchor="middle" x="222.5" y="-7" font-family="Vera Sans, DejaVu Sans, Liberation Sans, Arial, Helvetica, sans" font-size="10.00">Base.Executable.Executable</text>
</a>
</g>
</g>
<!-- ToolChain.OutputFilteredExecutable -->
<g id="node3" class="node"><title>ToolChain.OutputFilteredExecutable</title>
<polygon fill="none" stroke="black" stroke-width="0.5" points="503,-19 330,-19 330,-0 503,-0 503,-19"/>
<text text-anchor="middle" x="416.5" y="-7" font-family="Vera Sans, DejaVu Sans, Liberation Sans, Arial, Helvetica, sans" font-size="10.00">ToolChain.OutputFilteredExecutable</text>
</g>
<!-- Base.Executable.Executable&#45;&gt;ToolChain.OutputFilteredExecutable -->
<g id="edge2" class="edge"><title>Base.Executable.Executable&#45;&gt;ToolChain.OutputFilteredExecutable</title>
<path fill="none" stroke="black" stroke-width="0.5" d="M294.176,-9.5C304.192,-9.5 314.604,-9.5 324.931,-9.5"/>
<polygon fill="black" stroke="black" stroke-width="0.5" points="324.993,-11.2501 329.993,-9.5 324.992,-7.7501 324.993,-11.2501"/>
</g>
<!-- Base.Logging.ILogable -->
<g id="node2" class="node"><title>Base.Logging.ILogable</title>
<g id="a_node2"><a xlink:href="../Base.Logging.html#Base.Logging.ILogable" xlink:title="A mixin class to provide local logging methods." target="_top">
<polygon fill="none" stroke="black" stroke-width="0.5" points="115,-19 0,-19 0,-0 115,-0 115,-19"/>
<text text-anchor="middle" x="57.5" y="-7" font-family="Vera Sans, DejaVu Sans, Liberation Sans, Arial, Helvetica, sans" font-size="10.00">Base.Logging.ILogable</text>
</a>
</g>
</g>
<!-- Base.Logging.ILogable&#45;&gt;Base.Executable.Executable -->
<g id="edge1" class="edge"><title>Base.Logging.ILogable&#45;&gt;Base.Executable.Executable</title>
<path fill="none" stroke="black" stroke-width="0.5" d="M115.052,-9.5C125.008,-9.5 135.515,-9.5 145.893,-9.5"/>
<polygon fill="black" stroke="black" stroke-width="0.5" points="145.974,-11.2501 150.974,-9.5 145.974,-7.7501 145.974,-11.2501"/>
</g>
<!-- ToolChain.Xilinx.ISE.Xst -->
<g id="node5" class="node"><title>ToolChain.Xilinx.ISE.Xst</title>
<g id="a_node5"><a xlink:href="../PyInfrastructure/ToolChain.Xilinx.ISE.html#ToolChain.Xilinx.ISE.Xst" xlink:title="ToolChain.Xilinx.ISE.Xst" target="_top">
<polygon fill="none" stroke="black" stroke-width="0.5" points="659,-37 539,-37 539,-18 659,-18 659,-37"/>
<text text-anchor="middle" x="599" y="-25" font-family="Vera Sans, DejaVu Sans, Liberation Sans, Arial, Helvetica, sans" font-size="10.00">ToolChain.Xilinx.ISE.Xst</text>
</a>
</g>
</g>
<!-- ToolChain.OutputFilteredExecutable&#45;&gt;ToolChain.Xilinx.ISE.Xst -->
<g id="edge3" class="edge"><title>ToolChain.OutputFilteredExecutable&#45;&gt;ToolChain.Xilinx.ISE.Xst</title>
<path fill="none" stroke="black" stroke-width="0.5" d="M503.257,-18.0519C513.481,-19.0715 523.783,-20.0989 533.635,-21.0813"/>
<polygon fill="black" stroke="black" stroke-width="0.5" points="533.594,-22.8359 538.743,-21.5907 533.942,-19.3531 533.594,-22.8359"/>
</g>
<!-- ToolChain.ToolMixIn -->
<g id="node4" class="node"><title>ToolChain.ToolMixIn</title>
<g id="a_node4"><a xlink:href="../ToolChain.html#ToolChain.ToolMixIn" xlink:title="ToolChain.ToolMixIn" target="_top">
<polygon fill="none" stroke="black" stroke-width="0.5" points="468.5,-56 364.5,-56 364.5,-37 468.5,-37 468.5,-56"/>
<text text-anchor="middle" x="416.5" y="-44" font-family="Vera Sans, DejaVu Sans, Liberation Sans, Arial, Helvetica, sans" font-size="10.00">ToolChain.ToolMixIn</text>
</a>
</g>
</g>
<!-- ToolChain.ToolMixIn&#45;&gt;ToolChain.Xilinx.ISE.Xst -->
<g id="edge4" class="edge"><title>ToolChain.ToolMixIn&#45;&gt;ToolChain.Xilinx.ISE.Xst</title>
<path fill="none" stroke="black" stroke-width="0.5" d="M468.741,-41.1062C489.004,-38.9732 512.516,-36.4983 533.887,-34.2487"/>
<polygon fill="black" stroke="black" stroke-width="0.5" points="534.194,-35.9762 538.983,-33.7123 533.828,-32.4954 534.194,-35.9762"/>
</g>
</g>
</svg>
