<?xml version="1.0" encoding="UTF-8" standalone="no"?>
<!DOCTYPE svg PUBLIC "-//W3C//DTD SVG 1.1//EN"
 "http://www.w3.org/Graphics/SVG/1.1/DTD/svg11.dtd">
<!-- Generated by graphviz version 2.38.0 (20140413.2041)
 -->
<!-- Title: inheritance7d1f880397 Pages: 1 -->
<svg width="576pt" height="25pt"
 viewBox="0.00 0.00 576.00 25.00" xmlns="http://www.w3.org/2000/svg" xmlns:xlink="http://www.w3.org/1999/xlink">
<g id="graph0" class="graph" transform="scale(0.926045 0.926045) rotate(0) translate(4 23)">
<title>inheritance7d1f880397</title>
<polygon fill="white" stroke="none" points="-4,4 -4,-23 618,-23 618,4 -4,4"/>
<!-- DataBase.Config.AlteraSubTypes -->
<g id="node1" class="node"><title>DataBase.Config.AlteraSubTypes</title>
<g id="a_node1"><a xlink:href="../PyInfrastructure/DataBase.Config.html#DataBase.Config.AlteraSubTypes" xlink:title="Enumeration of all Altera device subtype." target="_top">
<polygon fill="none" stroke="black" stroke-width="0.5" points="614,-19 453,-19 453,-0 614,-0 614,-19"/>
<text text-anchor="middle" x="533.5" y="-7" font-family="Vera Sans, DejaVu Sans, Liberation Sans, Arial, Helvetica, sans" font-size="10.00">DataBase.Config.AlteraSubTypes</text>
</a>
</g>
</g>
<!-- DataBase.Config.SubTypes -->
<g id="node2" class="node"><title>DataBase.Config.SubTypes</title>
<g id="a_node2"><a xlink:href="../PyInfrastructure/DataBase.Config.html#DataBase.Config.SubTypes" xlink:title="Base enum for all SubType enums." target="_top">
<polygon fill="none" stroke="black" stroke-width="0.5" points="417,-19 281,-19 281,-0 417,-0 417,-19"/>
<text text-anchor="middle" x="349" y="-7" font-family="Vera Sans, DejaVu Sans, Liberation Sans, Arial, Helvetica, sans" font-size="10.00">DataBase.Config.SubTypes</text>
</a>
</g>
</g>
<!-- DataBase.Config.SubTypes&#45;&gt;DataBase.Config.AlteraSubTypes -->
<g id="edge1" class="edge"><title>DataBase.Config.SubTypes&#45;&gt;DataBase.Config.AlteraSubTypes</title>
<path fill="none" stroke="black" stroke-width="0.5" d="M417.179,-9.5C427.136,-9.5 437.505,-9.5 447.763,-9.5"/>
<polygon fill="black" stroke="black" stroke-width="0.5" points="447.788,-11.2501 452.788,-9.5 447.788,-7.7501 447.788,-11.2501"/>
</g>
<!-- DataBase.Config.BaseEnum -->
<g id="node3" class="node"><title>DataBase.Config.BaseEnum</title>
<g id="a_node3"><a xlink:href="../PyInfrastructure/DataBase.Config.html#DataBase.Config.BaseEnum" xlink:title="An enumeration." target="_top">
<polygon fill="none" stroke="black" stroke-width="0.5" points="245,-19 105,-19 105,-0 245,-0 245,-19"/>
<text text-anchor="middle" x="175" y="-7" font-family="Vera Sans, DejaVu Sans, Liberation Sans, Arial, Helvetica, sans" font-size="10.00">DataBase.Config.BaseEnum</text>
</a>
</g>
</g>
<!-- DataBase.Config.BaseEnum&#45;&gt;DataBase.Config.SubTypes -->
<g id="edge3" class="edge"><title>DataBase.Config.BaseEnum&#45;&gt;DataBase.Config.SubTypes</title>
<path fill="none" stroke="black" stroke-width="0.5" d="M245.463,-9.5C255.388,-9.5 265.617,-9.5 275.597,-9.5"/>
<polygon fill="black" stroke="black" stroke-width="0.5" points="275.789,-11.2501 280.789,-9.5 275.789,-7.7501 275.789,-11.2501"/>
</g>
<!-- enum.Enum -->
<g id="node4" class="node"><title>enum.Enum</title>
<g id="a_node4"><a xlink:title="Generic enumeration.">
<polygon fill="none" stroke="black" stroke-width="0.5" points="69,-19 0,-19 0,-0 69,-0 69,-19"/>
<text text-anchor="middle" x="34.5" y="-7" font-family="Vera Sans, DejaVu Sans, Liberation Sans, Arial, Helvetica, sans" font-size="10.00">enum.Enum</text>
</a>
</g>
</g>
<!-- enum.Enum&#45;&gt;DataBase.Config.BaseEnum -->
<g id="edge2" class="edge"><title>enum.Enum&#45;&gt;DataBase.Config.BaseEnum</title>
<path fill="none" stroke="black" stroke-width="0.5" d="M69.027,-9.5C78.3837,-9.5 88.9386,-9.5 99.6571,-9.5"/>
<polygon fill="black" stroke="black" stroke-width="0.5" points="99.9276,-11.2501 104.928,-9.5 99.9275,-7.75009 99.9276,-11.2501"/>
</g>
</g>
</svg>
