<?xml version="1.0" encoding="UTF-8" standalone="no"?>
<!DOCTYPE svg PUBLIC "-//W3C//DTD SVG 1.1//EN"
 "http://www.w3.org/Graphics/SVG/1.1/DTD/svg11.dtd">
<!-- Generated by graphviz version 2.38.0 (20140413.2041)
 -->
<!-- Title: inheritance0e6c753b40 Pages: 1 -->
<svg width="576pt" height="36pt"
 viewBox="0.00 0.00 576.00 36.49" xmlns="http://www.w3.org/2000/svg" xmlns:xlink="http://www.w3.org/1999/xlink">
<g id="graph0" class="graph" transform="scale(0.561404 0.561404) rotate(0) translate(4 61)">
<title>inheritance0e6c753b40</title>
<polygon fill="white" stroke="none" points="-4,4 -4,-61 1022,-61 1022,4 -4,4"/>
<!-- Base.Exceptions.ExceptionBase -->
<g id="node1" class="node"><title>Base.Exceptions.ExceptionBase</title>
<g id="a_node1"><a xlink:href="../Base.Exceptions.html#Base.Exceptions.ExceptionBase" xlink:title="Base exception derived from :py:exc:`Exception` for all" target="_top">
<polygon fill="none" stroke="black" stroke-width="0.5" points="160,-38 0,-38 0,-19 160,-19 160,-38"/>
<text text-anchor="middle" x="80" y="-26" font-family="Vera Sans, DejaVu Sans, Liberation Sans, Arial, Helvetica, sans" font-size="10.00">Base.Exceptions.ExceptionBase</text>
</a>
</g>
</g>
<!-- ToolChain.ToolChainException -->
<g id="node3" class="node"><title>ToolChain.ToolChainException</title>
<g id="a_node3"><a xlink:href="../ToolChain.html#ToolChain.ToolChainException" xlink:title="Base class for all tool specific exceptions" target="_top">
<polygon fill="none" stroke="black" stroke-width="0.5" points="345,-38 196,-38 196,-19 345,-19 345,-38"/>
<text text-anchor="middle" x="270.5" y="-26" font-family="Vera Sans, DejaVu Sans, Liberation Sans, Arial, Helvetica, sans" font-size="10.00">ToolChain.ToolChainException</text>
</a>
</g>
</g>
<!-- Base.Exceptions.ExceptionBase&#45;&gt;ToolChain.ToolChainException -->
<g id="edge6" class="edge"><title>Base.Exceptions.ExceptionBase&#45;&gt;ToolChain.ToolChainException</title>
<path fill="none" stroke="black" stroke-width="0.5" d="M160.122,-28.5C170.246,-28.5 180.609,-28.5 190.727,-28.5"/>
<polygon fill="black" stroke="black" stroke-width="0.5" points="190.994,-30.2501 195.994,-28.5 190.994,-26.7501 190.994,-30.2501"/>
</g>
<!-- ToolChain.Altera.AlteraException -->
<g id="node2" class="node"><title>ToolChain.Altera.AlteraException</title>
<g id="a_node2"><a xlink:href="../ToolChain.Altera.html#ToolChain.Altera.AlteraException" xlink:title="ToolChain.Altera.AlteraException" target="_top">
<polygon fill="none" stroke="black" stroke-width="0.5" points="541,-57 381,-57 381,-38 541,-38 541,-57"/>
<text text-anchor="middle" x="461" y="-45" font-family="Vera Sans, DejaVu Sans, Liberation Sans, Arial, Helvetica, sans" font-size="10.00">ToolChain.Altera.AlteraException</text>
</a>
</g>
</g>
<!-- ToolChain.Altera.Quartus.QuartusException -->
<g id="node4" class="node"><title>ToolChain.Altera.Quartus.QuartusException</title>
<g id="a_node4"><a xlink:href="../ToolChain.Altera.Quartus.html#ToolChain.Altera.Quartus.QuartusException" xlink:title="ToolChain.Altera.Quartus.QuartusException" target="_top">
<polygon fill="none" stroke="black" stroke-width="0.5" points="783,-56 577,-56 577,-37 783,-37 783,-56"/>
<text text-anchor="middle" x="680" y="-44" font-family="Vera Sans, DejaVu Sans, Liberation Sans, Arial, Helvetica, sans" font-size="10.00">ToolChain.Altera.Quartus.QuartusException</text>
</a>
</g>
</g>
<!-- ToolChain.Altera.AlteraException&#45;&gt;ToolChain.Altera.Quartus.QuartusException -->
<g id="edge2" class="edge"><title>ToolChain.Altera.AlteraException&#45;&gt;ToolChain.Altera.Quartus.QuartusException</title>
<path fill="none" stroke="black" stroke-width="0.5" d="M541.263,-47.1347C551.252,-47.0887 561.597,-47.041 571.926,-46.9934"/>
<polygon fill="black" stroke="black" stroke-width="0.5" points="572.001,-48.7432 576.993,-46.9701 571.985,-45.2432 572.001,-48.7432"/>
</g>
<!-- ToolChain.ToolChainException&#45;&gt;ToolChain.Altera.AlteraException -->
<g id="edge1" class="edge"><title>ToolChain.ToolChainException&#45;&gt;ToolChain.Altera.AlteraException</title>
<path fill="none" stroke="black" stroke-width="0.5" d="M345.189,-35.9275C355.216,-36.9383 365.57,-37.9819 375.766,-39.0096"/>
<polygon fill="black" stroke="black" stroke-width="0.5" points="375.606,-40.7522 380.756,-39.5126 375.957,-37.2699 375.606,-40.7522"/>
</g>
<!-- ToolChain.Intel.IntelException -->
<g id="node5" class="node"><title>ToolChain.Intel.IntelException</title>
<g id="a_node5"><a xlink:href="../ToolChain.Intel.html#ToolChain.Intel.IntelException" xlink:title="ToolChain.Intel.IntelException" target="_top">
<polygon fill="none" stroke="black" stroke-width="0.5" points="752.5,-19 607.5,-19 607.5,-0 752.5,-0 752.5,-19"/>
<text text-anchor="middle" x="680" y="-7" font-family="Vera Sans, DejaVu Sans, Liberation Sans, Arial, Helvetica, sans" font-size="10.00">ToolChain.Intel.IntelException</text>
</a>
</g>
</g>
<!-- ToolChain.ToolChainException&#45;&gt;ToolChain.Intel.IntelException -->
<g id="edge3" class="edge"><title>ToolChain.ToolChainException&#45;&gt;ToolChain.Intel.IntelException</title>
<path fill="none" stroke="black" stroke-width="0.5" d="M345.295,-25.0592C417.977,-21.6704 528.524,-16.5161 602.221,-13.0799"/>
<polygon fill="black" stroke="black" stroke-width="0.5" points="602.549,-14.8166 607.462,-12.8355 602.386,-11.3204 602.549,-14.8166"/>
</g>
<!-- ToolChain.Intel.Quartus.QuartusException -->
<g id="node6" class="node"><title>ToolChain.Intel.Quartus.QuartusException</title>
<g id="a_node6"><a xlink:href="../PyInfrastructure/ToolChain.Intel.Quartus.html#ToolChain.Intel.Quartus.QuartusException" xlink:title="ToolChain.Intel.Quartus.QuartusException" target="_top">
<polygon fill="none" stroke="black" stroke-width="0.5" points="1018,-37 819,-37 819,-18 1018,-18 1018,-37"/>
<text text-anchor="middle" x="918.5" y="-25" font-family="Vera Sans, DejaVu Sans, Liberation Sans, Arial, Helvetica, sans" font-size="10.00">ToolChain.Intel.Quartus.QuartusException</text>
</a>
</g>
</g>
<!-- ToolChain.Altera.Quartus.QuartusException&#45;&gt;ToolChain.Intel.Quartus.QuartusException -->
<g id="edge5" class="edge"><title>ToolChain.Altera.Quartus.QuartusException&#45;&gt;ToolChain.Intel.Quartus.QuartusException</title>
<path fill="none" stroke="black" stroke-width="0.5" d="M783.013,-38.3044C793.22,-37.4845 803.591,-36.6513 813.814,-35.8299"/>
<polygon fill="black" stroke="black" stroke-width="0.5" points="813.976,-37.5727 818.82,-35.4278 813.696,-34.0839 813.976,-37.5727"/>
</g>
<!-- ToolChain.Intel.IntelException&#45;&gt;ToolChain.Intel.Quartus.QuartusException -->
<g id="edge4" class="edge"><title>ToolChain.Intel.IntelException&#45;&gt;ToolChain.Intel.Quartus.QuartusException</title>
<path fill="none" stroke="black" stroke-width="0.5" d="M752.6,-14.9494C771.775,-16.4089 792.9,-18.0167 813.445,-19.5804"/>
<polygon fill="black" stroke="black" stroke-width="0.5" points="813.536,-21.3423 818.655,-19.9769 813.802,-17.8524 813.536,-21.3423"/>
</g>
</g>
</svg>
