<?xml version="1.0" encoding="UTF-8" standalone="no"?>
<!DOCTYPE svg PUBLIC "-//W3C//DTD SVG 1.1//EN"
 "http://www.w3.org/Graphics/SVG/1.1/DTD/svg11.dtd">
<!-- Generated by graphviz version 2.38.0 (20140413.2041)
 -->
<!-- Title: inheritance3948c7a3f9 Pages: 1 -->
<svg width="576pt" height="51pt"
 viewBox="0.00 0.00 576.00 51.41" xmlns="http://www.w3.org/2000/svg" xmlns:xlink="http://www.w3.org/1999/xlink">
<g id="graph0" class="graph" transform="scale(0.803347 0.803347) rotate(0) translate(4 60)">
<title>inheritance3948c7a3f9</title>
<polygon fill="white" stroke="none" points="-4,4 -4,-60 713,-60 713,4 -4,4"/>
<!-- Base.Executable.Executable -->
<g id="node1" class="node"><title>Base.Executable.Executable</title>
<g id="a_node1"><a xlink:href="../Base.Executable.html#Base.Executable.Executable" xlink:title="Represent an executable." target="_top">
<polygon fill="none" stroke="black" stroke-width="0.5" points="294,-19 151,-19 151,-0 294,-0 294,-19"/>
<text text-anchor="middle" x="222.5" y="-7" font-family="Vera Sans, DejaVu Sans, Liberation Sans, Arial, Helvetica, sans" font-size="10.00">Base.Executable.Executable</text>
</a>
</g>
</g>
<!-- ToolChain.OutputFilteredExecutable -->
<g id="node3" class="node"><title>ToolChain.OutputFilteredExecutable</title>
<polygon fill="none" stroke="black" stroke-width="0.5" points="503,-19 330,-19 330,-0 503,-0 503,-19"/>
<text text-anchor="middle" x="416.5" y="-7" font-family="Vera Sans, DejaVu Sans, Liberation Sans, Arial, Helvetica, sans" font-size="10.00">ToolChain.OutputFilteredExecutable</text>
</g>
<!-- Base.Executable.Executable&#45;&gt;ToolChain.OutputFilteredExecutable -->
<g id="edge2" class="edge"><title>Base.Executable.Executable&#45;&gt;ToolChain.OutputFilteredExecutable</title>
<path fill="none" stroke="black" stroke-width="0.5" d="M294.176,-9.5C304.192,-9.5 314.604,-9.5 324.931,-9.5"/>
<polygon fill="black" stroke="black" stroke-width="0.5" points="324.993,-11.2501 329.993,-9.5 324.992,-7.7501 324.993,-11.2501"/>
</g>
<!-- Base.Logging.ILogable -->
<g id="node2" class="node"><title>Base.Logging.ILogable</title>
<g id="a_node2"><a xlink:href="../Base.Logging.html#Base.Logging.ILogable" xlink:title="A mixin class to provide local logging methods." target="_top">
<polygon fill="none" stroke="black" stroke-width="0.5" points="115,-19 0,-19 0,-0 115,-0 115,-19"/>
<text text-anchor="middle" x="57.5" y="-7" font-family="Vera Sans, DejaVu Sans, Liberation Sans, Arial, Helvetica, sans" font-size="10.00">Base.Logging.ILogable</text>
</a>
</g>
</g>
<!-- Base.Logging.ILogable&#45;&gt;Base.Executable.Executable -->
<g id="edge1" class="edge"><title>Base.Logging.ILogable&#45;&gt;Base.Executable.Executable</title>
<path fill="none" stroke="black" stroke-width="0.5" d="M115.052,-9.5C125.008,-9.5 135.515,-9.5 145.893,-9.5"/>
<polygon fill="black" stroke="black" stroke-width="0.5" points="145.974,-11.2501 150.974,-9.5 145.974,-7.7501 145.974,-11.2501"/>
</g>
<!-- ToolChain.Xilinx.ISE.CoreGenerator -->
<g id="node5" class="node"><title>ToolChain.Xilinx.ISE.CoreGenerator</title>
<g id="a_node5"><a xlink:href="../PyInfrastructure/ToolChain.Xilinx.ISE.html#ToolChain.Xilinx.ISE.CoreGenerator" xlink:title="ToolChain.Xilinx.ISE.CoreGenerator" target="_top">
<polygon fill="none" stroke="black" stroke-width="0.5" points="709,-37 539,-37 539,-18 709,-18 709,-37"/>
<text text-anchor="middle" x="624" y="-25" font-family="Vera Sans, DejaVu Sans, Liberation Sans, Arial, Helvetica, sans" font-size="10.00">ToolChain.Xilinx.ISE.CoreGenerator</text>
</a>
</g>
</g>
<!-- ToolChain.OutputFilteredExecutable&#45;&gt;ToolChain.Xilinx.ISE.CoreGenerator -->
<g id="edge3" class="edge"><title>ToolChain.OutputFilteredExecutable&#45;&gt;ToolChain.Xilinx.ISE.CoreGenerator</title>
<path fill="none" stroke="black" stroke-width="0.5" d="M503.162,-17.0033C513.197,-17.8822 523.456,-18.7808 533.541,-19.6641"/>
<polygon fill="black" stroke="black" stroke-width="0.5" points="533.663,-21.4314 538.796,-20.1245 533.968,-17.9448 533.663,-21.4314"/>
</g>
<!-- ToolChain.ToolMixIn -->
<g id="node4" class="node"><title>ToolChain.ToolMixIn</title>
<g id="a_node4"><a xlink:href="../ToolChain.html#ToolChain.ToolMixIn" xlink:title="ToolChain.ToolMixIn" target="_top">
<polygon fill="none" stroke="black" stroke-width="0.5" points="468.5,-56 364.5,-56 364.5,-37 468.5,-37 468.5,-56"/>
<text text-anchor="middle" x="416.5" y="-44" font-family="Vera Sans, DejaVu Sans, Liberation Sans, Arial, Helvetica, sans" font-size="10.00">ToolChain.ToolMixIn</text>
</a>
</g>
</g>
<!-- ToolChain.ToolMixIn&#45;&gt;ToolChain.Xilinx.ISE.CoreGenerator -->
<g id="edge4" class="edge"><title>ToolChain.ToolMixIn&#45;&gt;ToolChain.Xilinx.ISE.CoreGenerator</title>
<path fill="none" stroke="black" stroke-width="0.5" d="M468.562,-41.779C488.343,-39.95 511.581,-37.8015 533.939,-35.7344"/>
<polygon fill="black" stroke="black" stroke-width="0.5" points="534.177,-37.4699 538.994,-35.2669 533.854,-33.9848 534.177,-37.4699"/>
</g>
</g>
</svg>
