<?xml version="1.0" encoding="UTF-8" standalone="no"?>
<!DOCTYPE svg PUBLIC "-//W3C//DTD SVG 1.1//EN"
 "http://www.w3.org/Graphics/SVG/1.1/DTD/svg11.dtd">
<!-- Generated by graphviz version 2.38.0 (20140413.2041)
 -->
<!-- Title: inheritance10c5a6a290 Pages: 1 -->
<svg width="576pt" height="26pt"
 viewBox="0.00 0.00 576.00 26.40" xmlns="http://www.w3.org/2000/svg" xmlns:xlink="http://www.w3.org/1999/xlink">
<g id="graph0" class="graph" transform="scale(0.977929 0.977929) rotate(0) translate(4 23)">
<title>inheritance10c5a6a290</title>
<polygon fill="white" stroke="none" points="-4,4 -4,-23 585,-23 585,4 -4,4"/>
<!-- Parser.FilesCodeDOM.ListConstructorExpression -->
<g id="node1" class="node"><title>Parser.FilesCodeDOM.ListConstructorExpression</title>
<g id="a_node1"><a xlink:href="../PyInfrastructure/Parser.FilesCodeDOM.html#Parser.FilesCodeDOM.ListConstructorExpression" xlink:title="Parser.FilesCodeDOM.ListConstructorExpression" target="_top">
<polygon fill="none" stroke="black" stroke-width="0.5" points="581,-19 349,-19 349,-0 581,-0 581,-19"/>
<text text-anchor="middle" x="465" y="-7" font-family="Vera Sans, DejaVu Sans, Liberation Sans, Arial, Helvetica, sans" font-size="10.00">Parser.FilesCodeDOM.ListConstructorExpression</text>
</a>
</g>
</g>
<!-- lib.CodeDOM.Expression -->
<g id="node2" class="node"><title>lib.CodeDOM.Expression</title>
<g id="a_node2"><a xlink:href="../lib.CodeDOM.html#lib.CodeDOM.Expression" xlink:title="lib.CodeDOM.Expression" target="_top">
<polygon fill="none" stroke="black" stroke-width="0.5" points="313,-19 187,-19 187,-0 313,-0 313,-19"/>
<text text-anchor="middle" x="250" y="-7" font-family="Vera Sans, DejaVu Sans, Liberation Sans, Arial, Helvetica, sans" font-size="10.00">lib.CodeDOM.Expression</text>
</a>
</g>
</g>
<!-- lib.CodeDOM.Expression&#45;&gt;Parser.FilesCodeDOM.ListConstructorExpression -->
<g id="edge1" class="edge"><title>lib.CodeDOM.Expression&#45;&gt;Parser.FilesCodeDOM.ListConstructorExpression</title>
<path fill="none" stroke="black" stroke-width="0.5" d="M313.181,-9.5C322.889,-9.5 333.196,-9.5 343.684,-9.5"/>
<polygon fill="black" stroke="black" stroke-width="0.5" points="343.845,-11.2501 348.845,-9.5 343.845,-7.7501 343.845,-11.2501"/>
</g>
<!-- lib.CodeDOM.CodeDOMObject -->
<g id="node3" class="node"><title>lib.CodeDOM.CodeDOMObject</title>
<g id="a_node3"><a xlink:href="../lib.CodeDOM.html#lib.CodeDOM.CodeDOMObject" xlink:title="lib.CodeDOM.CodeDOMObject" target="_top">
<polygon fill="none" stroke="black" stroke-width="0.5" points="151,-19 0,-19 0,-0 151,-0 151,-19"/>
<text text-anchor="middle" x="75.5" y="-7" font-family="Vera Sans, DejaVu Sans, Liberation Sans, Arial, Helvetica, sans" font-size="10.00">lib.CodeDOM.CodeDOMObject</text>
</a>
</g>
</g>
<!-- lib.CodeDOM.CodeDOMObject&#45;&gt;lib.CodeDOM.Expression -->
<g id="edge2" class="edge"><title>lib.CodeDOM.CodeDOMObject&#45;&gt;lib.CodeDOM.Expression</title>
<path fill="none" stroke="black" stroke-width="0.5" d="M151.158,-9.5C161.315,-9.5 171.691,-9.5 181.709,-9.5"/>
<polygon fill="black" stroke="black" stroke-width="0.5" points="181.911,-11.2501 186.911,-9.5 181.911,-7.7501 181.911,-11.2501"/>
</g>
</g>
</svg>
