<?xml version="1.0" encoding="UTF-8" standalone="no"?>
<!DOCTYPE svg PUBLIC "-//W3C//DTD SVG 1.1//EN"
 "http://www.w3.org/Graphics/SVG/1.1/DTD/svg11.dtd">
<!-- Generated by graphviz version 2.38.0 (20140413.2041)
 -->
<!-- Title: inheritance0dcc707ffb Pages: 1 -->
<svg width="576pt" height="62pt"
 viewBox="0.00 0.00 576.00 61.65" xmlns="http://www.w3.org/2000/svg" xmlns:xlink="http://www.w3.org/1999/xlink">
<g id="graph0" class="graph" transform="scale(0.963211 0.963211) rotate(0) translate(4 60)">
<title>inheritance0dcc707ffb</title>
<polygon fill="white" stroke="none" points="-4,4 -4,-60 594,-60 594,4 -4,4"/>
<!-- Base.Exceptions.ExceptionBase -->
<g id="node1" class="node"><title>Base.Exceptions.ExceptionBase</title>
<g id="a_node1"><a xlink:href="../Base.Exceptions.html#Base.Exceptions.ExceptionBase" xlink:title="Base exception derived from :py:exc:`Exception` for all" target="_top">
<polygon fill="none" stroke="black" stroke-width="0.5" points="160,-37 0,-37 0,-18 160,-18 160,-37"/>
<text text-anchor="middle" x="80" y="-25" font-family="Vera Sans, DejaVu Sans, Liberation Sans, Arial, Helvetica, sans" font-size="10.00">Base.Exceptions.ExceptionBase</text>
</a>
</g>
</g>
<!-- Base.Exceptions.SkipableException -->
<g id="node2" class="node"><title>Base.Exceptions.SkipableException</title>
<g id="a_node2"><a xlink:href="../Base.Exceptions.html#Base.Exceptions.SkipableException" xlink:title="Base class for all skipable exceptions." target="_top">
<polygon fill="none" stroke="black" stroke-width="0.5" points="371,-56 196,-56 196,-37 371,-37 371,-56"/>
<text text-anchor="middle" x="283.5" y="-44" font-family="Vera Sans, DejaVu Sans, Liberation Sans, Arial, Helvetica, sans" font-size="10.00">Base.Exceptions.SkipableException</text>
</a>
</g>
</g>
<!-- Base.Exceptions.ExceptionBase&#45;&gt;Base.Exceptions.SkipableException -->
<g id="edge1" class="edge"><title>Base.Exceptions.ExceptionBase&#45;&gt;Base.Exceptions.SkipableException</title>
<path fill="none" stroke="black" stroke-width="0.5" d="M160.06,-34.9548C170.103,-35.9018 180.449,-36.8773 190.671,-37.8412"/>
<polygon fill="black" stroke="black" stroke-width="0.5" points="190.535,-39.5861 195.678,-38.3133 190.864,-36.1015 190.535,-39.5861"/>
</g>
<!-- Simulator.SimulatorException -->
<g id="node3" class="node"><title>Simulator.SimulatorException</title>
<g id="a_node3"><a xlink:href="../PyInfrastructure/Simulator.html#Simulator.SimulatorException" xlink:title="Base class for all SimulatorException classes. It is raised while running" target="_top">
<polygon fill="none" stroke="black" stroke-width="0.5" points="356.5,-19 210.5,-19 210.5,-0 356.5,-0 356.5,-19"/>
<text text-anchor="middle" x="283.5" y="-7" font-family="Vera Sans, DejaVu Sans, Liberation Sans, Arial, Helvetica, sans" font-size="10.00">Simulator.SimulatorException</text>
</a>
</g>
</g>
<!-- Base.Exceptions.ExceptionBase&#45;&gt;Simulator.SimulatorException -->
<g id="edge2" class="edge"><title>Base.Exceptions.ExceptionBase&#45;&gt;Simulator.SimulatorException</title>
<path fill="none" stroke="black" stroke-width="0.5" d="M160.06,-20.4376C174.919,-19.1102 190.438,-17.7239 205.241,-16.4015"/>
<polygon fill="black" stroke="black" stroke-width="0.5" points="205.407,-18.1437 210.232,-15.9557 205.096,-14.6576 205.407,-18.1437"/>
</g>
<!-- Simulator.SkipableSimulatorException -->
<g id="node4" class="node"><title>Simulator.SkipableSimulatorException</title>
<g id="a_node4"><a xlink:href="../PyInfrastructure/Simulator.html#Simulator.SkipableSimulatorException" xlink:title="``SkipableSimulatorException`` is a :py:exc:`SimulatorException`, which" target="_top">
<polygon fill="none" stroke="black" stroke-width="0.5" points="590,-37 407,-37 407,-18 590,-18 590,-37"/>
<text text-anchor="middle" x="498.5" y="-25" font-family="Vera Sans, DejaVu Sans, Liberation Sans, Arial, Helvetica, sans" font-size="10.00">Simulator.SkipableSimulatorException</text>
</a>
</g>
</g>
<!-- Base.Exceptions.SkipableException&#45;&gt;Simulator.SkipableSimulatorException -->
<g id="edge4" class="edge"><title>Base.Exceptions.SkipableException&#45;&gt;Simulator.SkipableSimulatorException</title>
<path fill="none" stroke="black" stroke-width="0.5" d="M371.135,-38.772C381.231,-37.8714 391.574,-36.9488 401.783,-36.0381"/>
<polygon fill="black" stroke="black" stroke-width="0.5" points="401.958,-37.7796 406.783,-35.5922 401.647,-34.2934 401.958,-37.7796"/>
</g>
<!-- Simulator.SimulatorException&#45;&gt;Simulator.SkipableSimulatorException -->
<g id="edge3" class="edge"><title>Simulator.SimulatorException&#45;&gt;Simulator.SkipableSimulatorException</title>
<path fill="none" stroke="black" stroke-width="0.5" d="M356.612,-15.594C371.142,-16.8219 386.628,-18.1306 401.818,-19.4142"/>
<polygon fill="black" stroke="black" stroke-width="0.5" points="401.827,-21.1711 406.956,-19.8484 402.122,-17.6835 401.827,-21.1711"/>
</g>
</g>
</svg>
