<?xml version="1.0" encoding="UTF-8" standalone="no"?>
<!DOCTYPE svg PUBLIC "-//W3C//DTD SVG 1.1//EN"
 "http://www.w3.org/Graphics/SVG/1.1/DTD/svg11.dtd">
<!-- Generated by graphviz version 2.38.0 (20140413.2041)
 -->
<!-- Title: inheritance50af39682d Pages: 1 -->
<svg width="576pt" height="53pt"
 viewBox="0.00 0.00 576.00 53.27" xmlns="http://www.w3.org/2000/svg" xmlns:xlink="http://www.w3.org/1999/xlink">
<g id="graph0" class="graph" transform="scale(0.83237 0.83237) rotate(0) translate(4 60)">
<title>inheritance50af39682d</title>
<polygon fill="white" stroke="none" points="-4,4 -4,-60 688,-60 688,4 -4,4"/>
<!-- Base.Executable.Executable -->
<g id="node1" class="node"><title>Base.Executable.Executable</title>
<g id="a_node1"><a xlink:href="../Base.Executable.html#Base.Executable.Executable" xlink:title="Represent an executable." target="_top">
<polygon fill="none" stroke="black" stroke-width="0.5" points="294,-19 151,-19 151,-0 294,-0 294,-19"/>
<text text-anchor="middle" x="222.5" y="-7" font-family="Vera Sans, DejaVu Sans, Liberation Sans, Arial, Helvetica, sans" font-size="10.00">Base.Executable.Executable</text>
</a>
</g>
</g>
<!-- ToolChain.OutputFilteredExecutable -->
<g id="node3" class="node"><title>ToolChain.OutputFilteredExecutable</title>
<polygon fill="none" stroke="black" stroke-width="0.5" points="503,-19 330,-19 330,-0 503,-0 503,-19"/>
<text text-anchor="middle" x="416.5" y="-7" font-family="Vera Sans, DejaVu Sans, Liberation Sans, Arial, Helvetica, sans" font-size="10.00">ToolChain.OutputFilteredExecutable</text>
</g>
<!-- Base.Executable.Executable&#45;&gt;ToolChain.OutputFilteredExecutable -->
<g id="edge2" class="edge"><title>Base.Executable.Executable&#45;&gt;ToolChain.OutputFilteredExecutable</title>
<path fill="none" stroke="black" stroke-width="0.5" d="M294.176,-9.5C304.192,-9.5 314.604,-9.5 324.931,-9.5"/>
<polygon fill="black" stroke="black" stroke-width="0.5" points="324.993,-11.2501 329.993,-9.5 324.992,-7.7501 324.993,-11.2501"/>
</g>
<!-- Base.Logging.ILogable -->
<g id="node2" class="node"><title>Base.Logging.ILogable</title>
<g id="a_node2"><a xlink:href="../Base.Logging.html#Base.Logging.ILogable" xlink:title="A mixin class to provide local logging methods." target="_top">
<polygon fill="none" stroke="black" stroke-width="0.5" points="115,-19 0,-19 0,-0 115,-0 115,-19"/>
<text text-anchor="middle" x="57.5" y="-7" font-family="Vera Sans, DejaVu Sans, Liberation Sans, Arial, Helvetica, sans" font-size="10.00">Base.Logging.ILogable</text>
</a>
</g>
</g>
<!-- Base.Logging.ILogable&#45;&gt;Base.Executable.Executable -->
<g id="edge1" class="edge"><title>Base.Logging.ILogable&#45;&gt;Base.Executable.Executable</title>
<path fill="none" stroke="black" stroke-width="0.5" d="M115.052,-9.5C125.008,-9.5 135.515,-9.5 145.893,-9.5"/>
<polygon fill="black" stroke="black" stroke-width="0.5" points="145.974,-11.2501 150.974,-9.5 145.974,-7.7501 145.974,-11.2501"/>
</g>
<!-- ToolChain.Xilinx.Vivado.Synth -->
<g id="node5" class="node"><title>ToolChain.Xilinx.Vivado.Synth</title>
<g id="a_node5"><a xlink:href="../PyInfrastructure/ToolChain.Xilinx.Vivado.html#ToolChain.Xilinx.Vivado.Synth" xlink:title="ToolChain.Xilinx.Vivado.Synth" target="_top">
<polygon fill="none" stroke="black" stroke-width="0.5" points="684,-37 539,-37 539,-18 684,-18 684,-37"/>
<text text-anchor="middle" x="611.5" y="-25" font-family="Vera Sans, DejaVu Sans, Liberation Sans, Arial, Helvetica, sans" font-size="10.00">ToolChain.Xilinx.Vivado.Synth</text>
</a>
</g>
</g>
<!-- ToolChain.OutputFilteredExecutable&#45;&gt;ToolChain.Xilinx.Vivado.Synth -->
<g id="edge3" class="edge"><title>ToolChain.OutputFilteredExecutable&#45;&gt;ToolChain.Xilinx.Vivado.Synth</title>
<path fill="none" stroke="black" stroke-width="0.5" d="M503.277,-17.4999C513.393,-18.4434 523.668,-19.4017 533.651,-20.3327"/>
<polygon fill="black" stroke="black" stroke-width="0.5" points="533.701,-22.0949 538.842,-20.8169 534.026,-18.61 533.701,-22.0949"/>
</g>
<!-- ToolChain.ToolMixIn -->
<g id="node4" class="node"><title>ToolChain.ToolMixIn</title>
<g id="a_node4"><a xlink:href="../ToolChain.html#ToolChain.ToolMixIn" xlink:title="ToolChain.ToolMixIn" target="_top">
<polygon fill="none" stroke="black" stroke-width="0.5" points="468.5,-56 364.5,-56 364.5,-37 468.5,-37 468.5,-56"/>
<text text-anchor="middle" x="416.5" y="-44" font-family="Vera Sans, DejaVu Sans, Liberation Sans, Arial, Helvetica, sans" font-size="10.00">ToolChain.ToolMixIn</text>
</a>
</g>
</g>
<!-- ToolChain.ToolMixIn&#45;&gt;ToolChain.Xilinx.Vivado.Synth -->
<g id="edge4" class="edge"><title>ToolChain.ToolMixIn&#45;&gt;ToolChain.Xilinx.Vivado.Synth</title>
<path fill="none" stroke="black" stroke-width="0.5" d="M468.714,-41.4582C488.564,-39.5041 511.72,-37.2244 533.495,-35.0808"/>
<polygon fill="black" stroke="black" stroke-width="0.5" points="533.898,-36.7997 538.703,-34.5681 533.555,-33.3165 533.898,-36.7997"/>
</g>
</g>
</svg>
