<?xml version="1.0" encoding="UTF-8" standalone="no"?>
<!DOCTYPE svg PUBLIC "-//W3C//DTD SVG 1.1//EN"
 "http://www.w3.org/Graphics/SVG/1.1/DTD/svg11.dtd">
<!-- Generated by graphviz version 2.38.0 (20140413.2041)
 -->
<!-- Title: inheritance5fd1f7b3d3 Pages: 1 -->
<svg width="552pt" height="27pt"
 viewBox="0.00 0.00 552.00 27.00" xmlns="http://www.w3.org/2000/svg" xmlns:xlink="http://www.w3.org/1999/xlink">
<g id="graph0" class="graph" transform="scale(1 1) rotate(0) translate(4 23)">
<title>inheritance5fd1f7b3d3</title>
<polygon fill="white" stroke="none" points="-4,4 -4,-23 548,-23 548,4 -4,4"/>
<!-- DataBase.TestCase.ElementBase -->
<g id="node1" class="node"><title>DataBase.TestCase.ElementBase</title>
<g id="a_node1"><a xlink:href="../PyInfrastructure/DataBase.TestCase.html#DataBase.TestCase.ElementBase" xlink:title="DataBase.TestCase.ElementBase" target="_top">
<polygon fill="none" stroke="black" stroke-width="0.5" points="165,-19 0,-19 0,-0 165,-0 165,-19"/>
<text text-anchor="middle" x="82.5" y="-7" font-family="Vera Sans, DejaVu Sans, Liberation Sans, Arial, Helvetica, sans" font-size="10.00">DataBase.TestCase.ElementBase</text>
</a>
</g>
</g>
<!-- DataBase.TestCase.GroupBase -->
<g id="node2" class="node"><title>DataBase.TestCase.GroupBase</title>
<g id="a_node2"><a xlink:href="../PyInfrastructure/DataBase.TestCase.html#DataBase.TestCase.GroupBase" xlink:title="DataBase.TestCase.GroupBase" target="_top">
<polygon fill="none" stroke="black" stroke-width="0.5" points="356,-19 201,-19 201,-0 356,-0 356,-19"/>
<text text-anchor="middle" x="278.5" y="-7" font-family="Vera Sans, DejaVu Sans, Liberation Sans, Arial, Helvetica, sans" font-size="10.00">DataBase.TestCase.GroupBase</text>
</a>
</g>
</g>
<!-- DataBase.TestCase.ElementBase&#45;&gt;DataBase.TestCase.GroupBase -->
<g id="edge1" class="edge"><title>DataBase.TestCase.ElementBase&#45;&gt;DataBase.TestCase.GroupBase</title>
<path fill="none" stroke="black" stroke-width="0.5" d="M165.211,-9.5C175.264,-9.5 185.541,-9.5 195.597,-9.5"/>
<polygon fill="black" stroke="black" stroke-width="0.5" points="195.833,-11.2501 200.833,-9.5 195.833,-7.7501 195.833,-11.2501"/>
</g>
<!-- DataBase.TestCase.TestGroup -->
<g id="node3" class="node"><title>DataBase.TestCase.TestGroup</title>
<g id="a_node3"><a xlink:href="../PyInfrastructure/DataBase.TestCase.html#DataBase.TestCase.TestGroup" xlink:title="DataBase.TestCase.TestGroup" target="_top">
<polygon fill="none" stroke="black" stroke-width="0.5" points="544,-19 392,-19 392,-0 544,-0 544,-19"/>
<text text-anchor="middle" x="468" y="-7" font-family="Vera Sans, DejaVu Sans, Liberation Sans, Arial, Helvetica, sans" font-size="10.00">DataBase.TestCase.TestGroup</text>
</a>
</g>
</g>
<!-- DataBase.TestCase.GroupBase&#45;&gt;DataBase.TestCase.TestGroup -->
<g id="edge2" class="edge"><title>DataBase.TestCase.GroupBase&#45;&gt;DataBase.TestCase.TestGroup</title>
<path fill="none" stroke="black" stroke-width="0.5" d="M356.034,-9.5C366.215,-9.5 376.677,-9.5 386.917,-9.5"/>
<polygon fill="black" stroke="black" stroke-width="0.5" points="386.924,-11.2501 391.924,-9.5 386.924,-7.7501 386.924,-11.2501"/>
</g>
</g>
</svg>
