<?xml version="1.0" encoding="UTF-8" standalone="no"?>
<!DOCTYPE svg PUBLIC "-//W3C//DTD SVG 1.1//EN"
 "http://www.w3.org/Graphics/SVG/1.1/DTD/svg11.dtd">
<!-- Generated by graphviz version 2.38.0 (20140413.2041)
 -->
<!-- Title: inheritance95ae794f19 Pages: 1 -->
<svg width="417pt" height="27pt"
 viewBox="0.00 0.00 417.00 27.00" xmlns="http://www.w3.org/2000/svg" xmlns:xlink="http://www.w3.org/1999/xlink">
<g id="graph0" class="graph" transform="scale(1 1) rotate(0) translate(4 23)">
<title>inheritance95ae794f19</title>
<polygon fill="white" stroke="none" points="-4,4 -4,-23 413,-23 413,4 -4,4"/>
<!-- DataBase.Config.BaseEnum -->
<g id="node1" class="node"><title>DataBase.Config.BaseEnum</title>
<g id="a_node1"><a xlink:href="../PyInfrastructure/DataBase.Config.html#DataBase.Config.BaseEnum" xlink:title="An enumeration." target="_top">
<polygon fill="none" stroke="black" stroke-width="0.5" points="245,-19 105,-19 105,-0 245,-0 245,-19"/>
<text text-anchor="middle" x="175" y="-7" font-family="Vera Sans, DejaVu Sans, Liberation Sans, Arial, Helvetica, sans" font-size="10.00">DataBase.Config.BaseEnum</text>
</a>
</g>
</g>
<!-- DataBase.Config.Vendors -->
<g id="node3" class="node"><title>DataBase.Config.Vendors</title>
<g id="a_node3"><a xlink:href="../PyInfrastructure/DataBase.Config.html#DataBase.Config.Vendors" xlink:title="An enumeration." target="_top">
<polygon fill="none" stroke="black" stroke-width="0.5" points="409,-19 281,-19 281,-0 409,-0 409,-19"/>
<text text-anchor="middle" x="345" y="-7" font-family="Vera Sans, DejaVu Sans, Liberation Sans, Arial, Helvetica, sans" font-size="10.00">DataBase.Config.Vendors</text>
</a>
</g>
</g>
<!-- DataBase.Config.BaseEnum&#45;&gt;DataBase.Config.Vendors -->
<g id="edge2" class="edge"><title>DataBase.Config.BaseEnum&#45;&gt;DataBase.Config.Vendors</title>
<path fill="none" stroke="black" stroke-width="0.5" d="M245.302,-9.5C255.308,-9.5 265.601,-9.5 275.59,-9.5"/>
<polygon fill="black" stroke="black" stroke-width="0.5" points="275.782,-11.2501 280.782,-9.5 275.782,-7.7501 275.782,-11.2501"/>
</g>
<!-- enum.Enum -->
<g id="node2" class="node"><title>enum.Enum</title>
<g id="a_node2"><a xlink:title="Generic enumeration.">
<polygon fill="none" stroke="black" stroke-width="0.5" points="69,-19 0,-19 0,-0 69,-0 69,-19"/>
<text text-anchor="middle" x="34.5" y="-7" font-family="Vera Sans, DejaVu Sans, Liberation Sans, Arial, Helvetica, sans" font-size="10.00">enum.Enum</text>
</a>
</g>
</g>
<!-- enum.Enum&#45;&gt;DataBase.Config.BaseEnum -->
<g id="edge1" class="edge"><title>enum.Enum&#45;&gt;DataBase.Config.BaseEnum</title>
<path fill="none" stroke="black" stroke-width="0.5" d="M69.027,-9.5C78.3837,-9.5 88.9386,-9.5 99.6571,-9.5"/>
<polygon fill="black" stroke="black" stroke-width="0.5" points="99.9276,-11.2501 104.928,-9.5 99.9275,-7.75009 99.9276,-11.2501"/>
</g>
</g>
</svg>
