<?xml version="1.0" encoding="UTF-8" standalone="no"?>
<!DOCTYPE svg PUBLIC "-//W3C//DTD SVG 1.1//EN"
 "http://www.w3.org/Graphics/SVG/1.1/DTD/svg11.dtd">
<!-- Generated by graphviz version 2.38.0 (20140413.2041)
 -->
<!-- Title: inheritanceeaab50f300 Pages: 1 -->
<svg width="576pt" height="53pt"
 viewBox="0.00 0.00 576.00 53.27" xmlns="http://www.w3.org/2000/svg" xmlns:xlink="http://www.w3.org/1999/xlink">
<g id="graph0" class="graph" transform="scale(0.527473 0.527473) rotate(0) translate(4 97)">
<title>inheritanceeaab50f300</title>
<polygon fill="white" stroke="none" points="-4,4 -4,-97 1088,-97 1088,4 -4,4"/>
<!-- collections.abc.Container -->
<g id="node1" class="node"><title>collections.abc.Container</title>
<polygon fill="none" stroke="black" stroke-width="0.5" points="126,-93 0,-93 0,-74 126,-74 126,-93"/>
<text text-anchor="middle" x="63" y="-81" font-family="Vera Sans, DejaVu Sans, Liberation Sans, Arial, Helvetica, sans" font-size="10.00">collections.abc.Container</text>
</g>
<!-- collections.abc.Mapping -->
<g id="node3" class="node"><title>collections.abc.Mapping</title>
<polygon fill="none" stroke="black" stroke-width="0.5" points="284,-56 162,-56 162,-37 284,-37 284,-56"/>
<text text-anchor="middle" x="223" y="-44" font-family="Vera Sans, DejaVu Sans, Liberation Sans, Arial, Helvetica, sans" font-size="10.00">collections.abc.Mapping</text>
</g>
<!-- collections.abc.Container&#45;&gt;collections.abc.Mapping -->
<g id="edge3" class="edge"><title>collections.abc.Container&#45;&gt;collections.abc.Mapping</title>
<path fill="none" stroke="black" stroke-width="0.5" d="M104.689,-73.9716C126.535,-68.8557 153.539,-62.532 176.129,-57.2419"/>
<polygon fill="black" stroke="black" stroke-width="0.5" points="176.705,-58.9044 181.175,-56.0604 175.907,-55.4966 176.705,-58.9044"/>
</g>
<!-- collections.abc.Iterable -->
<g id="node2" class="node"><title>collections.abc.Iterable</title>
<polygon fill="none" stroke="black" stroke-width="0.5" points="121,-56 5,-56 5,-37 121,-37 121,-56"/>
<text text-anchor="middle" x="63" y="-44" font-family="Vera Sans, DejaVu Sans, Liberation Sans, Arial, Helvetica, sans" font-size="10.00">collections.abc.Iterable</text>
</g>
<!-- collections.abc.Iterable&#45;&gt;collections.abc.Mapping -->
<g id="edge2" class="edge"><title>collections.abc.Iterable&#45;&gt;collections.abc.Mapping</title>
<path fill="none" stroke="black" stroke-width="0.5" d="M121.042,-46.5C132.643,-46.5 144.931,-46.5 156.791,-46.5"/>
<polygon fill="black" stroke="black" stroke-width="0.5" points="156.844,-48.2501 161.844,-46.5 156.844,-44.7501 156.844,-48.2501"/>
</g>
<!-- collections.abc.MutableMapping -->
<g id="node5" class="node"><title>collections.abc.MutableMapping</title>
<polygon fill="none" stroke="black" stroke-width="0.5" points="476,-56 320,-56 320,-37 476,-37 476,-56"/>
<text text-anchor="middle" x="398" y="-44" font-family="Vera Sans, DejaVu Sans, Liberation Sans, Arial, Helvetica, sans" font-size="10.00">collections.abc.MutableMapping</text>
</g>
<!-- collections.abc.Mapping&#45;&gt;collections.abc.MutableMapping -->
<g id="edge4" class="edge"><title>collections.abc.Mapping&#45;&gt;collections.abc.MutableMapping</title>
<path fill="none" stroke="black" stroke-width="0.5" d="M284.021,-46.5C293.918,-46.5 304.326,-46.5 314.655,-46.5"/>
<polygon fill="black" stroke="black" stroke-width="0.5" points="314.716,-48.2501 319.716,-46.5 314.716,-44.7501 314.716,-48.2501"/>
</g>
<!-- collections.abc.Sized -->
<g id="node4" class="node"><title>collections.abc.Sized</title>
<polygon fill="none" stroke="black" stroke-width="0.5" points="118,-19 8,-19 8,-0 118,-0 118,-19"/>
<text text-anchor="middle" x="63" y="-7" font-family="Vera Sans, DejaVu Sans, Liberation Sans, Arial, Helvetica, sans" font-size="10.00">collections.abc.Sized</text>
</g>
<!-- collections.abc.Sized&#45;&gt;collections.abc.Mapping -->
<g id="edge1" class="edge"><title>collections.abc.Sized&#45;&gt;collections.abc.Mapping</title>
<path fill="none" stroke="black" stroke-width="0.5" d="M104.689,-19.0284C126.535,-24.1443 153.539,-30.468 176.129,-35.7581"/>
<polygon fill="black" stroke="black" stroke-width="0.5" points="175.907,-37.5034 181.175,-36.9396 176.705,-34.0956 175.907,-37.5034"/>
</g>
<!-- configparser.RawConfigParser -->
<g id="node7" class="node"><title>configparser.RawConfigParser</title>
<g id="a_node7"><a xlink:title="ConfigParser that does not do interpolation.">
<polygon fill="none" stroke="black" stroke-width="0.5" points="658,-56 512,-56 512,-37 658,-37 658,-56"/>
<text text-anchor="middle" x="585" y="-44" font-family="Vera Sans, DejaVu Sans, Liberation Sans, Arial, Helvetica, sans" font-size="10.00">configparser.RawConfigParser</text>
</a>
</g>
</g>
<!-- collections.abc.MutableMapping&#45;&gt;configparser.RawConfigParser -->
<g id="edge6" class="edge"><title>collections.abc.MutableMapping&#45;&gt;configparser.RawConfigParser</title>
<path fill="none" stroke="black" stroke-width="0.5" d="M476.117,-46.5C486.164,-46.5 496.46,-46.5 506.513,-46.5"/>
<polygon fill="black" stroke="black" stroke-width="0.5" points="506.745,-48.2501 511.745,-46.5 506.745,-44.7501 506.745,-48.2501"/>
</g>
<!-- configparser.ConfigParser -->
<g id="node6" class="node"><title>configparser.ConfigParser</title>
<g id="a_node6"><a xlink:title="ConfigParser implementing interpolation.">
<polygon fill="none" stroke="black" stroke-width="0.5" points="822,-56 694,-56 694,-37 822,-37 822,-56"/>
<text text-anchor="middle" x="758" y="-44" font-family="Vera Sans, DejaVu Sans, Liberation Sans, Arial, Helvetica, sans" font-size="10.00">configparser.ConfigParser</text>
</a>
</g>
</g>
<!-- lib.ExtendedConfigParser.ExtendedConfigParser -->
<g id="node8" class="node"><title>lib.ExtendedConfigParser.ExtendedConfigParser</title>
<g id="a_node8"><a xlink:href="../PyInfrastructure/lib.ExtendedConfigParser.html#lib.ExtendedConfigParser.ExtendedConfigParser" xlink:title="lib.ExtendedConfigParser.ExtendedConfigParser" target="_top">
<polygon fill="none" stroke="black" stroke-width="0.5" points="1084,-56 858,-56 858,-37 1084,-37 1084,-56"/>
<text text-anchor="middle" x="971" y="-44" font-family="Vera Sans, DejaVu Sans, Liberation Sans, Arial, Helvetica, sans" font-size="10.00">lib.ExtendedConfigParser.ExtendedConfigParser</text>
</a>
</g>
</g>
<!-- configparser.ConfigParser&#45;&gt;lib.ExtendedConfigParser.ExtendedConfigParser -->
<g id="edge7" class="edge"><title>configparser.ConfigParser&#45;&gt;lib.ExtendedConfigParser.ExtendedConfigParser</title>
<path fill="none" stroke="black" stroke-width="0.5" d="M822.021,-46.5C831.831,-46.5 842.229,-46.5 852.785,-46.5"/>
<polygon fill="black" stroke="black" stroke-width="0.5" points="852.978,-48.2501 857.978,-46.5 852.978,-44.7501 852.978,-48.2501"/>
</g>
<!-- configparser.RawConfigParser&#45;&gt;configparser.ConfigParser -->
<g id="edge5" class="edge"><title>configparser.RawConfigParser&#45;&gt;configparser.ConfigParser</title>
<path fill="none" stroke="black" stroke-width="0.5" d="M658.024,-46.5C668.128,-46.5 678.49,-46.5 688.526,-46.5"/>
<polygon fill="black" stroke="black" stroke-width="0.5" points="688.742,-48.2501 693.742,-46.5 688.742,-44.7501 688.742,-48.2501"/>
</g>
</g>
</svg>
