<?xml version="1.0" encoding="UTF-8" standalone="no"?>
<!DOCTYPE svg PUBLIC "-//W3C//DTD SVG 1.1//EN"
 "http://www.w3.org/Graphics/SVG/1.1/DTD/svg11.dtd">
<!-- Generated by graphviz version 2.38.0 (20140413.2041)
 -->
<!-- Title: inheritance965bb3e037 Pages: 1 -->
<svg width="576pt" height="62pt"
 viewBox="0.00 0.00 576.00 62.27" xmlns="http://www.w3.org/2000/svg" xmlns:xlink="http://www.w3.org/1999/xlink">
<g id="graph0" class="graph" transform="scale(0.972973 0.972973) rotate(0) translate(4 60)">
<title>inheritance965bb3e037</title>
<polygon fill="white" stroke="none" points="-4,4 -4,-60 588,-60 588,4 -4,4"/>
<!-- Base.Exceptions.ExceptionBase -->
<g id="node1" class="node"><title>Base.Exceptions.ExceptionBase</title>
<g id="a_node1"><a xlink:href="../Base.Exceptions.html#Base.Exceptions.ExceptionBase" xlink:title="Base exception derived from :py:exc:`Exception` for all" target="_top">
<polygon fill="none" stroke="black" stroke-width="0.5" points="160,-37 0,-37 0,-18 160,-18 160,-37"/>
<text text-anchor="middle" x="80" y="-25" font-family="Vera Sans, DejaVu Sans, Liberation Sans, Arial, Helvetica, sans" font-size="10.00">Base.Exceptions.ExceptionBase</text>
</a>
</g>
</g>
<!-- Base.Exceptions.SkipableException -->
<g id="node2" class="node"><title>Base.Exceptions.SkipableException</title>
<g id="a_node2"><a xlink:href="../Base.Exceptions.html#Base.Exceptions.SkipableException" xlink:title="Base class for all skipable exceptions." target="_top">
<polygon fill="none" stroke="black" stroke-width="0.5" points="371,-56 196,-56 196,-37 371,-37 371,-56"/>
<text text-anchor="middle" x="283.5" y="-44" font-family="Vera Sans, DejaVu Sans, Liberation Sans, Arial, Helvetica, sans" font-size="10.00">Base.Exceptions.SkipableException</text>
</a>
</g>
</g>
<!-- Base.Exceptions.ExceptionBase&#45;&gt;Base.Exceptions.SkipableException -->
<g id="edge1" class="edge"><title>Base.Exceptions.ExceptionBase&#45;&gt;Base.Exceptions.SkipableException</title>
<path fill="none" stroke="black" stroke-width="0.5" d="M160.06,-34.9548C170.103,-35.9018 180.449,-36.8773 190.671,-37.8412"/>
<polygon fill="black" stroke="black" stroke-width="0.5" points="190.535,-39.5861 195.678,-38.3133 190.864,-36.1015 190.535,-39.5861"/>
</g>
<!-- Compiler.CompilerException -->
<g id="node3" class="node"><title>Compiler.CompilerException</title>
<g id="a_node3"><a xlink:href="../PyInfrastructure/Compiler.html#Compiler.CompilerException" xlink:title="Base class for all CompilerException classes. It is raised while running" target="_top">
<polygon fill="none" stroke="black" stroke-width="0.5" points="353.5,-19 213.5,-19 213.5,-0 353.5,-0 353.5,-19"/>
<text text-anchor="middle" x="283.5" y="-7" font-family="Vera Sans, DejaVu Sans, Liberation Sans, Arial, Helvetica, sans" font-size="10.00">Compiler.CompilerException</text>
</a>
</g>
</g>
<!-- Base.Exceptions.ExceptionBase&#45;&gt;Compiler.CompilerException -->
<g id="edge2" class="edge"><title>Base.Exceptions.ExceptionBase&#45;&gt;Compiler.CompilerException</title>
<path fill="none" stroke="black" stroke-width="0.5" d="M160.06,-20.4376C175.909,-19.0218 192.51,-17.5388 208.192,-16.1379"/>
<polygon fill="black" stroke="black" stroke-width="0.5" points="208.648,-17.8543 213.472,-15.6662 208.336,-14.3682 208.648,-17.8543"/>
</g>
<!-- Compiler.SkipableCompilerException -->
<g id="node4" class="node"><title>Compiler.SkipableCompilerException</title>
<g id="a_node4"><a xlink:href="../PyInfrastructure/Compiler.html#Compiler.SkipableCompilerException" xlink:title="``SkipableCompilerException`` is a :py:exc:`CompilerException`, which" target="_top">
<polygon fill="none" stroke="black" stroke-width="0.5" points="584,-37 407,-37 407,-18 584,-18 584,-37"/>
<text text-anchor="middle" x="495.5" y="-25" font-family="Vera Sans, DejaVu Sans, Liberation Sans, Arial, Helvetica, sans" font-size="10.00">Compiler.SkipableCompilerException</text>
</a>
</g>
</g>
<!-- Base.Exceptions.SkipableException&#45;&gt;Compiler.SkipableCompilerException -->
<g id="edge4" class="edge"><title>Base.Exceptions.SkipableException&#45;&gt;Compiler.SkipableCompilerException</title>
<path fill="none" stroke="black" stroke-width="0.5" d="M371.127,-38.6623C381.225,-37.7487 391.557,-36.8139 401.733,-35.8932"/>
<polygon fill="black" stroke="black" stroke-width="0.5" points="401.893,-37.636 406.715,-35.4425 401.577,-34.1502 401.893,-37.636"/>
</g>
<!-- Compiler.CompilerException&#45;&gt;Compiler.SkipableCompilerException -->
<g id="edge3" class="edge"><title>Compiler.CompilerException&#45;&gt;Compiler.SkipableCompilerException</title>
<path fill="none" stroke="black" stroke-width="0.5" d="M353.553,-15.4188C368.937,-16.7374 385.491,-18.1564 401.657,-19.542"/>
<polygon fill="black" stroke="black" stroke-width="0.5" points="401.528,-21.2873 406.659,-19.9708 401.827,-17.8001 401.528,-21.2873"/>
</g>
</g>
</svg>
