<?xml version="1.0" encoding="UTF-8" standalone="no"?>
<!DOCTYPE svg PUBLIC "-//W3C//DTD SVG 1.1//EN"
 "http://www.w3.org/Graphics/SVG/1.1/DTD/svg11.dtd">
<!-- Generated by graphviz version 2.38.0 (20140413.2041)
 -->
<!-- Title: inheritancee963427fc1 Pages: 1 -->
<svg width="566pt" height="64pt"
 viewBox="0.00 0.00 566.00 64.00" xmlns="http://www.w3.org/2000/svg" xmlns:xlink="http://www.w3.org/1999/xlink">
<g id="graph0" class="graph" transform="scale(1 1) rotate(0) translate(4 60)">
<title>inheritancee963427fc1</title>
<polygon fill="white" stroke="none" points="-4,4 -4,-60 562,-60 562,4 -4,4"/>
<!-- Base.Logging.ILogable -->
<g id="node1" class="node"><title>Base.Logging.ILogable</title>
<g id="a_node1"><a xlink:href="../Base.Logging.html#Base.Logging.ILogable" xlink:title="A mixin class to provide local logging methods." target="_top">
<polygon fill="none" stroke="black" stroke-width="0.5" points="375,-56 260,-56 260,-37 375,-37 375,-56"/>
<text text-anchor="middle" x="317.5" y="-44" font-family="Vera Sans, DejaVu Sans, Liberation Sans, Arial, Helvetica, sans" font-size="10.00">Base.Logging.ILogable</text>
</a>
</g>
</g>
<!-- PoC.PileOfCores -->
<g id="node2" class="node"><title>PoC.PileOfCores</title>
<polygon fill="none" stroke="black" stroke-width="0.5" points="558,-37 468,-37 468,-18 558,-18 558,-37"/>
<text text-anchor="middle" x="513" y="-25" font-family="Vera Sans, DejaVu Sans, Liberation Sans, Arial, Helvetica, sans" font-size="10.00">PoC.PileOfCores</text>
</g>
<!-- Base.Logging.ILogable&#45;&gt;PoC.PileOfCores -->
<g id="edge1" class="edge"><title>Base.Logging.ILogable&#45;&gt;PoC.PileOfCores</title>
<path fill="none" stroke="black" stroke-width="0.5" d="M375.249,-40.9278C402.954,-38.2074 435.97,-34.9655 462.62,-32.3487"/>
<polygon fill="black" stroke="black" stroke-width="0.5" points="463.057,-34.0643 467.862,-31.834 462.714,-30.5811 463.057,-34.0643"/>
</g>
<!-- lib.pyAttribute.ArgParseAttributes.ArgParseMixin -->
<g id="node3" class="node"><title>lib.pyAttribute.ArgParseAttributes.ArgParseMixin</title>
<g id="a_node3"><a xlink:href="../lib.pyAttribute.ArgParseAttributes.html#lib.pyAttribute.ArgParseAttributes.ArgParseMixin" xlink:title="lib.pyAttribute.ArgParseAttributes.ArgParseMixin" target="_top">
<polygon fill="none" stroke="black" stroke-width="0.5" points="432,-19 203,-19 203,-0 432,-0 432,-19"/>
<text text-anchor="middle" x="317.5" y="-7" font-family="Vera Sans, DejaVu Sans, Liberation Sans, Arial, Helvetica, sans" font-size="10.00">lib.pyAttribute.ArgParseAttributes.ArgParseMixin</text>
</a>
</g>
</g>
<!-- lib.pyAttribute.ArgParseAttributes.ArgParseMixin&#45;&gt;PoC.PileOfCores -->
<g id="edge2" class="edge"><title>lib.pyAttribute.ArgParseAttributes.ArgParseMixin&#45;&gt;PoC.PileOfCores</title>
<path fill="none" stroke="black" stroke-width="0.5" d="M420.633,-19.0007C435.23,-20.3586 449.664,-21.7013 462.598,-22.9045"/>
<polygon fill="black" stroke="black" stroke-width="0.5" points="462.526,-24.6553 467.667,-23.376 462.851,-21.1703 462.526,-24.6553"/>
</g>
<!-- lib.pyAttribute.AttributeHelperMixin -->
<g id="node4" class="node"><title>lib.pyAttribute.AttributeHelperMixin</title>
<g id="a_node4"><a xlink:href="../lib.pyAttribute.html#lib.pyAttribute.AttributeHelperMixin" xlink:title="lib.pyAttribute.AttributeHelperMixin" target="_top">
<polygon fill="none" stroke="black" stroke-width="0.5" points="167,-19 0,-19 0,-0 167,-0 167,-19"/>
<text text-anchor="middle" x="83.5" y="-7" font-family="Vera Sans, DejaVu Sans, Liberation Sans, Arial, Helvetica, sans" font-size="10.00">lib.pyAttribute.AttributeHelperMixin</text>
</a>
</g>
</g>
<!-- lib.pyAttribute.AttributeHelperMixin&#45;&gt;lib.pyAttribute.ArgParseAttributes.ArgParseMixin -->
<g id="edge3" class="edge"><title>lib.pyAttribute.AttributeHelperMixin&#45;&gt;lib.pyAttribute.ArgParseAttributes.ArgParseMixin</title>
<path fill="none" stroke="black" stroke-width="0.5" d="M167.275,-9.5C177.228,-9.5 187.537,-9.5 197.874,-9.5"/>
<polygon fill="black" stroke="black" stroke-width="0.5" points="197.95,-11.2501 202.95,-9.5 197.95,-7.7501 197.95,-11.2501"/>
</g>
</g>
</svg>
